<svg width="344" height="259" viewBox="0 0 344 259" fill="none" xmlns="http://www.w3.org/2000/svg">
<rect x="6.47046" y="172.009" width="336.517" height="64.5587" rx="32.2794" transform="rotate(-25.1941 6.47046 172.009)" fill="#3D348A"/>
<path d="M78.5771 194.694L66.8715 200.233C65.606 200.831 64.3861 200.358 63.8087 199.137L50.8061 171.658C50.2287 170.438 50.6359 169.194 51.9014 168.596L63.607 163.057L67.8842 172.096L63.1387 174.341L61.0001 169.822L56.7065 171.853L67.3994 194.451L71.693 192.42L68.9128 186.544L73.6584 184.299L78.5771 194.694ZM67.3434 166.82L65.2048 162.301L78.9894 155.778L81.128 160.298L76.6085 162.436L89.44 189.554L84.6944 191.799L71.8629 164.682L67.3434 166.82ZM80.8061 154.918L94.8167 148.289L109.787 179.926L105.041 182.171L100.123 171.776L95.603 173.915L100.522 184.31L95.7762 186.555L80.8061 154.918ZM97.984 167.257L92.2098 155.054L87.6902 157.192L93.4644 169.395L97.984 167.257ZM104.418 149.277L110.192 161.48L114.712 159.341L108.937 147.139L104.418 149.277ZM119.517 162.599L112.331 166L117.249 176.395L112.504 178.64L97.5338 147.003L109.465 141.357C110.731 140.758 111.951 141.232 112.528 142.453L120.612 159.537C121.189 160.757 120.782 162 119.517 162.599ZM115.275 144.14L113.137 139.62L126.922 133.097L129.06 137.617L124.541 139.756L137.372 166.873L132.627 169.118L119.795 142.001L115.275 144.14ZM143.653 125.18L153.471 159.255L147.053 162.292L144.914 157.773L147.355 156.618L145.524 150.293L142.134 151.897L127.608 132.772L132.444 130.484L143.882 145.538L144.108 145.431L138.952 127.405L143.653 125.18ZM160.215 156.064L145.245 124.427L156.996 118.867L159.135 123.386L152.129 126.701L155.765 134.384L162.544 131.176L164.683 135.696L157.903 138.904L162.822 149.299L169.828 145.984L171.966 150.504L160.215 156.064ZM177.818 131.14L173.15 111.223L178.935 108.485L193.905 140.122L189.16 142.368L182.744 128.809L179.235 119.406L179.009 119.513L183.409 137.345L178.98 139.441L167.891 124.774L167.665 124.881L172.801 133.514L179.217 147.073L174.471 149.318L159.501 117.681L165.286 114.944L177.682 131.204L177.818 131.14ZM215.109 130.089L206.387 134.216C205.121 134.815 203.901 134.341 203.324 133.121L199.389 124.805L204.134 122.56L206.914 128.435L210.304 126.831L205 115.623L200.255 117.868L198.266 113.665L199.159 104.447L191.702 107.976L189.563 103.456L201.992 97.5751L203.917 101.643L203.043 111.017L205.528 109.841C206.794 109.242 208.014 109.716 208.591 110.937L216.205 127.026C216.782 128.246 216.375 129.49 215.109 130.089ZM206.604 100.924L204.466 96.4048L211.245 93.1969L226.215 124.834L221.469 127.079L208.638 99.962L206.604 100.924ZM240.183 101.63L235.515 81.7127L241.3 78.9753L256.27 110.612L251.525 112.858L245.109 99.2991L241.6 89.8964L241.374 90.0033L245.774 107.835L241.344 109.931L230.256 95.2642L230.03 95.3712L235.166 104.004L241.582 117.563L236.836 119.808L221.866 88.1712L227.651 85.4338L240.047 101.694L240.183 101.63ZM244.022 77.6871L258.033 71.0575L273.003 102.694L268.258 104.94L263.339 94.545L258.819 96.6836L263.738 107.079L258.992 109.324L244.022 77.6871ZM261.2 90.0254L255.426 77.8226L250.906 79.9612L256.681 92.164L261.2 90.0254ZM279.833 99.4627L274.816 101.837L272.414 84.7192L270.968 85.4036C269.702 86.0024 268.482 85.5286 267.905 84.3083L261.96 71.7439C261.382 70.5236 261.79 69.28 263.055 68.6812L274.761 63.1422L289.731 94.7792L284.985 97.0247L277.928 82.1101L277.476 82.324L279.833 99.4627ZM275.789 77.5906L272.154 69.9073L267.86 71.939L271.496 79.6222L275.789 77.5906ZM292.559 83.2076L289.847 84.4908L283.704 73.8456L277.93 61.6427L282.449 59.5041L288.223 71.707L292.559 83.2076ZM292.9 93.2797L290.761 88.7601L295.281 86.6215L297.419 91.1411L292.9 93.2797Z" fill="white"/>
</svg>
