<svg width="557" height="347" viewBox="0 0 557 347" fill="none" xmlns="http://www.w3.org/2000/svg">
<path d="M30.3834 0.726227H44.8245V97H30.3834V51.6138H14.567V97H0.125977V0.726227H14.567V37.8604H30.3834V0.726227Z" fill="#EB3333"/>
<path d="M67.4854 83.2466H81.9264V14.4796H67.4854V83.2466ZM90.0409 97H59.3709C55.5199 97 53.0443 94.3868 53.0443 90.6734V7.05279C53.0443 3.33937 55.5199 0.726227 59.3709 0.726227H90.0409C93.8919 0.726227 96.3675 3.33937 96.3675 7.05279V90.6734C96.3675 94.3868 93.8919 97 90.0409 97Z" fill="#EB3333"/>
<path d="M103.932 59.0406V0.726227H118.373V51.6138H132.126V0.726227H146.567V97H132.126V65.3672H110.258C106.407 65.3672 103.932 62.754 103.932 59.0406Z" fill="#EB3333"/>
<path d="M169.293 50.2384V83.2466H182.358V50.2384H169.293ZM190.473 97H154.852V0.726227H169.293V36.4851H190.473C194.324 36.4851 196.799 39.0982 196.799 42.8116V90.6734C196.799 94.3868 194.324 97 190.473 97Z" fill="#EB3333"/>
<path d="M29.8333 180.74L41.6612 125.726H59.2656V222H44.8245V180.74L47.1626 153.233H46.4749L36.4349 202.745H22.9566L12.6416 153.233H11.9539L14.567 180.74V222H0.125977V125.726H17.7303L29.4207 180.74H29.8333Z" fill="white"/>
<path d="M81.9909 208.247H96.432V139.48H81.9909V208.247ZM104.546 222H73.8764C70.0255 222 67.5498 219.387 67.5498 215.673V132.053C67.5498 128.339 70.0255 125.726 73.8764 125.726H104.546C108.397 125.726 110.873 128.339 110.873 132.053V215.673C110.873 219.387 108.397 222 104.546 222Z" fill="white"/>
<path d="M161.073 222H125.452C121.601 222 119.125 219.387 119.125 215.673V132.053C119.125 128.339 121.601 125.726 125.452 125.726H161.073V153.233H146.632V139.48H133.566V208.247H146.632V190.367H161.073V222Z" fill="white"/>
<path d="M199.906 169.737L214.76 222H199.493L186.84 176.614H183.127V222H168.686V125.726H183.127V162.86H187.253L199.493 125.726H214.76L199.906 169.737Z" fill="white"/>
<path d="M234.03 208.247H248.471V139.48H234.03V208.247ZM256.586 222H225.916C222.065 222 219.589 219.387 219.589 215.673V132.053C219.589 128.339 222.065 125.726 225.916 125.726H256.586C260.437 125.726 262.913 128.339 262.913 132.053V215.673C262.913 219.387 260.437 222 256.586 222Z" fill="white"/>
<path d="M298.671 162.86V139.48H285.606V162.86H298.671ZM298.671 176.614H285.606V208.247H298.671V176.614ZM313.112 132.053V159.009C313.112 164.511 310.224 168.224 305.961 169.737C310.224 171.25 313.112 174.826 313.112 180.465V215.673C313.112 219.387 310.637 222 306.786 222H271.165V125.726H306.786C310.637 125.726 313.112 128.339 313.112 132.053Z" fill="white"/>
<path d="M363.345 222H327.723C323.872 222 321.397 219.387 321.397 215.673V132.053C321.397 128.339 323.872 125.726 327.723 125.726H363.345V153.233H348.903V139.48H335.838V208.247H348.903V190.367H363.345V222Z" fill="white"/>
<path d="M402.177 169.737L417.031 222H401.765L389.112 176.614H385.398V222H370.957V125.726H385.398V162.86H389.524L401.765 125.726H417.031L402.177 169.737Z" fill="white"/>
<path d="M436.302 208.247H450.743V139.48H436.302V208.247ZM458.858 222H428.187C424.337 222 421.861 219.387 421.861 215.673V132.053C421.861 128.339 424.337 125.726 428.187 125.726H458.858C462.708 125.726 465.184 128.339 465.184 132.053V215.673C465.184 219.387 462.708 222 458.858 222Z" fill="white"/>
<path d="M473.436 125.726H507.82V139.48H487.877V222H473.436V125.726Z" fill="white"/>
<path d="M527.767 208.247H542.208V139.48H527.767V208.247ZM550.323 222H519.653C515.802 222 513.326 219.387 513.326 215.673V132.053C513.326 128.339 515.802 125.726 519.653 125.726H550.323C554.174 125.726 556.65 128.339 556.65 132.053V215.673C556.65 219.387 554.174 222 550.323 222Z" fill="white"/>
<path d="M42.0738 347H6.45254C2.60159 347 0.125977 344.387 0.125977 340.673V257.053C0.125977 253.339 2.60159 250.726 6.45254 250.726H42.0738V278.233H27.6328V264.48H14.567V333.247H27.6328V315.367H42.0738V347Z" fill="#EB3333"/>
<path d="M49.6865 250.726H93.6974V347H79.2563V264.48H64.1276V347H49.6865V250.726Z" fill="#EB3333"/>
<path d="M116.374 333.247H130.815V264.48H116.374V333.247ZM138.93 347H108.26C104.409 347 101.933 344.387 101.933 340.673V257.053C101.933 253.339 104.409 250.726 108.26 250.726H138.93C142.781 250.726 145.257 253.339 145.257 257.053V340.673C145.257 344.387 142.781 347 138.93 347Z" fill="#EB3333"/>
<path d="M167.95 264.48V301.614H181.703V264.48H167.95ZM189.818 315.367H167.95V347H153.509V250.726H189.818C193.668 250.726 196.144 253.339 196.144 257.053V309.041C196.144 312.754 193.668 315.367 189.818 315.367Z" fill="#EB3333"/>
<path d="M200.99 264.48V250.726H242.938V264.48H229.184V347H214.743V264.48H200.99Z" fill="#EB3333"/>
<path d="M248.466 250.726H291.102V347H276.661V315.367H262.907V347H248.466V250.726ZM276.661 301.614V264.48H262.907V301.614H276.661Z" fill="#EB3333"/>
</svg>
