<svg width="561" height="347" viewBox="0 0 561 347" fill="none" xmlns="http://www.w3.org/2000/svg">
<path d="M20.7677 83.2466H31.6329V14.4796H25.4439L20.7677 83.2466ZM11.828 0.726227H46.0739V83.2466H50.8876V109.653H36.4466V97H15.1288V109.653H0.687744V83.2466H6.1891L11.828 0.726227Z" fill="#EB3333"/>
<path d="M56.3729 97V0.726227H92.1317V14.4796H70.8139V37.8604H91.444V51.6138H70.8139V83.2466H92.1317V97H56.3729Z" fill="#EB3333"/>
<path d="M130.013 0.726227H144.454V97H130.013V51.6138H114.196V97H99.7551V0.726227H114.196V37.8604H130.013V0.726227Z" fill="#EB3333"/>
<path d="M167.115 50.2384V83.2466H180.18V50.2384H167.115ZM188.295 97H152.673V0.726227H167.115V36.4851H188.295C192.146 36.4851 194.621 39.0982 194.621 42.8116V90.6734C194.621 94.3868 192.146 97 188.295 97Z" fill="#EB3333"/>
<path d="M33.8334 180.74L45.6613 125.726H63.2657V222H48.8246V180.74L51.1627 153.233H50.475L40.4351 202.745H26.9567L16.6417 153.233H15.954L18.5672 180.74V222H4.12609V125.726H21.7304L33.4208 180.74H33.8334Z" fill="#3B3393"/>
<path d="M85.991 208.247H100.432V139.48H85.991V208.247ZM108.547 222H77.8765C74.0256 222 71.55 219.387 71.55 215.673V132.053C71.55 128.339 74.0256 125.726 77.8765 125.726H108.547C112.398 125.726 114.873 128.339 114.873 132.053V215.673C114.873 219.387 112.398 222 108.547 222Z" fill="#3B3393"/>
<path d="M165.073 222H129.452C125.601 222 123.125 219.387 123.125 215.673V132.053C123.125 128.339 125.601 125.726 129.452 125.726H165.073V153.233H150.632V139.48H137.566V208.247H150.632V190.367H165.073V222Z" fill="#3B3393"/>
<path d="M203.906 169.737L218.76 222H203.493L190.84 176.614H187.127V222H172.686V125.726H187.127V162.86H191.253L203.493 125.726H218.76L203.906 169.737Z" fill="#3B3393"/>
<path d="M238.03 208.247H252.472V139.48H238.03V208.247ZM260.586 222H229.916C226.065 222 223.589 219.387 223.589 215.673V132.053C223.589 128.339 226.065 125.726 229.916 125.726H260.586C264.437 125.726 266.913 128.339 266.913 132.053V215.673C266.913 219.387 264.437 222 260.586 222Z" fill="#3B3393"/>
<path d="M302.671 162.86V139.48H289.606V162.86H302.671ZM302.671 176.614H289.606V208.247H302.671V176.614ZM317.113 132.053V159.009C317.113 164.511 314.224 168.224 309.961 169.737C314.224 171.25 317.113 174.826 317.113 180.465V215.673C317.113 219.387 314.637 222 310.786 222H275.165V125.726H310.786C314.637 125.726 317.113 128.339 317.113 132.053Z" fill="#3B3393"/>
<path d="M367.345 222H331.723C327.872 222 325.397 219.387 325.397 215.673V132.053C325.397 128.339 327.872 125.726 331.723 125.726H367.345V153.233H352.904V139.48H339.838V208.247H352.904V190.367H367.345V222Z" fill="#3B3393"/>
<path d="M406.178 169.737L421.031 222H405.765L393.112 176.614H389.398V222H374.957V125.726H389.398V162.86H393.524L405.765 125.726H421.031L406.178 169.737Z" fill="#3B3393"/>
<path d="M440.302 208.247H454.743V139.48H440.302V208.247ZM462.858 222H432.188C428.337 222 425.861 219.387 425.861 215.673V132.053C425.861 128.339 428.337 125.726 432.188 125.726H462.858C466.709 125.726 469.184 128.339 469.184 132.053V215.673C469.184 219.387 466.709 222 462.858 222Z" fill="#3B3393"/>
<path d="M477.436 125.726H511.82V139.48H491.877V222H477.436V125.726Z" fill="#3B3393"/>
<path d="M531.768 208.247H546.209V139.48H531.768V208.247ZM554.323 222H523.653C519.802 222 517.326 219.387 517.326 215.673V132.053C517.326 128.339 519.802 125.726 523.653 125.726H554.323C558.174 125.726 560.65 128.339 560.65 132.053V215.673C560.65 219.387 558.174 222 554.323 222Z" fill="#3B3393"/>
<path d="M46.0739 347H10.4527C6.6017 347 4.12609 344.387 4.12609 340.673V257.053C4.12609 253.339 6.6017 250.726 10.4527 250.726H46.0739V278.233H31.6329V264.48H18.5672V333.247H31.6329V315.367H46.0739V347Z" fill="#EB3333"/>
<path d="M53.6867 250.726H97.6975V347H83.2565V264.48H68.1277V347H53.6867V250.726Z" fill="#EB3333"/>
<path d="M120.374 333.247H134.816V264.48H120.374V333.247ZM142.93 347H112.26C108.409 347 105.933 344.387 105.933 340.673V257.053C105.933 253.339 108.409 250.726 112.26 250.726H142.93C146.781 250.726 149.257 253.339 149.257 257.053V340.673C149.257 344.387 146.781 347 142.93 347Z" fill="#EB3333"/>
<path d="M171.95 264.48V301.614H185.703V264.48H171.95ZM193.818 315.367H171.95V347H157.509V250.726H193.818C197.669 250.726 200.144 253.339 200.144 257.053V309.041C200.144 312.754 197.669 315.367 193.818 315.367Z" fill="#EB3333"/>
<path d="M204.99 264.48V250.726H246.938V264.48H233.185V347H218.743V264.48H204.99Z" fill="#EB3333"/>
<path d="M252.466 250.726H295.102V347H280.661V315.367H266.907V347H252.466V250.726ZM280.661 301.614V264.48H266.907V301.614H280.661Z" fill="#EB3333"/>
</svg>
