<svg width="597" height="313" viewBox="0 0 597 313" fill="none" xmlns="http://www.w3.org/2000/svg">
<rect x="0.548584" y="0.084259" width="11.3797" height="312.31" fill="#E6313F"/>
<path d="M100.364 75.8469H110.339V12.7114H104.657L100.364 75.8469ZM92.1562 0.084259H123.598V75.8469H128.017V100.091H114.759V88.474H95.1867V100.091H81.9282V75.8469H86.9791L92.1562 0.084259Z" fill="#E6313F"/>
<path d="M133.053 88.474V0.084259H165.884V12.7114H146.312V34.1775H165.252V46.8046H146.312V75.8469H165.884V88.474H133.053Z" fill="#E6313F"/>
<path d="M200.662 0.084259H213.921V88.474H200.662V46.8046H186.141V88.474H172.883V0.084259H186.141V34.1775H200.662V0.084259Z" fill="#E6313F"/>
<path d="M234.726 45.5419V75.8469H246.722V45.5419H234.726ZM254.172 88.474H221.468V0.084259H234.726V32.9147H254.172C257.707 32.9147 259.98 35.3139 259.98 38.7232V82.6656C259.98 86.0749 257.707 88.474 254.172 88.474Z" fill="#E6313F"/>
<path d="M112.36 162.553L123.219 112.045H139.382V200.434H126.123V162.553L128.27 137.299H127.638L118.421 182.756H106.046L96.5757 137.299H95.9443L98.3435 162.553V200.434H85.085V112.045H101.248L111.981 162.553H112.36Z" fill="#3B3393"/>
<path d="M160.246 187.807H173.504V124.672H160.246V187.807ZM180.954 200.434H152.796C149.26 200.434 146.987 198.035 146.987 194.626V117.853C146.987 114.444 149.26 112.045 152.796 112.045H180.954C184.49 112.045 186.763 114.444 186.763 117.853V194.626C186.763 198.035 184.49 200.434 180.954 200.434Z" fill="#3B3393"/>
<path d="M232.852 200.434H200.148C196.612 200.434 194.339 198.035 194.339 194.626V117.853C194.339 114.444 196.612 112.045 200.148 112.045H232.852V137.299H219.593V124.672H207.598V187.807H219.593V171.392H232.852V200.434Z" fill="#3B3393"/>
<path d="M268.505 152.451L282.142 200.434H268.126L256.509 158.765H253.1V200.434H239.841V112.045H253.1V146.138H256.888L268.126 112.045H282.142L268.505 152.451Z" fill="#3B3393"/>
<path d="M299.835 187.807H313.093V124.672H299.835V187.807ZM320.543 200.434H292.385C288.849 200.434 286.576 198.035 286.576 194.626V117.853C286.576 114.444 288.849 112.045 292.385 112.045H320.543C324.079 112.045 326.352 114.444 326.352 117.853V194.626C326.352 198.035 324.079 200.434 320.543 200.434Z" fill="#3B3393"/>
<path d="M359.182 146.138V124.672H347.186V146.138H359.182ZM359.182 158.765H347.186V187.807H359.182V158.765ZM372.44 117.853V142.602C372.44 147.653 369.789 151.062 365.874 152.451C369.789 153.84 372.44 157.123 372.44 162.301V194.626C372.44 198.035 370.168 200.434 366.632 200.434H333.928V112.045H366.632C370.168 112.045 372.44 114.444 372.44 117.853Z" fill="#3B3393"/>
<path d="M418.559 200.434H385.855C382.319 200.434 380.046 198.035 380.046 194.626V117.853C380.046 114.444 382.319 112.045 385.855 112.045H418.559V137.299H405.301V124.672H393.305V187.807H405.301V171.392H418.559V200.434Z" fill="#3B3393"/>
<path d="M454.212 152.451L467.849 200.434H453.833L442.216 158.765H438.807V200.434H425.548V112.045H438.807V146.138H442.595L453.833 112.045H467.849L454.212 152.451Z" fill="#3B3393"/>
<path d="M485.542 187.807H498.8V124.672H485.542V187.807ZM506.25 200.434H478.092C474.556 200.434 472.283 198.035 472.283 194.626V117.853C472.283 114.444 474.556 112.045 478.092 112.045H506.25C509.786 112.045 512.059 114.444 512.059 117.853V194.626C512.059 198.035 509.786 200.434 506.25 200.434Z" fill="#3B3393"/>
<path d="M519.635 112.045H551.203V124.672H532.894V200.434H519.635V112.045Z" fill="#3B3393"/>
<path d="M569.517 187.807H582.776V124.672H569.517V187.807ZM590.226 200.434H562.067C558.532 200.434 556.259 198.035 556.259 194.626V117.853C556.259 114.444 558.532 112.045 562.067 112.045H590.226C593.761 112.045 596.034 114.444 596.034 117.853V194.626C596.034 198.035 593.761 200.434 590.226 200.434Z" fill="#3B3393"/>
<path d="M123.598 312.395H90.8935C87.3579 312.395 85.085 309.996 85.085 306.586V229.813C85.085 226.404 87.3579 224.005 90.8935 224.005H123.598V249.259H110.339V236.632H98.3435V299.768H110.339V283.352H123.598V312.395Z" fill="#E6313F"/>
<path d="M130.587 224.005H170.994V312.395H157.735V236.632H143.845V312.395H130.587V224.005Z" fill="#E6313F"/>
<path d="M191.814 299.768H205.072V236.632H191.814V299.768ZM212.522 312.395H184.364C180.828 312.395 178.555 309.996 178.555 306.586V229.813C178.555 226.404 180.828 224.005 184.364 224.005H212.522C216.058 224.005 218.331 226.404 218.331 229.813V306.586C218.331 309.996 216.058 312.395 212.522 312.395Z" fill="#E6313F"/>
<path d="M239.165 236.632V270.725H251.792V236.632H239.165ZM259.242 283.352H239.165V312.395H225.907V224.005H259.242C262.778 224.005 265.051 226.404 265.051 229.813V277.544C265.051 280.953 262.778 283.352 259.242 283.352Z" fill="#E6313F"/>
<path d="M269.5 236.632V224.005H308.013V236.632H295.386V312.395H282.127V236.632H269.5Z" fill="#E6313F"/>
<path d="M313.088 224.005H352.232V312.395H338.974V283.352H326.347V312.395H313.088V224.005ZM338.974 270.725V236.632H326.347V270.725H338.974Z" fill="#E6313F"/>
<path d="M515.615 46.5349V76.9048H527.636V46.5349H515.615ZM535.102 89.5589H502.328V0.980133H515.615V33.8808H535.102C538.645 33.8808 540.923 36.2851 540.923 39.7017V83.738C540.923 87.1546 538.645 89.5589 535.102 89.5589Z" fill="#3B3393"/>
<path d="M455.478 54.6336V0.980133H468.765V47.8004H481.419V0.980133H494.706V89.5589H481.419V60.4545H461.299C457.756 60.4545 455.478 58.0502 455.478 54.6336Z" fill="#3B3393"/>
<path d="M421.945 76.9048H435.231V13.6342H421.945V76.9048ZM442.697 89.5589H414.479C410.935 89.5589 408.658 87.1546 408.658 83.738V6.80102C408.658 3.38441 410.935 0.980133 414.479 0.980133H442.697C446.24 0.980133 448.518 3.38441 448.518 6.80102V83.738C448.518 87.1546 446.24 89.5589 442.697 89.5589Z" fill="#3B3393"/>
<path d="M387.808 0.980133H401.095V89.5589H387.808V47.8004H373.256V89.5589H359.969V0.980133H373.256V35.1462H387.808V0.980133Z" fill="#3B3393"/>
<path d="M330.904 89.5589H317.617V39.9548L303.065 70.4512V89.5589H289.778V0.980133H303.065V46.0288L317.617 15.5324V0.980133H330.904V89.5589Z" fill="#3B3393"/>
</svg>
