<svg width="344" height="331" viewBox="0 0 344 331" fill="none" xmlns="http://www.w3.org/2000/svg">
<rect width="164.51" height="158.835" transform="matrix(0.995496 0.0948003 -0.0950181 0.995476 16.0922 0.234863)" fill="white"/>
<path d="M46.6739 52.3875H48.2539V42.3875H47.3539L46.6739 52.3875ZM45.3739 40.3875H50.3539V52.3875H51.0539V56.2275H48.9539V54.3875H45.8539V56.2275H43.7539V52.3875H44.5539L45.3739 40.3875ZM51.8516 54.3875V40.3875H57.0516V42.3875H53.9516V45.7875H56.9516V47.7875H53.9516V52.3875H57.0516V54.3875H51.8516ZM64.2602 54.3875H59.0802C58.5202 54.3875 58.1602 54.0075 58.1602 53.4675V41.3075C58.1602 40.7675 58.5202 40.3875 59.0802 40.3875H64.2602V44.3875H62.1602V42.3875H60.2602V52.3875H62.1602V49.7875H64.2602V54.3875ZM67.1872 54.3875H64.9672L67.0272 47.7875H66.3872C65.8272 47.7875 65.4672 47.4075 65.4672 46.8675V41.3075C65.4672 40.7675 65.8272 40.3875 66.3872 40.3875H71.5672V54.3875H69.4672V47.7875H69.2672L67.1872 54.3875ZM69.4672 45.7875V42.3875H67.5672V45.7875H69.4672ZM72.3696 42.3875V40.3875H78.4696V42.3875H76.4696V54.3875H74.3696V42.3875H72.3696ZM83.8135 46.7875L85.9735 54.3875H83.7535L81.9135 47.7875H81.3735V54.3875H79.2735V40.3875H81.3735V45.7875H81.9735L83.7535 40.3875H85.9735L83.8135 46.7875ZM93.1758 54.3875H91.0758V46.5475L88.7758 51.3675V54.3875H86.6758V40.3875H88.7758V47.5075L91.0758 42.6875V40.3875H93.1758V54.3875ZM101.77 45.7875V42.3875H99.8696V45.7875H101.77ZM101.77 47.7875H99.8696V52.3875H101.77V47.7875ZM103.87 41.3075V45.2275C103.87 46.0275 103.45 46.5675 102.83 46.7875C103.45 47.0075 103.87 47.5275 103.87 48.3475V53.4675C103.87 54.0075 103.51 54.3875 102.95 54.3875H97.7696V40.3875H102.95C103.51 40.3875 103.87 40.7675 103.87 41.3075ZM111.574 54.3875H109.474V46.5475L107.174 51.3675V54.3875H105.074V40.3875H107.174V47.5075L109.474 42.6875V40.3875H111.574V54.3875ZM115.19 52.3875H116.77V42.3875H115.87L115.19 52.3875ZM113.89 40.3875H118.87V52.3875H119.57V56.2275H117.47V54.3875H114.37V56.2275H112.27V52.3875H113.07L113.89 40.3875ZM122.467 52.3875H124.567V42.3875H122.467V52.3875ZM125.747 54.3875H121.287C120.727 54.3875 120.367 54.0075 120.367 53.4675V41.3075C120.367 40.7675 120.727 40.3875 121.287 40.3875H125.747C126.307 40.3875 126.667 40.7675 126.667 41.3075V53.4675C126.667 54.0075 126.307 54.3875 125.747 54.3875ZM131.867 45.7875V42.3875H129.967V45.7875H131.867ZM131.867 47.7875H129.967V52.3875H131.867V47.7875ZM133.967 41.3075V45.2275C133.967 46.0275 133.547 46.5675 132.927 46.7875C133.547 47.0075 133.967 47.5275 133.967 48.3475V53.4675C133.967 54.0075 133.607 54.3875 133.047 54.3875H127.867V40.3875H133.047C133.607 40.3875 133.967 40.7675 133.967 41.3075ZM74.0551 74.3875H68.8751C68.3151 74.3875 67.9551 74.0075 67.9551 73.4675V61.3075C67.9551 60.7675 68.3151 60.3875 68.8751 60.3875H74.0551V64.3875H71.9551V62.3875H70.0551V72.3875H71.9551V69.7875H74.0551V74.3875ZM75.1621 60.3875H81.5621V74.3875H79.4621V62.3875H77.2621V74.3875H75.1621V60.3875ZM84.8598 72.3875H86.9598V62.3875H84.8598V72.3875ZM88.1398 74.3875H83.6798C83.1198 74.3875 82.7598 74.0075 82.7598 73.4675V61.3075C82.7598 60.7675 83.1198 60.3875 83.6798 60.3875H88.1398C88.6998 60.3875 89.0598 60.7675 89.0598 61.3075V73.4675C89.0598 74.0075 88.6998 74.3875 88.1398 74.3875ZM92.3598 62.3875V67.7875H94.3598V62.3875H92.3598ZM95.5398 69.7875H92.3598V74.3875H90.2598V60.3875H95.5398C96.0998 60.3875 96.4598 60.7675 96.4598 61.3075V68.8675C96.4598 69.4075 96.0998 69.7875 95.5398 69.7875ZM97.1645 62.3875V60.3875H103.264V62.3875H101.264V74.3875H99.1645V62.3875H97.1645ZM104.068 60.3875H110.268V74.3875H108.168V69.7875H106.168V74.3875H104.068V60.3875ZM108.168 67.7875V62.3875H106.168V67.7875H108.168Z" fill="#3D348A"/>
<path d="M59.4324 99.564H64.7104V108.006L65.5364 108.034L65.4524 111.268H64.5004L64.4164 109H58.4664L58.3824 111.268H57.4304L57.3464 108.034L58.0604 108.006C58.4104 107.362 58.7604 106.676 58.9844 105.934C59.3064 104.842 59.4324 103.582 59.4324 101.958V99.564ZM60.5664 100.572V102.35C60.5664 103.862 60.4264 105.136 60.0904 106.2C59.8944 106.858 59.6004 107.488 59.3204 107.992H63.4924V100.572H60.5664ZM67.6021 102.224H72.3061V109H71.0881V103.19H68.7641V104.954C68.7641 106.858 68.5821 108.132 67.7001 108.706C67.3641 108.972 66.9861 109.126 66.3561 109.126L66.2301 108.16C66.4681 108.118 66.7341 108.02 66.9021 107.88C67.5321 107.418 67.6021 106.466 67.6021 104.954V102.224ZM79.3165 102.28V109H78.0985V106.158H77.1885C76.6705 106.158 76.3205 106.298 76.0545 106.536C75.5505 106.942 75.3685 107.782 75.1025 108.44C75.0185 108.65 74.9205 108.832 74.8225 109H73.5065C73.6605 108.776 73.8005 108.524 73.9265 108.23C74.2205 107.572 74.3885 106.69 74.9905 106.186C75.2005 106.004 75.4525 105.85 75.7605 105.794V105.752C74.8785 105.654 73.9685 105.108 73.9685 104.072C73.9685 103.372 74.3465 102.896 74.8645 102.602C75.4245 102.28 76.2505 102.14 77.1325 102.14C77.9445 102.14 78.7285 102.21 79.3165 102.28ZM78.0985 105.318V103.036C77.7905 102.994 77.5105 102.966 77.0765 102.966C76.2365 102.966 75.2425 103.204 75.2425 104.142C75.2425 105.01 76.3205 105.318 77.0485 105.318C77.5525 105.318 77.8185 105.318 78.0985 105.318ZM85.0146 102.224H89.5366V108.076L90.2366 108.09L90.1666 111.156H89.2006L89.1446 109H84.4546L84.3986 111.156H83.4326L83.3766 108.09L83.9506 108.076C84.2446 107.642 84.4686 107.18 84.6226 106.69C84.8886 105.85 85.0146 104.94 85.0146 103.988V102.224ZM86.1066 103.162V104.282C86.1066 105.178 85.9806 106.046 85.7566 106.802C85.6166 107.264 85.4206 107.684 85.2106 108.062H88.3326V103.162H86.1066ZM97.1018 105.836H92.3418C92.3698 107.502 93.4338 108.188 94.6658 108.188C95.5478 108.188 96.0798 108.034 96.5418 107.838L96.7518 108.72C96.3178 108.916 95.5758 109.14 94.4978 109.14C92.4118 109.14 91.1658 107.768 91.1658 105.724C91.1658 103.68 92.3698 102.07 94.3438 102.07C96.5558 102.07 97.1438 104.016 97.1438 105.262C97.1438 105.514 97.1158 105.71 97.1018 105.836ZM92.3558 104.954H95.9538C95.9678 104.17 95.6318 102.952 94.2458 102.952C92.9998 102.952 92.4538 104.1 92.3558 104.954ZM97.7468 102.224H103.193V103.204H101.079V109H99.8608V103.204H97.7468V102.224ZM109.543 105.836H104.783C104.811 107.502 105.875 108.188 107.107 108.188C107.989 108.188 108.521 108.034 108.983 107.838L109.193 108.72C108.759 108.916 108.017 109.14 106.939 109.14C104.853 109.14 103.607 107.768 103.607 105.724C103.607 103.68 104.811 102.07 106.785 102.07C108.997 102.07 109.585 104.016 109.585 105.262C109.585 105.514 109.557 105.71 109.543 105.836ZM104.797 104.954H108.395C108.409 104.17 108.073 102.952 106.687 102.952C105.441 102.952 104.895 104.1 104.797 104.954ZM111.083 102.224H112.245V105.08C112.245 106.158 112.231 106.83 112.175 107.796L112.217 107.81C112.623 106.984 112.861 106.508 113.309 105.724L115.423 102.224H116.865V109H115.689V106.13C115.689 105.024 115.717 104.45 115.773 103.358H115.731C115.297 104.226 115.003 104.772 114.611 105.458C113.967 106.508 113.225 107.81 112.497 109H111.083V102.224ZM112.147 99.466H113.043C113.085 100.068 113.379 100.53 113.939 100.53C114.541 100.53 114.821 100.082 114.891 99.466H115.773C115.717 100.614 114.989 101.202 113.911 101.202C112.679 101.202 112.203 100.432 112.147 99.466ZM23.412 116.224H24.574V119.08C24.574 120.158 24.56 120.83 24.504 121.796L24.546 121.81C24.952 120.984 25.19 120.508 25.638 119.724L27.752 116.224H29.194V123H28.018V120.13C28.018 119.024 28.046 118.45 28.102 117.358H28.06C27.626 118.226 27.332 118.772 26.94 119.458C26.296 120.508 25.554 121.81 24.826 123H23.412V116.224ZM34.1307 123V116.308C34.6067 116.224 35.4887 116.154 36.2867 116.154C37.4207 116.154 39.2967 116.336 39.2967 117.848C39.2967 118.688 38.6527 119.206 37.8827 119.374V119.402C38.8767 119.542 39.6047 120.102 39.6047 121.082C39.6047 122.86 37.3647 123.084 36.0347 123.084C35.2787 123.084 34.4947 123.028 34.1307 123ZM35.3067 117.064V119.066H36.2307C37.1407 119.066 38.0787 118.8 38.0787 118.002C38.0787 117.33 37.4907 117.008 36.2587 117.008C35.8527 117.008 35.6007 117.036 35.3067 117.064ZM35.2927 119.878V122.188C35.6427 122.23 35.8947 122.244 36.2867 122.244C37.1127 122.244 38.3447 122.048 38.3447 121.068C38.3447 120.088 37.3647 119.878 36.1887 119.878H35.2927ZM41.7187 119.906V119.066H42.3067C43.3427 119.066 44.0427 118.59 44.0427 117.96C44.0427 117.358 43.4967 116.98 42.7267 116.98C42.1807 116.98 41.5647 117.162 41.0887 117.456L40.7807 116.7C41.4667 116.28 42.2507 116.084 43.0347 116.084C44.0707 116.084 45.3307 116.546 45.3307 117.862C45.3307 118.702 44.5607 119.248 43.8047 119.402V119.43C44.8127 119.514 45.6527 120.13 45.6527 121.124C45.6527 122.594 44.1547 123.14 42.7267 123.14C41.9287 123.14 41.1307 122.93 40.5287 122.594L40.8507 121.768C41.3407 122.034 41.9987 122.23 42.6427 122.23C43.6647 122.23 44.3087 121.74 44.3087 121.068C44.3087 120.158 43.3567 119.906 42.3347 119.906H41.7187ZM47.188 125.772V118.436C47.188 117.568 47.16 116.868 47.132 116.224H48.238L48.294 117.386H48.322C48.826 116.56 49.624 116.07 50.73 116.07C52.368 116.07 53.6 117.456 53.6 119.514C53.6 121.95 52.116 123.154 50.52 123.154C49.624 123.154 48.84 122.762 48.434 122.09H48.406V125.772H47.188ZM48.406 119.08V120.242C48.406 120.424 48.434 120.592 48.462 120.746C48.686 121.6 49.428 122.188 50.31 122.188C51.612 122.188 52.368 121.124 52.368 119.57C52.368 118.212 51.654 117.05 50.352 117.05C49.512 117.05 48.728 117.652 48.49 118.576C48.448 118.73 48.406 118.912 48.406 119.08ZM58.0287 116.07C59.9747 116.07 61.2907 117.484 61.2907 119.556C61.2907 122.062 59.5547 123.154 57.9167 123.154C56.0827 123.154 54.6687 121.81 54.6687 119.668C54.6687 117.4 56.1527 116.07 58.0287 116.07ZM58.0007 116.994C56.5447 116.994 55.9147 118.338 55.9147 119.626C55.9147 121.11 56.7687 122.23 57.9727 122.23C59.1487 122.23 60.0307 121.124 60.0307 119.598C60.0307 118.45 59.4567 116.994 58.0007 116.994ZM67.4623 121.824L67.6723 122.748C67.3503 122.916 66.6363 123.14 65.7263 123.14C63.6823 123.14 62.3523 121.754 62.3523 119.682C62.3523 117.596 63.7803 116.084 65.9923 116.084C66.7203 116.084 67.3643 116.266 67.7003 116.434L67.4203 117.386C67.1263 117.218 66.6643 117.064 65.9923 117.064C64.4383 117.064 63.5983 118.212 63.5983 119.626C63.5983 121.194 64.6063 122.16 65.9503 122.16C66.6503 122.16 67.1123 121.978 67.4623 121.824ZM69.7965 116.224H74.5005V123H73.2825V117.19H70.9585V118.954C70.9585 120.858 70.7765 122.132 69.8945 122.706C69.5585 122.972 69.1805 123.126 68.5505 123.126L68.4245 122.16C68.6625 122.118 68.9285 122.02 69.0965 121.88C69.7265 121.418 69.7965 120.466 69.7965 118.954V116.224ZM76.4862 116.224H77.7042V118.534C77.9702 118.478 78.3622 118.45 78.8102 118.45C80.2662 118.45 81.7362 119.052 81.7362 120.718C81.7362 121.432 81.4702 121.922 81.0362 122.286C80.2942 122.916 79.2022 123.07 78.3062 123.07C77.6202 123.07 76.9902 123.028 76.4862 122.972V116.224ZM77.7042 119.402V122.146C77.9422 122.174 78.2082 122.202 78.5582 122.202C79.4962 122.202 80.5182 121.81 80.5182 120.76C80.5182 119.668 79.5382 119.332 78.6142 119.332C78.2642 119.332 77.9562 119.36 77.7042 119.402ZM82.5902 116.224H83.8082V123H82.5902V116.224ZM85.0267 116.224H86.3987L87.3647 117.68C87.6167 118.058 87.8267 118.408 88.0507 118.786H88.0927C88.3167 118.38 88.5407 118.03 88.7647 117.666L89.7167 116.224H91.0467L88.7367 119.5L91.1167 123H89.7167L88.7227 121.474C88.4567 121.082 88.2327 120.704 87.9947 120.298H87.9667C87.7427 120.704 87.5047 121.068 87.2527 121.474L86.2727 123H84.9147L87.3227 119.542L85.0267 116.224ZM92.3892 124.638L91.5072 124.722C91.8152 123.896 92.1932 122.398 92.3472 121.376L93.7192 121.236C93.3972 122.426 92.7812 123.98 92.3892 124.638ZM98.1424 116.224H99.3604V118.954H102.58V116.224H103.798V123H102.58V119.934H99.3604V123H98.1424V116.224ZM108.683 116.07C110.629 116.07 111.945 117.484 111.945 119.556C111.945 122.062 110.209 123.154 108.571 123.154C106.737 123.154 105.323 121.81 105.323 119.668C105.323 117.4 106.807 116.07 108.683 116.07ZM108.655 116.994C107.199 116.994 106.569 118.338 106.569 119.626C106.569 121.11 107.423 122.23 108.627 122.23C109.803 122.23 110.685 121.124 110.685 119.598C110.685 118.45 110.111 116.994 108.655 116.994ZM113.469 123V116.308C113.945 116.224 114.827 116.154 115.625 116.154C116.759 116.154 118.635 116.336 118.635 117.848C118.635 118.688 117.991 119.206 117.221 119.374V119.402C118.215 119.542 118.943 120.102 118.943 121.082C118.943 122.86 116.703 123.084 115.373 123.084C114.617 123.084 113.833 123.028 113.469 123ZM114.645 117.064V119.066H115.569C116.479 119.066 117.417 118.8 117.417 118.002C117.417 117.33 116.829 117.008 115.597 117.008C115.191 117.008 114.939 117.036 114.645 117.064ZM114.631 119.878V122.188C114.981 122.23 115.233 122.244 115.625 122.244C116.451 122.244 117.683 122.048 117.683 121.068C117.683 120.088 116.703 119.878 115.527 119.878H114.631ZM120.469 116.224H121.631V119.08C121.631 120.158 121.617 120.83 121.561 121.796L121.603 121.81C122.009 120.984 122.247 120.508 122.695 119.724L124.809 116.224H126.251V123H125.075V120.13C125.075 119.024 125.103 118.45 125.159 117.358H125.117C124.683 118.226 124.389 118.772 123.997 119.458C123.353 120.508 122.611 121.81 121.883 123H120.469V116.224ZM127.986 116.224H129.218V118.45C129.218 119.304 129.54 119.892 130.618 119.892C131.15 119.892 131.696 119.696 132.074 119.416V116.224H133.292V123H132.074V120.284H132.046C131.584 120.592 130.856 120.802 130.212 120.802C128.924 120.802 127.986 120.144 127.986 118.59V116.224ZM135.303 116.224H136.521V119.164H136.815L139.363 116.224H140.861L137.907 119.29C138.999 119.402 139.657 120.13 140.189 121.348C140.371 121.796 140.609 122.454 140.917 123H139.629C139.447 122.706 139.209 122.174 138.999 121.614C138.537 120.522 137.907 120.018 136.759 120.018H136.521V123H135.303V116.224ZM144.79 116.07C146.736 116.07 148.052 117.484 148.052 119.556C148.052 122.062 146.316 123.154 144.678 123.154C142.844 123.154 141.43 121.81 141.43 119.668C141.43 117.4 142.914 116.07 144.79 116.07ZM144.762 116.994C143.306 116.994 142.676 118.338 142.676 119.626C142.676 121.11 143.53 122.23 144.734 122.23C145.91 122.23 146.792 121.124 146.792 119.598C146.792 118.45 146.218 116.994 144.762 116.994ZM149.576 123V116.308C150.052 116.224 150.934 116.154 151.732 116.154C152.866 116.154 154.742 116.336 154.742 117.848C154.742 118.688 154.098 119.206 153.328 119.374V119.402C154.322 119.542 155.05 120.102 155.05 121.082C155.05 122.86 152.81 123.084 151.48 123.084C150.724 123.084 149.94 123.028 149.576 123ZM150.752 117.064V119.066H151.676C152.586 119.066 153.524 118.8 153.524 118.002C153.524 117.33 152.936 117.008 151.704 117.008C151.298 117.008 151.046 117.036 150.752 117.064ZM150.738 119.878V122.188C151.088 122.23 151.34 122.244 151.732 122.244C152.558 122.244 153.79 122.048 153.79 121.068C153.79 120.088 152.81 119.878 151.634 119.878H150.738ZM32.9481 130.224H34.1101V133.08C34.1101 134.158 34.0961 134.83 34.0401 135.796L34.0821 135.81C34.4881 134.984 34.7261 134.508 35.1741 133.724L37.2881 130.224H38.7301V137H37.5541V134.13C37.5541 133.024 37.5821 132.45 37.6381 131.358H37.5961C37.1621 132.226 36.8681 132.772 36.4761 133.458C35.8321 134.508 35.0901 135.81 34.3621 137H32.9481V130.224ZM43.6669 130.224H49.2669V137H48.0349V131.204H44.8849V137H43.6669V130.224ZM51.2691 139.772V132.436C51.2691 131.568 51.2411 130.868 51.2131 130.224H52.3191L52.3751 131.386H52.4031C52.9071 130.56 53.7051 130.07 54.8111 130.07C56.4491 130.07 57.6811 131.456 57.6811 133.514C57.6811 135.95 56.1971 137.154 54.6011 137.154C53.7051 137.154 52.9211 136.762 52.5151 136.09H52.4871V139.772H51.2691ZM52.4871 133.08V134.242C52.4871 134.424 52.5151 134.592 52.5431 134.746C52.7671 135.6 53.5091 136.188 54.3911 136.188C55.6931 136.188 56.4491 135.124 56.4491 133.57C56.4491 132.212 55.7351 131.05 54.4331 131.05C53.5931 131.05 52.8091 131.652 52.5711 132.576C52.5291 132.73 52.4871 132.912 52.4871 133.08ZM62.1098 130.07C64.0558 130.07 65.3718 131.484 65.3718 133.556C65.3718 136.062 63.6358 137.154 61.9978 137.154C60.1638 137.154 58.7498 135.81 58.7498 133.668C58.7498 131.4 60.2338 130.07 62.1098 130.07ZM62.0818 130.994C60.6258 130.994 59.9958 132.338 59.9958 133.626C59.9958 135.11 60.8498 136.23 62.0538 136.23C63.2298 136.23 64.1118 135.124 64.1118 133.598C64.1118 132.45 63.5378 130.994 62.0818 130.994ZM69.8354 127.06H70.9554V130.098C72.9294 130.238 74.3574 131.484 74.3574 133.598C74.3574 135.824 72.8454 137 70.9554 137.126V139.772H69.8354V137.14C67.8754 137.014 66.4334 135.782 66.4334 133.668C66.4334 131.428 67.9314 130.252 69.8354 130.098V127.06ZM69.8354 136.286V130.938C68.4634 131.12 67.6514 132.24 67.6514 133.626C67.6514 135.026 68.4914 136.118 69.8354 136.286ZM70.9554 130.938V136.286C72.3134 136.104 73.1394 134.984 73.1394 133.598C73.1394 132.198 72.3134 131.134 70.9554 130.938ZM81.3381 133.836H76.5781C76.6061 135.502 77.6701 136.188 78.9021 136.188C79.7841 136.188 80.3161 136.034 80.7781 135.838L80.9881 136.72C80.5541 136.916 79.8121 137.14 78.7341 137.14C76.6481 137.14 75.4021 135.768 75.4021 133.724C75.4021 131.68 76.6061 130.07 78.5801 130.07C80.7921 130.07 81.3801 132.016 81.3801 133.262C81.3801 133.514 81.3521 133.71 81.3381 133.836ZM76.5921 132.954H80.1901C80.2041 132.17 79.8681 130.952 78.4821 130.952C77.2361 130.952 76.6901 132.1 76.5921 132.954ZM87.5258 135.824L87.7358 136.748C87.4138 136.916 86.6998 137.14 85.7898 137.14C83.7458 137.14 82.4158 135.754 82.4158 133.682C82.4158 131.596 83.8438 130.084 86.0558 130.084C86.7838 130.084 87.4278 130.266 87.7638 130.434L87.4838 131.386C87.1898 131.218 86.7278 131.064 86.0558 131.064C84.5018 131.064 83.6618 132.212 83.6618 133.626C83.6618 135.194 84.6698 136.16 86.0138 136.16C86.7138 136.16 87.1758 135.978 87.5258 135.824ZM93.7191 135.824L93.9291 136.748C93.6071 136.916 92.8931 137.14 91.9831 137.14C89.9391 137.14 88.6091 135.754 88.6091 133.682C88.6091 131.596 90.0371 130.084 92.2491 130.084C92.9771 130.084 93.6211 130.266 93.9571 130.434L93.6771 131.386C93.3831 131.218 92.9211 131.064 92.2491 131.064C90.6951 131.064 89.8551 132.212 89.8551 133.626C89.8551 135.194 90.8631 136.16 92.2071 136.16C92.9071 136.16 93.3691 135.978 93.7191 135.824ZM95.3465 130.224H96.5085V133.08C96.5085 134.158 96.4945 134.83 96.4385 135.796L96.4805 135.81C96.8865 134.984 97.1245 134.508 97.5725 133.724L99.6865 130.224H101.129V137H99.9525V134.13C99.9525 133.024 99.9805 132.45 100.037 131.358H99.9945C99.5605 132.226 99.2665 132.772 98.8745 133.458C98.2305 134.508 97.4885 135.81 96.7605 137H95.3465V130.224ZM105.996 130.07C107.942 130.07 109.258 131.484 109.258 133.556C109.258 136.062 107.522 137.154 105.884 137.154C104.05 137.154 102.636 135.81 102.636 133.668C102.636 131.4 104.12 130.07 105.996 130.07ZM105.968 130.994C104.512 130.994 103.882 132.338 103.882 133.626C103.882 135.11 104.736 136.23 105.94 136.23C107.116 136.23 107.998 135.124 107.998 133.598C107.998 132.45 107.424 130.994 105.968 130.994ZM110.782 130.224H112V132.954H115.22V130.224H116.438V137H115.22V133.934H112V137H110.782V130.224ZM123.325 137H122.205L122.107 136.146H122.065C121.687 136.678 120.959 137.154 119.993 137.154C118.621 137.154 117.921 136.188 117.921 135.208C117.921 133.57 119.377 132.674 121.995 132.688V132.548C121.995 131.988 121.841 130.98 120.455 130.98C119.825 130.98 119.167 131.176 118.691 131.484L118.411 130.672C118.971 130.308 119.783 130.07 120.637 130.07C122.709 130.07 123.213 131.484 123.213 132.842V135.376C123.213 135.964 123.241 136.538 123.325 137ZM122.023 134.718V133.542C120.679 133.514 119.153 133.752 119.153 135.068C119.153 135.866 119.685 136.244 120.315 136.244C121.197 136.244 121.757 135.684 121.953 135.11C121.995 134.984 122.023 134.844 122.023 134.718ZM125.667 130.224H130.371V137H129.153V131.19H126.829V132.954C126.829 134.858 126.647 136.132 125.765 136.706C125.429 136.972 125.051 137.126 124.421 137.126L124.295 136.16C124.533 136.118 124.799 136.02 124.967 135.88C125.597 135.418 125.667 134.466 125.667 132.954V130.224ZM135.254 130.07C137.2 130.07 138.516 131.484 138.516 133.556C138.516 136.062 136.78 137.154 135.142 137.154C133.308 137.154 131.894 135.81 131.894 133.668C131.894 131.4 133.378 130.07 135.254 130.07ZM135.226 130.994C133.77 130.994 133.14 132.338 133.14 133.626C133.14 135.11 133.994 136.23 135.198 136.23C136.374 136.23 137.256 135.124 137.256 133.598C137.256 132.45 136.682 130.994 135.226 130.994ZM140.04 137V130.308C140.516 130.224 141.398 130.154 142.196 130.154C143.33 130.154 145.206 130.336 145.206 131.848C145.206 132.688 144.562 133.206 143.792 133.374V133.402C144.786 133.542 145.514 134.102 145.514 135.082C145.514 136.86 143.274 137.084 141.944 137.084C141.188 137.084 140.404 137.028 140.04 137ZM141.216 131.064V133.066H142.14C143.05 133.066 143.988 132.8 143.988 132.002C143.988 131.33 143.4 131.008 142.168 131.008C141.762 131.008 141.51 131.036 141.216 131.064ZM141.202 133.878V136.188C141.552 136.23 141.804 136.244 142.196 136.244C143.022 136.244 144.254 136.048 144.254 135.068C144.254 134.088 143.274 133.878 142.098 133.878H141.202Z" fill="#3D348A"/>
<g clip-path="url(#clip0_2056_2)">
<rect width="164.51" height="158.835" transform="matrix(0.994173 -0.107795 0.107578 0.994197 162.249 17.0002)" fill="#3B3393"/>
<path d="M216.455 43.3875V50.3875H217.755V43.3875H216.455ZM221.155 50.3875V43.3875H219.855V50.3875H221.155ZM217.755 52.3875H215.275C214.715 52.3875 214.355 52.0075 214.355 51.4675V42.3075C214.355 41.7675 214.715 41.3875 215.275 41.3875H217.755V40.1875H219.855V41.3875H222.335C222.895 41.3875 223.255 41.7675 223.255 42.3075V51.4675C223.255 52.0075 222.895 52.3875 222.335 52.3875H219.855V54.5875H217.755V52.3875ZM224.357 40.3875H230.557V54.3875H228.457V49.7875H226.457V54.3875H224.357V40.3875ZM228.457 47.7875V42.3875H226.457V47.7875H228.457ZM236.159 40.3875H238.259V54.3875H236.159V47.7875H233.859V54.3875H231.759V40.3875H233.859V45.7875H236.159V40.3875ZM239.755 48.0675V46.3075H243.755V48.0675H239.755ZM249.256 45.7875V42.3875H247.356V45.7875H249.256ZM249.256 47.7875H247.356V52.3875H249.256V47.7875ZM251.356 41.3075V45.2275C251.356 46.0275 250.936 46.5675 250.316 46.7875C250.936 47.0075 251.356 47.5275 251.356 48.3475V53.4675C251.356 54.0075 250.996 54.3875 250.436 54.3875H245.256V40.3875H250.436C250.996 40.3875 251.356 40.7675 251.356 41.3075ZM258.66 54.3875H253.48C252.92 54.3875 252.56 54.0075 252.56 53.4675V41.3075C252.56 40.7675 252.92 40.3875 253.48 40.3875H258.66V44.3875H256.56V42.3875H254.66V52.3875H256.56V49.7875H258.66V54.3875ZM259.367 42.3875V40.3875H265.467V42.3875H263.467V54.3875H261.367V42.3875H259.367ZM268.371 42.3875V47.7875H270.371V42.3875H268.371ZM271.551 49.7875H268.371V54.3875H266.271V40.3875H271.551C272.111 40.3875 272.471 40.7675 272.471 41.3075V48.8675C272.471 49.4075 272.111 49.7875 271.551 49.7875ZM273.576 54.3875V40.3875H278.776V42.3875H275.676V45.7875H278.676V47.7875H275.676V52.3875H278.776V54.3875H273.576ZM279.784 48.8675V40.3875H281.884V47.7875H283.884V40.3875H285.984V54.3875H283.884V49.7875H280.704C280.144 49.7875 279.784 49.4075 279.784 48.8675ZM293.689 54.3875H291.589V46.5475L289.289 51.3675V54.3875H287.189V40.3875H289.289V47.5075L291.589 42.6875V40.3875H293.689V54.3875Z" fill="white"/>
<path d="M197.85 95.568V96.576H194.182V99.978H198.27V101H192.964V91.564H198.06V92.586H194.182V95.568H197.85ZM199.785 101V94.308C200.261 94.224 201.143 94.154 201.941 94.154C203.075 94.154 204.951 94.336 204.951 95.848C204.951 96.688 204.307 97.206 203.537 97.374V97.402C204.531 97.542 205.259 98.102 205.259 99.082C205.259 100.86 203.019 101.084 201.689 101.084C200.933 101.084 200.149 101.028 199.785 101ZM200.961 95.064V97.066H201.885C202.795 97.066 203.733 96.8 203.733 96.002C203.733 95.33 203.145 95.008 201.913 95.008C201.507 95.008 201.255 95.036 200.961 95.064ZM200.947 97.878V100.188C201.297 100.23 201.549 100.244 201.941 100.244C202.767 100.244 203.999 100.048 203.999 99.068C203.999 98.088 203.019 97.878 201.843 97.878H200.947ZM206.785 94.224H210.943V95.218H208.003V101H206.785V94.224ZM217.372 97.836H212.612C212.64 99.502 213.704 100.188 214.936 100.188C215.818 100.188 216.35 100.034 216.812 99.838L217.022 100.72C216.588 100.916 215.846 101.14 214.768 101.14C212.682 101.14 211.436 99.768 211.436 97.724C211.436 95.68 212.64 94.07 214.614 94.07C216.826 94.07 217.414 96.016 217.414 97.262C217.414 97.514 217.386 97.71 217.372 97.836ZM212.626 96.954H216.224C216.238 96.17 215.902 94.952 214.516 94.952C213.27 94.952 212.724 96.1 212.626 96.954ZM218.912 94.224H220.13V96.954H223.35V94.224H224.568V101H223.35V97.934H220.13V101H218.912V94.224ZM226.555 94.224H227.717V97.08C227.717 98.158 227.703 98.83 227.647 99.796L227.689 99.81C228.095 98.984 228.333 98.508 228.781 97.724L230.895 94.224H232.337V101H231.161V98.13C231.161 97.024 231.189 96.45 231.245 95.358H231.203C230.769 96.226 230.475 96.772 230.083 97.458C229.439 98.508 228.697 99.81 227.969 101H226.555V94.224ZM239.331 94.28V101H238.113V98.158H237.203C236.685 98.158 236.335 98.298 236.069 98.536C235.565 98.942 235.383 99.782 235.117 100.44C235.033 100.65 234.935 100.832 234.837 101H233.521C233.675 100.776 233.815 100.524 233.941 100.23C234.235 99.572 234.403 98.69 235.005 98.186C235.215 98.004 235.467 97.85 235.775 97.794V97.752C234.893 97.654 233.983 97.108 233.983 96.072C233.983 95.372 234.361 94.896 234.879 94.602C235.439 94.28 236.265 94.14 237.147 94.14C237.959 94.14 238.743 94.21 239.331 94.28ZM238.113 97.318V95.036C237.805 94.994 237.525 94.966 237.091 94.966C236.251 94.966 235.257 95.204 235.257 96.142C235.257 97.01 236.335 97.318 237.063 97.318C237.567 97.318 237.833 97.318 238.113 97.318ZM252.533 101L252.295 96.856C252.225 95.54 252.141 93.958 252.155 92.782H252.113C251.791 93.888 251.399 95.064 250.923 96.366L249.257 100.944H248.333L246.807 96.45C246.359 95.12 245.981 93.902 245.715 92.782H245.687C245.659 93.958 245.589 95.54 245.505 96.954L245.253 101H244.091L244.749 91.564H246.303L247.913 96.128C248.305 97.29 248.627 98.326 248.865 99.306H248.907C249.145 98.354 249.481 97.318 249.901 96.128L251.581 91.564H253.135L253.723 101H252.533ZM260.999 97.836H256.239C256.267 99.502 257.331 100.188 258.563 100.188C259.445 100.188 259.977 100.034 260.439 99.838L260.649 100.72C260.215 100.916 259.473 101.14 258.395 101.14C256.309 101.14 255.063 99.768 255.063 97.724C255.063 95.68 256.267 94.07 258.241 94.07C260.453 94.07 261.041 96.016 261.041 97.262C261.041 97.514 261.013 97.71 260.999 97.836ZM256.253 96.954H259.851C259.865 96.17 259.529 94.952 258.143 94.952C256.897 94.952 256.351 96.1 256.253 96.954ZM263.336 94.224H267.858V100.076L268.558 100.09L268.488 103.156H267.522L267.466 101H262.776L262.72 103.156H261.754L261.698 100.09L262.272 100.076C262.566 99.642 262.79 99.18 262.944 98.69C263.21 97.85 263.336 96.94 263.336 95.988V94.224ZM264.428 95.162V96.282C264.428 97.178 264.302 98.046 264.078 98.802C263.938 99.264 263.742 99.684 263.532 100.062H266.654V95.162H264.428ZM270.004 101V94.308C270.48 94.224 271.362 94.154 272.16 94.154C273.294 94.154 275.17 94.336 275.17 95.848C275.17 96.688 274.526 97.206 273.756 97.374V97.402C274.75 97.542 275.478 98.102 275.478 99.082C275.478 100.86 273.238 101.084 271.908 101.084C271.152 101.084 270.368 101.028 270.004 101ZM271.18 95.064V97.066H272.104C273.014 97.066 273.952 96.8 273.952 96.002C273.952 95.33 273.364 95.008 272.132 95.008C271.726 95.008 271.474 95.036 271.18 95.064ZM271.166 97.878V100.188C271.516 100.23 271.768 100.244 272.16 100.244C272.986 100.244 274.218 100.048 274.218 99.068C274.218 98.088 273.238 97.878 272.062 97.878H271.166ZM282.478 97.836H277.718C277.746 99.502 278.81 100.188 280.042 100.188C280.924 100.188 281.456 100.034 281.918 99.838L282.128 100.72C281.694 100.916 280.952 101.14 279.874 101.14C277.788 101.14 276.542 99.768 276.542 97.724C276.542 95.68 277.746 94.07 279.72 94.07C281.932 94.07 282.52 96.016 282.52 97.262C282.52 97.514 282.492 97.71 282.478 97.836ZM277.732 96.954H281.33C281.344 96.17 281.008 94.952 279.622 94.952C278.376 94.952 277.83 96.1 277.732 96.954ZM284.814 94.224H289.336V100.076L290.036 100.09L289.966 103.156H289L288.944 101H284.254L284.198 103.156H283.232L283.176 100.09L283.75 100.076C284.044 99.642 284.268 99.18 284.422 98.69C284.688 97.85 284.814 96.94 284.814 95.988V94.224ZM285.906 95.162V96.282C285.906 97.178 285.78 98.046 285.556 98.802C285.416 99.264 285.22 99.684 285.01 100.062H288.132V95.162H285.906ZM296.902 97.836H292.142C292.17 99.502 293.234 100.188 294.466 100.188C295.348 100.188 295.88 100.034 296.342 99.838L296.552 100.72C296.118 100.916 295.376 101.14 294.298 101.14C292.212 101.14 290.966 99.768 290.966 97.724C290.966 95.68 292.17 94.07 294.144 94.07C296.356 94.07 296.944 96.016 296.944 97.262C296.944 97.514 296.916 97.71 296.902 97.836ZM292.156 96.954H295.754C295.768 96.17 295.432 94.952 294.046 94.952C292.8 94.952 292.254 96.1 292.156 96.954ZM298.441 101V94.308C298.917 94.224 299.799 94.154 300.597 94.154C301.731 94.154 303.607 94.336 303.607 95.848C303.607 96.688 302.963 97.206 302.193 97.374V97.402C303.187 97.542 303.915 98.102 303.915 99.082C303.915 100.86 301.675 101.084 300.345 101.084C299.589 101.084 298.805 101.028 298.441 101ZM299.617 95.064V97.066H300.541C301.451 97.066 302.389 96.8 302.389 96.002C302.389 95.33 301.801 95.008 300.569 95.008C300.163 95.008 299.911 95.036 299.617 95.064ZM299.603 97.878V100.188C299.953 100.23 300.205 100.244 300.597 100.244C301.423 100.244 302.655 100.048 302.655 99.068C302.655 98.088 301.675 97.878 300.499 97.878H299.603ZM310.341 101H309.221L309.123 100.146H309.081C308.703 100.678 307.975 101.154 307.009 101.154C305.637 101.154 304.937 100.188 304.937 99.208C304.937 97.57 306.393 96.674 309.011 96.688V96.548C309.011 95.988 308.857 94.98 307.471 94.98C306.841 94.98 306.183 95.176 305.707 95.484L305.427 94.672C305.987 94.308 306.799 94.07 307.653 94.07C309.725 94.07 310.229 95.484 310.229 96.842V99.376C310.229 99.964 310.257 100.538 310.341 101ZM309.039 98.718V97.542C307.695 97.514 306.169 97.752 306.169 99.068C306.169 99.866 306.701 100.244 307.331 100.244C308.213 100.244 308.773 99.684 308.969 99.11C309.011 98.984 309.039 98.844 309.039 98.718ZM312.307 102.638L311.425 102.722C311.733 101.896 312.111 100.398 312.265 99.376L313.637 99.236C313.315 100.426 312.699 101.98 312.307 102.638ZM203.314 105.564H204.462V109.54C204.462 111.038 204.434 112.27 204.35 113.53L204.378 113.544C204.854 112.564 205.442 111.542 206.128 110.422L209.18 105.564H210.398V115H209.25V110.982C209.25 109.456 209.264 108.336 209.362 107.146L209.32 107.132C208.858 108.168 208.214 109.26 207.57 110.31L204.616 115H203.314V105.564ZM212.459 115V108.308C212.935 108.224 213.817 108.154 214.615 108.154C215.749 108.154 217.625 108.336 217.625 109.848C217.625 110.688 216.981 111.206 216.211 111.374V111.402C217.205 111.542 217.933 112.102 217.933 113.082C217.933 114.86 215.693 115.084 214.363 115.084C213.607 115.084 212.823 115.028 212.459 115ZM213.635 109.064V111.066H214.559C215.469 111.066 216.407 110.8 216.407 110.002C216.407 109.33 215.819 109.008 214.587 109.008C214.181 109.008 213.929 109.036 213.635 109.064ZM213.621 111.878V114.188C213.971 114.23 214.223 114.244 214.615 114.244C215.441 114.244 216.673 114.048 216.673 113.068C216.673 112.088 215.693 111.878 214.517 111.878H213.621ZM224.359 115H223.239L223.141 114.146H223.099C222.721 114.678 221.993 115.154 221.027 115.154C219.655 115.154 218.955 114.188 218.955 113.208C218.955 111.57 220.411 110.674 223.029 110.688V110.548C223.029 109.988 222.875 108.98 221.489 108.98C220.859 108.98 220.201 109.176 219.725 109.484L219.445 108.672C220.005 108.308 220.817 108.07 221.671 108.07C223.743 108.07 224.247 109.484 224.247 110.842V113.376C224.247 113.964 224.275 114.538 224.359 115ZM223.057 112.718V111.542C221.713 111.514 220.187 111.752 220.187 113.068C220.187 113.866 220.719 114.244 221.349 114.244C222.231 114.244 222.791 113.684 222.987 113.11C223.029 112.984 223.057 112.844 223.057 112.718ZM226.213 108.224H227.431V110.954H230.651V108.224H231.869V115H230.651V111.934H227.431V115H226.213V108.224ZM237.34 115H236.038C236.178 114.748 236.304 114.454 236.416 114.146C236.822 113.068 237.074 111.752 237.844 110.982C238.068 110.758 238.348 110.59 238.628 110.506V110.464C237.466 110.268 236.542 109.428 236.542 108.14C236.542 107.314 236.878 106.656 237.41 106.222C237.998 105.746 238.922 105.494 240.112 105.494C240.91 105.494 241.75 105.564 242.366 105.69V115H241.148V110.912H240.252C239.664 110.912 239.23 111.038 238.894 111.374C238.25 112.032 237.984 113.418 237.648 114.314C237.55 114.552 237.48 114.748 237.34 115ZM241.148 109.974V106.544C240.938 106.502 240.546 106.432 240 106.432C238.796 106.432 237.774 106.894 237.774 108.196C237.774 109.33 238.782 109.988 240.112 109.988C240.518 109.988 240.91 109.988 241.148 109.974ZM244.424 108.224H245.642V110.954H248.862V108.224H250.08V115H248.862V111.934H245.642V115H244.424V108.224ZM252.094 108.224H253.312V111.164H253.606L256.154 108.224H257.652L254.698 111.29C255.79 111.402 256.448 112.13 256.98 113.348C257.162 113.796 257.4 114.454 257.708 115H256.42C256.238 114.706 256 114.174 255.79 113.614C255.328 112.522 254.698 112.018 253.55 112.018H253.312V115H252.094V108.224ZM261.581 108.07C263.527 108.07 264.843 109.484 264.843 111.556C264.843 114.062 263.107 115.154 261.469 115.154C259.635 115.154 258.221 113.81 258.221 111.668C258.221 109.4 259.705 108.07 261.581 108.07ZM261.553 108.994C260.097 108.994 259.467 110.338 259.467 111.626C259.467 113.11 260.321 114.23 261.525 114.23C262.701 114.23 263.583 113.124 263.583 111.598C263.583 110.45 263.009 108.994 261.553 108.994ZM266.367 115V108.308C266.843 108.224 267.725 108.154 268.523 108.154C269.657 108.154 271.533 108.336 271.533 109.848C271.533 110.688 270.889 111.206 270.119 111.374V111.402C271.113 111.542 271.841 112.102 271.841 113.082C271.841 114.86 269.601 115.084 268.271 115.084C267.515 115.084 266.731 115.028 266.367 115ZM267.543 109.064V111.066H268.467C269.377 111.066 270.315 110.8 270.315 110.002C270.315 109.33 269.727 109.008 268.495 109.008C268.089 109.008 267.837 109.036 267.543 109.064ZM267.529 111.878V114.188C267.879 114.23 268.131 114.244 268.523 114.244C269.349 114.244 270.581 114.048 270.581 113.068C270.581 112.088 269.601 111.878 268.425 111.878H267.529ZM278.015 113.824L278.225 114.748C277.903 114.916 277.189 115.14 276.279 115.14C274.235 115.14 272.905 113.754 272.905 111.682C272.905 109.596 274.333 108.084 276.545 108.084C277.273 108.084 277.917 108.266 278.253 108.434L277.973 109.386C277.679 109.218 277.217 109.064 276.545 109.064C274.991 109.064 274.151 110.212 274.151 111.626C274.151 113.194 275.159 114.16 276.503 114.16C277.203 114.16 277.665 113.978 278.015 113.824ZM279.67 108.224H280.888V111.164H281.182L283.73 108.224H285.228L282.274 111.29C283.366 111.402 284.024 112.13 284.556 113.348C284.738 113.796 284.976 114.454 285.284 115H283.996C283.814 114.706 283.576 114.174 283.366 113.614C282.904 112.522 282.274 112.018 281.126 112.018H280.888V115H279.67V108.224ZM286.342 108.224H287.504V111.08C287.504 112.158 287.49 112.83 287.434 113.796L287.476 113.81C287.882 112.984 288.12 112.508 288.568 111.724L290.682 108.224H292.124V115H290.948V112.13C290.948 111.024 290.976 110.45 291.032 109.358H290.99C290.556 110.226 290.262 110.772 289.87 111.458C289.226 112.508 288.484 113.81 287.756 115H286.342V108.224ZM294.094 108.224H295.256V111.08C295.256 112.158 295.242 112.83 295.186 113.796L295.228 113.81C295.634 112.984 295.872 112.508 296.32 111.724L298.434 108.224H299.876V115H298.7V112.13C298.7 111.024 298.728 110.45 298.784 109.358H298.742C298.308 110.226 298.014 110.772 297.622 111.458C296.978 112.508 296.236 113.81 295.508 115H294.094V108.224ZM295.158 105.466H296.054C296.096 106.068 296.39 106.53 296.95 106.53C297.552 106.53 297.832 106.082 297.902 105.466H298.784C298.728 106.614 298 107.202 296.922 107.202C295.69 107.202 295.214 106.432 295.158 105.466ZM301.958 116.638L301.076 116.722C301.384 115.896 301.762 114.398 301.916 113.376L303.288 113.236C302.966 114.426 302.35 115.98 301.958 116.638ZM211.139 127.726L211.391 128.692C210.943 128.916 210.047 129.14 208.899 129.14C206.239 129.14 204.237 127.46 204.237 124.366C204.237 121.412 206.239 119.41 209.165 119.41C210.341 119.41 211.083 119.662 211.405 119.83L211.111 120.824C210.649 120.6 209.991 120.432 209.207 120.432C206.995 120.432 205.525 121.846 205.525 124.324C205.525 126.634 206.855 128.118 209.151 128.118C209.893 128.118 210.649 127.964 211.139 127.726ZM218.104 125.836H213.344C213.372 127.502 214.436 128.188 215.668 128.188C216.55 128.188 217.082 128.034 217.544 127.838L217.754 128.72C217.32 128.916 216.578 129.14 215.5 129.14C213.414 129.14 212.168 127.768 212.168 125.724C212.168 123.68 213.372 122.07 215.346 122.07C217.558 122.07 218.146 124.016 218.146 125.262C218.146 125.514 218.118 125.71 218.104 125.836ZM213.358 124.954H216.956C216.97 124.17 216.634 122.952 215.248 122.952C214.002 122.952 213.456 124.1 213.358 124.954ZM219.671 131.772V124.436C219.671 123.568 219.643 122.868 219.615 122.224H220.721L220.777 123.386H220.805C221.309 122.56 222.107 122.07 223.213 122.07C224.851 122.07 226.083 123.456 226.083 125.514C226.083 127.95 224.599 129.154 223.003 129.154C222.107 129.154 221.323 128.762 220.917 128.09H220.889V131.772H219.671ZM220.889 125.08V126.242C220.889 126.424 220.917 126.592 220.945 126.746C221.169 127.6 221.911 128.188 222.793 128.188C224.095 128.188 224.851 127.124 224.851 125.57C224.851 124.212 224.137 123.05 222.835 123.05C221.995 123.05 221.211 123.652 220.973 124.576C220.931 124.73 220.889 124.912 220.889 125.08ZM227.614 122.224H231.772V123.218H228.832V129H227.614V122.224ZM238.201 125.836H233.441C233.469 127.502 234.533 128.188 235.765 128.188C236.647 128.188 237.179 128.034 237.641 127.838L237.851 128.72C237.417 128.916 236.675 129.14 235.597 129.14C233.511 129.14 232.265 127.768 232.265 125.724C232.265 123.68 233.469 122.07 235.443 122.07C237.655 122.07 238.243 124.016 238.243 125.262C238.243 125.514 238.215 125.71 238.201 125.836ZM233.455 124.954H237.053C237.067 124.17 236.731 122.952 235.345 122.952C234.099 122.952 233.553 124.1 233.455 124.954ZM239.741 122.224H240.903V125.08C240.903 126.158 240.889 126.83 240.833 127.796L240.875 127.81C241.281 126.984 241.519 126.508 241.967 125.724L244.081 122.224H245.523V129H244.347V126.13C244.347 125.024 244.375 124.45 244.431 123.358H244.389C243.955 124.226 243.661 124.772 243.269 125.458C242.625 126.508 241.883 127.81 241.155 129H239.741V122.224ZM240.805 119.466H241.701C241.743 120.068 242.037 120.53 242.597 120.53C243.199 120.53 243.479 120.082 243.549 119.466H244.431C244.375 120.614 243.647 121.202 242.569 121.202C241.337 121.202 240.861 120.432 240.805 119.466ZM251.188 119.564H256.732V129H255.5V120.586H252.378V123.442C252.378 125.486 252.294 127.768 250.964 128.664C250.614 128.888 250.068 129.112 249.522 129.112L249.368 128.132C249.746 128.062 250.138 127.838 250.362 127.628C251.118 126.886 251.188 125.052 251.188 123.54V119.564ZM263.672 129H262.552L262.454 128.146H262.412C262.034 128.678 261.306 129.154 260.34 129.154C258.968 129.154 258.268 128.188 258.268 127.208C258.268 125.57 259.724 124.674 262.342 124.688V124.548C262.342 123.988 262.188 122.98 260.802 122.98C260.172 122.98 259.514 123.176 259.038 123.484L258.758 122.672C259.318 122.308 260.13 122.07 260.984 122.07C263.056 122.07 263.56 123.484 263.56 124.842V127.376C263.56 127.964 263.588 128.538 263.672 129ZM262.37 126.718V125.542C261.026 125.514 259.5 125.752 259.5 127.068C259.5 127.866 260.032 128.244 260.662 128.244C261.544 128.244 262.104 127.684 262.3 127.11C262.342 126.984 262.37 126.844 262.37 126.718ZM266.114 125.906V125.066H266.702C267.738 125.066 268.438 124.59 268.438 123.96C268.438 123.358 267.892 122.98 267.122 122.98C266.576 122.98 265.96 123.162 265.484 123.456L265.176 122.7C265.862 122.28 266.646 122.084 267.43 122.084C268.466 122.084 269.726 122.546 269.726 123.862C269.726 124.702 268.956 125.248 268.2 125.402V125.43C269.208 125.514 270.048 126.13 270.048 127.124C270.048 128.594 268.55 129.14 267.122 129.14C266.324 129.14 265.526 128.93 264.924 128.594L265.246 127.768C265.736 128.034 266.394 128.23 267.038 128.23C268.06 128.23 268.704 127.74 268.704 127.068C268.704 126.158 267.752 125.906 266.73 125.906H266.114ZM276.456 129H275.336L275.238 128.146H275.196C274.818 128.678 274.09 129.154 273.124 129.154C271.752 129.154 271.052 128.188 271.052 127.208C271.052 125.57 272.508 124.674 275.126 124.688V124.548C275.126 123.988 274.972 122.98 273.586 122.98C272.956 122.98 272.298 123.176 271.822 123.484L271.542 122.672C272.102 122.308 272.914 122.07 273.768 122.07C275.84 122.07 276.344 123.484 276.344 124.842V127.376C276.344 127.964 276.372 128.538 276.456 129ZM275.154 126.718V125.542C273.81 125.514 272.284 125.752 272.284 127.068C272.284 127.866 272.816 128.244 273.446 128.244C274.328 128.244 274.888 127.684 275.084 127.11C275.126 126.984 275.154 126.844 275.154 126.718ZM278.337 131.772V124.436C278.337 123.568 278.309 122.868 278.281 122.224H279.387L279.443 123.386H279.471C279.975 122.56 280.773 122.07 281.879 122.07C283.517 122.07 284.749 123.456 284.749 125.514C284.749 127.95 283.265 129.154 281.669 129.154C280.773 129.154 279.989 128.762 279.583 128.09H279.555V131.772H278.337ZM279.555 125.08V126.242C279.555 126.424 279.583 126.592 279.611 126.746C279.835 127.6 280.577 128.188 281.459 128.188C282.761 128.188 283.517 127.124 283.517 125.57C283.517 124.212 282.803 123.05 281.501 123.05C280.661 123.05 279.877 123.652 279.639 124.576C279.597 124.73 279.555 124.912 279.555 125.08ZM291.754 125.836H286.994C287.022 127.502 288.086 128.188 289.318 128.188C290.2 128.188 290.732 128.034 291.194 127.838L291.404 128.72C290.97 128.916 290.228 129.14 289.15 129.14C287.064 129.14 285.818 127.768 285.818 125.724C285.818 123.68 287.022 122.07 288.996 122.07C291.208 122.07 291.796 124.016 291.796 125.262C291.796 125.514 291.768 125.71 291.754 125.836ZM287.008 124.954H290.606C290.62 124.17 290.284 122.952 288.898 122.952C287.652 122.952 287.106 124.1 287.008 124.954ZM293.294 129V122.308C293.77 122.224 294.652 122.154 295.45 122.154C296.584 122.154 298.46 122.336 298.46 123.848C298.46 124.688 297.816 125.206 297.046 125.374V125.402C298.04 125.542 298.768 126.102 298.768 127.082C298.768 128.86 296.528 129.084 295.198 129.084C294.442 129.084 293.658 129.028 293.294 129ZM294.47 123.064V125.066H295.394C296.304 125.066 297.242 124.8 297.242 124.002C297.242 123.33 296.654 123.008 295.422 123.008C295.016 123.008 294.764 123.036 294.47 123.064ZM294.456 125.878V128.188C294.806 128.23 295.058 128.244 295.45 128.244C296.276 128.244 297.508 128.048 297.508 127.068C297.508 126.088 296.528 125.878 295.352 125.878H294.456ZM227.682 136.224H228.844V139.08C228.844 140.158 228.83 140.83 228.774 141.796L228.816 141.81C229.222 140.984 229.46 140.508 229.908 139.724L232.022 136.224H233.464V143H232.288V140.13C232.288 139.024 232.316 138.45 232.372 137.358H232.33C231.896 138.226 231.602 138.772 231.21 139.458C230.566 140.508 229.824 141.81 229.096 143H227.682V136.224ZM239.157 136.224H243.679V142.076L244.379 142.09L244.309 145.156H243.343L243.287 143H238.597L238.541 145.156H237.575L237.519 142.09L238.093 142.076C238.387 141.642 238.611 141.18 238.765 140.69C239.031 139.85 239.157 138.94 239.157 137.988V136.224ZM240.249 137.162V138.282C240.249 139.178 240.123 140.046 239.899 140.802C239.759 141.264 239.563 141.684 239.353 142.062H242.475V137.162H240.249ZM245.853 145.772V138.436C245.853 137.568 245.825 136.868 245.797 136.224H246.903L246.959 137.386H246.987C247.491 136.56 248.289 136.07 249.395 136.07C251.033 136.07 252.265 137.456 252.265 139.514C252.265 141.95 250.781 143.154 249.185 143.154C248.289 143.154 247.505 142.762 247.099 142.09H247.071V145.772H245.853ZM247.071 139.08V140.242C247.071 140.424 247.099 140.592 247.127 140.746C247.351 141.6 248.093 142.188 248.975 142.188C250.277 142.188 251.033 141.124 251.033 139.57C251.033 138.212 250.319 137.05 249.017 137.05C248.177 137.05 247.393 137.652 247.155 138.576C247.113 138.73 247.071 138.912 247.071 139.08ZM252.791 136.224H254.135L255.619 140.228C255.773 140.676 255.941 141.208 256.053 141.614H256.081C256.207 141.208 256.347 140.69 256.515 140.2L257.859 136.224H259.161L257.313 141.054C256.431 143.378 255.829 144.568 254.989 145.296C254.387 145.828 253.785 146.038 253.477 146.094L253.169 145.058C253.477 144.96 253.883 144.764 254.247 144.456C254.583 144.19 255.003 143.714 255.283 143.084C255.339 142.958 255.381 142.86 255.381 142.79C255.381 142.72 255.353 142.622 255.297 142.468L252.791 136.224ZM260.249 136.224H264.407V137.218H261.467V143H260.249V136.224ZM265.54 136.224H266.702V139.08C266.702 140.158 266.688 140.83 266.632 141.796L266.674 141.81C267.08 140.984 267.318 140.508 267.766 139.724L269.88 136.224H271.322V143H270.146V140.13C270.146 139.024 270.174 138.45 270.23 137.358H270.188C269.754 138.226 269.46 138.772 269.068 139.458C268.424 140.508 267.682 141.81 266.954 143H265.54V136.224ZM278.766 139.836H274.006C274.034 141.502 275.098 142.188 276.33 142.188C277.212 142.188 277.744 142.034 278.206 141.838L278.416 142.72C277.982 142.916 277.24 143.14 276.162 143.14C274.076 143.14 272.83 141.768 272.83 139.724C272.83 137.68 274.034 136.07 276.008 136.07C278.22 136.07 278.808 138.016 278.808 139.262C278.808 139.514 278.78 139.71 278.766 139.836ZM274.02 138.954H277.618C277.632 138.17 277.296 136.952 275.91 136.952C274.664 136.952 274.118 138.1 274.02 138.954Z" fill="white"/>
</g>
<rect width="164.51" height="158.835" transform="matrix(0.997643 -0.0686209 0.0684026 0.997658 2.93616 169.188)" fill="#3B3393"/>
<path d="M25.1061 203.316V208.116H27.0061V203.316H25.1061ZM25.1061 201.316H28.1861C28.7461 201.316 29.1061 201.696 29.1061 202.236V209.196C29.1061 209.736 28.7461 210.116 28.1861 210.116H23.0061V196.116H28.9061V198.116H25.1061V201.316ZM32.3131 208.116H34.4131V198.116H32.3131V208.116ZM35.5931 210.116H31.1331C30.5731 210.116 30.2131 209.736 30.2131 209.196V197.036C30.2131 196.496 30.5731 196.116 31.1331 196.116H35.5931C36.1531 196.116 36.5131 196.496 36.5131 197.036V209.196C36.5131 209.736 36.1531 210.116 35.5931 210.116ZM40.6731 198.116L39.9931 210.116H37.2131V208.116H38.0131L38.6931 196.116H43.8131V210.116H41.7131V198.116H40.6731ZM47.1178 203.316V208.116H49.0178V203.316H47.1178ZM50.1978 210.116H45.0178V196.116H47.1178V201.316H50.1978C50.7578 201.316 51.1178 201.696 51.1178 202.236V209.196C51.1178 209.736 50.7578 210.116 50.1978 210.116ZM61.9249 210.116H52.2249V196.116H54.3249V208.116H56.0249V196.116H58.1249V208.116H59.8249V196.116H61.9249V210.116ZM65.2233 208.116H67.3233V198.116H65.2233V208.116ZM68.5033 210.116H64.0433C63.4833 210.116 63.1233 209.736 63.1233 209.196V197.036C63.1233 196.496 63.4833 196.116 64.0433 196.116H68.5033C69.0633 196.116 69.4233 196.496 69.4233 197.036V209.196C69.4233 209.736 69.0633 210.116 68.5033 210.116ZM70.6233 210.116V196.116H75.8233V198.116H72.7233V201.516H75.7233V203.516H72.7233V208.116H75.8233V210.116H70.6233ZM86.4303 210.116H81.2503C80.6903 210.116 80.3303 209.736 80.3303 209.196V197.036C80.3303 196.496 80.6903 196.116 81.2503 196.116H86.4303V200.116H84.3303V198.116H82.4303V208.116H84.3303V205.516H86.4303V210.116ZM89.6374 208.116H91.7374V198.116H89.6374V208.116ZM92.9174 210.116H88.4574C87.8974 210.116 87.5374 209.736 87.5374 209.196V197.036C87.5374 196.496 87.8974 196.116 88.4574 196.116H92.9174C93.4774 196.116 93.8374 196.496 93.8374 197.036V209.196C93.8374 209.736 93.4774 210.116 92.9174 210.116ZM97.1374 208.116H99.2374V198.116H97.1374V208.116ZM100.417 210.116H95.9574C95.3974 210.116 95.0374 209.736 95.0374 209.196V197.036C95.0374 196.496 95.3974 196.116 95.9574 196.116H100.417C100.977 196.116 101.337 196.496 101.337 197.036V209.196C101.337 209.736 100.977 210.116 100.417 210.116ZM104.637 203.316V208.116H106.537V203.316H104.637ZM104.637 201.316H107.717C108.277 201.316 108.637 201.696 108.637 202.236V209.196C108.637 209.736 108.277 210.116 107.717 210.116H102.537V196.116H108.437V198.116H104.637V201.316ZM117.344 196.116H119.444V208.116H120.144V211.956H118.044V210.116H109.744V196.116H111.844V208.116H113.544V196.116H115.644V208.116H117.344V196.116ZM120.936 210.116V196.116H126.136V198.116H123.036V201.516H126.036V203.516H123.036V208.116H126.136V210.116H120.936ZM133.344 210.116H128.164C127.604 210.116 127.244 209.736 127.244 209.196V197.036C127.244 196.496 127.604 196.116 128.164 196.116H133.344V200.116H131.244V198.116H129.344V208.116H131.244V205.516H133.344V210.116ZM134.051 198.116V196.116H140.151V198.116H138.151V210.116H136.051V198.116H134.051ZM144.955 201.516V198.116H143.055V201.516H144.955ZM144.955 203.516H143.055V208.116H144.955V203.516ZM147.055 197.036V200.956C147.055 201.756 146.635 202.296 146.015 202.516C146.635 202.736 147.055 203.256 147.055 204.076V209.196C147.055 209.736 146.695 210.116 146.135 210.116H140.955V196.116H146.135C146.695 196.116 147.055 196.496 147.055 197.036ZM150.36 208.116H152.46V198.116H150.36V208.116ZM153.64 210.116H149.18C148.62 210.116 148.26 209.736 148.26 209.196V197.036C148.26 196.496 148.62 196.116 149.18 196.116H153.64C154.2 196.116 154.56 196.496 154.56 197.036V209.196C154.56 209.736 154.2 210.116 153.64 210.116Z" fill="white"/>
<path d="M60.4424 270.982V263.03H60.4144L58.8324 263.884L58.5944 262.946L60.5824 261.882H61.6324V270.982H60.4424ZM70.3782 261.882V262.918H66.9062L66.5562 265.256C66.7662 265.228 66.9622 265.2 67.2982 265.2C67.9982 265.2 68.6982 265.354 69.2582 265.69C69.9722 266.096 70.5602 266.88 70.5602 268.028C70.5602 269.806 69.1462 271.136 67.1722 271.136C66.1782 271.136 65.3382 270.856 64.9042 270.576L65.2122 269.638C65.5902 269.862 66.3322 270.142 67.1582 270.142C68.3202 270.142 69.3142 269.386 69.3142 268.168C69.3002 266.992 68.5162 266.152 66.6962 266.152C66.1782 266.152 65.7722 266.208 65.4362 266.25L66.0242 261.882H70.3782ZM75.1619 261.728C77.0799 261.728 78.1719 263.436 78.1719 266.334C78.1719 269.428 77.0239 271.136 75.0079 271.136C73.2299 271.136 72.0259 269.47 71.9979 266.46C71.9979 263.408 73.3139 261.728 75.1619 261.728ZM75.0919 262.68C74.0139 262.68 73.2299 263.996 73.2299 266.474C73.2299 268.84 73.9579 270.184 75.0779 270.184C76.3379 270.184 76.9399 268.714 76.9399 266.39C76.9399 264.15 76.3659 262.68 75.0919 262.68ZM81.7924 264.206H87.2384V265.186H85.1244V270.982H83.9064V265.186H81.7924V264.206ZM88.2926 264.206H89.5106V266.516C89.7766 266.46 90.1686 266.432 90.6166 266.432C92.0726 266.432 93.5426 267.034 93.5426 268.7C93.5426 269.414 93.2766 269.904 92.8426 270.268C92.1006 270.898 91.0086 271.052 90.1126 271.052C89.4266 271.052 88.7966 271.01 88.2926 270.954V264.206ZM89.5106 267.384V270.128C89.7486 270.156 90.0146 270.184 90.3646 270.184C91.3026 270.184 92.3246 269.792 92.3246 268.742C92.3246 267.65 91.3446 267.314 90.4206 267.314C90.0706 267.314 89.7626 267.342 89.5106 267.384ZM94.3966 264.206H95.6146V270.982H94.3966V264.206ZM102.251 269.806L102.461 270.73C102.139 270.898 101.425 271.122 100.515 271.122C98.4711 271.122 97.1411 269.736 97.1411 267.664C97.1411 265.578 98.5691 264.066 100.781 264.066C101.509 264.066 102.153 264.248 102.489 264.416L102.209 265.368C101.915 265.2 101.453 265.046 100.781 265.046C99.2271 265.046 98.3871 266.194 98.3871 267.608C98.3871 269.176 99.3951 270.142 100.739 270.142C101.439 270.142 101.901 269.96 102.251 269.806ZM108.972 264.262V270.982H107.754V268.14H106.844C106.326 268.14 105.976 268.28 105.71 268.518C105.206 268.924 105.024 269.764 104.758 270.422C104.674 270.632 104.576 270.814 104.478 270.982H103.162C103.316 270.758 103.456 270.506 103.582 270.212C103.876 269.554 104.044 268.672 104.646 268.168C104.856 267.986 105.108 267.832 105.416 267.776V267.734C104.534 267.636 103.624 267.09 103.624 266.054C103.624 265.354 104.002 264.878 104.52 264.584C105.08 264.262 105.906 264.122 106.788 264.122C107.6 264.122 108.384 264.192 108.972 264.262ZM107.754 267.3V265.018C107.446 264.976 107.166 264.948 106.732 264.948C105.892 264.948 104.898 265.186 104.898 266.124C104.898 266.992 105.976 267.3 106.704 267.3C107.208 267.3 107.474 267.3 107.754 267.3ZM110.712 264.206H111.944V266.432C111.944 267.286 112.266 267.874 113.344 267.874C113.876 267.874 114.422 267.678 114.8 267.398V264.206H116.018V270.982H114.8V268.266H114.772C114.31 268.574 113.582 268.784 112.938 268.784C111.65 268.784 110.712 268.126 110.712 266.572V264.206ZM32.8832 278.206H37.5872V284.982H36.3692V279.172H34.0452V280.936C34.0452 282.84 33.8632 284.114 32.9812 284.688C32.6452 284.954 32.2672 285.108 31.6372 285.108L31.5112 284.142C31.7492 284.1 32.0152 284.002 32.1832 283.862C32.8132 283.4 32.8832 282.448 32.8832 280.936V278.206ZM39.5729 278.206H40.7769V281.062H41.9389C42.1489 279.27 43.3249 278.052 44.9489 278.052C46.7129 278.052 47.9169 279.452 47.9169 281.538C47.9169 283.736 46.5729 285.136 44.8649 285.136C43.2409 285.136 42.0509 283.932 41.9109 282H40.7769V284.982H39.5729V278.206ZM44.8789 284.226C46.1249 284.226 46.6849 282.854 46.6849 281.566C46.6849 280.292 46.1109 278.976 44.9069 278.976C43.7169 278.976 43.0869 280.264 43.0869 281.636C43.0869 282.952 43.6889 284.226 44.8789 284.226ZM54.652 274.888L54.596 275.91C54.246 276.036 53.63 276.148 53.182 276.218C52.09 276.386 51.292 276.75 50.774 277.492C50.34 278.108 50.088 279.018 50.032 279.732H50.074C50.508 278.752 51.46 278.206 52.426 278.206C54.092 278.206 55.31 279.396 55.31 281.552C55.31 283.764 54.162 285.136 52.174 285.136C49.794 285.136 49.01 282.854 49.01 280.6C49.01 279.06 49.332 277.8 50.06 276.848C50.718 275.91 51.656 275.476 52.972 275.252C53.518 275.168 54.19 275.056 54.652 274.888ZM54.064 281.65C54.064 280.544 53.63 279.116 52.174 279.116C51.446 279.116 50.928 279.494 50.648 280.04C50.424 280.446 50.312 280.936 50.312 281.482C50.312 282.602 50.858 284.212 52.202 284.212C53.56 284.212 54.064 282.896 54.064 281.65ZM56.8404 278.206H58.0024V281.062C58.0024 282.14 57.9884 282.812 57.9324 283.778L57.9744 283.792C58.3804 282.966 58.6184 282.49 59.0664 281.706L61.1804 278.206H62.6224V284.982H61.4464V282.112C61.4464 281.006 61.4744 280.432 61.5304 279.34H61.4884C61.0544 280.208 60.7604 280.754 60.3684 281.44C59.7244 282.49 58.9824 283.792 58.2544 284.982H56.8404V278.206ZM63.7114 278.206H69.1574V279.186H67.0434V284.982H65.8254V279.186H63.7114V278.206ZM75.5078 281.818H70.7478C70.7758 283.484 71.8398 284.17 73.0718 284.17C73.9538 284.17 74.4858 284.016 74.9478 283.82L75.1578 284.702C74.7238 284.898 73.9818 285.122 72.9038 285.122C70.8178 285.122 69.5718 283.75 69.5718 281.706C69.5718 279.662 70.7758 278.052 72.7498 278.052C74.9618 278.052 75.5498 279.998 75.5498 281.244C75.5498 281.496 75.5218 281.692 75.5078 281.818ZM70.7618 280.936H74.3598C74.3738 280.152 74.0378 278.934 72.6518 278.934C71.4058 278.934 70.8598 280.082 70.7618 280.936ZM77.5218 278.206H82.2258V284.982H81.0078V279.172H78.6838V280.936C78.6838 282.84 78.5018 284.114 77.6198 284.688C77.2838 284.954 76.9058 285.108 76.2758 285.108L76.1498 284.142C76.3878 284.1 76.6538 284.002 76.8218 283.862C77.4518 283.4 77.5218 282.448 77.5218 280.936V278.206ZM89.6855 281.818H84.9255C84.9535 283.484 86.0175 284.17 87.2495 284.17C88.1315 284.17 88.6635 284.016 89.1255 283.82L89.3355 284.702C88.9015 284.898 88.1595 285.122 87.0815 285.122C84.9955 285.122 83.7495 283.75 83.7495 281.706C83.7495 279.662 84.9535 278.052 86.9275 278.052C89.1395 278.052 89.7275 279.998 89.7275 281.244C89.7275 281.496 89.6995 281.692 89.6855 281.818ZM84.9395 280.936H88.5375C88.5515 280.152 88.2155 278.934 86.8295 278.934C85.5835 278.934 85.0375 280.082 84.9395 280.936ZM91.2252 278.206H92.3872V281.062C92.3872 282.14 92.3732 282.812 92.3172 283.778L92.3592 283.792C92.7652 282.966 93.0032 282.49 93.4512 281.706L95.5652 278.206H97.0072V284.982H95.8312V282.112C95.8312 281.006 95.8592 280.432 95.9152 279.34H95.8732C95.4392 280.208 95.1452 280.754 94.7532 281.44C94.1092 282.49 93.3672 283.792 92.6392 284.982H91.2252V278.206ZM92.2892 275.448H93.1852C93.2272 276.05 93.5212 276.512 94.0812 276.512C94.6832 276.512 94.9632 276.064 95.0332 275.448H95.9152C95.8592 276.596 95.1312 277.184 94.0532 277.184C92.8212 277.184 92.3452 276.414 92.2892 275.448ZM106.592 283.806L106.802 284.73C106.48 284.898 105.766 285.122 104.856 285.122C102.812 285.122 101.482 283.736 101.482 281.664C101.482 279.578 102.91 278.066 105.122 278.066C105.85 278.066 106.494 278.248 106.83 278.416L106.55 279.368C106.256 279.2 105.794 279.046 105.122 279.046C103.568 279.046 102.728 280.194 102.728 281.608C102.728 283.176 103.736 284.142 105.08 284.142C105.78 284.142 106.242 283.96 106.592 283.806ZM108.219 278.206H113.819V284.982H112.587V279.186H109.437V284.982H108.219V278.206ZM118.692 278.052C120.638 278.052 121.954 279.466 121.954 281.538C121.954 284.044 120.218 285.136 118.58 285.136C116.746 285.136 115.332 283.792 115.332 281.65C115.332 279.382 116.816 278.052 118.692 278.052ZM118.664 278.976C117.208 278.976 116.578 280.32 116.578 281.608C116.578 283.092 117.432 284.212 118.636 284.212C119.812 284.212 120.694 283.106 120.694 281.58C120.694 280.432 120.12 278.976 118.664 278.976ZM123.505 287.754V280.418C123.505 279.55 123.477 278.85 123.449 278.206H124.555L124.611 279.368H124.639C125.143 278.542 125.941 278.052 127.047 278.052C128.685 278.052 129.917 279.438 129.917 281.496C129.917 283.932 128.433 285.136 126.837 285.136C125.941 285.136 125.157 284.744 124.751 284.072H124.723V287.754H123.505ZM124.723 281.062V282.224C124.723 282.406 124.751 282.574 124.779 282.728C125.003 283.582 125.745 284.17 126.627 284.17C127.929 284.17 128.685 283.106 128.685 281.552C128.685 280.194 127.971 279.032 126.669 279.032C125.829 279.032 125.045 279.634 124.807 280.558C124.765 280.712 124.723 280.894 124.723 281.062ZM130.498 278.206H135.944V279.186H133.83V284.982H132.612V279.186H130.498V278.206ZM141.803 284.982H140.683L140.585 284.128H140.543C140.165 284.66 139.437 285.136 138.471 285.136C137.099 285.136 136.399 284.17 136.399 283.19C136.399 281.552 137.855 280.656 140.473 280.67V280.53C140.473 279.97 140.319 278.962 138.933 278.962C138.303 278.962 137.645 279.158 137.169 279.466L136.889 278.654C137.449 278.29 138.261 278.052 139.115 278.052C141.187 278.052 141.691 279.466 141.691 280.824V283.358C141.691 283.946 141.719 284.52 141.803 284.982ZM140.501 282.7V281.524C139.157 281.496 137.631 281.734 137.631 283.05C137.631 283.848 138.163 284.226 138.793 284.226C139.675 284.226 140.235 283.666 140.431 283.092C140.473 282.966 140.501 282.826 140.501 282.7Z" fill="white"/>
<rect width="164.51" height="158.835" transform="matrix(0.995496 0.0948003 -0.0950181 0.995476 179.092 153.235)" fill="white"/>
<path d="M230.349 200.4L232.509 208H230.289L228.449 201.4H227.909V208H225.809V194H227.909V199.4H228.509L230.289 194H232.509L230.349 200.4ZM235.311 206H237.411V196H235.311V206ZM238.591 208H234.131C233.571 208 233.211 207.62 233.211 207.08V194.92C233.211 194.38 233.571 194 234.131 194H238.591C239.151 194 239.511 194.38 239.511 194.92V207.08C239.511 207.62 239.151 208 238.591 208ZM245.111 194H247.211V208H245.111V201.4H242.811V208H240.711V194H242.811V199.4H245.111V194ZM253.206 209.84V208H248.406V194H250.506V206H252.506V194H254.606V206H255.306V209.84H253.206ZM256.102 208V194H261.302V196H258.202V199.4H261.202V201.4H258.202V206H261.302V208H256.102ZM264.51 196V201.4H266.51V196H264.51ZM267.69 203.4H264.51V208H262.41V194H267.69C268.25 194 268.61 194.38 268.61 194.92V202.48C268.61 203.02 268.25 203.4 267.69 203.4ZM269.315 196V194H275.415V196H273.415V208H271.315V196H269.315ZM210.151 228H204.971C204.411 228 204.051 227.62 204.051 227.08V214.92C204.051 214.38 204.411 214 204.971 214H210.151V218H208.051V216H206.151V226H208.051V223.4H210.151V228ZM214.656 214H221.056V228H218.956V216H216.756V228H214.656V214ZM224.354 226H226.454V216H224.354V226ZM227.634 228H223.174C222.614 228 222.254 227.62 222.254 227.08V214.92C222.254 214.38 222.614 214 223.174 214H227.634C228.194 214 228.554 214.38 228.554 214.92V227.08C228.554 227.62 228.194 228 227.634 228ZM229.754 214H236.154V228H234.054V216H231.854V228H229.754V214ZM243.952 214L241.672 228H238.832V226H239.912L240.332 223.4H238.832L236.852 214H238.992L240.552 221.4H240.652L241.872 214H243.952ZM247.226 216L246.546 228H243.766V226H244.566L245.246 214H250.366V228H248.266V216H247.226ZM253.39 228H251.17L253.23 221.4H252.59C252.03 221.4 251.67 221.02 251.67 220.48V214.92C251.67 214.38 252.03 214 252.59 214H257.77V228H255.67V221.4H255.47L253.39 228ZM255.67 219.4V216H253.77V219.4H255.67ZM261.073 216V221.4H263.073V216H261.073ZM264.253 223.4H261.073V228H258.973V214H264.253C264.813 214 265.173 214.38 265.173 214.92V222.48C265.173 223.02 264.813 223.4 264.253 223.4ZM270.677 214H272.777V228H270.677V221.4H268.377V228H266.277V214H268.377V219.4H270.677V214ZM276.073 221.2V226H277.673V221.2H276.073ZM282.673 228H280.573V214H282.673V228ZM279.773 220.12V227.08C279.773 227.62 279.413 228 278.853 228H273.973V214H276.073V219.2H278.853C279.413 219.2 279.773 219.58 279.773 220.12ZM288.195 222L289.915 214H292.475V228H290.375V222L290.715 218H290.615L289.155 225.2H287.195L285.695 218H285.595L285.975 222V228H283.875V214H286.435L288.135 222H288.195ZM300.18 228H298.08V220.16L295.78 224.98V228H293.68V214H295.78V221.12L298.08 216.3V214H300.18V228ZM218.953 234H225.153V248H223.053V243.4H221.053V248H218.953V234ZM223.053 241.4V236H221.053V241.4H223.053ZM228.456 236V241.4H230.456V236H228.456ZM231.636 243.4H228.456V248H226.356V234H231.636C232.196 234 232.556 234.38 232.556 234.92V242.48C232.556 243.02 232.196 243.4 231.636 243.4ZM233.26 236V234H239.36V236H237.36V248H235.26V236H233.26ZM246.664 248H244.564V240.16L242.264 244.98V248H240.164V234H242.264V241.12L244.564 236.3V234H246.664V248ZM253.959 248H248.779C248.219 248 247.859 247.62 247.859 247.08V234.92C247.859 234.38 248.219 234 248.779 234H253.959V238H251.859V236H249.959V246H251.859V243.4H253.959V248ZM254.666 236V234H260.766V236H258.766V248H256.666V236H254.666ZM261.57 234H267.77V248H265.67V243.4H263.67V248H261.57V234ZM265.67 241.4V236H263.67V241.4H265.67ZM273.293 242L275.013 234H277.573V248H275.473V242L275.813 238H275.713L274.253 245.2H272.293L270.793 238H270.693L271.073 242V248H268.973V234H271.533L273.233 242H273.293ZM285.277 248H283.177V240.16L280.877 244.98V248H278.777V234H280.877V241.12L283.177 236.3V234H285.277V248Z" fill="#3D348A"/>
<path d="M224.423 266.564H229.967V276H228.735V267.586H225.613V270.442C225.613 272.486 225.529 274.768 224.199 275.664C223.849 275.888 223.303 276.112 222.757 276.112L222.603 275.132C222.981 275.062 223.373 274.838 223.597 274.628C224.353 273.886 224.423 272.052 224.423 270.54V266.564ZM232.008 269.224H233.212V272.08H234.374C234.584 270.288 235.76 269.07 237.384 269.07C239.148 269.07 240.352 270.47 240.352 272.556C240.352 274.754 239.008 276.154 237.3 276.154C235.676 276.154 234.486 274.95 234.346 273.018H233.212V276H232.008V269.224ZM237.314 275.244C238.56 275.244 239.12 273.872 239.12 272.584C239.12 271.31 238.546 269.994 237.342 269.994C236.152 269.994 235.522 271.282 235.522 272.654C235.522 273.97 236.124 275.244 237.314 275.244ZM247.087 265.906L247.031 266.928C246.681 267.054 246.065 267.166 245.617 267.236C244.525 267.404 243.727 267.768 243.209 268.51C242.775 269.126 242.523 270.036 242.467 270.75H242.509C242.943 269.77 243.895 269.224 244.861 269.224C246.527 269.224 247.745 270.414 247.745 272.57C247.745 274.782 246.597 276.154 244.609 276.154C242.229 276.154 241.445 273.872 241.445 271.618C241.445 270.078 241.767 268.818 242.495 267.866C243.153 266.928 244.091 266.494 245.407 266.27C245.953 266.186 246.625 266.074 247.087 265.906ZM246.499 272.668C246.499 271.562 246.065 270.134 244.609 270.134C243.881 270.134 243.363 270.512 243.083 271.058C242.859 271.464 242.747 271.954 242.747 272.5C242.747 273.62 243.293 275.23 244.637 275.23C245.995 275.23 246.499 273.914 246.499 272.668ZM249.275 269.224H250.437V272.08C250.437 273.158 250.423 273.83 250.367 274.796L250.409 274.81C250.815 273.984 251.053 273.508 251.501 272.724L253.615 269.224H255.057V276H253.881V273.13C253.881 272.024 253.909 271.45 253.965 270.358H253.923C253.489 271.226 253.195 271.772 252.803 272.458C252.159 273.508 251.417 274.81 250.689 276H249.275V269.224ZM256.621 276L257.125 269.224H258.637L259.869 272.64C260.037 273.144 260.331 273.97 260.485 274.502H260.513C260.667 273.998 261.045 272.92 261.311 272.178L262.403 269.224H263.929L264.405 276H263.229L263.075 272.766C263.033 272.038 262.977 271.17 262.949 270.344H262.907C262.725 270.96 262.543 271.506 262.165 272.542L260.863 275.958H259.967L258.763 272.612C258.553 271.968 258.259 270.988 258.091 270.358H258.035C258.007 271.156 257.965 272.052 257.923 272.794L257.755 276H256.621ZM265.969 269.224H267.187V271.534C267.453 271.478 267.845 271.45 268.293 271.45C269.749 271.45 271.219 272.052 271.219 273.718C271.219 274.432 270.953 274.922 270.519 275.286C269.777 275.916 268.685 276.07 267.789 276.07C267.103 276.07 266.473 276.028 265.969 275.972V269.224ZM267.187 272.402V275.146C267.425 275.174 267.691 275.202 268.041 275.202C268.979 275.202 270.001 274.81 270.001 273.76C270.001 272.668 269.021 272.332 268.097 272.332C267.747 272.332 267.439 272.36 267.187 272.402ZM272.073 269.224H273.291V276H272.073V269.224ZM280.753 272.836H275.993C276.021 274.502 277.085 275.188 278.317 275.188C279.199 275.188 279.731 275.034 280.193 274.838L280.403 275.72C279.969 275.916 279.227 276.14 278.149 276.14C276.063 276.14 274.817 274.768 274.817 272.724C274.817 270.68 276.021 269.07 277.995 269.07C280.207 269.07 280.795 271.016 280.795 272.262C280.795 272.514 280.767 272.71 280.753 272.836ZM276.007 271.954H279.605C279.619 271.17 279.283 269.952 277.897 269.952C276.651 269.952 276.105 271.1 276.007 271.954ZM195.234 290L195.738 283.224H197.25L198.482 286.64C198.65 287.144 198.944 287.97 199.098 288.502H199.126C199.28 287.998 199.658 286.92 199.924 286.178L201.016 283.224H202.542L203.018 290H201.842L201.688 286.766C201.646 286.038 201.59 285.17 201.562 284.344H201.52C201.338 284.96 201.156 285.506 200.778 286.542L199.476 289.958H198.58L197.376 286.612C197.166 285.968 196.872 284.988 196.704 284.358H196.648C196.62 285.156 196.578 286.052 196.536 286.794L196.368 290H195.234ZM203.646 283.224H204.99L206.474 287.228C206.628 287.676 206.796 288.208 206.908 288.614H206.936C207.062 288.208 207.202 287.69 207.37 287.2L208.714 283.224H210.016L208.168 288.054C207.286 290.378 206.684 291.568 205.844 292.296C205.242 292.828 204.64 293.038 204.332 293.094L204.024 292.058C204.332 291.96 204.738 291.764 205.102 291.456C205.438 291.19 205.858 290.714 206.138 290.084C206.194 289.958 206.236 289.86 206.236 289.79C206.236 289.72 206.208 289.622 206.152 289.468L203.646 283.224ZM211.76 286.906V286.066H212.348C213.384 286.066 214.084 285.59 214.084 284.96C214.084 284.358 213.538 283.98 212.768 283.98C212.222 283.98 211.606 284.162 211.13 284.456L210.822 283.7C211.508 283.28 212.292 283.084 213.076 283.084C214.112 283.084 215.372 283.546 215.372 284.862C215.372 285.702 214.602 286.248 213.846 286.402V286.43C214.854 286.514 215.694 287.13 215.694 288.124C215.694 289.594 214.196 290.14 212.768 290.14C211.97 290.14 211.172 289.93 210.57 289.594L210.892 288.768C211.382 289.034 212.04 289.23 212.684 289.23C213.706 289.23 214.35 288.74 214.35 288.068C214.35 287.158 213.398 286.906 212.376 286.906H211.76ZM217.201 283.224H218.419V285.534C218.685 285.478 219.077 285.45 219.525 285.45C220.981 285.45 222.451 286.052 222.451 287.718C222.451 288.432 222.185 288.922 221.751 289.286C221.009 289.916 219.917 290.07 219.021 290.07C218.335 290.07 217.705 290.028 217.201 289.972V283.224ZM218.419 286.402V289.146C218.657 289.174 218.923 289.202 219.273 289.202C220.211 289.202 221.233 288.81 221.233 287.76C221.233 286.668 220.253 286.332 219.329 286.332C218.979 286.332 218.671 286.36 218.419 286.402ZM223.305 283.224H224.523V290H223.305V283.224ZM226.54 283.224H227.758V286.164H228.052L230.6 283.224H232.098L229.144 286.29C230.236 286.402 230.894 287.13 231.426 288.348C231.608 288.796 231.846 289.454 232.154 290H230.866C230.684 289.706 230.446 289.174 230.236 288.614C229.774 287.522 229.144 287.018 227.996 287.018H227.758V290H226.54V283.224ZM238.248 290H237.128L237.03 289.146H236.988C236.61 289.678 235.882 290.154 234.916 290.154C233.544 290.154 232.844 289.188 232.844 288.208C232.844 286.57 234.3 285.674 236.918 285.688V285.548C236.918 284.988 236.764 283.98 235.378 283.98C234.748 283.98 234.09 284.176 233.614 284.484L233.334 283.672C233.894 283.308 234.706 283.07 235.56 283.07C237.632 283.07 238.136 284.484 238.136 285.842V288.376C238.136 288.964 238.164 289.538 238.248 290ZM236.946 287.718V286.542C235.602 286.514 234.076 286.752 234.076 288.068C234.076 288.866 234.608 289.244 235.238 289.244C236.12 289.244 236.68 288.684 236.876 288.11C236.918 287.984 236.946 287.844 236.946 287.718ZM240.589 283.224H245.293V290H244.075V284.19H241.751V285.954C241.751 287.858 241.569 289.132 240.687 289.706C240.351 289.972 239.973 290.126 239.343 290.126L239.217 289.16C239.455 289.118 239.721 289.02 239.889 288.88C240.519 288.418 240.589 287.466 240.589 285.954V283.224ZM247.279 283.224H248.497V285.52C248.777 285.464 249.253 285.45 249.617 285.45C251.143 285.45 252.753 285.926 252.753 287.732C252.753 288.432 252.473 288.922 252.039 289.286C251.297 289.916 250.093 290.07 249.099 290.07C248.413 290.07 247.783 290.028 247.279 289.972V283.224ZM248.497 286.402V289.146C248.735 289.174 249.001 289.202 249.407 289.202C250.331 289.202 251.521 288.894 251.521 287.76C251.521 286.584 250.289 286.332 249.379 286.332C249.057 286.332 248.777 286.36 248.497 286.402ZM254.252 283.224H255.47V285.954H258.69V283.224H259.908V290H258.69V286.934H255.47V290H254.252V283.224ZM261.894 283.224H263.112V285.534C263.378 285.478 263.77 285.45 264.218 285.45C265.674 285.45 267.144 286.052 267.144 287.718C267.144 288.432 266.878 288.922 266.444 289.286C265.702 289.916 264.61 290.07 263.714 290.07C263.028 290.07 262.398 290.028 261.894 289.972V283.224ZM263.112 286.402V289.146C263.35 289.174 263.616 289.202 263.966 289.202C264.904 289.202 265.926 288.81 265.926 287.76C265.926 286.668 264.946 286.332 264.022 286.332C263.672 286.332 263.364 286.36 263.112 286.402ZM267.998 283.224H269.216V290H267.998V283.224ZM276.679 286.836H271.919C271.947 288.502 273.011 289.188 274.243 289.188C275.125 289.188 275.657 289.034 276.119 288.838L276.329 289.72C275.895 289.916 275.153 290.14 274.075 290.14C271.989 290.14 270.743 288.768 270.743 286.724C270.743 284.68 271.947 283.07 273.921 283.07C276.133 283.07 276.721 285.016 276.721 286.262C276.721 286.514 276.693 286.71 276.679 286.836ZM271.933 285.954H275.531C275.545 285.17 275.209 283.952 273.823 283.952C272.577 283.952 272.031 285.1 271.933 285.954ZM280.415 283.224H281.787L282.753 284.68C283.005 285.058 283.215 285.408 283.439 285.786H283.481C283.705 285.38 283.929 285.03 284.153 284.666L285.105 283.224H286.435L284.125 286.5L286.505 290H285.105L284.111 288.474C283.845 288.082 283.621 287.704 283.383 287.298H283.355C283.131 287.704 282.893 288.068 282.641 288.474L281.661 290H280.303L282.711 286.542L280.415 283.224ZM287.666 283.224H288.828V286.08C288.828 287.158 288.814 287.83 288.758 288.796L288.8 288.81C289.206 287.984 289.444 287.508 289.892 286.724L292.006 283.224H293.448V290H292.272V287.13C292.272 286.024 292.3 285.45 292.356 284.358H292.314C291.88 285.226 291.586 285.772 291.194 286.458C290.55 287.508 289.808 288.81 289.08 290H287.666V283.224ZM294.537 283.224H299.983V284.204H297.869V290H296.651V284.204H294.537V283.224ZM301.037 283.224H302.255V285.534C302.521 285.478 302.913 285.45 303.361 285.45C304.817 285.45 306.287 286.052 306.287 287.718C306.287 288.432 306.021 288.922 305.587 289.286C304.845 289.916 303.753 290.07 302.857 290.07C302.171 290.07 301.541 290.028 301.037 289.972V283.224ZM302.255 286.402V289.146C302.493 289.174 302.759 289.202 303.109 289.202C304.047 289.202 305.069 288.81 305.069 287.76C305.069 286.668 304.089 286.332 303.165 286.332C302.815 286.332 302.507 286.36 302.255 286.402ZM307.141 283.224H308.359V290H307.141V283.224Z" fill="#3D348A"/>
<defs>
<clipPath id="clip0_2056_2">
<rect width="180.86" height="175.295" fill="white" transform="translate(162.14)"/>
</clipPath>
</defs>
</svg>
