<svg width="292" height="292" viewBox="0 0 292 292" fill="none" xmlns="http://www.w3.org/2000/svg">
<path d="M146 292C126.827 292 107.842 288.224 90.1282 280.886C72.4147 273.549 56.3198 262.795 42.7624 249.238C29.205 235.68 18.4508 219.585 11.1136 201.872C3.77639 184.158 -7.21994e-06 165.173 -6.38186e-06 146L146 146L146 292Z" fill="#3B3393"/>
<path d="M146 1.74103e-06C165.173 1.96967e-06 184.158 3.7764 201.872 11.1136C219.585 18.4508 235.68 29.2051 249.238 42.7624C262.795 56.3198 273.549 72.4147 280.886 90.1282C288.224 107.842 292 126.827 292 146L146 146L146 1.74103e-06Z" fill="#3B3393"/>
</svg>
