<?xml version="1.0" encoding="utf-8"?>
<!-- Generator: Adobe Illustrator 27.0.0, SVG Export Plug-In . SVG Version: 6.00 Build 0)  -->
<svg version="1.1" id="Слой_1" xmlns="http://www.w3.org/2000/svg" xmlns:xlink="http://www.w3.org/1999/xlink" x="0px" y="0px"
	 viewBox="0 0 147.23 180.96" style="enable-background:new 0 0 147.23 180.96;" xml:space="preserve">
<style type="text/css">
	.st0{display:none;fill:url(#SVGID_1_);}
	.st1{fill:url(#SVGID_00000061441789836956511170000017700489827155838138_);}
	.st2{fill:#fff;}
	.st3{fill:#fff;}
	.st4{fill:#fff;}
	.st5{fill:#fff;}
	.st6{fill:#fff;}
	.st7{fill:url(#SVGID_00000093861598761624718670000005079462649881264037_);}
	.st8{fill:#fff;}
	.st9{fill:#fff;}
</style>
<g>
	<path class="st5" d="M35.36,68.43l1.26,0.03c1.22,0,2.7,0.22,4.26,0.69c2.15,0.64,4.62,1.44,5.28,1.74
		c3.45,1.57,5.53,2.61,8.21,4.09c4.63,2.55,8.65,4.96,10.65,6.3c0,0,1.85,1.24,6.64,3.89c0.69,0.38,1.97,1.08,3.76,1.6
		c1.47,0.42,2.63,0.54,3.26,0.57c1,0.06,1.82,0.11,2.87-0.13c1-0.23,1.72-0.61,2.74-1.15c0.82-0.43,1.47-0.85,1.91-1.15l0.66-0.4
		l26.27-19.96l-1.01,19.44l-24.18,17.76l-0.89,0.61c-0.77,0.5-1.27,0.81-2.43,1.47c-1.33,0.75-2.48,1.01-3.36,1.21
		c-1.51,0.33-2.91,0.4-4.49,0.35c-1.44-0.05-4.77-0.18-8.54-1.47c-4.5-1.54-16.85-9.96-23.64-14.23c-3.74-2.35-6.66-4.4-8.45-5.69
		l-0.78-0.52V69.25V68.43z M146.12,44.48l-4.51,12.46h5.62L146.12,44.48z M93.43,42.9c1.39-0.25,4.98-0.91,7.16-3.82
		c0.53-0.7,0.98-1.74,0.79-3.09c-0.14-1.04-0.47-2-2.89-3.59c-1.56-1.02-3.9-2.11-6.84-3.55l-1.56-0.81l-3.46-1.71l-14.95,8.9
		l6.41,3.29l0.99,0.57c0.75,0.42,0.93,0.49,2.13,1.12c1.61,0.84,3.16,1.65,4.68,2.15C89.52,43.57,92.8,43.02,93.43,42.9z
		 M85.18,82.73L85.18,82.73c-1.28,1-3.85,2.66-6.95,2.39c-1.81-0.16-3.51-0.95-4.93-1.6c-1.64-0.76-2.78-1.51-3.1-1.72
		c-11.46-7.53-20.75-11.69-20.75-11.69c-5.98-2.68-9.32-3.32-11.92-3.55c-2.73-0.24-5.01-0.08-6.53,0.11l-1.18-0.01
		c-0.06-1.01,0.1-2.8-0.65-4.64c-0.54-1.34-1.39-2.51-3.48-4.38c-2.6-2.33-5-3.82-6.83-4.9c-4.36-2.56-8.75-4.65-9.54-5.03
		c0,0-2.52-1.2-6.71-4C1.03,42.64,0.2,41.99,0.05,41c-0.34-2.16,1.2-2.94,1.61-3.19C2.71,37,3.83,36.28,5,35.64L70.86,0l76.37,35.8
		L85.18,82.73z M86.45,47.21c2.14,0.32,5.35,0.78,9.41,0c2.37-0.45,4.05-1.14,5.39-1.69c2.9-1.19,4.73-1.96,6.2-3.86
		c0.47-0.6,1.38-1.82,1.63-3.65c0.24-1.78-0.28-3.2-0.54-3.81c-0.49-1.12-0.67-1.39-1.88-2.61c-1.2-1.21-3.11-2.44-3.34-2.57
		c-1.21-0.72-1.86-1.08-2.35-1.35c-1.37-0.75-6.79-3.31-6.79-3.31l-9.26-4.81L65.18,32.03l-3.65-2.31l-5.61,3.2l3.65,2.4l-3.65,2.23
		l-4.43-2.34l-5.54,3.32l4,2.18l-9.25,5.83l6.5,3.38l9.35-5.44l14.6,7.93l6.14-4.09l-14.77-7.57l3.83-2.23l5.34,3.02
		c0.15,0.08,2.67,1.42,2.81,1.51c0.7,0.43,1.91,1.01,3.53,1.71C82.11,46.52,85.49,47.07,86.45,47.21z"/>
	<g>
		<path class="st5" d="M4.38,134.22c-1.18-0.47-2.09-1.17-2.71-2.1c-0.62-0.92-0.93-2.05-0.93-3.37v-0.43
			c0-1.32,0.31-2.44,0.93-3.37s1.52-1.62,2.71-2.1c1.19-0.48,2.62-0.71,4.29-0.71s3.11,0.24,4.29,0.71c1.19,0.47,2.09,1.17,2.71,2.1
			s0.93,2.05,0.93,3.37v0.43c0,1.32-0.31,2.44-0.93,3.37c-0.62,0.92-1.52,1.62-2.71,2.1c-1.18,0.47-2.62,0.71-4.29,0.71
			S5.57,134.69,4.38,134.22z M12.54,131.43c0.9-0.61,1.35-1.51,1.35-2.68v-0.43c0-1.17-0.45-2.06-1.35-2.68
			c-0.9-0.61-2.19-0.92-3.86-0.92s-2.96,0.31-3.86,0.92c-0.9,0.61-1.35,1.51-1.35,2.68v0.43c0,1.17,0.45,2.06,1.35,2.68
			c0.9,0.61,2.19,0.92,3.86,0.92S11.63,132.04,12.54,131.43z M7.16,120.48h3.04v16.11H7.16V120.48z"/>
		<path class="st5" d="M27.99,136.58v-12.46l0.26,0.28l-5.88,12.18h-3.5v-15.56h2.81v12.64l-0.26-0.28l5.9-12.36h3.48v15.56H27.99z"
			/>
		<path class="st5" d="M34.22,121.02h2.93v15.57h-2.93V121.02z M35.58,127.46h9.07v2.83h-9.07V127.46z M42.74,121.02h2.93v15.57
			h-2.93V121.02z"/>
		<path class="st5" d="M53.34,121.02h1.86l5.95,15.57H58l-3.73-10.63l-3.73,10.63h-3.16L53.34,121.02z M50.25,131.27h8.19v2.83
			h-8.19V131.27z"/>
		<path class="st5" d="M63.09,121.02h2.93v15.57h-2.93V121.02z M64.45,127.46h9.07v2.83h-9.07V127.46z M71.61,121.02h2.93v15.57
			h-2.93V121.02z"/>
		<path class="st5" d="M80.25,136.07c-0.84-0.45-1.49-1.11-1.93-1.98c-0.44-0.87-0.66-1.92-0.66-3.14v-4.27
			c0-1.23,0.22-2.28,0.66-3.14c0.44-0.87,1.08-1.53,1.93-1.99c0.84-0.46,1.86-0.69,3.04-0.69c0.98,0,1.85,0.21,2.62,0.63
			c0.77,0.42,1.41,1.03,1.91,1.84c0.5,0.8,0.85,1.77,1.04,2.91h-3.04c-0.11-0.51-0.29-0.95-0.53-1.32
			c-0.24-0.36-0.53-0.64-0.87-0.84c-0.34-0.19-0.72-0.29-1.14-0.29c-0.55,0-1.02,0.11-1.4,0.34c-0.38,0.22-0.68,0.55-0.88,0.98
			c-0.2,0.43-0.31,0.95-0.31,1.56v4.27c0,0.61,0.1,1.12,0.31,1.55c0.2,0.43,0.5,0.75,0.88,0.98c0.39,0.23,0.85,0.34,1.4,0.34
			c0.43,0,0.81-0.09,1.16-0.28s0.63-0.47,0.87-0.83c0.24-0.36,0.41-0.81,0.51-1.33h3.04c-0.2,1.14-0.55,2.1-1.05,2.91
			c-0.5,0.8-1.14,1.42-1.91,1.84c-0.77,0.42-1.64,0.63-2.62,0.63C82.1,136.75,81.09,136.52,80.25,136.07z"/>
		<path class="st5" d="M93.5,136.04c-0.86-0.47-1.53-1.15-2-2.01c-0.47-0.87-0.71-1.87-0.71-3.02v-4.41c0-1.14,0.24-2.15,0.71-3.01
			c0.47-0.87,1.14-1.54,2-2.01c0.86-0.48,1.85-0.71,2.98-0.71s2.12,0.24,2.98,0.71c0.86,0.47,1.53,1.15,2,2.01
			c0.47,0.87,0.71,1.87,0.71,3.01v4.41c0,1.14-0.24,2.15-0.71,3.02c-0.47,0.87-1.14,1.54-2,2.01c-0.86,0.48-1.85,0.71-2.98,0.71
			S94.36,136.51,93.5,136.04z M97.87,133.48c0.4-0.22,0.71-0.54,0.93-0.96s0.33-0.89,0.33-1.44v-4.56c0-0.54-0.11-1.02-0.33-1.44
			s-0.53-0.73-0.93-0.96c-0.4-0.23-0.86-0.34-1.39-0.34s-0.99,0.11-1.39,0.34c-0.4,0.22-0.71,0.54-0.93,0.96
			c-0.22,0.41-0.33,0.89-0.33,1.44v4.56c0,0.54,0.11,1.02,0.33,1.44c0.22,0.41,0.53,0.73,0.93,0.96c0.4,0.23,0.86,0.34,1.39,0.34
			S97.47,133.71,97.87,133.48z"/>
		<path class="st5" d="M105.06,121.02h2.93v15.57h-2.93V121.02z M106.34,133.76h4.97c0.67,0,1.19-0.16,1.56-0.49
			c0.37-0.33,0.55-0.78,0.55-1.37v-0.03c0-0.39-0.08-0.73-0.25-1.01s-0.41-0.49-0.72-0.64c-0.32-0.15-0.7-0.22-1.14-0.22h-4.97
			v-2.83h4.97c0.61,0,1.08-0.15,1.41-0.46s0.5-0.74,0.5-1.3c0-0.5-0.17-0.89-0.5-1.17s-0.8-0.42-1.41-0.42h-4.97v-2.83h5.07
			c1.01,0,1.87,0.17,2.58,0.5c0.71,0.33,1.26,0.81,1.63,1.45c0.37,0.63,0.56,1.39,0.56,2.28c0,0.61-0.12,1.14-0.36,1.61
			s-0.59,0.85-1.04,1.15c-0.46,0.3-1.01,0.5-1.65,0.61c0.69,0.09,1.27,0.3,1.76,0.63c0.49,0.32,0.86,0.75,1.11,1.27
			c0.25,0.52,0.38,1.12,0.38,1.81v0.03c0,0.89-0.19,1.66-0.56,2.29c-0.37,0.64-0.92,1.12-1.64,1.45c-0.72,0.33-1.58,0.5-2.59,0.5
			h-5.25V133.76z"/>
		<path class="st5" d="M123.35,121.02h1.86l5.95,15.57h-3.16l-3.73-10.63l-3.73,10.63h-3.16L123.35,121.02z M120.26,131.27h8.19
			v2.83h-8.19V131.27z"/>
		<path class="st5" d="M136.38,129.99l2.92,0.49l-3.78,6.1h-3.34L136.38,129.99z M134.46,130.05c-0.68-0.4-1.21-0.96-1.59-1.69
			c-0.38-0.73-0.57-1.57-0.57-2.53s0.19-1.8,0.56-2.53c0.38-0.73,0.9-1.29,1.58-1.69c0.68-0.4,1.47-0.6,2.37-0.6h5.12v2.83h-4.78
			c-0.36,0-0.67,0.08-0.94,0.25s-0.48,0.4-0.63,0.7c-0.15,0.3-0.22,0.65-0.22,1.04s0.08,0.74,0.23,1.04c0.15,0.3,0.36,0.54,0.63,0.7
			c0.27,0.17,0.58,0.25,0.94,0.25h4.78v2.83h-5.12C135.93,130.65,135.14,130.45,134.46,130.05z M140.39,121.01h2.93v15.58h-2.93
			V121.01z"/>
		<path class="st5" d="M1.7,142.95h2.93v15.57H1.7V142.95z M2.76,142.95h8.1v2.83h-8.1V142.95z"/>
		<path class="st5" d="M13,142.95h2.93v15.57H13V142.95z M14.34,149.66h4.98c0.35,0,0.66-0.08,0.93-0.24
			c0.27-0.16,0.48-0.39,0.63-0.68c0.15-0.29,0.22-0.63,0.22-1.01c0-0.39-0.07-0.73-0.22-1.02c-0.15-0.3-0.35-0.53-0.62-0.69
			c-0.27-0.16-0.58-0.24-0.94-0.24h-4.98v-2.83h4.91c0.97,0,1.83,0.2,2.57,0.59c0.74,0.4,1.31,0.96,1.72,1.68
			c0.41,0.72,0.61,1.56,0.61,2.51s-0.2,1.78-0.61,2.5c-0.41,0.72-0.98,1.27-1.72,1.67c-0.74,0.39-1.59,0.59-2.57,0.59h-4.91V149.66z
			"/>
		<path class="st5" d="M30.25,142.95h1.86l5.95,15.57h-3.16l-3.73-10.63l-3.73,10.63H24.3L30.25,142.95z M27.16,153.2h8.19v2.83
			h-8.19V153.2z"/>
		<path class="st5" d="M49.8,142.95h3.87v15.57H51v-12.09l0.11,0.69l-2.98,9.67h-2.59l-2.98-9.46l0.11-0.9v12.09H40v-15.57h3.87
			l2.97,10.5L49.8,142.95z"/>
		<path class="st5" d="M59.47,157.97c-0.86-0.47-1.53-1.15-2-2.01c-0.47-0.87-0.71-1.87-0.71-3.02v-4.41c0-1.14,0.24-2.15,0.71-3.01
			c0.47-0.87,1.14-1.54,2-2.01c0.86-0.48,1.85-0.71,2.98-0.71s2.12,0.24,2.98,0.71c0.86,0.47,1.53,1.15,2,2.01
			c0.47,0.87,0.71,1.87,0.71,3.01v4.41c0,1.14-0.24,2.15-0.71,3.02c-0.47,0.87-1.14,1.54-2,2.01c-0.86,0.48-1.85,0.71-2.98,0.71
			S60.33,158.45,59.47,157.97z M63.85,155.41c0.4-0.22,0.71-0.54,0.93-0.96s0.33-0.89,0.33-1.44v-4.56c0-0.54-0.11-1.02-0.33-1.44
			s-0.53-0.73-0.93-0.96c-0.4-0.23-0.86-0.34-1.39-0.34s-0.99,0.11-1.39,0.34c-0.4,0.22-0.71,0.54-0.93,0.96
			c-0.22,0.41-0.33,0.89-0.33,1.44v4.56c0,0.54,0.11,1.02,0.33,1.44c0.22,0.41,0.53,0.73,0.93,0.96c0.4,0.23,0.86,0.34,1.39,0.34
			S63.45,155.64,63.85,155.41z"/>
		<path class="st5" d="M69.11,142.95h11.42v2.83H69.11V142.95z M73.35,144.23h2.93v14.3h-2.93V144.23z"/>
		<path class="st5" d="M82.24,142.95h2.93v15.57h-2.93V142.95z M83.6,149.39h9.07v2.83H83.6V149.39z M90.76,142.95h2.93v15.57h-2.93
			V142.95z"/>
		<path class="st5" d="M99.51,157.97c-0.86-0.47-1.53-1.15-2-2.01c-0.47-0.87-0.71-1.87-0.71-3.02v-4.41c0-1.14,0.24-2.15,0.71-3.01
			c0.47-0.87,1.14-1.54,2-2.01c0.86-0.48,1.85-0.71,2.98-0.71s2.12,0.24,2.98,0.71c0.86,0.47,1.53,1.15,2,2.01
			c0.47,0.87,0.71,1.87,0.71,3.01v4.41c0,1.14-0.24,2.15-0.71,3.02c-0.47,0.87-1.14,1.54-2,2.01c-0.86,0.48-1.85,0.71-2.98,0.71
			S100.37,158.45,99.51,157.97z M103.88,155.41c0.4-0.22,0.71-0.54,0.93-0.96s0.33-0.89,0.33-1.44v-4.56c0-0.54-0.11-1.02-0.33-1.44
			s-0.53-0.73-0.93-0.96c-0.4-0.23-0.86-0.34-1.39-0.34s-0.99,0.11-1.39,0.34c-0.4,0.22-0.71,0.54-0.93,0.96
			c-0.22,0.41-0.33,0.89-0.33,1.44v4.56c0,0.54,0.11,1.02,0.33,1.44c0.22,0.41,0.53,0.73,0.93,0.96c0.4,0.23,0.86,0.34,1.39,0.34
			S103.48,155.64,103.88,155.41z"/>
		<path class="st5" d="M113.12,158c-0.84-0.45-1.49-1.11-1.93-1.98c-0.44-0.87-0.66-1.92-0.66-3.14v-4.27
			c0-1.23,0.22-2.28,0.66-3.14c0.44-0.87,1.08-1.53,1.93-1.99c0.84-0.46,1.86-0.69,3.04-0.69c0.98,0,1.85,0.21,2.62,0.63
			c0.77,0.42,1.41,1.03,1.91,1.84c0.5,0.8,0.85,1.77,1.04,2.91h-3.04c-0.11-0.51-0.29-0.95-0.53-1.32
			c-0.24-0.36-0.53-0.64-0.87-0.84c-0.34-0.19-0.72-0.29-1.14-0.29c-0.55,0-1.02,0.11-1.4,0.34c-0.38,0.22-0.68,0.55-0.88,0.98
			c-0.2,0.43-0.31,0.95-0.31,1.56v4.27c0,0.61,0.1,1.12,0.31,1.55c0.2,0.43,0.5,0.75,0.88,0.98c0.39,0.23,0.85,0.34,1.4,0.34
			c0.43,0,0.81-0.09,1.16-0.28s0.63-0.47,0.87-0.83c0.24-0.36,0.41-0.81,0.51-1.33h3.04c-0.2,1.14-0.55,2.1-1.05,2.91
			c-0.5,0.8-1.14,1.42-1.91,1.84c-0.77,0.42-1.64,0.63-2.62,0.63C114.98,158.68,113.97,158.46,113.12,158z"/>
		<path class="st5" d="M122.28,142.95h11.42v2.83h-11.42V142.95z M126.52,144.23h2.93v14.3h-2.93V144.23z"/>
		<path class="st5" d="M135.41,142.95h2.93v15.57h-2.93V142.95z M136.75,155.7h4.93c0.35,0,0.66-0.08,0.93-0.25
			c0.27-0.16,0.48-0.4,0.63-0.7c0.15-0.3,0.22-0.65,0.22-1.04c0-0.4-0.07-0.75-0.22-1.05c-0.15-0.3-0.35-0.54-0.62-0.7
			c-0.27-0.17-0.58-0.25-0.94-0.25h-4.93v-2.83h4.85c0.97,0,1.83,0.2,2.57,0.6c0.74,0.4,1.31,0.96,1.72,1.69s0.61,1.57,0.61,2.54
			c0,0.96-0.2,1.8-0.61,2.53s-0.98,1.29-1.72,1.69c-0.74,0.4-1.59,0.59-2.57,0.59h-4.85V155.7z"/>
		<path class="st5" d="M1.23,168.88h1.4v10.01h-1.4V168.88z M1.92,168.88h4.92v1.33H1.92V168.88z"/>
		<path class="st5" d="M12.1,178.54c-0.53-0.31-0.94-0.74-1.24-1.29c-0.29-0.56-0.44-1.2-0.44-1.94v-2.84
			c0-0.73,0.15-1.38,0.44-1.94c0.29-0.56,0.7-0.99,1.24-1.29c0.53-0.31,1.15-0.46,1.84-0.46c0.7,0,1.31,0.15,1.84,0.46
			c0.53,0.3,0.94,0.74,1.24,1.29c0.29,0.56,0.44,1.2,0.44,1.94v2.84c0,0.73-0.15,1.38-0.44,1.94c-0.29,0.56-0.7,0.99-1.24,1.29
			s-1.15,0.46-1.84,0.46C13.24,178.99,12.63,178.84,12.1,178.54z M15.03,177.33c0.31-0.19,0.56-0.45,0.73-0.79
			c0.17-0.34,0.26-0.74,0.26-1.19v-2.93c0-0.45-0.09-0.85-0.26-1.19c-0.17-0.34-0.42-0.61-0.73-0.79c-0.31-0.19-0.68-0.28-1.09-0.28
			s-0.78,0.09-1.09,0.28c-0.31,0.19-0.56,0.45-0.73,0.79c-0.17,0.34-0.26,0.74-0.26,1.19v2.93c0,0.45,0.09,0.85,0.26,1.19
			c0.17,0.34,0.42,0.61,0.73,0.79c0.31,0.19,0.68,0.28,1.09,0.28S14.72,177.52,15.03,177.33z"/>
		<path class="st5" d="M22,168.88h1.4v10.01H22V168.88z M22.73,173.67h3.2c0.3,0,0.57-0.07,0.8-0.21c0.23-0.14,0.41-0.34,0.53-0.61
			c0.13-0.26,0.19-0.56,0.19-0.9c0-0.34-0.06-0.65-0.19-0.91c-0.13-0.26-0.3-0.46-0.53-0.61s-0.5-0.22-0.8-0.22h-3.2v-1.33h3.15
			c0.6,0,1.12,0.13,1.58,0.38c0.46,0.25,0.81,0.61,1.06,1.08c0.25,0.46,0.38,1,0.38,1.61s-0.12,1.15-0.38,1.61
			c-0.25,0.46-0.6,0.82-1.06,1.07c-0.45,0.25-0.98,0.38-1.58,0.38h-3.15V173.67z"/>
		<path class="st5" d="M34.52,178.54c-0.53-0.31-0.94-0.74-1.24-1.29c-0.29-0.56-0.44-1.2-0.44-1.94v-2.84
			c0-0.73,0.15-1.38,0.44-1.94c0.29-0.56,0.7-0.99,1.24-1.29c0.53-0.31,1.15-0.46,1.84-0.46c0.7,0,1.31,0.15,1.84,0.46
			c0.53,0.3,0.94,0.74,1.24,1.29c0.29,0.56,0.44,1.2,0.44,1.94v2.84c0,0.73-0.15,1.38-0.44,1.94c-0.29,0.56-0.7,0.99-1.24,1.29
			s-1.15,0.46-1.84,0.46C35.67,178.99,35.05,178.84,34.52,178.54z M37.46,177.33c0.31-0.19,0.56-0.45,0.73-0.79
			c0.17-0.34,0.26-0.74,0.26-1.19v-2.93c0-0.45-0.09-0.85-0.26-1.19c-0.17-0.34-0.42-0.61-0.73-0.79c-0.31-0.19-0.68-0.28-1.09-0.28
			s-0.78,0.09-1.09,0.28c-0.31,0.19-0.56,0.45-0.73,0.79c-0.17,0.34-0.26,0.74-0.26,1.19v2.93c0,0.45,0.09,0.85,0.26,1.19
			c0.17,0.34,0.42,0.61,0.73,0.79c0.31,0.19,0.68,0.28,1.09,0.28S37.14,177.52,37.46,177.33z"/>
		<path class="st5" d="M43.47,177.55h8.68v1.34h-8.68V177.55z M43.47,177.55h1.4v3.41h-1.4V177.55z M43.47,177.55h0.06
			c0.58,0,1.03-0.23,1.35-0.7c0.32-0.47,0.48-1.13,0.48-1.98v-6h1.4V175c0,0.73-0.12,1.36-0.37,1.88c-0.24,0.52-0.6,0.92-1.06,1.19
			c-0.46,0.27-1.02,0.41-1.67,0.41h-0.2V177.55z M46.23,168.88h4.54v1.33h-4.54V168.88z M50.03,168.88h1.41v10.01h-1.41V168.88z
			 M51.37,177.55h1.4v3.41h-1.4V177.55z"/>
		<path class="st5" d="M60.12,168.88h1.2L65,178.89h-1.51l-2.77-8.08l-2.77,8.08h-1.51L60.12,168.88z M58.12,175.36h5.27v1.34h-5.27
			V175.36z"/>
		<path class="st5" d="M82.32,168.88h1.32v10.01h-1.37v-7.5l0.07,0.44l-2.46,5.67h-0.98l-2.46-5.53l0.07-0.58v7.5h-1.37v-10.01h1.31
			l2.94,6.61L82.32,168.88z"/>
		<path class="st5" d="M89.99,178.54c-0.53-0.31-0.94-0.74-1.24-1.29c-0.29-0.56-0.44-1.2-0.44-1.94v-2.84
			c0-0.73,0.15-1.38,0.44-1.94c0.29-0.56,0.7-0.99,1.24-1.29c0.53-0.31,1.15-0.46,1.84-0.46c0.7,0,1.31,0.15,1.84,0.46
			c0.53,0.3,0.94,0.74,1.24,1.29c0.29,0.56,0.44,1.2,0.44,1.94v2.84c0,0.73-0.15,1.38-0.44,1.94c-0.29,0.56-0.7,0.99-1.24,1.29
			s-1.15,0.46-1.84,0.46C91.14,178.99,90.52,178.84,89.99,178.54z M92.93,177.33c0.31-0.19,0.56-0.45,0.73-0.79
			c0.17-0.34,0.26-0.74,0.26-1.19v-2.93c0-0.45-0.09-0.85-0.26-1.19c-0.17-0.34-0.42-0.61-0.73-0.79c-0.31-0.19-0.68-0.28-1.09-0.28
			s-0.78,0.09-1.09,0.28c-0.31,0.19-0.56,0.45-0.73,0.79c-0.17,0.34-0.26,0.74-0.26,1.19v2.93c0,0.45,0.09,0.85,0.26,1.19
			c0.17,0.34,0.42,0.61,0.73,0.79c0.31,0.19,0.68,0.28,1.09,0.28S92.61,177.52,92.93,177.33z"/>
		<path class="st5" d="M101.21,178.53c-0.53-0.31-0.93-0.74-1.22-1.31s-0.43-1.22-0.43-1.96v-2.75c0-0.74,0.15-1.4,0.43-1.96
			s0.7-1,1.22-1.31c0.53-0.31,1.13-0.46,1.83-0.46c0.57,0,1.1,0.12,1.58,0.37c0.48,0.25,0.88,0.59,1.21,1.04
			c0.32,0.45,0.54,0.97,0.66,1.56h-1.44c-0.09-0.31-0.23-0.59-0.44-0.84c-0.21-0.25-0.44-0.43-0.72-0.57
			c-0.28-0.13-0.56-0.2-0.85-0.2c-0.41,0-0.77,0.1-1.07,0.3s-0.55,0.47-0.72,0.83c-0.17,0.36-0.25,0.77-0.25,1.24v2.75
			c0,0.47,0.08,0.88,0.25,1.24c0.17,0.36,0.41,0.63,0.72,0.83c0.31,0.2,0.67,0.29,1.07,0.29c0.3,0,0.58-0.06,0.86-0.19
			c0.27-0.12,0.51-0.31,0.72-0.55c0.2-0.24,0.35-0.53,0.44-0.87h1.44c-0.12,0.59-0.33,1.11-0.66,1.56c-0.33,0.45-0.73,0.8-1.21,1.04
			c-0.48,0.25-1.01,0.37-1.58,0.37C102.35,178.99,101.74,178.84,101.21,178.53z"/>
		<path class="st5" d="M110.76,168.88h1.4v10.01h-1.4V168.88z M111.44,173.25h3.13v1.34h-3.13V173.25z M113.33,174.48l1.23-0.72
			l3.86,5.13h-1.95L113.33,174.48z M113.34,173.4l2.91-4.52h1.76l-3.96,5.75L113.34,173.4z"/>
		<path class="st5" d="M122.35,168.88h1.4v10.01h-1.4V168.88z M123.18,177.59h2.71c0.71,0,1.23-0.14,1.56-0.41
			c0.33-0.27,0.49-0.65,0.49-1.14v-0.02c0-0.34-0.06-0.63-0.17-0.87c-0.12-0.24-0.3-0.43-0.55-0.56c-0.25-0.13-0.58-0.2-0.97-0.2
			h-3.06v-1.27h3.06c0.52,0,0.91-0.12,1.17-0.36s0.4-0.6,0.4-1.08c0-0.5-0.15-0.88-0.44-1.12c-0.29-0.25-0.73-0.37-1.32-0.37h-2.86
			v-1.3h3.12c0.65,0,1.19,0.11,1.62,0.33c0.44,0.22,0.76,0.53,0.98,0.94c0.22,0.4,0.32,0.89,0.32,1.45c0,0.34-0.07,0.67-0.2,0.97
			c-0.13,0.3-0.34,0.56-0.61,0.77c-0.27,0.21-0.61,0.36-1.02,0.43c0.4,0.06,0.75,0.2,1.05,0.43c0.29,0.23,0.52,0.51,0.67,0.85
			s0.23,0.71,0.23,1.1v0.02c0,0.54-0.12,1.02-0.36,1.43s-0.58,0.73-1.03,0.96c-0.45,0.22-0.96,0.34-1.56,0.34h-3.24V177.59z"/>
		<path class="st5" d="M133.87,168.88h1.4v10.01h-1.4V168.88z M134.59,177.55h2.89c0.32,0,0.6-0.06,0.82-0.19
			c0.23-0.13,0.4-0.32,0.52-0.56s0.18-0.55,0.18-0.9c0-0.35-0.06-0.65-0.18-0.9s-0.29-0.44-0.52-0.57c-0.23-0.13-0.5-0.2-0.82-0.2
			h-2.89v-1.33h2.84c0.63,0,1.17,0.12,1.62,0.35c0.45,0.23,0.79,0.58,1.03,1.03c0.24,0.45,0.36,0.99,0.36,1.62
			c0,0.63-0.12,1.17-0.36,1.62c-0.24,0.45-0.58,0.79-1.03,1.02c-0.45,0.23-0.99,0.35-1.62,0.35h-2.84V177.55z M143.17,178.89h-1.4
			v-10.01h1.4V178.89z"/>
	</g>
</g>
</svg>
