<?xml version="1.0" encoding="utf-8"?>
<!-- Generator: Adobe Illustrator 24.0.1, SVG Export Plug-In . SVG Version: 6.00 Build 0)  -->
<svg version="1.1" id="Слой_1" xmlns="http://www.w3.org/2000/svg" xmlns:xlink="http://www.w3.org/1999/xlink" x="0px" y="0px"
	 viewBox="0 0 403 206" style="enable-background:new 0 0 403 206;" xml:space="preserve">
<style type="text/css">
	.st0{fill:#EB3030;}
	.st1{fill:#FFFFFF;}
</style>
<rect class="st0" width="403" height="206"/>
<g>
	<path class="st1" d="M158.8,31.3c2.2-0.4,4.5-0.7,6.1-1.5c1-0.6,2.1-1.6,2.1-3c0.1-2.5-2.1-3.1-4.7-3c-2.6,0.1-6.5,1-8.3,2.4
		c-1.6,1.2-2.8,4.3-1.2,6.7C154.4,32.3,156.5,31.7,158.8,31.3z M155.1,38.9c-1.2,3.1-1.4,6.7-2.2,10.1c-1.2,5-2.6,9.7-3.2,15.2
		c-0.3,3.2-0.3,7.2,1,9.4c0.3,0.5,0.5,0.6,0.9,0.6c0.4-0.1,0.5-0.3,0.7-0.7c0.3-1.1,0.2-2.9,0.2-4.1c0-2.1,0.1-4,0.4-5.5
		c0.6-3.5,1.6-6.2,2.2-9.4c1-4.8,1.3-10.2,3.6-13.9c0.4-0.7,2.1-2.4,1.4-4.1c-0.3-0.7-1.5-1.2-2.2-1.1
		C156.6,35.7,155.6,37.7,155.1,38.9z M130.9,62.4c1-0.3,2.6-0.8,2.8-2c0.1-0.8-0.6-1.6-1.1-1.9c-1.3-0.7-4.9-0.7-6.7-0.6
		c-7,0.3-13.7,1.3-20.1,2.3c-6.3,1-12.7,1.8-19.7,2.6c-6.5,0.8-13.2,1.5-19.6,2.8c-3.1,0.6-6,1.4-9.2,2c-1.7,0.3-3.2,0.4-4.8,0.8
		c-1.4,0.3-3.2,0.8-4,1.6c-0.7,0.7-1.3,3.1-0.5,4.5c0.6,1.1,2.6,0.9,4.2,0.7c2.7-0.4,4.8-1.2,7.1-2c1.1-0.4,2.3-0.9,3.6-0.6
		c-0.1,4.2-1.6,10.5,1.4,12.6c2.1-2.9,1.7-8.3,1.8-13.2c7.2-2.3,15.9-2.8,24.1-4s16.3-2.6,24.6-3.5c1.1,4.4,0.9,10.3,2.9,13.9
		c0.3-0.2,0.7,0,1.1,0c1.7-4-0.1-9.3,0.2-14.1C122.7,63.6,127.2,63.5,130.9,62.4z M140.5,148.3c3.7-6.6,6.3-13.8,10-20.4
		c1.8-3.2,3.8-6.4,5.5-9.7c1.8-3.3,3.4-6.7,5.2-10.1c1.8-3.3,3.5-6.7,5.1-10.2c1.5-3.5,2.9-7.1,4.8-10.5c0.9-1.6,1.8-3,2.8-4.9
		c0.7-1.4,1.9-3.9,1.7-5.9c-0.1-1.4-1.1-1.9-2.6-1.9c-2.9,0.1-6,0.4-8.9,0.5c-8.8,0.4-17.7,0.9-26.4,1.6c-11.5,0.9-22.6,2.2-33.4,4
		c-16.2,2.6-32,5.4-48.6,7.5c-5.4,0.7-11,1.2-16.4,2.3c-0.1,2.4,0.4,4.4,1.1,6.2c0.2,0.5,0.4,1.5,0.8,1.7c0.3,0.1,1.4,0,2.2,0
		c5-0.3,9.2-1.5,13.4-2.4c7.9-1.6,15.5-2.4,22.9-4.2c2.5-0.6,5.1-0.8,7.9-1.1c5.3-0.6,10.6-1.6,15.6-2.5c0.7-0.1,1.3-0.2,1.8-0.4
		s0.9-0.5,1.5-0.8c1.1-0.4,2.5-0.5,3.8-0.7c2.7-0.4,5.4-0.6,8.4-0.7c5.7-0.2,11.5-0.6,16.6-1.5c2.5-0.4,5.1-0.9,7.8-1.2
		c8.1-1.1,17.1-1,26-0.9c-1.2,3.4-2.8,6.5-4.3,9.7s-2.9,6.4-4.4,9.7c-2.9,6.4-6.2,12.5-9.3,18.7s-6.3,12.3-9.3,18.8
		c-1.4,3.1-2.9,6.3-4.3,9.7c-1,2.3-1.9,5-3,7.6c-0.3,0.7-0.8,2.2-1.2,2.4s-1.9,0.1-2.8,0.1c-4.9-0.2-9.1-0.6-14-0.8
		c-2-0.1-3.9,0.1-5.7,0.2c-3.7,0.2-7.5,0.3-11.4,0.3s-7.9-0.1-11.7,0c-7.7,0.3-15,0.7-22.1,1.3c-3.7,0.3-7.1,0.6-10.6,1.2
		c-3.5,0.5-7,1.1-10.7,1h-0.1c-2.3-8.7-3.8-18.1-5.1-28.4c-0.3-2.4-0.6-5-0.9-7.5c-0.4-5.2-0.3-10.5-1.3-15.4
		c-0.4-2.3-0.1-5.6-0.9-7.5c-0.2-0.4-0.5-0.8-0.9-0.9c-1.9-0.8-2.1,1.6-2.2,3.5c-0.1,1.4,0.1,3.2,0.2,4.4c0.4,2.8,0.9,5.4,1.3,8.1
		c0.8,5.7,1.3,11.4,1.9,16.9c0.7,5.7,1.5,11,2.5,16.3c0.7,3.9,1.4,7.9,2.6,11.5c0.4,1.1,0.9,2.6,1.7,3.1c0.6,0.3,1.7,0.3,2.7,0.4
		c2.9,0.3,5.6-0.5,7.9-1c3.2-0.7,6.9-1.2,10.5-1.4c7.4-0.6,14.9-1.2,22.3-1.5c11.6-0.6,23.4-0.4,34.7-0.9c3.8-0.2,7.6-0.4,11.2,0.4
		c-0.1,0.3-0.1,0.6-0.3,0.9c-0.1,0.3-0.4,0.6-0.2,0.8c1.2,0.2,0.8-1.2,1.3-1.5c0.1,0,0.4,0,0.6-0.1c0.5-0.2,1.1-0.4,1.6-0.5
		c2.6-0.4,5.5,0.2,8-0.1c-0.5-1.2-1.9-1.6-3.3-2c-1.4-0.3-3-0.6-4.6-0.5C136.7,154.9,138.6,151.6,140.5,148.3z M136.4,101.1
		c-0.5,2.4-0.4,5.1,1.1,6.5c1.1,1,2.8,1.3,4.7,1.2c3.2-0.2,5.9-1.7,8.1-3.6c1.9-1.6,4.2-4.3,4.2-7.6c0-2.4-1.5-3.9-3.2-4.9
		c-0.9-0.5-1.8-0.8-2.8-1.2s-2.1-1.2-3.2-1c-2.5,0.5-5.2,1.3-7.5,2.1c0,0.7-0.6,1.1-0.5,1.7s0.9,0.6,1.4,0.9
		C137.6,97.1,136.9,98.8,136.4,101.1z M145,94.3c1.7-0.2,3.5,0.2,4.8,0.8c1.1,0.5,2.4,1.3,2.2,3.2c-0.1,1.2-0.8,2.2-1.5,3.1
		c-1.2,1.6-3,3.2-5.1,3.9c-2.3,0.8-6.3,1.4-6.6-1.6c-0.1-1.2,0.3-2.3,0.7-3.2c0.7-1.8,1.7-3.3,3-4.6C143.2,95.2,143.9,94.5,145,94.3
		z M131.3,102.1c0.5-2.7,0.8-5.4,1.7-7.4c0.2-0.5,0.9-1,1-1.5c0-0.1-0.1-0.3-0.1-0.4c-0.1-1.2-1.9-2.2-3.2-2.2
		c-1.6,0.1-3.3,0.7-5.2,1.2c-1.7,0.4-3.9,0.9-5.5,0.4c-0.8-0.2-1.2-0.9-2.1-1.2c-0.5,0.6-0.6,1.3-1.3,1.7c-0.6,0.3-1.7,0.5-2.6,0.6
		c-2.9,0.3-6.3,0.2-9.2,0.4c-3.9,0.4-7.8,0.9-11.4,1.4c-7.6,0.9-15.9,2-23.7,1.1c-3.1,4.1-1.5,12.3-0.3,17.1
		c0.2,0.8,0.5,1.6,0.6,2.4c0.1,1.2-0.1,2.2,0.6,2.6c0.8,0.4,2.5-0.2,3.6-0.4c3.9-0.5,7.7-0.7,11.4-1.1c7.8-0.8,14.8-1.8,22-2.9
		c7.3-1.1,15.9-0.6,22.4-2.5C129,108.1,130.6,105.3,131.3,102.1z M129.2,94.9c0,2.7-0.8,5-1.4,7.4c-0.5,2.4-1,4.8-1.1,7.7
		c-17.4,2.2-36.5,2.7-54.5,4.4c-1.2-3.5-0.8-8.7-0.8-13c7.1-1.5,15-1.8,22.4-2.8s14.8-2.2,22.7-2.5c-0.4,3-1.1,6.4-1.4,10.1
		c-0.1,1-0.2,2.8,0.2,3.4c0.3,0.3,0.9,0.2,1.3,0.4c2-4,2.3-9.7,3.5-14.5c2.2-0.3,4.8-0.7,7.1-0.9C128,94.5,128.9,94.4,129.2,94.9z
		 M44.4,101.8c-1.3,0.9-2.8,1.8-3.7,3c-1.7,2.2-2.9,7-1.3,10.2c2.3,4.4,11.3,3.6,16.4,2.1c2.1-0.6,4.2-1.5,5.7-2.7s2.9-2.9,3.1-5.3
		c0.1-1.9-0.5-3.5-1.1-4.7c-0.7-1.3-1.4-2.4-2.6-3.2c-2.1-1.4-5.4-0.6-8-0.2c-0.7,0.1-1.6,0.3-2.2,0.1c-0.9-0.3-0.5-1.5-1.9-1.5
		l-0.1,0.1C46.6,99.8,45.8,100.9,44.4,101.8z M54.1,103.8c1.8-0.1,3.5,0.2,4.7,0.6c1.5,0.6,3.1,1.7,3.3,3.6c0.2,1.5-0.6,2.9-1.4,3.7
		c-2.7,2.8-9.2,3.6-14.6,2.7c-2-0.3-3.9-1-4.1-3c-0.1-0.9,0.2-1.7,0.5-2.6c0.2-0.7,0.6-1.6,1.1-2c0.5-0.5,1.5-0.8,2.3-1.1
		s1.6-0.5,2.5-0.8C50.4,104.4,52.1,103.9,54.1,103.8z M48.8,138.8c1.2,0,2.7-0.4,3.9-0.7c2.5-0.6,5.1-1.1,7.6-1.6
		c1.3-0.3,2.7-0.4,3.9-0.8c0.4-0.1,0.6-0.5,0.9-0.7c0.8,0.8,1.9,0,2.8-0.5c0.6-0.3,1.2-0.6,2-0.7c1.6-0.3,3.2-0.2,5.2-0.2
		c0.2-0.1,0.2-0.4,0.4-0.6c0.3-0.2,1.2-0.2,1.8-0.2c1.9-0.1,4.1,0.1,5.9-0.2c1.2-0.2,2.2-0.6,3.3-0.8c3.3-0.9,7.9-0.5,11.7-0.8
		c2.3-0.2,5.1-0.5,7.4-0.9c4.7-0.7,9.9-1.2,14.9-1.6c2.4-0.2,4.9-0.6,7.1-1.1c1.1-0.3,2-0.8,3-1.2c1.7-0.6,4.5-0.3,4.5-2.3
		c0-1.6-2.3-2.4-4.2-2.1c-0.1,0-0.1,0-0.1,0c-3.5,0.2-7.1,0.9-10.6,1.3c-1.9,0.2-3.7,0.1-5.6,0s-3.8,0.2-5.6,0.3
		c-7.4,0.6-14.7,1.3-21.7,2.1c-14.3,1.5-27,4.7-41,6.5C45.2,135.1,45.7,138.7,48.8,138.8z M108.7,132.3c-11.8,1.5-22.7,3.4-34.4,5.2
		c-3.7,0.6-9.3,0.8-13.4,1.5c-1.6,0.3-3.2,0.5-3.7,1.3c-0.9,1.3-0.5,5.3,0.6,6.1c1,0.7,3.7,0.2,5.1,0c4.7-0.8,8.6-2.4,13.3-3.2
		c9.4-1.6,18.7-3.2,28-5c3-0.6,6-1.4,9.2-1.8c4.7-0.6,10.5-0.5,14.5-2c1.2-0.5,3-1.4,2.8-2.8c-0.2-1.6-2.6-1.7-4.4-1.6
		C119.7,130.2,114.6,131.5,108.7,132.3z M121.8,139.6c-4.7,0.5-9.2,1.3-13.9,1.9c-6,0.8-12.6,1.3-19,2.1c-6.1,0.7-12.6,1.6-18.4,2.7
		c-4.1,0.7-9.5,1.1-13.6,2.2c-1.4,0.4-3,0.8-3.8,1.5c-1.1,0.9-1.2,3.6-0.2,4.6c0.8,0.8,1.9,0.4,3.3,0.2c0.9-0.2,1.7-0.2,2.4-0.4
		c1.6-0.4,3.1-0.9,4.5-1.3c3.1-0.8,6.4-1.4,9.6-1.9c9.7-1.6,20-3.1,30-4.4c3.4-0.4,6.9-0.7,10.2-1.2c3.2-0.5,6.5-1.3,9.7-1.8
		s6.4-1,8.9-2.6C130,138.4,125.1,139.2,121.8,139.6z M133.5,163.1c0.6,0,0.6-1-0.1-0.8C133,162.4,133.1,163.1,133.5,163.1z"/>
	<g>
		<path class="st1" d="M194.5,66.4c1.7-0.1,7.3-0.5,8.4,0.6c0.7,0.7,0.6,3.1,0.6,4.8c0,3.2,0,6.1,0,9.4c0,1.3-0.2,3.9,0.5,4.5
			s3.8,0.2,5.1,0.2c1,0,1.8,0,2.7,0s2,0.1,2.4-0.3c0.6-0.6,0.4-2.8,0.4-4.4c0-3.5,0-5.8,0-9.5c0-1.8-0.2-4,0.7-4.8
			c1-0.8,3.3-0.6,5.2-0.6c2.3,0,4.8-0.4,5.5,1c0.3,0.6,0.3,1.9,0.3,3.1c0,14.8,0,28.8,0,43.5c0,2.4,0.4,6.2-0.8,7.1
			c-0.9,0.6-3.1,0.4-4.6,0.4c-2.2,0-5,0.4-5.9-0.8c-0.7-1-0.4-3.9-0.4-5.7c0-5.3,0.1-9.7,0.1-15.1c0-0.9,0.1-2.3-0.3-2.7
			c-0.6-0.7-3.9-0.3-5.1-0.3c-1,0-1.9,0-2.7,0c-0.9,0-2.1-0.1-2.5,0.3c-0.8,0.7-0.4,4.4-0.4,5.9c0,4.4,0,8.3,0,12.6
			c0,2,0.3,4.8-0.8,5.5c-1,0.7-3.1,0.3-4.8,0.3c-2.1,0-5,0.4-5.7-0.9c-0.7-1.2-0.3-4.4-0.3-6.4c0-13.4,0-27,0-40.4
			c0-1.9-0.3-5.8,0.5-6.7C192.9,66.5,193.8,66.4,194.5,66.4z"/>
		<g>
			<g>
				<path class="st1" d="M269.6,117.4c-0.9-3.6-1.6-6.8-2.6-10.3c-1.3-4.9-2.2-8.6-3.5-13.7c-1.7-7-3.4-13.6-5.2-20.5
					c-0.4-1.6-1.1-5.6-2.3-6.3c-1-0.6-4-0.3-5.7-0.3c-2.3,0-4.6,0-5.9,0.1c-2.2,0.2-2.2,1.4-2.7,3.3c-3.8,15.9-7.7,32.2-11.5,47.9
					c-0.2,1-0.8,2.7-0.2,3.5c0.4,0.5,1.6,0.4,2.4,0.4h2.6c1.7,0,3.9,0.3,5-0.2c1.2-0.6,1.4-2.8,1.8-4.4c0.2-0.7,0.3-1.5,0.6-2.4
					c0.2-0.7,0.4-1.7,0.9-2.1c0.6-0.5,2.1-0.3,3.2-0.3h6.4c1,0,2.4-0.2,3.1,0.2c0.7,0.4,0.8,1.4,1,2.1c0.2,0.9,0.4,1.7,0.6,2.4
					c0.4,1.5,0.6,3.7,1.8,4.4c0.6,0.4,1.7,0.3,2.8,0.3h2.8c1.4,0,4.4,0.3,5-0.5C270.6,120.1,269.9,118.4,269.6,117.4z M246,101.4
					c-0.2-1.3,0.3-2.6,0.6-4c0.6-2.6,1.1-5.1,1.7-7.9c0.3-1.2,0.5-2.9,1-3.8c0-0.1,0.1-0.1,0.2-0.1h0.1c0.8,1,0.9,2.5,1.2,3.8
					c0.7,2.6,1.4,5.2,2,7.9c0.3,1.3,0.8,2.7,0.7,4C251.3,101.6,248.3,101.6,246,101.4z"/>
			</g>
		</g>
		<path class="st1" d="M273.9,70.7c0,14.9,0,29.2,0,44.2c0,2.1-0.3,5.3,0.7,6.1c1,0.9,4.9,0.5,7,0.5c14,0,27.3,0,41.1,0
			c1.9,0,5.5,0.4,6.5-0.4c1.1-0.9,0.8-4.3,0.8-6.6c0-13.6,0-27,0-40.7c0-1.8,0.4-5.3-0.3-6.5c-0.8-1.3-3.4-1-5.7-1
			c-1.8,0-4.3-0.2-5.2,0.7c-0.9,0.9-0.6,3.6-0.6,5.6c0,12.2,0,23.6,0,35.6c0,1,0.1,2.2-0.2,2.6c-0.4,0.5-1.7,0.3-2.4,0.3
			c-0.9,0-1.8,0-2.6,0c-1.2,0-4.3,0.3-4.9-0.3c-0.5-0.4-0.3-1.4-0.3-2.7c0-12.2,0-24,0-36.1c0-1.9,0.3-4.3-0.5-5.1
			c-0.9-1-3.4-0.7-5.2-0.7c-1.8,0-4.4-0.2-5.3,0.6c-1,0.9-0.6,3.8-0.6,5.8c0,11.1,0,22,0,33c0,1.5,0.2,4.6-0.3,5.2
			c-0.4,0.4-1.6,0.3-2.5,0.3s-1.7,0-2.5,0c-1.4,0-4.2,0.3-4.9-0.3c-0.7-0.7-0.3-3.6-0.3-5.2c0-11.2,0-22.3,0-33.1
			c0-1.7,0.2-4.3-0.3-5.3c-0.6-1.1-2.4-1-4.1-1c-1.6,0-3.5,0-4.6,0.1C273.7,66.6,273.9,67.8,273.9,70.7z"/>
		<path class="st1" d="M336.7,67.1c-0.8,1-0.5,4.6-0.5,6.6c0,13.8,0,27.3,0,41.1c0,2.2-0.3,5.4,0.7,6.2c0.7,0.6,2.2,0.5,3.7,0.5
			c6.8,0,13.2,0,20,0c2.4,0,6.3,0.4,7.4-0.6c0.8-0.7,0.6-2.9,0.6-4.7s0.2-3.5-0.4-4.4s-3.1-0.6-4.7-0.6c-4.4,0-8.6,0-13,0
			c-0.7,0-2.1,0.2-2.4-0.2c-0.4-0.4-0.2-2.3-0.2-3.2c0-2.3,0-4.6,0-6.8c0-1-0.2-2.7,0.3-3.1c0.6-0.4,2.6-0.2,3.6-0.2
			c2.9,0,4.8,0,7.5,0c1,0,2.8,0.2,3.4-0.3c0.7-0.6,0.4-3.3,0.4-4.5c0-1.5,0.3-3.8-0.3-4.7c-0.5-0.8-2-0.7-3.4-0.7
			c-2.8,0-4.7,0-7.6,0c-1.1,0-3.2,0.3-3.6-0.2c-0.3-0.3-0.2-1.6-0.2-2.5c0-1,0-1.9,0-2.7c0-1.3-0.4-4.6,0.3-5.2
			c0.3-0.3,1.3-0.3,2.2-0.3c4.2,0,8.4,0,12.5,0c1.8,0,3.6,0.1,4.3-0.7c0.6-0.7,0.5-3.1,0.5-4.4c0-1.4,0.2-3.5-0.3-4.3
			c-0.6-0.9-2.1-0.9-3.6-0.9c-3.8,0-6.9,0-10.6,0c-4.5,0-10.1-0.2-14.2,0.1C337.9,66.5,337.1,66.5,336.7,67.1z"/>
	</g>
	<g>
		<g>
			<g>
				<path class="st1" d="M328.3,138.7c-2.4-1.7-6-2.6-10.1-2.3c-1.5,0.1-2.8,0.3-4.1,0.6c-3.6,1-6.2,3.2-7.4,6.5
					c-0.9,2.4-1.1,5.6-0.5,8.2c1.1,5,4.8,7.9,9.8,8.7c2.7,0.4,5.7,0.4,8.4-0.3c4.5-1.2,8-4.5,8.4-10.1
					C333.1,144.4,331.2,140.8,328.3,138.7z M323.3,153.7c-2,2.3-6.9,2-8.5-0.6c-1.4-2.2-1.2-6.7-0.2-8.7c0.6-1.1,1.9-2.2,3.9-2.4
					c2.4-0.2,4.3,0.7,5.2,2C325.2,146.2,325,151.8,323.3,153.7z"/>
			</g>
		</g>
		<g>
			<g>
				<path class="st1" d="M213,140.6c-0.6-1.3-1.7-2.4-3-3c-2.3-1.1-5.4-0.9-8.7-0.9h-9.6c-0.1,0-0.1,0.1-0.1,0.2v23.3
					c2.7,0,5.5,0.1,8.1-0.1v-8.7c6.4,0.3,12-0.2,13.5-4.7C213.8,145,213.8,142.3,213,140.6z M205.6,145.2c-0.8,1.6-3.4,1.6-5.9,1.5
					v-5c0-0.1,0-0.2,0.1-0.2c1.9,0.1,3.8-0.2,4.9,0.5C205.6,142.6,206.1,144,205.6,145.2z"/>
			</g>
		</g>
		<g>
			<g>
				<path class="st1" d="M231.3,136.8h-8.7c-3.3,7.8-6.6,15.6-9.8,23.5h8.2c0.5-1.2,0.8-2.7,1.4-3.9h9c0.5,1.3,0.9,2.6,1.3,3.9h8.4
					C237.8,152.4,234.5,144.6,231.3,136.8z M224,151.3c0.9-2.8,1.9-5.6,2.8-8.3c1,2.7,1.9,5.5,2.8,8.3H224z"/>
			</g>
		</g>
		<g>
			<g>
				<path class="st1" d="M270.8,154.8v-18.1H249c-0.1,0-0.1,0.1-0.1,0.2c0.2,6.9-0.1,13.3-2.3,17.9h-2.5c-0.1,3.4,0,7-0.1,10.5h6.5
					c0-1.7-0.1-3.5,0.1-5.1c5.5,0,11.1-0.1,16.5,0.1v5h6.5v-10.5L270.8,154.8L270.8,154.8z M262.7,154.8h-8.2
					c0.8-3.8,1.8-7.5,1.8-12.1c0-0.1,0-0.2,0.1-0.2c2.1,0,4.4-0.1,6.4,0.1C262.7,146.7,262.8,150.9,262.7,154.8z"/>
			</g>
		</g>
		<path class="st1" d="M277.7,136.9c0,7.8,0,15.5,0,23.3c2.5,0,5,0,7.5,0c3.3-4.2,6.5-8.7,9.7-12.7c0,4.2-0.1,8.6,0.1,12.7
			c2.5,0,5,0,7.5,0c0-7.8,0-15.7,0-23.5c-2.5,0-5,0-7.5,0c-3.3,4.2-6.5,8.8-9.8,12.8c0-4.3,0-8.5,0-12.8c-2.5,0-5,0-7.5,0
			C277.7,136.8,277.7,136.9,277.7,136.9z"/>
	</g>
</g>
</svg>
