<svg width="50" height="26" viewBox="0 0 50 26" fill="none" xmlns="http://www.w3.org/2000/svg">
<g clip-path="url(#clip0_32_1256)">
<path d="M25.1151 4.18511H27.0715V7.67916H27.7741V3.55523H24.4139V7.67916H25.1165V4.18511H25.1151Z" fill="black"/>
<path d="M33.7918 7.7481C34.9626 7.7481 35.74 6.86276 35.74 5.61922C35.74 4.37569 34.9626 3.49035 33.7918 3.49035C32.6209 3.49035 31.8435 4.37569 31.8435 5.61922C31.8435 6.86276 32.6209 7.7481 33.7918 7.7481ZM33.7918 4.12699C34.5624 4.12699 35.0225 4.74875 35.0225 5.61922C35.0225 6.4897 34.5542 7.11146 33.7918 7.11146C33.0293 7.11146 32.5678 6.4897 32.5678 5.61922C32.5596 4.7501 33.0212 4.12699 33.7918 4.12699Z" fill="black"/>
<path d="M26.61 18.4492L25.2812 15.2552H24.4126V19.3792H25.0852V16.3947L26.3241 19.3643H26.8905L28.1213 16.3947V19.3792H28.7857V15.2552H27.932L26.61 18.4492Z" fill="black"/>
<path d="M40.3555 5.78278L42.0246 7.67916H42.9082L41.058 5.52731L42.8701 3.55523H42.0165L40.3555 5.33943V3.55523H39.653V7.67916H40.3555V5.78278Z" fill="black"/>
<path d="M39.028 7.04929H37.0266V5.87199H38.915V5.26509H37.0266V4.18511H39.028V3.55523H36.3241V7.67916H39.028V7.04929Z" fill="black"/>
<path d="M34.2915 12.1032H35.1152C35.9906 12.1032 36.527 11.4963 36.527 10.7542C36.527 10.0121 36.0137 9.40524 35.092 9.40524H33.5822V13.5292H34.2847V12.1045H34.2928L34.2915 12.1032ZM34.2915 10.0189H35.0321C35.5454 10.0189 35.8245 10.319 35.8245 10.7542C35.8245 11.1894 35.5372 11.4963 35.0321 11.4963H34.2915V10.0189Z" fill="black"/>
<path d="M46.3024 3.55523H42.9872V4.18511H44.2942V7.67916H44.9967V4.18511H46.3037V3.55523H46.3024Z" fill="black"/>
<path d="M43.8232 17.2219C44.0873 17.1097 44.3664 16.8164 44.3664 16.3298C44.3664 15.7297 43.928 15.2579 43.0825 15.2579H41.4814V19.3819H43.1356C43.9893 19.3819 44.5257 18.8939 44.5257 18.2127C44.5257 17.6058 44.1254 17.3057 43.8232 17.2233V17.2219ZM42.184 15.85H42.9845C43.4079 15.85 43.6571 16.0595 43.6571 16.4123C43.6571 16.7272 43.4529 16.9746 43.0158 16.9746H42.1853V15.85H42.184ZM43.0594 18.7736H42.184V17.5436H43.0907C43.5359 17.5436 43.8164 17.7761 43.8164 18.1586C43.8082 18.556 43.5073 18.7736 43.0608 18.7736H43.0594Z" fill="black"/>
<path d="M41.0797 15.2552H40.2261L38.5569 17.0394V15.2552H37.8544V19.3792H38.5569V17.4828L40.2261 19.3792H41.1178L39.2594 17.2273L41.0797 15.2552Z" fill="black"/>
<path d="M49.1315 15.2552H48.429V19.3792H49.1315V15.2552Z" fill="black"/>
<path d="M26.61 12.5979L25.2812 9.40388H24.4126V13.5278H25.0852V10.5433L26.3241 13.5129H26.8905L28.1213 10.5433V13.5278H28.7857V9.40388H27.932L26.61 12.5979Z" fill="black"/>
<path d="M39.5018 13.5278H40.2424L38.6944 9.40388H37.962L36.4208 13.5278H37.1614L37.5086 12.5533H39.1478L39.5032 13.5278H39.5018ZM37.7196 11.9464L38.3241 10.2365L38.9286 11.9464H37.721H37.7196Z" fill="black"/>
<path d="M46.5774 16.7164H45.7769V15.2539H45.0743V19.3778H46.5924C47.461 19.3778 48.0042 18.7858 48.0042 18.0437C48.0042 17.3017 47.4828 16.7164 46.5774 16.7164ZM46.5093 18.7628H45.7769V17.3314H46.5093C47.0076 17.3314 47.2949 17.6085 47.2949 18.0437C47.2949 18.479 47.0008 18.7642 46.5093 18.7642V18.7628Z" fill="black"/>
<path d="M31.4977 4.90554C31.4977 4.15537 30.9844 3.55658 30.0627 3.55658H28.5529V7.68051H29.2554V6.25586H30.0791C30.9627 6.25586 31.4991 5.64896 31.4991 4.9069L31.4977 4.90554ZM29.2554 5.64761V4.17024H29.996C30.5093 4.17024 30.7884 4.47031 30.7884 4.90554C30.7884 5.34078 30.5011 5.64761 29.996 5.64761H29.2554Z" fill="black"/>
<path d="M35.555 18.8074C34.8293 18.8074 34.3691 18.1856 34.3691 17.3152C34.3691 16.4447 34.8375 15.8229 35.555 15.8229C36.1594 15.8229 36.4835 16.1825 36.5965 16.6029H37.299C37.1778 15.8311 36.5897 15.1863 35.555 15.1863C34.429 15.1863 33.6516 16.0635 33.6516 17.3152C33.6516 18.5668 34.4522 19.444 35.555 19.444C36.6577 19.444 37.2391 18.6574 37.314 18.0194H36.6046C36.5447 18.3722 36.2044 18.8061 35.555 18.8061V18.8074Z" fill="black"/>
<path d="M31.1029 12.9642C30.4453 12.9642 30.1363 12.537 30.045 12.237H29.3425C29.4337 12.8141 29.947 13.594 31.0947 13.594C32.1826 13.594 33.0049 12.7993 33.0049 11.4652C33.0049 10.1311 32.2125 9.3363 31.1016 9.3363C30.0818 9.3363 29.4855 9.98916 29.3575 10.6934H30.0519C30.173 10.319 30.4971 9.96618 31.1016 9.96618C31.706 9.96618 32.1744 10.3784 32.2724 11.1286H30.6264V11.7288H32.2806C32.2125 12.5006 31.7591 12.9655 31.1029 12.9655V12.9642Z" fill="black"/>
<path d="M31.3167 15.1863C30.1458 15.1863 29.3684 16.0716 29.3684 17.3152C29.3684 18.5587 30.1458 19.444 31.3167 19.444C32.4875 19.444 33.2649 18.5587 33.2649 17.3152C33.2649 16.0716 32.4875 15.1863 31.3167 15.1863ZM31.3167 18.8074C30.5461 18.8074 30.0927 18.1856 30.0927 17.3152C30.0927 16.4447 30.5529 15.8229 31.3167 15.8229C32.0805 15.8229 32.5474 16.4447 32.5474 17.3152C32.5474 18.1856 32.0873 18.8074 31.3167 18.8074Z" fill="black"/>
<path d="M1.54804 16.8529L2.07629 16.6799C1.9701 16.3731 2.12122 16.1095 2.32544 16.0203C2.40032 15.9824 2.48337 15.9527 2.57459 15.923C3.04975 15.75 3.69236 15.5175 4.00959 14.2888C4.17569 13.6292 4.43981 13.321 4.71891 13.1872C4.56098 13.7644 4.62769 14.3118 4.68896 14.7768C4.72708 15.0836 4.76384 15.3769 4.72708 15.6013C4.66718 15.9459 4.40986 16.246 3.95649 16.5231L3.85846 16.5826L3.82851 16.6948C3.82851 16.6948 3.38331 18.2762 3.14913 19.094L3.12599 19.1764L3.14913 19.2589C3.17228 19.3562 3.20223 19.4468 3.22402 19.536C3.34519 19.9712 3.44321 20.3159 3.44321 20.9079H4.04771C4.04771 20.2334 3.9347 19.836 3.80673 19.3778C3.79175 19.3183 3.7686 19.2508 3.75363 19.1899C3.85982 18.8304 3.99461 18.3424 4.11578 17.9086C4.29686 17.864 4.46296 17.818 4.61408 17.7815C5.41463 17.5869 5.8149 17.4814 6.60728 17.0543C7.23356 16.7096 7.7019 16.1176 7.89796 15.8324C8.4194 15.877 9.89932 15.9743 10.934 15.7797C11.9007 15.5999 12.4752 15.3674 12.7462 15.2323L13.7577 16.6042L13.6829 16.6569L13.3275 16.9273L13.5236 17.1678C13.5317 17.176 13.9919 17.7382 14.2261 18.0451C14.271 18.1127 14.4984 18.4506 14.173 18.7871C13.8789 19.094 13.2662 19.1548 12.9191 18.9074C12.7829 18.8101 12.6999 18.6831 12.6767 18.5249C12.6536 18.3749 12.6917 18.21 12.7748 18.0978C13.0838 17.6923 13.1519 17.2287 12.964 16.8462C12.8061 16.5312 12.4957 16.3433 12.1253 16.3433C11.9061 16.3433 11.642 16.3433 11.333 16.3514C10.5556 16.3596 9.58074 16.3744 8.60728 16.3433L8.06405 16.3285L8.33635 16.7934C8.33635 16.8015 8.5256 17.1084 8.70667 17.4679C8.22335 17.3476 7.52083 17.28 6.66718 17.4909C5.74547 17.7234 4.78699 18.4803 4.70394 19.6427C4.66582 20.1307 4.81013 20.5727 5.08923 20.8944C5.33838 21.1796 5.67875 21.3364 6.07086 21.3661H6.16208C6.60047 21.3661 7.00074 21.1782 7.24989 20.8484C7.49224 20.5335 7.55895 20.1442 7.43914 19.7766C7.39421 19.6495 7.34111 19.5441 7.27304 19.4468C7.68012 19.3873 7.93063 19.5441 8.01368 19.7022C8.20293 20.055 7.83941 20.4145 7.82444 20.4294L7.65017 20.5943L8.43574 21.8987H10.7611V21.2985H9.96876C9.90885 21.2391 9.81763 21.1417 9.74956 20.9985C9.69646 20.893 9.54534 20.5416 9.77951 20.3686C9.93744 20.2483 10.0886 20.2483 10.4371 20.3835C10.6563 20.4659 10.8455 20.5632 11.0484 20.6687C11.5617 20.9309 12.0899 21.208 13.0647 21.231L13.337 21.8987H15.7618V21.2985H14.7421L14.674 21.0363C15.1655 20.8633 15.5957 20.5943 15.913 20.2415C16.4262 19.6711 16.6604 18.9074 16.5923 18.037C16.6754 17.9464 16.8183 17.8045 16.9395 17.6842L17.2418 17.3922L16.5324 17.0394C15.9279 16.7475 15.6339 16.4771 15.3765 15.5918L15.2104 14.97L14.6359 15.1728C14.2955 15.2931 14.0613 15.5932 14.0096 15.9297L13.3452 15.0295C13.8585 15.0214 14.365 14.8268 14.5991 14.6916C15.5889 14.1144 16.1022 13.8225 16.3582 13.6724C16.7584 14.1523 17.446 15.0444 17.5821 15.4566C17.642 15.6445 17.657 16.342 17.642 16.784L18.2465 16.7988C18.2547 16.6042 18.2697 15.6297 18.1553 15.2688C17.9293 14.5943 16.7884 13.244 16.6522 13.0939L16.5161 12.929L16.5011 12.8912C16.0709 13.1088 15.6093 13.1683 15.2703 13.1683C15.4446 12.9358 15.5876 12.6357 15.6624 12.2532L17.1274 11.4665C17.4746 11.8558 18.0559 12.5533 18.1921 12.9142C18.2669 13.1169 18.3132 13.859 18.3282 14.3239L18.9327 14.3091C18.9245 14.1063 18.8946 13.0791 18.7666 12.7128C18.5406 12.0978 17.5358 11.011 17.4228 10.884L17.2649 10.7109L15.7019 11.5503C15.5957 10.7853 15.0825 10.1554 14.6903 9.66881C14.5991 9.55662 14.5161 9.45119 14.448 9.36198C14.32 9.18221 14.1689 8.92675 14.0328 8.6875C14.2138 8.71048 14.4181 8.70237 14.6522 8.6429C14.8034 8.67264 15.2336 8.82267 15.5739 8.96459L15.755 9.03894L16.0722 8.73887C16.4643 8.36446 16.4725 7.73458 16.0954 7.34395L14.9327 6.16665V5.72465L14.7666 5.6422C14.6917 5.60436 14.0491 5.29753 13.672 5.2367C13.1437 5.13127 12.237 5.11641 11.5045 5.88145L10.7571 5.67194C10.802 5.40972 10.8251 5.27455 10.8401 5.11776L10.8551 4.9907C10.9831 4.12834 10.4698 3.5282 10.0845 3.23624C10.1975 2.95915 10.2424 2.55365 9.91838 2.23195C9.64609 1.96162 9.31389 1.90215 8.82376 2.03731C8.53649 2.11165 8.28734 2.30765 8.02321 2.50229C7.91702 2.58474 7.80401 2.66719 7.69101 2.74153C7.08652 3.15379 6.58141 2.76451 6.33226 2.50229L5.89387 2.92265C6.27099 3.32815 6.71756 3.53766 7.15459 3.53766C7.45684 3.53766 7.75092 3.44034 8.03819 3.25246C8.16617 3.1619 8.28734 3.07269 8.39353 2.99024C8.61954 2.81722 8.80878 2.6753 8.98305 2.63069C9.3452 2.53337 9.43642 2.61583 9.49633 2.6753C9.66243 2.8402 9.49633 3.10243 9.47318 3.1254C9.14915 3.25246 8.31048 3.60524 8.19748 4.59466C8.16753 4.81904 8.15255 5.08261 8.13757 5.27725C7.75228 5.26914 7.08788 5.32997 6.48338 5.72736L4.22198 2.66043L3.73048 3.01322L4.79516 4.46085C4.68215 4.61764 4.35676 5.13533 4.55418 5.54759C4.68215 5.81792 5.07562 6.62757 5.24853 6.98711C4.90135 7.40748 3.94151 8.64425 3.43641 10.0608L3.27847 10.5028L3.74682 10.4582C4.44934 10.3906 4.77337 10.5487 5.12055 10.7136C5.2635 10.7812 5.40782 10.8488 5.58073 10.9015C6.21517 11.1043 6.66854 11.0286 7.06065 10.961C7.11375 11.0583 7.17365 11.1556 7.23492 11.2462C7.10694 11.2462 6.97079 11.2611 6.83464 11.2908L6.78972 11.2989C6.48747 11.3584 6.19339 11.426 5.89114 11.599C5.66514 11.3665 5.23355 11.0597 4.55418 11.0597C3.49631 11.0597 2.73388 11.7193 2.44661 12.8817C2.18929 13.932 1.93334 14.2307 1.72231 14.4713C1.62428 14.5835 1.51809 14.7038 1.44321 14.8768C1.12598 15.5594 1.20903 16.1068 1.48133 16.8637L1.5494 16.8556L1.54804 16.8529ZM14.1063 21.2837H13.736L13.706 21.208C13.834 21.1999 13.9552 21.185 14.0763 21.1634L14.1063 21.2837ZM14.4385 16.838L14.4684 16.7556C14.4834 16.7177 14.6196 16.3663 14.5964 16.073C14.5882 15.9378 14.6645 15.8027 14.7857 15.7432C15.1029 16.8083 15.5181 17.1908 16.2125 17.5355C16.1376 17.618 16.0695 17.6923 16.0314 17.7383L15.9633 17.8356L15.9783 17.9478C16.0614 18.7047 15.8803 19.3494 15.4569 19.8144C15.2077 20.0847 14.8823 20.3024 14.4984 20.4362L13.962 20.5713C13.804 20.5943 13.6379 20.6092 13.4705 20.6159V20.6078H13.1832C12.2765 20.6078 11.8163 20.3686 11.3261 20.1131C11.1219 20.0077 10.9027 19.8955 10.6617 19.7982C10.3976 19.6928 9.90613 19.5062 9.43097 19.8577C9.02253 20.1496 8.93948 20.6903 9.21995 21.2377C9.22812 21.2458 9.22812 21.2607 9.23492 21.2674H8.78972L8.4194 20.6457C8.6454 20.3456 8.82784 19.8658 8.56235 19.3859C8.32818 18.9588 7.79176 18.7331 7.2036 18.8236C6.45615 18.9358 6.16888 19.3265 6.06269 19.6711C6.04771 19.7009 6.03954 19.7387 6.03274 19.7766V19.8212C6.03274 20.0158 6.19067 20.1807 6.39489 20.1807C6.59911 20.1807 6.75704 20.0239 6.75704 19.8212C6.75704 19.7833 6.74887 19.7468 6.74206 19.709C6.79516 19.7387 6.85507 19.8063 6.89999 19.9334C6.9599 20.1064 6.92314 20.2929 6.80197 20.451C6.65085 20.6457 6.4017 20.7511 6.13757 20.7281C5.91157 20.7133 5.71415 20.6227 5.5712 20.4578C5.39693 20.2632 5.31388 19.9698 5.33702 19.64C5.4051 18.6506 6.31865 18.1559 6.84009 18.0275C8.23016 17.6828 9.11375 18.1924 9.15051 18.2073L9.88298 18.6493L9.58891 17.8477C9.48271 17.5558 9.29483 17.1949 9.1437 16.9029C9.95923 16.9178 10.7516 16.9029 11.3643 16.8948C11.6733 16.8867 11.9388 16.8867 12.1498 16.8867C12.286 16.8867 12.3908 16.9462 12.4439 17.0597C12.512 17.1949 12.512 17.4274 12.3159 17.6815C12.1349 17.9221 12.0586 18.2519 12.1049 18.5587C12.1498 18.8736 12.3241 19.144 12.5882 19.3305C13.1846 19.7576 14.1213 19.6684 14.6277 19.1359C15.1029 18.6331 15.0198 18.0194 14.7257 17.622C14.5828 17.4341 14.3636 17.1651 14.2043 16.9692L14.4385 16.834V16.838ZM8.36766 5.89091L8.70803 5.95038L8.72301 5.60571C8.72301 5.5976 8.74615 5.06639 8.79789 4.66089C8.87277 4.03102 9.39422 3.79853 9.67332 3.68634C9.88435 3.84314 10.3527 4.25675 10.2628 4.90825L10.2479 5.03531C10.2179 5.22995 10.1948 5.39485 10.1199 5.83008L10.0668 6.10042L11.1246 6.40049C10.6032 7.31556 10.6114 8.45502 10.6645 9.25655C10.7176 10.0432 10.9585 10.7637 10.9735 10.7934L11.5481 10.6055C11.5481 10.5974 11.3221 9.92292 11.269 9.21871C11.2159 8.4388 11.2091 7.30745 11.7605 6.51943C12.2969 5.76926 13.0294 5.7179 13.5426 5.80711C13.7319 5.83684 14.079 5.98012 14.3051 6.0842V6.39103L15.6339 7.7481C15.7019 7.82244 15.7469 7.92111 15.74 8.01843C15.74 8.12386 15.6951 8.22118 15.627 8.28876L15.5971 8.3185C15.288 8.1982 14.8265 8.02654 14.6155 8.01843H14.5705L14.5256 8.0333C13.9443 8.19009 13.6352 7.90624 13.627 7.89137L13.333 7.58455L13.1437 7.96707C13.0756 8.10223 13.0688 8.16982 13.401 8.80645C13.4923 8.97946 13.7251 9.41335 13.9375 9.70666C14.0123 9.81209 14.1036 9.92428 14.2016 10.0365C14.655 10.5906 15.2132 11.2813 15.077 12.068C14.994 12.5627 14.768 12.8547 14.4657 13.1399L14.1335 13.4467L14.5488 13.6346C14.6468 13.6792 14.8129 13.717 15.0171 13.74C14.8129 13.8603 14.5719 13.9955 14.2928 14.1604C14.0886 14.2726 13.19 14.6402 12.7598 14.228L6.84281 6.20585C7.53716 5.76385 8.36086 5.89091 8.36766 5.89091ZM6.93267 11.8964L6.9776 11.8882C7.4759 11.7828 7.96739 11.9626 7.96739 11.9626C8.21654 12.1356 8.50381 12.2694 8.79789 12.3451L8.95582 11.7679C8.31457 11.5949 7.76998 11.1151 7.5358 10.5231L7.44458 10.3054L7.21041 10.3433C7.14234 10.3514 7.06746 10.3663 6.99938 10.3811C6.62906 10.4406 6.28189 10.5014 5.77542 10.3433C5.63927 10.2987 5.5181 10.246 5.39012 10.1865C5.08107 10.0446 4.7407 9.87967 4.17432 9.8648C4.79379 8.44015 5.82852 7.26285 5.83532 7.24798L5.9633 7.09795L5.88025 6.91817C5.88025 6.91817 5.27576 5.65166 5.10285 5.29888C5.0797 5.26103 5.11783 5.13398 5.1859 4.99205L12.3677 14.724C12.1104 14.8362 11.6121 15.0241 10.8115 15.1741C9.66379 15.3918 7.78359 15.2039 7.76862 15.2039L7.57937 15.1809L7.48134 15.3458C7.47318 15.3539 6.99802 16.1406 6.31048 16.5082C5.58617 16.8975 5.23764 16.9881 4.46023 17.1827C4.40714 17.1976 4.35404 17.2125 4.29413 17.2206C4.32409 17.1151 4.34723 17.0259 4.36901 16.9583C4.90544 16.5988 5.22266 16.1784 5.31252 15.6986C5.37242 15.3836 5.32749 15.0457 5.28256 14.6943C5.19951 14.0266 5.1083 13.3372 5.65288 12.633C6.09809 12.0707 6.43029 12.0031 6.92859 11.8977L6.93267 11.8964ZM2.19746 14.8727C2.43164 14.6024 2.75567 14.228 3.04294 13.0358C3.19406 12.414 3.58617 11.672 4.56098 11.672C4.99938 11.672 5.27031 11.845 5.42143 11.9869C5.33838 12.0694 5.25533 12.1667 5.17228 12.2721C5.11238 12.3465 5.05928 12.4222 5.01435 12.4965C4.39488 12.5492 3.72368 12.9088 3.41326 14.1388C3.17909 15.0687 2.77881 15.2106 2.35539 15.3607C2.25737 15.3985 2.15117 15.435 2.05315 15.481C1.98507 15.5107 1.917 15.5553 1.8571 15.6013C1.88024 15.4512 1.917 15.3093 1.99324 15.1444C2.05315 15.039 2.11441 14.9714 2.19746 14.8741V14.8727Z" fill="black"/>
<path d="M0 19.5184C0 21.9325 1.44997 23.372 3.88156 23.372H6.73657C7.96054 23.372 9.13004 23.8897 9.94557 24.8034L10.1716 25.0508L10.3976 24.8034C11.2131 23.8964 12.384 23.372 13.6066 23.372H16.4616C18.9612 23.372 20.3431 22 20.3431 19.5184V0.933002H0V19.5184ZM0.604494 1.53314H19.74V19.5184C19.74 21.6473 18.6073 22.7719 16.4629 22.7719H13.6079C12.3241 22.7719 11.0851 23.2747 10.1716 24.1668C9.25802 23.2747 8.01908 22.7719 6.73521 22.7719H3.88156C1.79715 22.7719 0.604494 21.5878 0.604494 19.5184V1.53314Z" fill="black"/>
</g>
<defs>
<clipPath id="clip0_32_1256">
<rect width="49.1315" height="24.1191" fill="white" transform="translate(0 0.933002)"/>
</clipPath>
</defs>
</svg>
