<svg width="30" height="15" viewBox="0 0 30 15" fill="none" xmlns="http://www.w3.org/2000/svg">
<g clip-path="url(#clip0_251_1073)">
<path d="M15.0865 2.43745H16.2617V4.5363H16.6837V2.05909H14.6653V4.5363H15.0873V2.43745H15.0865Z" fill="white"/>
<path d="M20.2985 4.57771C21.0018 4.57771 21.4688 4.04589 21.4688 3.29891C21.4688 2.55193 21.0018 2.02011 20.2985 2.02011C19.5952 2.02011 19.1282 2.55193 19.1282 3.29891C19.1282 4.04589 19.5952 4.57771 20.2985 4.57771ZM20.2985 2.40254C20.7614 2.40254 21.0378 2.77603 21.0378 3.29891C21.0378 3.8218 20.7565 4.19529 20.2985 4.19529C19.8405 4.19529 19.5633 3.8218 19.5633 3.29891C19.5584 2.77684 19.8356 2.40254 20.2985 2.40254Z" fill="white"/>
<path d="M15.9845 11.0058L15.1863 9.0872H14.6645V11.5644H15.0685V9.77166L15.8127 11.5555H16.1529L16.8923 9.77166V11.5644H17.2914V9.0872H16.7786L15.9845 11.0058Z" fill="white"/>
<path d="M24.2412 3.39716L25.2439 4.5363H25.7746L24.6632 3.2437L25.7517 2.05909H25.239L24.2412 3.13084V2.05909H23.8192V4.5363H24.2412V3.39716Z" fill="white"/>
<path d="M23.4438 4.15794H22.2416V3.45074H23.376V3.08618H22.2416V2.43745H23.4438V2.05909H21.8196V4.5363H23.4438V4.15794Z" fill="white"/>
<path d="M20.5986 7.19377H21.0934C21.6193 7.19377 21.9415 6.82921 21.9415 6.38345C21.9415 5.9377 21.6332 5.57314 21.0795 5.57314H20.1725V8.05036H20.5945V7.19458H20.5995L20.5986 7.19377ZM20.5986 5.94176H21.0435C21.3519 5.94176 21.5195 6.12201 21.5195 6.38345C21.5195 6.6449 21.3469 6.82921 21.0435 6.82921H20.5986V5.94176Z" fill="white"/>
<path d="M27.8135 2.05909H25.8221V2.43745H26.6072V4.5363H27.0292V2.43745H27.8143V2.05909H27.8135Z" fill="white"/>
<path d="M26.3242 10.2686C26.4829 10.2012 26.6505 10.025 26.6505 9.73269C26.6505 9.37219 26.3872 9.08882 25.8793 9.08882H24.9175V11.566H25.9112C26.424 11.566 26.7462 11.2729 26.7462 10.8637C26.7462 10.4992 26.5058 10.3189 26.3242 10.2694V10.2686ZM25.3395 9.44445H25.8204C26.0748 9.44445 26.2244 9.5703 26.2244 9.78221C26.2244 9.97139 26.1018 10.12 25.8392 10.12H25.3404V9.44445H25.3395ZM25.8654 11.2007H25.3395V10.4618H25.8842C26.1516 10.4618 26.3201 10.6015 26.3201 10.8312C26.3152 11.0699 26.1345 11.2007 25.8662 11.2007H25.8654Z" fill="white"/>
<path d="M24.6763 9.0872H24.1635L23.1609 10.159V9.0872H22.7389V11.5644H23.1609V10.4253L24.1635 11.5644H24.6992L23.5829 10.2718L24.6763 9.0872Z" fill="white"/>
<path d="M29.5129 9.0872H29.0909V11.5644H29.5129V9.0872Z" fill="white"/>
<path d="M15.9845 7.49093L15.1863 5.57233H14.6645V8.04955H15.0685V6.25679L15.8127 8.04061H16.1529L16.8923 6.25679V8.04955H17.2914V5.57233H16.7786L15.9845 7.49093Z" fill="white"/>
<path d="M23.7284 8.04955H24.1733L23.2435 5.57233H22.8035L21.8777 8.04955H22.3226L22.5311 7.46414H23.5158L23.7292 8.04955H23.7284ZM22.6579 7.09958L23.021 6.07248L23.3841 7.09958H22.6587H22.6579Z" fill="white"/>
<path d="M27.9787 9.9649H27.4978V9.08639H27.0758V11.5636H27.9877C28.5095 11.5636 28.8358 11.208 28.8358 10.7622C28.8358 10.3165 28.5225 9.9649 27.9787 9.9649ZM27.9378 11.1942H27.4978V10.3343H27.9378C28.2371 10.3343 28.4097 10.5008 28.4097 10.7622C28.4097 11.0237 28.233 11.195 27.9378 11.195V11.1942Z" fill="white"/>
<path d="M18.9205 2.87021C18.9205 2.41959 18.6121 2.0599 18.0585 2.0599H17.1515V4.53711H17.5735V3.68133H18.0683C18.599 3.68133 18.9213 3.31677 18.9213 2.87102L18.9205 2.87021ZM17.5735 3.31596V2.42852H18.0184C18.3267 2.42852 18.4944 2.60877 18.4944 2.87021C18.4944 3.13165 18.3218 3.31596 18.0184 3.31596H17.5735Z" fill="white"/>
<path d="M21.3576 11.221C20.9217 11.221 20.6452 10.8475 20.6452 10.3246C20.6452 9.8017 20.9266 9.42821 21.3576 9.42821C21.7207 9.42821 21.9153 9.64418 21.9832 9.8967H22.4052C22.3324 9.43308 21.9791 9.04579 21.3576 9.04579C20.6812 9.04579 20.2142 9.57273 20.2142 10.3246C20.2142 11.0764 20.6951 11.6034 21.3576 11.6034C22.02 11.6034 22.3692 11.1308 22.4142 10.7476H21.9881C21.9521 10.9595 21.7477 11.2202 21.3576 11.2202V11.221Z" fill="white"/>
<path d="M18.6832 7.71097C18.2882 7.71097 18.1026 7.4544 18.0478 7.27415H17.6258C17.6806 7.62084 17.9889 8.08933 18.6783 8.08933C19.3318 8.08933 19.8257 7.61191 19.8257 6.81053C19.8257 6.00915 19.3498 5.53173 18.6824 5.53173C18.0699 5.53173 17.7117 5.9239 17.6348 6.34692H18.0519C18.1247 6.12201 18.3193 5.9101 18.6824 5.9101C19.0455 5.9101 19.3269 6.15774 19.3858 6.60836H18.397V6.96886H19.3907C19.3498 7.43248 19.0774 7.71178 18.6832 7.71178V7.71097Z" fill="white"/>
<path d="M18.8117 9.04579C18.1083 9.04579 17.6414 9.57761 17.6414 10.3246C17.6414 11.0716 18.1083 11.6034 18.8117 11.6034C19.515 11.6034 19.982 11.0716 19.982 10.3246C19.982 9.57761 19.515 9.04579 18.8117 9.04579ZM18.8117 11.221C18.3488 11.221 18.0764 10.8475 18.0764 10.3246C18.0764 9.8017 18.3529 9.42821 18.8117 9.42821C19.2705 9.42821 19.551 9.8017 19.551 10.3246C19.551 10.8475 19.2746 11.221 18.8117 11.221Z" fill="white"/>
<path d="M0.929875 10.0469L1.24719 9.94298C1.1834 9.75867 1.27418 9.60034 1.39685 9.54675C1.44183 9.52402 1.49172 9.50616 1.54652 9.4883C1.83194 9.38437 2.21795 9.24471 2.40851 8.50667C2.50828 8.11044 2.66694 7.92532 2.8346 7.84494C2.73973 8.19164 2.7798 8.52047 2.8166 8.79977C2.8395 8.98408 2.86158 9.16027 2.8395 9.29505C2.80352 9.5021 2.64895 9.68235 2.37661 9.84879L2.31773 9.88452L2.29974 9.95191C2.29974 9.95191 2.03231 10.9019 1.89164 11.3931L1.87774 11.4426L1.89164 11.4922C1.90554 11.5506 1.92354 11.605 1.93662 11.6586C2.00941 11.92 2.06829 12.1271 2.06829 12.4827H2.43141C2.43141 12.0776 2.36353 11.8388 2.28665 11.5636C2.27765 11.5279 2.26375 11.4873 2.25476 11.4507C2.31855 11.2348 2.39951 10.9417 2.4723 10.681C2.58107 10.6542 2.68084 10.6266 2.77162 10.6047C3.25251 10.4878 3.49295 10.4245 3.96892 10.1679C4.34512 9.96084 4.62646 9.60521 4.74422 9.4339C5.05745 9.46069 5.94643 9.51915 6.56798 9.40223C7.14863 9.29424 7.49376 9.15459 7.65651 9.0734L8.26415 9.89751L8.21917 9.92918L8.00572 10.0916L8.12349 10.2361C8.12839 10.241 8.40482 10.5787 8.54548 10.763C8.57247 10.8036 8.70905 11.0066 8.51359 11.2088C8.33694 11.3931 7.96892 11.4296 7.76037 11.281C7.67859 11.2226 7.6287 11.1463 7.6148 11.0513C7.60089 10.9611 7.62379 10.8621 7.67368 10.7947C7.85933 10.5511 7.90022 10.2726 7.78736 10.0428C7.69249 9.85367 7.50603 9.74081 7.28358 9.74081C7.15191 9.74081 6.99325 9.74081 6.8076 9.74568C6.34062 9.75055 5.75506 9.75948 5.17031 9.74081L4.844 9.73188L5.00756 10.0112C5.00756 10.0161 5.12124 10.2004 5.23001 10.4163C4.93968 10.3441 4.51768 10.3035 4.00491 10.4301C3.45124 10.5698 2.87549 11.0245 2.8256 11.7227C2.8027 12.0158 2.88939 12.2814 3.05704 12.4746C3.20671 12.6459 3.41116 12.7401 3.6467 12.758H3.70149C3.96483 12.758 4.20527 12.6451 4.35494 12.447C4.50051 12.2578 4.54058 12.024 4.46861 11.8031C4.44163 11.7268 4.40973 11.6635 4.36884 11.605C4.61337 11.5693 4.76385 11.6635 4.81374 11.7585C4.92742 11.9704 4.70906 12.1864 4.70006 12.1953L4.59538 12.2943L5.06726 13.0779H6.46411V12.7174H5.98814C5.95215 12.6816 5.89736 12.6232 5.85647 12.5371C5.82457 12.4738 5.73379 12.2627 5.87446 12.1587C5.96933 12.0865 6.06011 12.0865 6.26947 12.1677C6.40114 12.2172 6.51482 12.2757 6.63668 12.339C6.945 12.4965 7.26231 12.663 7.84788 12.6768L8.01144 13.0779H9.46799V12.7174H8.85544L8.81455 12.5598C9.10979 12.4559 9.36822 12.2943 9.55877 12.0824C9.86709 11.7398 10.0078 11.281 9.96687 10.7582C10.0168 10.7038 10.1026 10.6185 10.1754 10.5462L10.357 10.3709L9.93088 10.159C9.56777 9.98358 9.39112 9.82119 9.23655 9.28937L9.13677 8.91588L8.79165 9.03767C8.58719 9.10993 8.44653 9.29018 8.41545 9.49235L8.01635 8.95161C8.32467 8.94673 8.6289 8.82982 8.76957 8.74862C9.36413 8.40193 9.67245 8.22655 9.8262 8.13642C10.0666 8.42466 10.4796 8.96054 10.5614 9.20818C10.5974 9.32104 10.6064 9.74 10.5974 10.0055L10.9605 10.0144C10.9654 9.89751 10.9744 9.31211 10.9057 9.09532C10.77 8.69016 10.0846 7.87904 10.0029 7.78892L9.92107 7.68986L9.91207 7.66712C9.65364 7.79785 9.3764 7.83357 9.17276 7.83357C9.27744 7.69392 9.36331 7.51367 9.40829 7.28389L10.2883 6.81135C10.4968 7.04518 10.846 7.46414 10.9278 7.68093C10.9728 7.80272 11.0006 8.24847 11.0096 8.52778L11.3727 8.51884C11.3678 8.39705 11.3498 7.77998 11.2729 7.55995C11.1372 7.19052 10.5336 6.53772 10.4657 6.4614L10.3709 6.35747L9.43201 6.86169C9.36822 6.40213 9.0599 6.02377 8.82436 5.73147C8.76957 5.66408 8.71968 5.60075 8.67879 5.54716C8.60191 5.43917 8.51114 5.28572 8.42935 5.14201C8.53812 5.15581 8.6608 5.15094 8.80147 5.11521C8.89224 5.13308 9.15068 5.2232 9.35513 5.30845L9.46391 5.35311L9.65446 5.17286C9.88999 4.94795 9.8949 4.56959 9.66836 4.33494L8.96994 3.62775V3.36224L8.87016 3.31272C8.82518 3.28998 8.43917 3.10567 8.21263 3.06914C7.89531 3.0058 7.35064 2.99687 6.91065 3.45643L6.46166 3.33058C6.48865 3.17306 6.50255 3.09187 6.51155 2.99769L6.52054 2.92136C6.59742 2.40335 6.2891 2.04285 6.05765 1.86747C6.12553 1.70103 6.15252 1.45744 5.95788 1.2642C5.79431 1.10182 5.59476 1.06609 5.30034 1.14729C5.12778 1.19194 4.97812 1.30967 4.81946 1.42659C4.75567 1.47612 4.68779 1.52565 4.61991 1.5703C4.2568 1.81794 3.95338 1.58411 3.80372 1.42659L3.54038 1.6791C3.76692 1.92268 4.03517 2.04853 4.29769 2.04853C4.47925 2.04853 4.6559 1.99007 4.82846 1.87721C4.90533 1.82282 4.97812 1.76923 5.04191 1.7197C5.17767 1.61577 5.29135 1.53052 5.39603 1.50372C5.61357 1.44527 5.66837 1.49479 5.70435 1.53052C5.80413 1.62957 5.70435 1.78709 5.69045 1.80089C5.49581 1.87721 4.99202 2.08913 4.92414 2.68347C4.90615 2.81825 4.89716 2.97658 4.88816 3.09349C4.65671 3.08862 4.25761 3.12516 3.8945 3.36387L2.53609 1.52159L2.24085 1.7335L2.88039 2.60309C2.81251 2.69727 2.61705 3.00824 2.73564 3.25588C2.81251 3.41827 3.04887 3.90462 3.15273 4.12059C2.94418 4.3731 2.36762 5.11602 2.0642 5.96693L1.96933 6.23244L2.25067 6.20564C2.67267 6.16504 2.86731 6.26004 3.07585 6.3591C3.16173 6.39969 3.24842 6.44029 3.35228 6.47196C3.73339 6.59375 4.00572 6.54828 4.24126 6.50768C4.27315 6.56614 4.30914 6.6246 4.34594 6.679C4.26906 6.679 4.18728 6.68793 4.1055 6.70579L4.07851 6.71067C3.89695 6.74639 3.7203 6.78699 3.53874 6.89091C3.40299 6.75126 3.14373 6.56695 2.73564 6.56695C2.10019 6.56695 1.6422 6.96318 1.46964 7.66144C1.31507 8.29231 1.16132 8.47175 1.03456 8.61628C0.975673 8.68367 0.911883 8.75593 0.866902 8.85986C0.676348 9.26989 0.726236 9.59872 0.889801 10.0534L0.930693 10.0485L0.929875 10.0469ZM8.47352 12.7084H8.25107L8.23307 12.663C8.30995 12.6581 8.38274 12.6492 8.45552 12.6362L8.47352 12.7084ZM8.67307 10.038L8.69106 9.98845C8.70005 9.96571 8.78184 9.75461 8.76793 9.57842C8.76303 9.49723 8.80882 9.41603 8.88161 9.38031C9.07217 10.0201 9.3216 10.2499 9.7387 10.4569C9.69371 10.5065 9.65282 10.5511 9.62992 10.5787L9.58903 10.6372L9.59803 10.7046C9.64792 11.1593 9.53914 11.5466 9.2848 11.8259C9.13514 11.9882 8.93968 12.119 8.70905 12.1993L8.38683 12.2805C8.29196 12.2943 8.19218 12.3033 8.09159 12.3073V12.3025H7.91903C7.37436 12.3025 7.09793 12.1587 6.80351 12.0053C6.68084 11.942 6.54917 11.8746 6.40441 11.8161C6.24575 11.7528 5.95052 11.6407 5.6651 11.8518C5.41975 12.0272 5.36986 12.352 5.53833 12.6808C5.54324 12.6857 5.54324 12.6946 5.54733 12.6987H5.2799L5.05745 12.3252C5.19321 12.1449 5.3028 11.8567 5.14332 11.5685C5.00266 11.3119 4.68043 11.1763 4.32713 11.2307C3.87814 11.2981 3.70558 11.5327 3.64179 11.7398C3.63279 11.7577 3.62789 11.7804 3.6238 11.8031V11.8299C3.6238 11.9468 3.71867 12.0459 3.84134 12.0459C3.96402 12.0459 4.05888 11.9517 4.05888 11.8299C4.05888 11.8072 4.05398 11.7853 4.04989 11.7625C4.08178 11.7804 4.11777 11.821 4.14475 11.8973C4.18074 12.0012 4.15866 12.1133 4.08587 12.2083C3.99509 12.3252 3.84543 12.3885 3.68677 12.3747C3.55101 12.3658 3.43243 12.3114 3.34655 12.2123C3.24187 12.0954 3.19199 11.9192 3.20589 11.7211C3.24678 11.1268 3.79554 10.8296 4.10877 10.7525C4.94377 10.5454 5.47454 10.8515 5.49662 10.8605L5.93661 11.126L5.75996 10.6445C5.69617 10.4691 5.58331 10.2523 5.49253 10.0769C5.98241 10.0859 6.45839 10.0769 6.82641 10.0721C7.01206 10.0672 7.17153 10.0672 7.2983 10.0672C7.38008 10.0672 7.44305 10.1029 7.47495 10.1711C7.51584 10.2523 7.51584 10.392 7.39807 10.5446C7.2893 10.6891 7.2435 10.8873 7.27131 11.0716C7.2983 11.2607 7.40298 11.4231 7.56164 11.5352C7.91985 11.7918 8.48251 11.7382 8.78674 11.4183C9.07217 11.1162 9.02228 10.7476 8.84563 10.5089C8.75976 10.396 8.62809 10.2345 8.5324 10.1167L8.67307 10.0355V10.038ZM5.02637 3.46211L5.23083 3.49784L5.23983 3.29079C5.23983 3.28592 5.25373 2.96683 5.28481 2.72325C5.32979 2.34489 5.64301 2.20524 5.81067 2.13785C5.93743 2.23203 6.21877 2.48048 6.16479 2.87184L6.15579 2.94816C6.1378 3.06508 6.1239 3.16413 6.07892 3.42558L6.04702 3.58796L6.68247 3.76821C6.36925 4.31789 6.37415 5.00235 6.40605 5.48383C6.43794 5.95638 6.5827 6.38914 6.59169 6.407L6.93682 6.29414C6.93682 6.28927 6.80106 5.88411 6.76916 5.4611C6.73727 4.99261 6.73318 4.31302 7.0644 3.83966C7.38662 3.38904 7.82661 3.35818 8.13494 3.41177C8.24861 3.42964 8.45716 3.5157 8.59292 3.57822V3.76253L9.39112 4.57771C9.43201 4.62237 9.459 4.68164 9.45491 4.7401C9.45491 4.80343 9.42792 4.86189 9.38703 4.90249L9.36904 4.92035C9.18339 4.84809 8.90615 4.74497 8.77938 4.7401H8.75239L8.72541 4.74903C8.37619 4.84321 8.19055 4.67271 8.18564 4.66378L8.00899 4.47947L7.89531 4.70924C7.85442 4.79044 7.85033 4.83104 8.04988 5.21346C8.10468 5.31738 8.24452 5.57802 8.37211 5.75421C8.41709 5.81754 8.47188 5.88493 8.53076 5.95232C8.8031 6.28521 9.13841 6.70011 9.05663 7.17266C9.00674 7.46982 8.87098 7.6452 8.68942 7.81652L8.48987 8.00083L8.73931 8.11369C8.79819 8.14048 8.89797 8.16322 9.02064 8.17702C8.89797 8.24928 8.75321 8.33048 8.58556 8.42953C8.46288 8.49692 7.92312 8.71777 7.66468 8.47013L4.11041 3.65129C4.5275 3.38579 5.02228 3.46211 5.02637 3.46211ZM4.16438 7.06954L4.19137 7.06467C4.4907 7.00134 4.78593 7.10932 4.78593 7.10932C4.93559 7.21325 5.10816 7.29363 5.28481 7.3391L5.37967 6.99241C4.99448 6.88848 4.66735 6.60024 4.52668 6.24461L4.47189 6.11389L4.33122 6.13663C4.29033 6.1415 4.24535 6.15043 4.20446 6.15936C3.98201 6.19509 3.77346 6.23162 3.46923 6.13663C3.38745 6.10983 3.31466 6.07817 3.23778 6.04244C3.05214 5.95719 2.84768 5.85813 2.50746 5.8492C2.87958 4.99342 3.50112 4.28623 3.50521 4.2773L3.58209 4.18717L3.5322 4.07918C3.5322 4.07918 3.16909 3.3184 3.06522 3.10648C3.05132 3.08375 3.07422 3.00743 3.11511 2.92218L7.42915 8.76811C7.27458 8.8355 6.97526 8.94836 6.49437 9.03848C5.80494 9.1692 4.67552 9.05635 4.66653 9.05635L4.55285 9.04254L4.49397 9.1416C4.48906 9.14647 4.20364 9.61902 3.79064 9.83986C3.35555 10.0737 3.14619 10.1281 2.67921 10.245C2.64731 10.254 2.61542 10.2629 2.57943 10.2678C2.59743 10.2044 2.61133 10.1508 2.62441 10.1102C2.94664 9.89426 3.13719 9.64175 3.19117 9.35351C3.22715 9.16433 3.20016 8.96135 3.17318 8.75025C3.12329 8.34915 3.06849 7.93506 3.39562 7.51204C3.66305 7.17428 3.8626 7.13368 4.16193 7.07035L4.16438 7.06954ZM1.31998 8.85742C1.46064 8.69503 1.65529 8.47013 1.82785 7.754C1.91863 7.38051 2.15416 6.93476 2.73973 6.93476C3.00307 6.93476 3.16582 7.03869 3.25659 7.12394C3.20671 7.17347 3.15682 7.23193 3.10693 7.29526C3.07095 7.33991 3.03905 7.38538 3.01206 7.43004C2.63995 7.46171 2.23676 7.67768 2.0503 8.41654C1.90963 8.97515 1.66919 9.06041 1.41485 9.15053C1.35596 9.17326 1.29217 9.19519 1.23329 9.22279C1.1924 9.24065 1.15151 9.26745 1.11552 9.29505C1.12942 9.20493 1.15151 9.11968 1.1973 9.02062C1.23329 8.95729 1.27009 8.91669 1.31998 8.85823V8.85742Z" fill="white"/>
<path d="M0 11.648C0 13.0982 0.870986 13.9629 2.33163 13.9629H4.04661C4.78184 13.9629 5.48435 14.2738 5.97423 14.8227L6.10999 14.9713L6.24575 14.8227C6.73563 14.2779 7.43896 13.9629 8.17337 13.9629H9.88835C11.3899 13.9629 12.22 13.1388 12.22 11.648V0.483932H0V11.648ZM0.363115 0.844432H11.8577V11.648C11.8577 12.9268 11.1772 13.6024 9.88917 13.6024H8.17419C7.40297 13.6024 6.65875 13.9044 6.10999 14.4403C5.56123 13.9044 4.817 13.6024 4.04579 13.6024H2.33163C1.07953 13.6024 0.363115 12.8911 0.363115 11.648V0.844432Z" fill="white"/>
</g>
<defs>
<clipPath id="clip0_251_1073">
<rect width="29.5129" height="14.4882" fill="white" transform="translate(0 0.483932)"/>
</clipPath>
</defs>
</svg>
