<svg width="160" height="47" viewBox="0 0 160 47" fill="none" xmlns="http://www.w3.org/2000/svg">
<path d="M8.62999 18.8717V16.1101H12.082V18.8717V19.0443V19.3895C12.082 24.0497 10.0108 28.3647 6.55879 31.4715C4.6602 33.1975 2.4164 34.5783 0 35.4413V31.9893C1.5534 31.2989 2.9342 30.4359 4.1424 29.2277C6.904 26.8113 8.62999 23.1867 8.62999 19.3895V19.0443V18.8717ZM25.89 18.8717V16.1101H29.342V18.8717V19.0443V19.3895C29.342 23.1867 31.068 26.6387 33.8296 29.2277C35.0378 30.2633 36.4186 31.2989 37.972 31.9893V35.4413C35.383 34.5783 33.1392 33.1975 31.4132 31.4715C27.9612 28.3647 25.89 24.0497 25.89 19.3895V19.0443V18.8717ZM0 41.3097C3.9698 40.2741 7.59439 38.2029 10.5286 35.6139C12.7724 33.5427 14.4984 31.2989 15.7066 28.5373C16.5696 30.7811 17.6052 32.6797 18.986 34.5783C20.1942 32.8523 21.2298 30.7811 22.2654 28.5373C23.4736 31.1263 25.1996 33.5427 27.4434 35.6139C30.3776 38.2029 34.0022 40.2741 37.972 41.3097V37.8577C34.8652 36.8221 32.1036 35.2687 29.8598 33.1975C26.0626 29.7455 23.8188 24.9127 23.8188 19.7347V5.23633H20.3668V19.7347C20.3668 22.3237 19.849 25.2579 19.1586 27.6743C18.2956 25.4305 17.9504 22.3237 17.9504 19.7347V5.23633H14.4984V19.7347C14.4984 24.9127 12.082 29.7455 8.45739 33.1975C6.2136 35.2687 3.452 36.8221 0.3452 37.8577V41.3097H0ZM15.534 33.5427C14.671 34.7509 13.6354 35.7865 12.4272 36.8221C8.97519 39.9289 4.8328 42.1727 0 43.2083V46.4877C5.6958 45.2795 10.8738 42.6905 15.0162 39.0659C15.8792 38.2029 16.7422 37.5125 17.4326 36.4769H17.26C16.5696 35.6139 16.0518 34.5783 15.534 33.5427ZM20.712 36.8221C21.4024 37.6851 22.2654 38.3755 22.9558 39.2385C26.9256 42.8631 32.1036 45.6247 37.972 46.6603V43.3809C33.1392 42.3453 28.8242 40.1015 25.5448 36.9947C24.5092 35.9591 23.4736 34.9235 22.6106 33.8879C22.0928 34.9235 21.575 35.7865 20.8846 36.6495C20.8846 36.6495 20.712 36.6495 20.712 36.8221Z" fill="white"/>
<path d="M53.5063 18.0088C54.3693 13.8664 55.4049 9.37877 55.7501 5.23637H59.8925V24.395H57.3035V16.8006L57.6487 9.89657C57.3035 12.1404 55.7501 20.2526 53.8515 24.2224H53.5063H53.1611C51.2625 20.2526 49.7091 12.1404 49.3639 9.89657L49.7091 16.8006V24.395H47.1201V5.23637H51.2625C51.7803 9.37877 52.8159 13.8664 53.5063 18.0088ZM115.297 8.51577V9.37877V10.9322C115.297 12.4856 114.607 13.5212 113.571 14.2116C114.607 15.0746 115.297 16.4554 115.297 18.0088V24.2224C113.398 24.2224 111.672 24.2224 109.774 24.2224H106.667V5.06377H109.774C111.672 5.06377 113.398 5.06377 115.297 5.06377V8.51577ZM109.601 15.765V21.6334H112.19C112.19 20.4252 112.19 19.217 112.19 17.8362C112.19 15.9376 110.809 15.765 109.601 15.765ZM109.601 7.82537V13.0034C110.809 13.0034 112.19 13.0034 112.19 11.1048V9.37877V7.99797H109.601V7.82537ZM98.5549 24.395H95.4481V5.06377H98.5549H101.489H104.596V24.2224H101.489H98.5549V24.395ZM101.316 7.82537H98.5549V21.6334H101.316V7.82537ZM65.2431 24.395H62.1363V5.06377H65.2431H68.1773H71.2841V24.2224H68.1773H65.2431V24.395ZM68.0047 7.82537H65.2431V21.6334H68.0047V7.82537ZM120.302 24.395H117.196V5.06377H120.302H123.237H126.343V12.8308H123.237V7.82537H120.302V21.6334H123.237V16.628H126.343V24.395H123.237H120.302ZM76.2895 24.395H73.1827V5.06377H76.2895H79.2237H82.3305V12.8308H79.2237V7.82537H76.2895V21.6334H79.2237V16.628H82.3305V24.395H79.2237H76.2895ZM131.521 24.395H128.415V5.23637H131.521V12.8308H132.039C133.765 12.8308 134.283 11.1048 134.283 9.89657V5.40897H137.39V9.72397C137.39 11.7952 136.699 13.176 135.146 14.2116C136.699 15.2472 137.39 16.8006 137.39 18.6992V24.395H134.283V18.5266C134.283 17.3184 133.593 15.765 132.039 15.765H131.521V24.395ZM158.62 2.81997H151.888V0.576172H158.62V2.81997ZM150.68 24.395V5.23637H153.442V16.4554L156.548 5.23637H160V24.395H157.066V11.1048L153.269 24.5676L150.68 24.395ZM139.288 24.395V5.23637H142.05V16.4554L145.157 5.23637H148.609V24.395H145.847V11.1048L142.05 24.5676L139.288 24.395ZM87.5085 24.395H84.5743V5.23637H87.6811V12.8308H88.1989C89.9249 12.8308 90.4427 11.1048 90.4427 9.89657V5.40897H93.5495V9.72397C93.5495 11.7952 92.8591 13.176 91.3057 14.2116C92.8591 15.2472 93.5495 16.8006 93.5495 18.6992V24.395H90.4427V18.5266C90.4427 17.3184 89.7523 15.765 88.1989 15.765H87.6811V24.395H87.5085Z" fill="white"/>
<path d="M61.4459 46.66H58.3391V27.5015H67.3143V46.66H64.2075V30.2631H61.2733V46.66H61.4459ZM50.2269 46.66H47.1201V27.5015H50.2269H53.1611H56.2679V35.2685H53.1611V30.2631H50.2269V44.0711H53.1611V39.0657H56.2679V46.8327H53.1611H50.2269V46.66ZM72.4923 46.66H69.3855V27.5015H72.4923H75.4265H78.5333V46.66H75.4265H72.4923ZM75.4265 30.0905H72.6649V43.8985H75.4265V30.0905ZM90.0975 27.5015H99.5905V30.2631H96.4837V46.66H93.2043V30.2631H90.0975V27.5015ZM89.2345 34.0603V34.9233V36.4767C89.2345 39.4109 87.6811 41.4821 84.7469 41.4821H83.7113V46.66H80.6045V27.5015C83.5387 27.5015 86.3003 27.5015 89.2345 27.5015V34.0603ZM83.7113 30.0905V38.7205C84.9195 38.7205 86.3003 38.5479 86.3003 36.6493V34.9233V30.2631H83.7113V30.0905Z" fill="white"/>
</svg>
