<svg width="59" height="59" viewBox="0 0 59 59" fill="none" xmlns="http://www.w3.org/2000/svg">
<path fill-rule="evenodd" clip-rule="evenodd" d="M54.0333 29.5C54.0333 15.9506 43.0494 4.96667 29.5 4.96667C15.9506 4.96667 4.96666 15.9506 4.96666 29.5C4.96666 43.0494 15.9506 54.0333 29.5 54.0333C43.0494 54.0333 54.0333 43.0494 54.0333 29.5ZM59 29.5C59 13.2076 45.7924 -2.00165e-06 29.5 -1.28949e-06C13.2076 -5.77322e-07 -2.00165e-06 13.2076 -1.28949e-06 29.5C-5.77322e-07 45.7924 13.2076 59 29.5 59C45.7924 59 59 45.7924 59 29.5Z" fill="#EB3333"/>
<path d="M15 29.6045L38 45.6045L38 13.6045L15 29.6045Z" fill="#EB3333"/>
</svg>
