<svg width="60" height="60" viewBox="0 0 60 60" fill="none" xmlns="http://www.w3.org/2000/svg">
<path fill-rule="evenodd" clip-rule="evenodd" d="M30 5.05084C16.221 5.05084 5.05085 16.221 5.05084 30C5.05084 43.779 16.221 54.9492 30 54.9492C43.779 54.9492 54.9492 43.779 54.9492 30C54.9492 16.221 43.779 5.05084 30 5.05084ZM30 -6.43738e-06C13.4315 -7.88585e-06 2.56454e-07 13.4314 -1.19201e-06 30C-2.64048e-06 46.5685 13.4315 60 30 60C46.5685 60 60 46.5685 60 30C60 13.4315 46.5685 -4.98891e-06 30 -6.43738e-06Z" fill="white"/>
<path d="M30.1063 44.7461L46.3774 21.3563L13.8351 21.3563L30.1063 44.7461Z" fill="white"/>
</svg>
