<svg width="18" height="17" viewBox="0 0 18 17" fill="none" xmlns="http://www.w3.org/2000/svg">
<path d="M9.05465 16.9995C6.91689 16.9995 4.77913 17.0008 2.64137 16.9995C1.84224 16.9988 1.20335 16.5174 1.00458 15.7737C0.971454 15.6487 0.951172 15.5216 0.951172 15.3911C0.951848 11.4083 0.950496 7.42551 0.9532 3.44205C0.9532 2.58208 1.68607 1.85124 2.54672 1.84516C3.40196 1.83907 4.2572 1.84042 5.11176 1.84651C5.24562 1.84718 5.28957 1.81068 5.2774 1.67884C5.26658 1.55579 5.27132 1.4314 5.27672 1.30767C5.29025 0.978423 5.52079 0.753964 5.83584 0.759373C6.14075 0.764782 6.35237 0.991944 6.3571 1.32255C6.35913 1.45776 6.36183 1.59298 6.35642 1.72752C6.35304 1.81406 6.38008 1.84583 6.47068 1.84516C7.11769 1.84178 7.76469 1.84178 8.4117 1.84516C8.50365 1.84516 8.52393 1.81 8.52461 1.72684C8.52596 1.5416 8.50432 1.355 8.54557 1.17178C8.60438 0.906758 8.8356 0.742471 9.12091 0.760725C9.37511 0.776951 9.57997 0.977746 9.60025 1.24142C9.61039 1.37596 9.61783 1.51252 9.6043 1.64571C9.58673 1.81203 9.64757 1.85056 9.80848 1.84786C10.4048 1.83772 11.0011 1.83772 11.5974 1.84786C11.7529 1.85056 11.7901 1.80121 11.7793 1.65788C11.7684 1.51861 11.7738 1.37663 11.7853 1.23668C11.8063 0.974366 12.0125 0.776951 12.2687 0.760725C12.5534 0.743147 12.7805 0.908786 12.84 1.17651C12.8786 1.34891 12.863 1.52469 12.8576 1.69777C12.8542 1.81879 12.8948 1.84718 13.0104 1.84651C13.8372 1.84178 14.6641 1.84313 15.4916 1.84448C16.4726 1.84583 17.1845 2.54895 17.1852 3.53265C17.1879 7.45931 17.1879 11.386 17.1852 15.3126C17.1845 16.2923 16.4692 16.9981 15.4869 16.9995C13.3437 17.0015 11.1999 16.9995 9.05668 16.9995H9.05465ZM9.0533 15.9177C11.1857 15.9177 13.318 15.9177 15.4504 15.9177C15.9054 15.9177 16.1055 15.7156 16.1055 15.2572C16.1055 12.298 16.1041 9.33881 16.1095 6.37894C16.1095 6.20789 16.0683 6.1653 15.8966 6.16598C12.8752 6.17138 9.85378 6.17003 6.83238 6.17003C6.48352 6.17003 6.13467 6.17409 5.78581 6.168C5.43493 6.16124 5.201 5.84551 5.28619 5.50477C5.35853 5.21541 5.54783 5.08763 5.91089 5.08763C9.22502 5.08763 12.5385 5.08763 15.8526 5.08763C15.8979 5.08763 15.9432 5.08425 15.9878 5.08763C16.0724 5.09507 16.1075 5.06667 16.1068 4.9754C16.1028 4.47443 16.1109 3.97413 16.1028 3.47315C16.0974 3.14323 15.8716 2.92688 15.5423 2.92553C14.6925 2.92215 13.8433 2.92688 12.9935 2.92147C12.8738 2.9208 12.8535 2.96812 12.8569 3.06953C12.8617 3.21557 12.8657 3.36295 12.8502 3.50763C12.817 3.8166 12.5878 4.01334 12.2937 4.00049C11.9895 3.98765 11.7907 3.7855 11.7765 3.46842C11.7705 3.33388 11.7691 3.19799 11.7765 3.06345C11.7826 2.95325 11.7441 2.92012 11.6325 2.92147C11.1147 2.92688 10.5975 2.92215 10.0796 2.92485C9.92882 2.92553 9.73546 2.86198 9.63878 2.95122C9.5394 3.04317 9.61377 3.23923 9.60633 3.38932C9.59957 3.51845 9.60633 3.64826 9.53737 3.7659C9.42447 3.95723 9.20204 4.04985 8.95324 4.00726C8.72878 3.96872 8.5841 3.82607 8.53948 3.59958C8.50365 3.41569 8.52866 3.22909 8.5219 3.04384C8.51987 2.97962 8.52528 2.92215 8.42928 2.92283C7.77078 2.92553 7.11295 2.92485 6.45445 2.92283C6.38211 2.92283 6.35439 2.94919 6.35575 3.02153C6.35913 3.16216 6.35845 3.30278 6.35575 3.44341C6.35034 3.77468 6.14211 3.99373 5.82908 4.00049C5.51538 4.00726 5.28484 3.77739 5.27537 3.44679C5.27199 3.31766 5.26996 3.18785 5.27605 3.05872C5.28078 2.96204 5.25982 2.92012 5.14895 2.9208C4.29371 2.92553 3.43847 2.9208 2.58323 2.92485C2.25668 2.92621 2.03425 3.15269 2.03222 3.48059C2.02884 3.97007 2.03493 4.45955 2.02884 4.94903C2.02749 5.06194 2.064 5.08966 2.17149 5.08831C2.66098 5.08357 3.15046 5.0829 3.63994 5.08831C3.9942 5.09169 4.20514 5.30736 4.19973 5.64472C4.19432 5.97126 3.98474 6.16733 3.63182 6.16868C3.16465 6.17071 2.69748 6.17679 2.23099 6.1653C2.06941 6.16124 2.02681 6.20181 2.02681 6.36745C2.03222 9.32664 2.03087 12.2858 2.03087 15.2457C2.03087 15.7271 2.22288 15.9177 2.70627 15.9177C4.82172 15.9177 6.93717 15.9177 9.05262 15.9177H9.0533Z" fill="white"/>
<path d="M8.52119 8.87233C8.52389 9.18198 8.292 9.4159 7.98303 9.41522C7.68961 9.41522 7.4469 9.17657 7.44149 8.88518C7.43608 8.59582 7.69705 8.3335 7.98776 8.3362C8.28185 8.33891 8.51916 8.57756 8.52119 8.87233Z" fill="white"/>
<path d="M6.35709 13.2155C6.35371 13.5116 6.11505 13.7496 5.82096 13.7496C5.52957 13.7496 5.27063 13.4872 5.27672 13.1986C5.2828 12.9072 5.52687 12.6705 5.82028 12.6705C6.12858 12.6705 6.35979 12.9058 6.35641 13.2155H6.35709Z" fill="white"/>
<path d="M7.99131 12.6706C8.29893 12.6733 8.52745 12.9106 8.52136 13.2216C8.51595 13.5157 8.27189 13.7536 7.97982 13.7496C7.69384 13.7462 7.44369 13.4947 7.44166 13.2094C7.43963 12.9133 7.69046 12.6679 7.99131 12.6706Z" fill="white"/>
<path d="M6.35726 11.048C6.35523 11.3461 6.12131 11.5807 5.82451 11.5828C5.53042 11.5848 5.27351 11.3286 5.27689 11.0372C5.28094 10.7505 5.52907 10.5051 5.81843 10.5031C6.12199 10.501 6.35929 10.741 6.35726 11.048Z" fill="white"/>
<path d="M8.52138 11.0385C8.52273 11.344 8.2834 11.5861 7.98119 11.5827C7.69183 11.5793 7.44506 11.3339 7.44168 11.0466C7.4383 10.7552 7.69521 10.5003 7.98998 10.5023C8.28611 10.5044 8.52003 10.7403 8.52138 11.0385Z" fill="white"/>
<path d="M10.6874 13.2101C10.6854 13.5096 10.4325 13.7577 10.1377 13.7496C9.84905 13.7415 9.60498 13.4907 9.60769 13.2034C9.60972 12.9032 9.85649 12.6659 10.1614 12.6706C10.4602 12.676 10.6894 12.9106 10.6874 13.2094V13.2101Z" fill="white"/>
<path d="M10.6874 8.88315C10.6847 9.18806 10.4447 9.41996 10.1364 9.41455C9.8423 9.40914 9.60432 9.16643 9.6077 8.87436C9.61108 8.58635 9.85853 8.33823 10.1452 8.3362C10.442 8.3335 10.6894 8.58365 10.6874 8.88315Z" fill="white"/>
<path d="M12.3179 9.41463C12.011 9.41665 11.7737 9.18003 11.7764 8.87444C11.7784 8.58102 12.0178 8.33966 12.3098 8.3356C12.6019 8.33222 12.8595 8.58981 12.8561 8.88255C12.8534 9.17665 12.6147 9.4126 12.3186 9.41463H12.3179Z" fill="white"/>
<path d="M10.6873 11.0419C10.6873 11.3448 10.4419 11.5882 10.1417 11.5828C9.84965 11.5774 9.60761 11.334 9.60693 11.0432C9.60626 10.7471 9.85979 10.4977 10.1566 10.5024C10.452 10.5071 10.6866 10.7458 10.6873 11.0419Z" fill="white"/>
<path d="M11.7759 11.0499C11.7719 10.7464 12.0132 10.5016 12.3148 10.5023C12.6068 10.5037 12.8502 10.7437 12.855 11.0357C12.8604 11.3312 12.6095 11.584 12.3121 11.584C12.018 11.584 11.7793 11.3461 11.7759 11.0499Z" fill="white"/>
</svg>
