<svg width="37" height="40" viewBox="0 0 37 40" fill="none" xmlns="http://www.w3.org/2000/svg">
<g clip-path="url(#clip0_11_74063)">
<path d="M34.8282 39.6531H2.17103C2.13916 39.6322 2.10962 39.6018 2.07464 39.591C0.694139 39.1844 0 38.2649 0 36.8369C0 26.3526 0 15.8674 0 5.38306C0 3.78957 1.13798 2.64459 2.72603 2.64148C4.31563 2.63837 5.90523 2.64071 7.49483 2.64071C7.63008 2.64071 7.76611 2.64071 7.91536 2.64071C7.91536 2.16577 7.90914 1.75224 7.91691 1.33871C7.93246 0.552072 8.48357 0.00717692 9.27021 0.00251305C10.0841 -0.00215081 10.8987 0.00095843 11.7125 0.00173574C12.6873 0.00173574 13.2151 0.523311 13.2275 1.5035C13.2322 1.87272 13.2275 2.24195 13.2275 2.61816H23.7725C23.7725 2.1852 23.7585 1.77323 23.7756 1.36281C23.8121 0.499215 24.3306 0.00406767 25.1825 0.00173574C25.9707 -0.000596192 26.7589 0.00173574 27.5479 0.00173574C28.5732 0.00173574 29.0823 0.518648 29.0839 1.55791C29.0839 1.91392 29.0839 2.26915 29.0839 2.64148C30.888 2.64148 32.6315 2.63682 34.3758 2.64304C35.4982 2.64692 36.4761 3.35661 36.8531 4.41997C36.8997 4.55134 36.951 4.68115 37.0008 4.81251V37.4806C36.8259 37.849 36.6883 38.2408 36.4691 38.5805C36.0874 39.1697 35.4788 39.4518 34.829 39.6539L34.8282 39.6531ZM34.3424 13.265H2.67006V36.9846H34.3424V13.265Z" fill="#EB3333"/>
<!-- <path d="M18.4058 35.0021H13.004C12.2203 35.0021 11.7166 34.4665 11.7166 33.7054V28.5183H14.6553V32.1831H16.7544V25.1918H13.8157V22.5701L16.4746 18.0878H11.8565V15.2688H19.5533V17.8059L16.8664 22.3728H18.4058C19.1894 22.3728 19.6932 22.9084 19.6932 23.6696V33.7054C19.6932 34.4665 19.1894 35.0021 18.4058 35.0021Z" fill="#EB3333"/>
<path d="M21.085 18.0878V15.2688H25.2832V35.0021H22.3444V18.0878H21.085Z" fill="#EB3333"/> -->
</g>
<defs>
<clipPath id="clip0_11_74063">
<rect width="37" height="39.653" fill="white"/>
</clipPath>
</defs>
</svg>
