<svg width="18" height="26" viewBox="0 0 18 26" fill="none" xmlns="http://www.w3.org/2000/svg">
<g clip-path="url(#clip0_213_184127)">
<path d="M17.9812 9.84989C17.8335 11.0021 17.4458 12.0986 16.9289 13.1394C16.6519 13.6783 16.4304 14.2545 16.1535 14.7934C15.8212 15.4811 15.4519 16.1501 15.0642 16.8192C13.975 18.7334 12.8119 20.5919 11.5935 22.4132C10.7996 23.584 9.98732 24.7362 9.17501 25.8885C9.08271 26.0186 9.00886 26.0929 8.87963 25.8885C8.30732 25.0893 7.73502 24.3088 7.19963 23.4911C6.94117 23.1008 6.66425 22.7291 6.40578 22.3574C5.99963 21.7441 5.59348 21.1122 5.18732 20.4989C4.35655 19.2723 3.63655 17.99 2.89809 16.7076C2.43655 15.8899 1.97502 15.0536 1.60578 14.1801C1.49502 13.9199 1.32886 13.6969 1.21809 13.4367C0.978092 12.9164 0.719631 12.396 0.553477 11.8385C0.387323 11.2809 0.258093 10.7234 0.128862 10.1658C0.0365541 9.75697 -0.0188305 9.34811 -0.000368988 8.93924C0.0180925 8.25161 0.165785 7.56397 0.313477 6.89492C0.571939 5.74267 1.03348 4.68334 1.73502 3.73553C2.60271 2.5461 3.67348 1.59828 4.98425 0.94782C5.88886 0.501787 6.84886 0.204432 7.84578 0.0743388C8.06732 0.0371694 8.30732 0.0557541 8.52886 0H9.58117C9.9504 0.130093 10.3381 0.111508 10.7073 0.185847C12.0366 0.446033 13.2366 0.966404 14.3258 1.76555C15.4889 2.62044 16.4304 3.69836 17.0581 5.01787C17.4458 5.8356 17.7596 6.69049 17.8704 7.60114C17.9073 7.86133 17.9442 8.10293 17.9812 8.36312C17.9812 8.41887 17.9442 8.49321 17.9996 8.53038V9.62687C17.9996 9.62687 17.9627 9.77555 17.9812 9.84989ZM9.15655 14.0129C10.615 14.0872 11.815 13.3624 12.7935 12.2287C13.7719 11.0951 14.1412 9.70121 13.9012 8.21444C13.7166 7.0436 13.1258 6.05861 12.2212 5.29664C11.0212 4.27448 9.61809 3.90279 8.08578 4.18156C6.31348 4.47891 3.91348 6.18871 4.09809 9.45961C4.22732 11.8199 6.33194 14.1058 9.15655 14.0315V14.0129Z" fill="#EB3333"/>
</g>
<defs>
<clipPath id="clip0_213_184127">
<rect width="18" height="26" fill="white"/>
</clipPath>
</defs>
</svg>
