<svg width="24" height="34" viewBox="0 0 24 34" fill="none" xmlns="http://www.w3.org/2000/svg">
<path d="M23.5295 12.6542C23.3408 14.1167 22.8454 15.5084 22.1849 16.8293C21.8311 17.5134 21.548 18.2446 21.1941 18.9287C20.7695 19.8014 20.2977 20.6506 19.8023 21.4998C18.4105 23.9294 16.9244 26.2882 15.3675 28.5999C14.3531 30.0859 13.3152 31.5484 12.2772 33.0109C12.1593 33.176 12.0649 33.2703 11.8998 33.0109C11.1685 31.9966 10.4372 31.0059 9.7531 29.968C9.42285 29.4726 9.069 29.0009 8.73874 28.5291C8.21977 27.7507 7.7008 26.9487 7.18182 26.1703C6.12028 24.6134 5.20028 22.9859 4.25669 21.3583C3.66695 20.3204 3.07721 19.2589 2.60541 18.1503C2.46387 17.82 2.25157 17.537 2.11003 17.2067C1.80336 16.5463 1.4731 15.8858 1.2608 15.1781C1.04849 14.4705 0.88336 13.7628 0.718232 13.0552C0.600283 12.5362 0.529514 12.0173 0.553104 11.4984C0.576694 10.6256 0.765412 9.75283 0.954129 8.90366C1.28439 7.44118 1.87413 6.09665 2.77054 4.89365C3.87926 3.384 5.24746 2.181 6.92233 1.35541C8.07823 0.789288 9.3049 0.411876 10.5787 0.246758C10.8618 0.199581 11.1685 0.22317 11.4516 0.152405H12.7962C13.268 0.317523 13.7634 0.293934 14.2352 0.388288C15.9336 0.718523 17.4669 1.379 18.8587 2.39329C20.3449 3.47835 21.548 4.84647 22.35 6.52124C22.8454 7.55912 23.2464 8.64418 23.388 9.80001C23.4352 10.1302 23.4823 10.4369 23.5295 10.7671C23.5295 10.8379 23.4823 10.9322 23.5531 10.9794V12.3711C23.5531 12.3711 23.5059 12.5598 23.5295 12.6542ZM12.2536 17.938C14.1172 18.0323 15.6505 17.1124 16.9008 15.6735C18.1511 14.2346 18.6228 12.4655 18.3162 10.5784C18.0803 9.09236 17.3254 7.84218 16.1695 6.87506C14.6362 5.57771 12.8434 5.10594 10.8854 5.45977C8.6208 5.83718 5.55413 8.0073 5.79003 12.1588C5.95515 15.1545 8.64439 18.0559 12.2536 17.9616V17.938Z" fill="#EBEBEB"/>
</svg>
