<svg xmlns="http://www.w3.org/2000/svg" xmlns:xlink="http://www.w3.org/1999/xlink"><defs>
<clipPath id="clip0_11_74063">
<rect width="37" height="39.653" fill="white"/>
</clipPath>

<clipPath id="clip0_3_2351">
<rect width="37" height="39.653" fill="white"/>
</clipPath>
</defs><symbol id="arrow-left-red" viewBox="0 0 59 59">
<path fill-rule="evenodd" clip-rule="evenodd" d="M54.0333 29.5C54.0333 15.9506 43.0494 4.96667 29.5 4.96667C15.9506 4.96667 4.96666 15.9506 4.96666 29.5C4.96666 43.0494 15.9506 54.0333 29.5 54.0333C43.0494 54.0333 54.0333 43.0494 54.0333 29.5ZM59 29.5C59 13.2076 45.7924 -2.00165e-06 29.5 -1.28949e-06C13.2076 -5.77322e-07 -2.00165e-06 13.2076 -1.28949e-06 29.5C-5.77322e-07 45.7924 13.2076 59 29.5 59C45.7924 59 59 45.7924 59 29.5Z" fill="#EB3333"/>
<path d="M15 29.6045L38 45.6045L38 13.6045L15 29.6045Z" fill="#EB3333"/>
</symbol><symbol id="arrow-left" viewBox="0 0 59 59">
<path fill-rule="evenodd" clip-rule="evenodd" d="M54.0333 29.5C54.0333 15.9506 43.0494 4.96667 29.5 4.96667C15.9506 4.96667 4.96666 15.9506 4.96666 29.5C4.96666 43.0494 15.9506 54.0333 29.5 54.0333C43.0494 54.0333 54.0333 43.0494 54.0333 29.5ZM59 29.5C59 13.2076 45.7924 -2.00165e-06 29.5 -1.28949e-06C13.2076 -5.77322e-07 -2.00165e-06 13.2076 -1.28949e-06 29.5C-5.77322e-07 45.7924 13.2076 59 29.5 59C45.7924 59 59 45.7924 59 29.5Z" fill="white"/>
<path d="M15 29.6045L38 45.6045L38 13.6045L15 29.6045Z" fill="white"/>
</symbol><symbol id="arrow-right-red" viewBox="0 0 59 59">
<path fill-rule="evenodd" clip-rule="evenodd" d="M4.96667 29.5C4.96667 43.0494 15.9506 54.0333 29.5 54.0333C43.0494 54.0333 54.0333 43.0494 54.0333 29.5C54.0333 15.9506 43.0494 4.96666 29.5 4.96666C15.9506 4.96666 4.96667 15.9506 4.96667 29.5ZM-1.28949e-06 29.5C-2.00165e-06 45.7924 13.2076 59 29.5 59C45.7924 59 59 45.7924 59 29.5C59 13.2076 45.7924 -5.77322e-07 29.5 -1.28949e-06C13.2076 -2.00165e-06 -5.77322e-07 13.2076 -1.28949e-06 29.5Z" fill="#EB3333"/>
<path d="M44 29.3955L21 13.3955L21 45.3955L44 29.3955Z" fill="#EB3333"/>
</symbol><symbol id="arrow-right" viewBox="0 0 59 59">
<path fill-rule="evenodd" clip-rule="evenodd" d="M4.96667 29.5C4.96667 43.0494 15.9506 54.0333 29.5 54.0333C43.0494 54.0333 54.0333 43.0494 54.0333 29.5C54.0333 15.9506 43.0494 4.96666 29.5 4.96666C15.9506 4.96666 4.96667 15.9506 4.96667 29.5ZM-1.28949e-06 29.5C-2.00165e-06 45.7924 13.2076 59 29.5 59C45.7924 59 59 45.7924 59 29.5C59 13.2076 45.7924 -5.77322e-07 29.5 -1.28949e-06C13.2076 -2.00165e-06 -5.77322e-07 13.2076 -1.28949e-06 29.5Z" fill="white"/>
<path d="M44 29.3955L21 13.3955L21 45.3955L44 29.3955Z" fill="white"/>
</symbol><symbol id="bottom-red" viewBox="0 0 59 59">
<path fill-rule="evenodd" clip-rule="evenodd" d="M29.5 4.96666C15.9506 4.96666 4.96667 15.9506 4.96667 29.5C4.96667 43.0494 15.9506 54.0333 29.5 54.0333C43.0494 54.0333 54.0333 43.0494 54.0333 29.5C54.0333 15.9506 43.0494 4.96667 29.5 4.96666ZM29.5 -2.57897e-06C13.2076 -4.0033e-06 4.0033e-06 13.2076 2.57897e-06 29.5C1.15464e-06 45.7924 13.2076 59 29.5 59C45.7924 59 59 45.7924 59 29.5C59 13.2076 45.7924 -1.15464e-06 29.5 -2.57897e-06Z" fill="#EB3333"/>
<path d="M29.6045 44L45.6045 21L13.6045 21L29.6045 44Z" fill="#EB3333"/>
</symbol><symbol id="bottom" viewBox="0 0 60 60">
<path fill-rule="evenodd" clip-rule="evenodd" d="M30 5.05084C16.221 5.05084 5.05085 16.221 5.05084 30C5.05084 43.779 16.221 54.9492 30 54.9492C43.779 54.9492 54.9492 43.779 54.9492 30C54.9492 16.221 43.779 5.05084 30 5.05084ZM30 -6.43738e-06C13.4315 -7.88585e-06 2.56454e-07 13.4314 -1.19201e-06 30C-2.64048e-06 46.5685 13.4315 60 30 60C46.5685 60 60 46.5685 60 30C60 13.4315 46.5685 -4.98891e-06 30 -6.43738e-06Z" fill="white"/>
<path d="M30.1063 44.7461L46.3774 21.3563L13.8351 21.3563L30.1063 44.7461Z" fill="white"/>
</symbol><symbol id="calendar-red" viewBox="0 0 37 40">
<g clip-path="url(#clip0_11_74063)">
<path d="M34.8282 39.6531H2.17103C2.13916 39.6322 2.10962 39.6018 2.07464 39.591C0.694139 39.1844 0 38.2649 0 36.8369C0 26.3526 0 15.8674 0 5.38306C0 3.78957 1.13798 2.64459 2.72603 2.64148C4.31563 2.63837 5.90523 2.64071 7.49483 2.64071C7.63008 2.64071 7.76611 2.64071 7.91536 2.64071C7.91536 2.16577 7.90914 1.75224 7.91691 1.33871C7.93246 0.552072 8.48357 0.00717692 9.27021 0.00251305C10.0841 -0.00215081 10.8987 0.00095843 11.7125 0.00173574C12.6873 0.00173574 13.2151 0.523311 13.2275 1.5035C13.2322 1.87272 13.2275 2.24195 13.2275 2.61816H23.7725C23.7725 2.1852 23.7585 1.77323 23.7756 1.36281C23.8121 0.499215 24.3306 0.00406767 25.1825 0.00173574C25.9707 -0.000596192 26.7589 0.00173574 27.5479 0.00173574C28.5732 0.00173574 29.0823 0.518648 29.0839 1.55791C29.0839 1.91392 29.0839 2.26915 29.0839 2.64148C30.888 2.64148 32.6315 2.63682 34.3758 2.64304C35.4982 2.64692 36.4761 3.35661 36.8531 4.41997C36.8997 4.55134 36.951 4.68115 37.0008 4.81251V37.4806C36.8259 37.849 36.6883 38.2408 36.4691 38.5805C36.0874 39.1697 35.4788 39.4518 34.829 39.6539L34.8282 39.6531ZM34.3424 13.265H2.67006V36.9846H34.3424V13.265Z" fill="#EB3333"/>
<path d="M18.4058 35.0021H13.004C12.2203 35.0021 11.7166 34.4665 11.7166 33.7054V28.5183H14.6553V32.1831H16.7544V25.1918H13.8157V22.5701L16.4746 18.0878H11.8565V15.2688H19.5533V17.8059L16.8664 22.3728H18.4058C19.1894 22.3728 19.6932 22.9084 19.6932 23.6696V33.7054C19.6932 34.4665 19.1894 35.0021 18.4058 35.0021Z" fill="#EB3333"/>
<path d="M21.085 18.0878V15.2688H25.2832V35.0021H22.3444V18.0878H21.085Z" fill="#EB3333"/>
</g>

</symbol><symbol id="calendar" viewBox="0 0 37 40">
<g clip-path="url(#clip0_3_2351)">
<path d="M34.8282 39.6531H2.17103C2.13916 39.6322 2.10962 39.6018 2.07464 39.591C0.694139 39.1844 0 38.2649 0 36.8369C0 26.3526 0 15.8674 0 5.38306C0 3.78957 1.13798 2.64459 2.72603 2.64148C4.31563 2.63837 5.90523 2.64071 7.49483 2.64071C7.63008 2.64071 7.76611 2.64071 7.91536 2.64071C7.91536 2.16577 7.90914 1.75224 7.91691 1.33871C7.93246 0.552072 8.48357 0.00717692 9.27021 0.00251305C10.0841 -0.00215081 10.8987 0.00095843 11.7125 0.00173574C12.6873 0.00173574 13.2151 0.523311 13.2275 1.5035C13.2322 1.87272 13.2275 2.24195 13.2275 2.61816H23.7725C23.7725 2.1852 23.7585 1.77323 23.7756 1.36281C23.8121 0.499215 24.3306 0.00406767 25.1825 0.00173574C25.9707 -0.000596192 26.7589 0.00173574 27.5479 0.00173574C28.5732 0.00173574 29.0823 0.518648 29.0839 1.55791C29.0839 1.91392 29.0839 2.26915 29.0839 2.64148C30.888 2.64148 32.6315 2.63682 34.3758 2.64304C35.4982 2.64692 36.4761 3.35661 36.8531 4.41997C36.8997 4.55134 36.951 4.68115 37.0008 4.81251V37.4806C36.8259 37.849 36.6883 38.2408 36.4691 38.5805C36.0874 39.1697 35.4788 39.4518 34.829 39.6539L34.8282 39.6531ZM34.3424 13.265H2.67006V36.9846H34.3424V13.265Z" fill="#3B3393"/>
<path d="M18.4059 35.0021H13.0041C12.2205 35.0021 11.7167 34.4665 11.7167 33.7054V28.5183H14.6554V32.1831H16.7546V25.1918H13.8158V22.5701L16.4747 18.0878H11.8566V15.2688H19.5534V17.8059L16.8665 22.3728H18.4059C19.1895 22.3728 19.6933 22.9084 19.6933 23.6696V33.7054C19.6933 34.4665 19.1895 35.0021 18.4059 35.0021Z" fill="#3B3393"/>
<path d="M21.0851 18.0878V15.2688H25.2833V35.0021H22.3446V18.0878H21.0851Z" fill="#3B3393"/>
</g>

</symbol><symbol id="pin-red" viewBox="0 0 37 46">
<path d="M18.5 0C28.717 0.000192121 36.999 8.28299 36.999 18.5C36.999 28.7172 18.5 45.0938 18.5 45.0938C18.5 45.0938 0 28.7172 0 18.5C3.64168e-05 8.28287 8.28286 0 18.5 0ZM18.5 10.792C14.2429 10.792 10.791 14.2429 10.791 18.5C10.791 22.7572 14.2428 26.208 18.5 26.208C22.757 26.2078 26.208 22.757 26.208 18.5C26.208 14.243 22.757 10.7922 18.5 10.792Z" fill="#EB3333"/>
</symbol><symbol id="pin-small" viewBox="0 0 18 21">
<path d="M8.53906 0C13.2548 2.85069e-05 17.0781 3.82329 17.0781 8.53906C17.0781 13.2549 8.53906 20.8135 8.53906 20.8135C8.53906 20.8135 0 13.2549 0 8.53906C2.79893e-06 3.82328 3.82328 0 8.53906 0ZM8.53906 4.98145C6.57415 4.98145 4.98145 6.57415 4.98145 8.53906C4.98155 10.5039 6.57422 12.0967 8.53906 12.0967C10.5039 12.0966 12.0966 10.5039 12.0967 8.53906C12.0967 6.57417 10.5039 4.98148 8.53906 4.98145Z" fill="#EB3333"/>
</symbol><symbol id="pin" viewBox="0 0 37 46">
<path d="M18.5 0C28.717 0.000192121 36.999 8.28299 36.999 18.5C36.999 28.7172 18.5 45.0938 18.5 45.0938C18.5 45.0938 0 28.7172 0 18.5C3.64168e-05 8.28287 8.28286 0 18.5 0ZM18.5 10.792C14.2429 10.792 10.791 14.2429 10.791 18.5C10.791 22.7572 14.2428 26.208 18.5 26.208C22.757 26.2078 26.208 22.757 26.208 18.5C26.208 14.243 22.757 10.7922 18.5 10.792Z" fill="#3B3393"/>
</symbol><symbol id="rutube" viewBox="0 0 39 39">
<path d="M36.0996 9.11133C36.0995 5.18393 32.916 2.00019 28.9893 2H9.11133C5.18445 2 2.00011 5.18381 2 9.11133V28.9883C2 32.9159 5.18439 36.0996 9.11133 36.0996H28.9893C32.916 36.0994 36.0996 32.9158 36.0996 28.9883V9.11133ZM38.0996 28.9883C38.0996 34.0203 34.0207 38.0994 28.9893 38.0996H9.11133C4.07977 38.0996 0 34.0205 0 28.9883V9.11133C0.00011288 4.07928 4.07984 0 9.11133 0H28.9893C34.0206 0.00019072 38.0995 4.0794 38.0996 9.11133V28.9883Z" fill="#EB3333"/>
<path d="M23.9876 18.1325H12.7614V13.69H23.9876C24.644 13.69 25.1 13.8043 25.329 14.0039C25.557 14.2035 25.6995 14.5738 25.6995 15.1145V16.7096C25.6995 17.2795 25.557 17.6497 25.329 17.8493C25.1 18.0489 24.644 18.1342 23.9876 18.1342V18.1325ZM24.758 9.50171H20.5685H16.379H8V28.5H12.7614V22.3191H21.5356L25.6995 28.5H31.0309L26.4405 22.29C28.1324 22.0392 28.8924 21.5206 29.5194 20.6659C30.1464 19.8112 30.4599 18.4447 30.4599 16.6209V15.1964C30.4599 14.1148 30.3459 13.2601 30.1464 12.605C29.946 11.9499 29.6049 11.38 29.1195 10.8682C28.6074 10.3837 28.0374 10.0425 27.3525 9.81388C26.6675 9.61429 25.8116 9.5 24.758 9.5V9.50171Z" fill="#EB3333"/>
<path d="M27 1C32.5228 1 37 5.47715 37 11V18.9395C35.4093 18.8139 33.8733 18.4934 32.416 18C32.4569 17.5485 32.4756 17.0869 32.4756 16.6211V15.1963C32.4756 13.9869 32.3487 12.921 32.0732 12.0176C31.775 11.0432 31.266 10.2044 30.582 9.48242L30.5439 9.44238L30.5039 9.4043C29.7743 8.71491 28.9487 8.22242 27.9893 7.90234L27.915 7.87891C27.0032 7.61299 25.9488 7.48438 24.7578 7.48438H22.7432V7.48633H21.0469C20.1853 5.47895 19.66 3.29324 19.541 1H27Z" fill="#EB3333"/>
</symbol><symbol id="tg" viewBox="0 0 38 38">
<path fill-rule="evenodd" clip-rule="evenodd" d="M38 19C38 29.4934 29.4934 38 19 38C8.50659 38 0 29.4934 0 19C0 8.50659 8.50659 0 19 0C29.4934 0 38 8.50659 38 19ZM19.6795 14.0257C17.8315 14.7944 14.138 16.3853 8.59914 18.7985C7.69971 19.1562 7.22856 19.5062 7.18567 19.8483C7.11317 20.4265 7.83727 20.6541 8.82331 20.9642C8.95744 21.0064 9.09641 21.0501 9.23888 21.0965C10.209 21.4118 11.514 21.7806 12.1924 21.7954C12.8077 21.8087 13.4946 21.5549 14.2529 21.0342C19.428 17.5409 22.0994 15.7751 22.2671 15.737C22.3854 15.7102 22.5494 15.6764 22.6605 15.7752C22.7716 15.8739 22.7607 16.061 22.7489 16.1111C22.6772 16.417 19.8349 19.0595 18.3639 20.427C17.9053 20.8533 17.5801 21.1556 17.5136 21.2247C17.3647 21.3795 17.2129 21.5258 17.0669 21.6664C16.1657 22.5352 15.4898 23.1867 17.1044 24.2507C17.8802 24.762 18.5011 25.1848 19.1205 25.6066C19.797 26.0672 20.4715 26.5267 21.3445 27.0989C21.5669 27.2447 21.7793 27.3961 21.9862 27.5436C22.7734 28.1048 23.4807 28.6091 24.3544 28.5286C24.8622 28.4819 25.3866 28.0045 25.6528 26.5807C26.2823 23.2157 27.5196 15.925 27.8055 12.9207C27.8305 12.6574 27.799 12.3205 27.7737 12.1727C27.7485 12.0248 27.6955 11.8141 27.5034 11.6581C27.2756 11.4734 26.9242 11.4345 26.7671 11.4372C26.0524 11.4499 24.956 11.8311 19.6795 14.0257Z" fill="#EB3333"/>
</symbol><symbol id="top" viewBox="0 0 60 61">
<path fill-rule="evenodd" clip-rule="evenodd" d="M30 55.4492C43.779 55.4492 54.9492 44.279 54.9492 30.5C54.9492 16.721 43.779 5.55085 30 5.55085C16.221 5.55085 5.05085 16.721 5.05085 30.5C5.05085 44.279 16.221 55.4492 30 55.4492ZM30 60.5C46.5685 60.5 60 47.0685 60 30.5C60 13.9315 46.5685 0.5 30 0.5C13.4315 0.5 0 13.9315 0 30.5C0 47.0685 13.4315 60.5 30 60.5Z" fill="#3B3393"/>
<path d="M29.8937 15.7539L13.6226 39.1437H46.1649L29.8937 15.7539Z" fill="#3B3393"/>
</symbol><symbol id="vk" viewBox="0 0 38 38">
  <path fill-rule="evenodd" clip-rule="evenodd" d="M2.67121 2.67119C-1.81198e-06 5.34238 0 9.64155 0 18.24V19.76C0 28.3584 -1.81198e-06 32.6576 2.67121 35.3288C5.34242 38 9.64155 38 18.24 38H19.76C28.3585 38 32.6572 38 35.3286 35.3288C38 32.6576 38 28.3584 38 19.76V18.24C38 9.64155 38 5.34238 35.3286 2.67119C32.6572 0 28.3585 0 19.76 0H18.24C9.64155 0 5.34242 0 2.67121 2.67119ZM6.4125 11.5577C6.61836 21.4377 11.5583 27.3752 20.2191 27.3752H20.7101V21.7227C23.8925 22.0393 26.2988 24.3668 27.265 27.3752H31.7613C30.5263 22.8786 27.2812 20.3927 25.2538 19.4427C27.2812 18.2711 30.1311 15.4211 30.8113 11.5577H26.7264C25.84 14.6927 23.2114 17.5427 20.7101 17.8118V11.5577H16.6249V22.5143C14.0916 21.8811 10.8934 18.8093 10.7509 11.5577H6.4125Z" fill="#EB3333"/>
</symbol></svg>