<svg xmlns="http://www.w3.org/2000/svg" xmlns:xlink="http://www.w3.org/1999/xlink"><defs>
<clipPath id="clip0_2014_26">
<rect width="111" height="21" fill="white"/>
</clipPath>

<clipPath id="clip0_213_184131">
<rect width="18" height="20" fill="white"/>
</clipPath>

<clipPath id="clip0_178_24620">
<rect width="60" height="64.3021" fill="white" transform="translate(0 0.239746)"/>
</clipPath>

<clipPath id="clip0_178_24625">
<rect width="60" height="60" fill="white" transform="translate(0 0.42627)"/>
</clipPath>

<clipPath id="clip0_213_184127">
<rect width="18" height="26" fill="white"/>
</clipPath>

<clipPath id="clip0_178_25514">
<rect width="23" height="33" fill="white" transform="translate(0 0.856934)"/>
</clipPath>
</defs><symbol id="arrow-left" viewBox="0 0 59 60">
<circle cx="29.5273" cy="30.1086" r="26.3147" transform="rotate(180 29.5273 30.1086)" fill="#EBEBEB"/>
<path fill-rule="evenodd" clip-rule="evenodd" d="M54.0333 30.0981C54.0333 16.5488 43.0494 5.56481 29.5 5.56481C15.9506 5.56481 4.96667 16.5488 4.96667 30.0981C4.96666 43.6475 15.9506 54.6315 29.5 54.6315C43.0494 54.6315 54.0333 43.6475 54.0333 30.0981ZM59 30.0981C59 13.8057 45.7924 0.598145 29.5 0.598145C13.2076 0.598145 5.46069e-07 13.8057 3.51784e-07 30.0981C1.57499e-07 46.3905 13.2076 59.5981 29.5 59.5981C45.7924 59.5981 59 46.3905 59 30.0981Z" fill="#EE2C3C"/>
<path fill-rule="evenodd" clip-rule="evenodd" d="M9.50122 30.0981L28.49 11.1093L33.4314 16.0506L22.8779 26.6041L49.4989 26.6041L49.4989 33.5921L22.8779 33.5921L33.4314 44.1456L28.49 49.0869L9.50122 30.0981Z" fill="#EE2C3C"/>
</symbol><symbol id="arrow-right" viewBox="0 0 60 60">
<circle cx="30.409" cy="30.0877" r="26.3147" fill="#EBEBEB"/>
<path fill-rule="evenodd" clip-rule="evenodd" d="M5.90295 30.0981C5.90294 43.6475 16.8869 54.6315 30.4363 54.6315C43.9857 54.6315 54.9696 43.6475 54.9696 30.0981C54.9696 16.5488 43.9857 5.56481 30.4363 5.56481C16.8869 5.56481 5.90295 16.5488 5.90295 30.0981ZM0.936278 30.0981C0.936277 46.3905 14.1439 59.5981 30.4363 59.5981C46.7287 59.5981 59.9363 46.3905 59.9363 30.0981C59.9363 13.8057 46.7287 0.598144 30.4363 0.598143C14.1439 0.598143 0.936279 13.8057 0.936278 30.0981Z" fill="#EE2C3C"/>
<path fill-rule="evenodd" clip-rule="evenodd" d="M50.4351 30.0982L31.4463 49.087L26.505 44.1457L37.0584 33.5922L10.4374 33.5922L10.4374 26.6042L37.0584 26.6042L26.505 16.0507L31.4463 11.1094L50.4351 30.0982Z" fill="#EE2C3C"/>
</symbol><symbol id="arrows-white" viewBox="0 0 111 21">
<g clip-path="url(#clip0_2014_26)">
<path d="M2 10.5H109M2 10.5L11.6351 1M2 10.5L11.6351 20M109 10.5L99.3649 1M109 10.5L99.3649 20" stroke="#EBEBEB" stroke-width="3" stroke-linejoin="round"/>
</g>

</symbol><symbol id="arrows" viewBox="0 0 111 23">
<path d="M3 11.5H108.5M3 11.5L12.5 2M3 11.5L12.5 21M108.5 11.5L99 2M108.5 11.5L99 21" stroke="#3B3393" stroke-width="3"/>
</symbol><symbol id="burger" viewBox="0 0 33 22">
<rect width="33" height="2" fill="#EE2C3C"/>
<rect y="10" width="33" height="2" fill="#EE2C3C"/>
<rect y="20" width="33" height="2" fill="#EE2C3C"/>
</symbol><symbol id="calendar-red" viewBox="0 0 18 20">
<g clip-path="url(#clip0_213_184131)">
<path d="M16.9434 20.0001H1.05618C1.04067 19.9895 1.0263 19.9742 1.00929 19.9687C0.337689 19.7637 0 19.2999 0 18.5797C0 13.2916 0 8.00315 0 2.71509C0 1.91137 0.553613 1.33387 1.32618 1.3323C2.0995 1.33073 2.87282 1.33191 3.64613 1.33191C3.71193 1.33191 3.77811 1.33191 3.85071 1.33191C3.85071 1.09236 3.84769 0.883788 3.85147 0.675213C3.85903 0.278452 4.12714 0.00361986 4.50983 0.00126752C4.90576 -0.00108482 5.30206 0.000483409 5.69798 0.000875466C6.17218 0.000875466 6.42895 0.263946 6.435 0.758329C6.43727 0.944556 6.435 1.13078 6.435 1.32054H11.565C11.565 1.10216 11.5582 0.894373 11.5665 0.687367C11.5843 0.251792 11.8365 0.00205164 12.251 0.000875466C12.6344 -0.000300705 13.0179 0.000875466 13.4017 0.000875466C13.9005 0.000875466 14.1482 0.261593 14.1489 0.785773C14.1489 0.965335 14.1489 1.14451 14.1489 1.3323C15.0266 1.3323 15.8748 1.32995 16.7234 1.33308C17.2694 1.33505 17.7451 1.69299 17.9285 2.22933C17.9512 2.29558 17.9762 2.36106 18.0004 2.42732V18.9043C17.9153 19.0901 17.8484 19.2877 17.7417 19.459C17.5561 19.7562 17.26 19.8985 16.9438 20.0005L16.9434 20.0001ZM16.7071 6.69054H1.29895V18.6542H16.7071V6.69054Z" fill="#EB3333"/>
<path d="M9.52632 12.7571H8.47368V15.7143H9.52632V12.7571ZM11 8.59143V10.5714H9.52632V9.28571H8.47368V11.4714H10.3544C10.7474 11.4714 11 11.7157 11 12.0629V16.4086C11 16.7557 10.7474 17 10.3544 17H7.64561C7.25263 17 7 16.7557 7 16.4086V8.59143C7 8.24429 7.25263 8 7.64561 8H10.3544C10.7474 8 11 8.24429 11 8.59143Z" fill="#EB3333"/>
</g>

</symbol><symbol id="calendar-white" viewBox="0 0 18 17">
<path d="M9.05465 16.9995C6.91689 16.9995 4.77913 17.0008 2.64137 16.9995C1.84224 16.9988 1.20335 16.5174 1.00458 15.7737C0.971454 15.6487 0.951172 15.5216 0.951172 15.3911C0.951848 11.4083 0.950496 7.42551 0.9532 3.44205C0.9532 2.58208 1.68607 1.85124 2.54672 1.84516C3.40196 1.83907 4.2572 1.84042 5.11176 1.84651C5.24562 1.84718 5.28957 1.81068 5.2774 1.67884C5.26658 1.55579 5.27132 1.4314 5.27672 1.30767C5.29025 0.978423 5.52079 0.753964 5.83584 0.759373C6.14075 0.764782 6.35237 0.991944 6.3571 1.32255C6.35913 1.45776 6.36183 1.59298 6.35642 1.72752C6.35304 1.81406 6.38008 1.84583 6.47068 1.84516C7.11769 1.84178 7.76469 1.84178 8.4117 1.84516C8.50365 1.84516 8.52393 1.81 8.52461 1.72684C8.52596 1.5416 8.50432 1.355 8.54557 1.17178C8.60438 0.906758 8.8356 0.742471 9.12091 0.760725C9.37511 0.776951 9.57997 0.977746 9.60025 1.24142C9.61039 1.37596 9.61783 1.51252 9.6043 1.64571C9.58673 1.81203 9.64757 1.85056 9.80848 1.84786C10.4048 1.83772 11.0011 1.83772 11.5974 1.84786C11.7529 1.85056 11.7901 1.80121 11.7793 1.65788C11.7684 1.51861 11.7738 1.37663 11.7853 1.23668C11.8063 0.974366 12.0125 0.776951 12.2687 0.760725C12.5534 0.743147 12.7805 0.908786 12.84 1.17651C12.8786 1.34891 12.863 1.52469 12.8576 1.69777C12.8542 1.81879 12.8948 1.84718 13.0104 1.84651C13.8372 1.84178 14.6641 1.84313 15.4916 1.84448C16.4726 1.84583 17.1845 2.54895 17.1852 3.53265C17.1879 7.45931 17.1879 11.386 17.1852 15.3126C17.1845 16.2923 16.4692 16.9981 15.4869 16.9995C13.3437 17.0015 11.1999 16.9995 9.05668 16.9995H9.05465ZM9.0533 15.9177C11.1857 15.9177 13.318 15.9177 15.4504 15.9177C15.9054 15.9177 16.1055 15.7156 16.1055 15.2572C16.1055 12.298 16.1041 9.33881 16.1095 6.37894C16.1095 6.20789 16.0683 6.1653 15.8966 6.16598C12.8752 6.17138 9.85378 6.17003 6.83238 6.17003C6.48352 6.17003 6.13467 6.17409 5.78581 6.168C5.43493 6.16124 5.201 5.84551 5.28619 5.50477C5.35853 5.21541 5.54783 5.08763 5.91089 5.08763C9.22502 5.08763 12.5385 5.08763 15.8526 5.08763C15.8979 5.08763 15.9432 5.08425 15.9878 5.08763C16.0724 5.09507 16.1075 5.06667 16.1068 4.9754C16.1028 4.47443 16.1109 3.97413 16.1028 3.47315C16.0974 3.14323 15.8716 2.92688 15.5423 2.92553C14.6925 2.92215 13.8433 2.92688 12.9935 2.92147C12.8738 2.9208 12.8535 2.96812 12.8569 3.06953C12.8617 3.21557 12.8657 3.36295 12.8502 3.50763C12.817 3.8166 12.5878 4.01334 12.2937 4.00049C11.9895 3.98765 11.7907 3.7855 11.7765 3.46842C11.7705 3.33388 11.7691 3.19799 11.7765 3.06345C11.7826 2.95325 11.7441 2.92012 11.6325 2.92147C11.1147 2.92688 10.5975 2.92215 10.0796 2.92485C9.92882 2.92553 9.73546 2.86198 9.63878 2.95122C9.5394 3.04317 9.61377 3.23923 9.60633 3.38932C9.59957 3.51845 9.60633 3.64826 9.53737 3.7659C9.42447 3.95723 9.20204 4.04985 8.95324 4.00726C8.72878 3.96872 8.5841 3.82607 8.53948 3.59958C8.50365 3.41569 8.52866 3.22909 8.5219 3.04384C8.51987 2.97962 8.52528 2.92215 8.42928 2.92283C7.77078 2.92553 7.11295 2.92485 6.45445 2.92283C6.38211 2.92283 6.35439 2.94919 6.35575 3.02153C6.35913 3.16216 6.35845 3.30278 6.35575 3.44341C6.35034 3.77468 6.14211 3.99373 5.82908 4.00049C5.51538 4.00726 5.28484 3.77739 5.27537 3.44679C5.27199 3.31766 5.26996 3.18785 5.27605 3.05872C5.28078 2.96204 5.25982 2.92012 5.14895 2.9208C4.29371 2.92553 3.43847 2.9208 2.58323 2.92485C2.25668 2.92621 2.03425 3.15269 2.03222 3.48059C2.02884 3.97007 2.03493 4.45955 2.02884 4.94903C2.02749 5.06194 2.064 5.08966 2.17149 5.08831C2.66098 5.08357 3.15046 5.0829 3.63994 5.08831C3.9942 5.09169 4.20514 5.30736 4.19973 5.64472C4.19432 5.97126 3.98474 6.16733 3.63182 6.16868C3.16465 6.17071 2.69748 6.17679 2.23099 6.1653C2.06941 6.16124 2.02681 6.20181 2.02681 6.36745C2.03222 9.32664 2.03087 12.2858 2.03087 15.2457C2.03087 15.7271 2.22288 15.9177 2.70627 15.9177C4.82172 15.9177 6.93717 15.9177 9.05262 15.9177H9.0533Z" fill="white"/>
<path d="M8.52119 8.87233C8.52389 9.18198 8.292 9.4159 7.98303 9.41522C7.68961 9.41522 7.4469 9.17657 7.44149 8.88518C7.43608 8.59582 7.69705 8.3335 7.98776 8.3362C8.28185 8.33891 8.51916 8.57756 8.52119 8.87233Z" fill="white"/>
<path d="M6.35709 13.2155C6.35371 13.5116 6.11505 13.7496 5.82096 13.7496C5.52957 13.7496 5.27063 13.4872 5.27672 13.1986C5.2828 12.9072 5.52687 12.6705 5.82028 12.6705C6.12858 12.6705 6.35979 12.9058 6.35641 13.2155H6.35709Z" fill="white"/>
<path d="M7.99131 12.6706C8.29893 12.6733 8.52745 12.9106 8.52136 13.2216C8.51595 13.5157 8.27189 13.7536 7.97982 13.7496C7.69384 13.7462 7.44369 13.4947 7.44166 13.2094C7.43963 12.9133 7.69046 12.6679 7.99131 12.6706Z" fill="white"/>
<path d="M6.35726 11.048C6.35523 11.3461 6.12131 11.5807 5.82451 11.5828C5.53042 11.5848 5.27351 11.3286 5.27689 11.0372C5.28094 10.7505 5.52907 10.5051 5.81843 10.5031C6.12199 10.501 6.35929 10.741 6.35726 11.048Z" fill="white"/>
<path d="M8.52138 11.0385C8.52273 11.344 8.2834 11.5861 7.98119 11.5827C7.69183 11.5793 7.44506 11.3339 7.44168 11.0466C7.4383 10.7552 7.69521 10.5003 7.98998 10.5023C8.28611 10.5044 8.52003 10.7403 8.52138 11.0385Z" fill="white"/>
<path d="M10.6874 13.2101C10.6854 13.5096 10.4325 13.7577 10.1377 13.7496C9.84905 13.7415 9.60498 13.4907 9.60769 13.2034C9.60972 12.9032 9.85649 12.6659 10.1614 12.6706C10.4602 12.676 10.6894 12.9106 10.6874 13.2094V13.2101Z" fill="white"/>
<path d="M10.6874 8.88315C10.6847 9.18806 10.4447 9.41996 10.1364 9.41455C9.8423 9.40914 9.60432 9.16643 9.6077 8.87436C9.61108 8.58635 9.85853 8.33823 10.1452 8.3362C10.442 8.3335 10.6894 8.58365 10.6874 8.88315Z" fill="white"/>
<path d="M12.3179 9.41463C12.011 9.41665 11.7737 9.18003 11.7764 8.87444C11.7784 8.58102 12.0178 8.33966 12.3098 8.3356C12.6019 8.33222 12.8595 8.58981 12.8561 8.88255C12.8534 9.17665 12.6147 9.4126 12.3186 9.41463H12.3179Z" fill="white"/>
<path d="M10.6873 11.0419C10.6873 11.3448 10.4419 11.5882 10.1417 11.5828C9.84965 11.5774 9.60761 11.334 9.60693 11.0432C9.60626 10.7471 9.85979 10.4977 10.1566 10.5024C10.452 10.5071 10.6866 10.7458 10.6873 11.0419Z" fill="white"/>
<path d="M11.7759 11.0499C11.7719 10.7464 12.0132 10.5016 12.3148 10.5023C12.6068 10.5037 12.8502 10.7437 12.855 11.0357C12.8604 11.3312 12.6095 11.584 12.3121 11.584C12.018 11.584 11.7793 11.3461 11.7759 11.0499Z" fill="white"/>
</symbol><symbol id="calendar" viewBox="0 0 60 65">
<g clip-path="url(#clip0_178_24620)">
<path d="M56.4782 64.5421H3.52059C3.46891 64.5081 3.42101 64.4589 3.36429 64.4413C1.12563 63.7821 0 62.2909 0 59.9753C0 42.9737 0 25.9707 0 8.96903C0 6.385 1.84538 4.52828 4.42059 4.52323C6.99832 4.51819 9.57605 4.52197 12.1538 4.52197C12.3731 4.52197 12.5937 4.52197 12.8357 4.52197C12.8357 3.7518 12.8256 3.08122 12.8382 2.41063C12.8634 1.135 13.7571 0.251384 15.0328 0.243821C16.3525 0.236258 17.6735 0.2413 18.9933 0.242561C20.5739 0.242561 21.4298 1.08836 21.45 2.67786C21.4576 3.27659 21.45 3.87533 21.45 4.48542H38.55C38.55 3.78332 38.5273 3.11525 38.555 2.4497C38.6143 1.04928 39.455 0.246342 40.8366 0.242561C42.1147 0.238779 43.3929 0.242561 44.6723 0.242561C46.3349 0.242561 47.1605 1.0808 47.163 2.76609C47.163 3.3434 47.163 3.91945 47.163 4.52323C50.0887 4.52323 52.916 4.51567 55.7445 4.52575C57.5647 4.53206 59.1504 5.6829 59.7618 7.40727C59.8374 7.62029 59.9206 7.8308 60.0013 8.04382V61.019C59.7177 61.6165 59.4945 62.2518 59.1391 62.8026C58.5202 63.7581 57.5332 64.2157 56.4794 64.5434L56.4782 64.5421ZM55.6903 21.7505H4.32983V60.2148H55.6903V21.7505Z" fill="#3B3393"/>
<path d="M31.8433 41.9795H28.1566V53.2855H31.8433V41.9795ZM37.0048 26.0527V33.6228H31.8433V28.7072H28.1566V37.0638H34.7436C36.1199 37.0638 37.0048 37.9978 37.0048 39.325V55.94C37.0048 57.2672 36.1199 58.2012 34.7436 58.2012H25.2563C23.8799 58.2012 22.9951 57.2672 22.9951 55.94V26.0527C22.9951 24.7255 23.8799 23.7915 25.2563 23.7915H34.7436C36.1199 23.7915 37.0048 24.7255 37.0048 26.0527Z" fill="#3B3393"/>
</g>

</symbol><symbol id="clear" viewBox="0 0 25 25">
<rect x="1.41406" y="0.000244141" width="33" height="2" transform="rotate(45 1.41406 0.000244141)" fill="white"/>
<rect x="1.41406" y="0.000244141" width="33" height="2" transform="rotate(45 1.41406 0.000244141)" fill="white"/>
<rect x="24.7485" y="1.41431" width="33" height="2" transform="rotate(135 24.7485 1.41431)" fill="white"/>
<rect x="24.7485" y="1.41431" width="33" height="2" transform="rotate(135 24.7485 1.41431)" fill="white"/>
</symbol><symbol id="clock" viewBox="0 0 60 61">
<g clip-path="url(#clip0_178_24625)">
<path d="M30.0035 0.426274C46.5697 0.43472 60.0014 13.8672 60 30.4277C60 46.9853 46.5626 60.4221 30.0007 60.4277C13.4529 60.4319 -0.00703768 46.9713 2.76071e-06 30.4249C0.0070432 13.863 13.4543 0.417827 30.0035 0.426274ZM32.9675 21.7603C32.9675 19.7234 32.9704 17.6864 32.9647 15.648C32.9647 15.3453 32.9633 15.0342 32.8929 14.7428C32.5451 13.314 31.1525 12.3004 29.774 12.4482C28.1716 12.62 27.0395 13.8489 27.0381 15.4692C27.0296 20.3864 27.0451 25.305 27.0268 30.2222C27.0212 31.5553 27.5985 32.4928 28.7348 33.1376C29.9345 33.8189 31.123 34.5171 32.317 35.2069C35.312 36.937 38.307 38.6699 41.3048 40.3944C42.589 41.1334 43.9661 41.0335 44.956 40.1508C46.5035 38.7699 46.2374 36.3781 44.3702 35.2871C40.7571 33.1742 37.1284 31.0907 33.4956 29.0115C33.1027 28.7863 32.9478 28.5456 32.9549 28.081C32.983 25.9736 32.9675 23.8663 32.9675 21.7589V21.7603Z" fill="#EB3333"/>
</g>

</symbol><symbol id="minus" viewBox="0 0 60 62">
<path d="M30 61.9796C46.5685 61.9796 60 48.3039 60 31.4341C60 14.5643 46.5685 0.888672 30 0.888672C13.4315 0.888672 0 14.5643 0 31.4341C0 48.3039 13.4315 61.9796 30 61.9796Z" fill="#3B3393"/>
<path d="M47.4543 31.1611L13.0907 31.1611" stroke="white" stroke-width="6" stroke-linecap="square"/>
</symbol><symbol id="pin-red" viewBox="0 0 18 26">
<g clip-path="url(#clip0_213_184127)">
<path d="M17.9812 9.84989C17.8335 11.0021 17.4458 12.0986 16.9289 13.1394C16.6519 13.6783 16.4304 14.2545 16.1535 14.7934C15.8212 15.4811 15.4519 16.1501 15.0642 16.8192C13.975 18.7334 12.8119 20.5919 11.5935 22.4132C10.7996 23.584 9.98732 24.7362 9.17501 25.8885C9.08271 26.0186 9.00886 26.0929 8.87963 25.8885C8.30732 25.0893 7.73502 24.3088 7.19963 23.4911C6.94117 23.1008 6.66425 22.7291 6.40578 22.3574C5.99963 21.7441 5.59348 21.1122 5.18732 20.4989C4.35655 19.2723 3.63655 17.99 2.89809 16.7076C2.43655 15.8899 1.97502 15.0536 1.60578 14.1801C1.49502 13.9199 1.32886 13.6969 1.21809 13.4367C0.978092 12.9164 0.719631 12.396 0.553477 11.8385C0.387323 11.2809 0.258093 10.7234 0.128862 10.1658C0.0365541 9.75697 -0.0188305 9.34811 -0.000368988 8.93924C0.0180925 8.25161 0.165785 7.56397 0.313477 6.89492C0.571939 5.74267 1.03348 4.68334 1.73502 3.73553C2.60271 2.5461 3.67348 1.59828 4.98425 0.94782C5.88886 0.501787 6.84886 0.204432 7.84578 0.0743388C8.06732 0.0371694 8.30732 0.0557541 8.52886 0H9.58117C9.9504 0.130093 10.3381 0.111508 10.7073 0.185847C12.0366 0.446033 13.2366 0.966404 14.3258 1.76555C15.4889 2.62044 16.4304 3.69836 17.0581 5.01787C17.4458 5.8356 17.7596 6.69049 17.8704 7.60114C17.9073 7.86133 17.9442 8.10293 17.9812 8.36312C17.9812 8.41887 17.9442 8.49321 17.9996 8.53038V9.62687C17.9996 9.62687 17.9627 9.77555 17.9812 9.84989ZM9.15655 14.0129C10.615 14.0872 11.815 13.3624 12.7935 12.2287C13.7719 11.0951 14.1412 9.70121 13.9012 8.21444C13.7166 7.0436 13.1258 6.05861 12.2212 5.29664C11.0212 4.27448 9.61809 3.90279 8.08578 4.18156C6.31348 4.47891 3.91348 6.18871 4.09809 9.45961C4.22732 11.8199 6.33194 14.1058 9.15655 14.0315V14.0129Z" fill="#EB3333"/>
</g>

</symbol><symbol id="pin-white" viewBox="0 0 23 34">
<g clip-path="url(#clip0_178_25514)">
<path d="M22.976 13.3587C22.7873 14.8212 22.2919 16.2129 21.6314 17.5338C21.2776 18.2179 20.9945 18.9491 20.6407 19.6332C20.216 20.506 19.7443 21.3551 19.2489 22.2043C17.8571 24.6339 16.3709 26.9927 14.814 29.3044C13.7996 30.7905 12.7617 32.2529 11.7237 33.7154C11.6058 33.8805 11.5114 33.9749 11.3463 33.7154C10.615 32.7011 9.88374 31.7104 9.19964 30.6725C8.86938 30.1772 8.51553 29.7054 8.18528 29.2336C7.6663 28.4552 7.14733 27.6532 6.62835 26.8748C5.56682 25.318 4.64682 23.6904 3.70323 22.0628C3.11348 21.0249 2.52374 19.9634 2.05194 18.8548C1.91041 18.5246 1.6981 18.2415 1.55656 17.9113C1.24989 17.2508 0.919637 16.5903 0.707329 15.8827C0.495022 15.175 0.329893 14.4674 0.164765 13.7597C0.0468165 13.2408 -0.0239527 12.7218 -0.000362978 12.2029C0.0232268 11.3301 0.211945 10.4574 0.400663 9.60818C0.730919 8.14571 1.32066 6.80118 2.21707 5.59818C3.32579 4.08853 4.694 2.88553 6.36887 2.05994C7.52476 1.49382 8.75143 1.1164 10.0253 0.951287C10.3084 0.90411 10.615 0.927698 10.8981 0.856934H12.2427C12.7145 1.02205 13.2099 0.998463 13.6817 1.09282C15.3801 1.42305 16.9135 2.08352 18.3053 3.09782C19.7914 4.18288 20.9945 5.551 21.7966 7.22577C22.2919 8.26365 22.693 9.34871 22.8345 10.5045C22.8817 10.8348 22.9289 11.1414 22.976 11.4717C22.976 11.5424 22.9289 11.6368 22.9996 11.684V13.0757C22.9996 13.0757 22.9525 13.2644 22.976 13.3587ZM11.7001 18.6425C13.5637 18.7368 15.0971 17.8169 16.3473 16.378C17.5976 14.9391 18.0694 13.17 17.7627 11.283C17.5268 9.79689 16.7719 8.54671 15.616 7.57959C14.0827 6.28224 12.2899 5.81047 10.3319 6.1643C8.06733 6.54171 5.00066 8.71183 5.23656 12.8634C5.40169 15.8591 8.09092 18.7604 11.7001 18.6661V18.6425Z" fill="#EBEBEB"/>
</g>

</symbol><symbol id="pin" viewBox="0 0 24 34">
<path d="M23.5295 12.6542C23.3408 14.1167 22.8454 15.5084 22.1849 16.8293C21.8311 17.5134 21.548 18.2446 21.1941 18.9287C20.7695 19.8014 20.2977 20.6506 19.8023 21.4998C18.4105 23.9294 16.9244 26.2882 15.3675 28.5999C14.3531 30.0859 13.3152 31.5484 12.2772 33.0109C12.1593 33.176 12.0649 33.2703 11.8998 33.0109C11.1685 31.9966 10.4372 31.0059 9.7531 29.968C9.42285 29.4726 9.069 29.0009 8.73874 28.5291C8.21977 27.7507 7.7008 26.9487 7.18182 26.1703C6.12028 24.6134 5.20028 22.9859 4.25669 21.3583C3.66695 20.3204 3.07721 19.2589 2.60541 18.1503C2.46387 17.82 2.25157 17.537 2.11003 17.2067C1.80336 16.5463 1.4731 15.8858 1.2608 15.1781C1.04849 14.4705 0.88336 13.7628 0.718232 13.0552C0.600283 12.5362 0.529514 12.0173 0.553104 11.4984C0.576694 10.6256 0.765412 9.75283 0.954129 8.90366C1.28439 7.44118 1.87413 6.09665 2.77054 4.89365C3.87926 3.384 5.24746 2.181 6.92233 1.35541C8.07823 0.789288 9.3049 0.411876 10.5787 0.246758C10.8618 0.199581 11.1685 0.22317 11.4516 0.152405H12.7962C13.268 0.317523 13.7634 0.293934 14.2352 0.388288C15.9336 0.718523 17.4669 1.379 18.8587 2.39329C20.3449 3.47835 21.548 4.84647 22.35 6.52124C22.8454 7.55912 23.2464 8.64418 23.388 9.80001C23.4352 10.1302 23.4823 10.4369 23.5295 10.7671C23.5295 10.8379 23.4823 10.9322 23.5531 10.9794V12.3711C23.5531 12.3711 23.5059 12.5598 23.5295 12.6542ZM12.2536 17.938C14.1172 18.0323 15.6505 17.1124 16.9008 15.6735C18.1511 14.2346 18.6228 12.4655 18.3162 10.5784C18.0803 9.09236 17.3254 7.84218 16.1695 6.87506C14.6362 5.57771 12.8434 5.10594 10.8854 5.45977C8.6208 5.83718 5.55413 8.0073 5.79003 12.1588C5.95515 15.1545 8.64439 18.0559 12.2536 17.9616V17.938Z" fill="#EBEBEB"/>
</symbol><symbol id="plus" viewBox="0 0 60 62">
<path d="M30 61.3892C46.5685 61.3892 60 47.7136 60 30.8438C60 13.974 46.5685 0.29834 30 0.29834C13.4315 0.29834 0 13.974 0 30.8438C0 47.7136 13.4315 61.3892 30 61.3892Z" fill="#EB3333"/>
<path d="M30.2727 13.3892V47.7528" stroke="white" stroke-width="6" stroke-linecap="square"/>
<path d="M47.4546 30.571L13.091 30.571" stroke="white" stroke-width="6" stroke-linecap="square"/>
</symbol><symbol id="reg-arrow--button" viewBox="0 0 17 17">
<path d="M15.4992 17.0035C16.3277 17.0037 16.9994 16.3323 16.9997 15.5039L17.0035 2.0039C17.0037 1.17547 16.3323 0.503709 15.5039 0.503475C14.6755 0.503241 14.0037 1.17462 14.0035 2.00305L14.0001 14.0031L2.00008 13.9997C1.17166 13.9994 0.499895 14.6708 0.49966 15.4992C0.499426 16.3277 1.17081 16.9994 1.99924 16.9997L15.4992 17.0035ZM0.942855 3.06036L14.4387 16.5638L16.5606 14.4431L3.06477 0.93964L0.942855 3.06036Z" fill="#EB3333"/>
</symbol><symbol id="reg-arrow" viewBox="0 0 17 17">
<path d="M16.898 1.8056C16.8982 0.977174 16.2269 0.305412 15.3984 0.305178L1.89843 0.301366C1.07 0.301132 0.398238 0.972515 0.398004 1.80094C0.39777 2.62937 1.06915 3.30113 1.89758 3.30137L13.8976 3.30475L13.8942 15.3048C13.894 16.1332 14.5653 16.8049 15.3938 16.8052C16.2222 16.8054 16.894 16.134 16.8942 15.3056L16.898 1.8056ZM2.95489 16.362L16.4584 2.86614L14.3376 0.744219L0.834171 14.2401L2.95489 16.362Z" fill="#EB3333"/>
</symbol><symbol id="rutube" viewBox="0 0 38 38">
<mask id="mask0_213_63887" style="mask-type:luminance" maskUnits="userSpaceOnUse" x="0" y="0" width="38" height="38">
<path d="M38 0H0V38H38V0Z" fill="white"/>
</mask>
<g mask="url(#mask0_213_63887)">
<mask id="mask1_213_63887" style="mask-type:luminance" maskUnits="userSpaceOnUse" x="0" y="0" width="38" height="38">
<path d="M28.7878 0H9.21216C4.12396 0 0 4.12441 0 9.21212V28.7878C0 33.8756 4.12396 38 9.21216 38H28.7878C33.876 38 38 33.8756 38 28.7878V9.21212C38 4.12441 33.876 0 28.7878 0Z" fill="white"/>
</mask>
<g mask="url(#mask1_213_63887)">
<path d="M23.8508 18.1325H12.6247V13.69H23.8508C24.5073 13.69 24.9633 13.8043 25.1922 14.0039C25.4202 14.2035 25.5627 14.5738 25.5627 15.1145V16.7096C25.5627 17.2795 25.4202 17.6497 25.1922 17.8493C24.9633 18.0489 24.5073 18.1342 23.8508 18.1342V18.1325ZM24.6213 9.50171H20.4318H16.2423H7.86328V28.5H12.6247V22.3191H21.3989L25.5627 28.5H30.8941L26.3037 22.29C27.9957 22.0392 28.7557 21.5206 29.3827 20.6659C30.0097 19.8112 30.3232 18.4447 30.3232 16.6209V15.1964C30.3232 14.1148 30.2092 13.2601 30.0097 12.605C29.8092 11.9499 29.4682 11.38 28.9827 10.8682C28.4707 10.3837 27.9007 10.0425 27.2157 9.81388C26.5308 9.61429 25.6748 9.5 24.6213 9.5V9.50171Z" fill="#EBEBEB"/>
<path d="M57.3779 1.14441e-05C57.3779 10.4934 48.8716 19 38.3779 19C36.2452 19 34.1941 18.6484 32.2789 17.9999C32.3198 17.5484 32.3388 17.0868 32.3388 16.6209V15.1964C32.3388 13.9869 32.2124 12.9207 31.9369 12.0171C31.6386 11.0427 31.1294 10.2041 30.4454 9.48216L30.4074 9.44208L30.3675 9.40413C29.6379 8.7147 28.8124 8.22255 27.8529 7.90245L27.8158 7.89016L27.7788 7.87927C26.8668 7.61324 25.8123 7.48485 24.621 7.48485H22.606V7.48655H20.9103C19.9242 5.18922 19.3779 2.65837 19.3779 1.14441e-05C19.3779 -10.4934 27.8852 -19 38.3779 -19C48.8716 -19 57.3779 -10.4934 57.3779 1.14441e-05Z" fill="#EBEBEB"/>
</g>
<path d="M9.06129 0.950012H28.9391C33.4184 0.950012 37.0502 4.58167 37.0502 9.06155V28.9384C37.0502 33.4184 33.4184 37.05 28.9391 37.05H9.06129C4.58204 37.05 0.950195 33.4184 0.950195 28.9384V9.06155C0.950195 4.58167 4.58204 0.950012 9.06129 0.950012Z" stroke="#EBEBEB" stroke-width="2"/>
</g>
</symbol><symbol id="tg" viewBox="0 0 38 38">
<path fill-rule="evenodd" clip-rule="evenodd" d="M38 19C38 29.4934 29.4934 38 19 38C8.50659 38 0 29.4934 0 19C0 8.50659 8.50659 0 19 0C29.4934 0 38 8.50659 38 19ZM19.6795 14.0257C17.8315 14.7944 14.138 16.3853 8.59914 18.7985C7.69971 19.1562 7.22856 19.5062 7.18567 19.8483C7.11317 20.4265 7.83727 20.6541 8.82331 20.9642C8.95744 21.0064 9.09641 21.0501 9.23888 21.0965C10.209 21.4118 11.514 21.7806 12.1924 21.7954C12.8077 21.8087 13.4946 21.5549 14.2529 21.0342C19.428 17.5409 22.0994 15.7751 22.2671 15.737C22.3854 15.7102 22.5494 15.6764 22.6605 15.7752C22.7716 15.8739 22.7607 16.061 22.7489 16.1111C22.6772 16.417 19.8349 19.0595 18.3639 20.427C17.9053 20.8533 17.5801 21.1556 17.5136 21.2247C17.3647 21.3795 17.2129 21.5258 17.0669 21.6664C16.1657 22.5352 15.4898 23.1867 17.1044 24.2507C17.8802 24.762 18.5011 25.1848 19.1205 25.6066C19.797 26.0672 20.4715 26.5267 21.3445 27.0989C21.5669 27.2447 21.7793 27.3961 21.9862 27.5436C22.7734 28.1048 23.4807 28.6091 24.3544 28.5286C24.8622 28.4819 25.3866 28.0045 25.6528 26.5807C26.2823 23.2157 27.5196 15.925 27.8055 12.9207C27.8305 12.6574 27.799 12.3205 27.7737 12.1727C27.7485 12.0248 27.6955 11.8141 27.5034 11.6581C27.2756 11.4734 26.9242 11.4345 26.7671 11.4372C26.0524 11.4499 24.956 11.8311 19.6795 14.0257Z" fill="#EBEBEB"/>
</symbol><symbol id="vk" viewBox="0 0 38 38">
<mask id="mask0_213_63878" style="mask-type:luminance" maskUnits="userSpaceOnUse" x="0" y="0" width="38" height="38">
<path d="M38 0H0V38H38V0Z" fill="white"/>
</mask>
<g mask="url(#mask0_213_63878)">
<mask id="mask1_213_63878" style="mask-type:luminance" maskUnits="userSpaceOnUse" x="0" y="0" width="38" height="38">
<path d="M38 0H0V38H38V0Z" fill="white"/>
</mask>
<g mask="url(#mask1_213_63878)">
<path fill-rule="evenodd" clip-rule="evenodd" d="M2.67121 2.67119C-1.81198e-06 5.34238 0 9.64155 0 18.24V19.76C0 28.3584 -1.81198e-06 32.6576 2.67121 35.3288C5.34242 38 9.64155 38 18.24 38H19.76C28.3585 38 32.6572 38 35.3286 35.3288C38 32.6576 38 28.3584 38 19.76V18.24C38 9.64155 38 5.34238 35.3286 2.67119C32.6572 0 28.3585 0 19.76 0H18.24C9.64155 0 5.34242 0 2.67121 2.67119ZM6.4125 11.5577C6.61836 21.4377 11.5583 27.3752 20.2191 27.3752H20.7101V21.7227C23.8925 22.0393 26.2988 24.3668 27.265 27.3752H31.7613C30.5263 22.8786 27.2812 20.3927 25.2538 19.4427C27.2812 18.2711 30.1311 15.4211 30.8113 11.5577H26.7264C25.84 14.6927 23.2114 17.5427 20.7101 17.8118V11.5577H16.6249V22.5143C14.0916 21.8811 10.8934 18.8093 10.7509 11.5577H6.4125Z" fill="#EBEBEB"/>
</g>
</g>
</symbol></svg>