<svg width="344" height="331" viewBox="0 0 344 331" fill="none" xmlns="http://www.w3.org/2000/svg">
<rect width="164.51" height="158.835" transform="matrix(0.995496 0.0948003 -0.0950181 0.995476 16.0922 0.234863)" fill="white"/>
<path d="M62.0121 41.3075V44.6675L58.4121 51.7675V52.3875H62.0121V54.3875H56.3121V51.4875L59.9121 44.3875V42.3875H58.4121V44.3875H56.3121V41.3075C56.3121 40.7675 56.6721 40.3875 57.2321 40.3875H61.0921C61.6521 40.3875 62.0121 40.7675 62.0121 41.3075ZM62.9114 42.3875V40.3875H65.9114V54.3875H63.8114V42.3875H62.9114ZM73.5714 42.3875L72.8914 54.3875H70.1114V52.3875H70.9114L71.5914 40.3875H76.7114V54.3875H74.6114V42.3875H73.5714ZM80.016 52.3875H82.116V42.3875H80.016V52.3875ZM83.296 54.3875H78.836C78.276 54.3875 77.916 54.0075 77.916 53.4675V41.3075C77.916 40.7675 78.276 40.3875 78.836 40.3875H83.296C83.856 40.3875 84.216 40.7675 84.216 41.3075V53.4675C84.216 54.0075 83.856 54.3875 83.296 54.3875ZM89.956 46.7875L92.116 54.3875H89.896L88.056 47.7875H87.516V54.3875H85.416V40.3875H87.516V45.7875H88.116L89.896 40.3875H92.116L89.956 46.7875ZM92.8184 40.3875H99.0184V54.3875H96.9184V49.7875H94.9184V54.3875H92.8184V40.3875ZM96.9184 47.7875V42.3875H94.9184V47.7875H96.9184ZM105.021 56.2275V54.3875H100.221V40.3875H102.321V52.3875H104.321V40.3875H106.421V52.3875H107.121V56.2275H105.021ZM114.416 54.3875H112.316V46.5475L110.016 51.3675V54.3875H107.916V40.3875H110.016V47.5075L112.316 42.6875V40.3875H114.416V54.3875ZM117.431 54.3875H115.211L117.271 47.7875H116.631C116.071 47.7875 115.711 47.4075 115.711 46.8675V41.3075C115.711 40.7675 116.071 40.3875 116.631 40.3875H121.811V54.3875H119.711V47.7875H119.511L117.431 54.3875ZM119.711 45.7875V42.3875H117.811V45.7875H119.711Z" fill="#3D348A"/>
<path d="M48.98 88.564H50.198V96.978H54.524V88.564H55.756V97.006L56.582 97.034L56.498 100.268H55.532L55.448 98H48.98V88.564ZM63.4348 94.836H58.6748C58.7028 96.502 59.7668 97.188 60.9988 97.188C61.8808 97.188 62.4128 97.034 62.8748 96.838L63.0848 97.72C62.6508 97.916 61.9088 98.14 60.8308 98.14C58.7448 98.14 57.4988 96.768 57.4988 94.724C57.4988 92.68 58.7028 91.07 60.6768 91.07C62.8888 91.07 63.4768 93.016 63.4768 94.262C63.4768 94.514 63.4488 94.71 63.4348 94.836ZM58.6888 93.954H62.2868C62.3008 93.17 61.9648 91.952 60.5788 91.952C59.3328 91.952 58.7868 93.1 58.6888 93.954ZM64.9745 91.224H66.1925V93.954H69.4125V91.224H70.6305V98H69.4125V94.934H66.1925V98H64.9745V91.224ZM71.736 91.224H77.182V92.204H75.068V98H73.85V92.204H71.736V91.224ZM78.2642 100.772V93.436C78.2642 92.568 78.2362 91.868 78.2082 91.224H79.3142L79.3702 92.386H79.3982C79.9022 91.56 80.7002 91.07 81.8062 91.07C83.4442 91.07 84.6762 92.456 84.6762 94.514C84.6762 96.95 83.1922 98.154 81.5962 98.154C80.7002 98.154 79.9162 97.762 79.5102 97.09H79.4822V100.772H78.2642ZM79.4822 94.08V95.242C79.4822 95.424 79.5102 95.592 79.5382 95.746C79.7622 96.6 80.5042 97.188 81.3862 97.188C82.6882 97.188 83.4442 96.124 83.4442 94.57C83.4442 93.212 82.7302 92.05 81.4282 92.05C80.5882 92.05 79.8042 92.652 79.5662 93.576C79.5242 93.73 79.4822 93.912 79.4822 94.08ZM91.1069 98H89.9869L89.8889 97.146H89.8469C89.4689 97.678 88.7409 98.154 87.7749 98.154C86.4029 98.154 85.7029 97.188 85.7029 96.208C85.7029 94.57 87.1589 93.674 89.7769 93.688V93.548C89.7769 92.988 89.6229 91.98 88.2369 91.98C87.6069 91.98 86.9489 92.176 86.4729 92.484L86.1929 91.672C86.7529 91.308 87.5649 91.07 88.4189 91.07C90.4909 91.07 90.9949 92.484 90.9949 93.842V96.376C90.9949 96.964 91.0229 97.538 91.1069 98ZM89.8049 95.718V94.542C88.4609 94.514 86.9349 94.752 86.9349 96.068C86.9349 96.866 87.4669 97.244 88.0969 97.244C88.9789 97.244 89.5389 96.684 89.7349 96.11C89.7769 95.984 89.8049 95.844 89.8049 95.718ZM93.4488 91.224H98.1528V98H96.9348V92.19H94.6108V93.954C94.6108 95.858 94.4288 97.132 93.5468 97.706C93.2108 97.972 92.8328 98.126 92.2028 98.126L92.0768 97.16C92.3148 97.118 92.5808 97.02 92.7488 96.88C93.3788 96.418 93.4488 95.466 93.4488 93.954V91.224ZM100.139 91.224H101.357V93.52C101.637 93.464 102.113 93.45 102.477 93.45C104.003 93.45 105.613 93.926 105.613 95.732C105.613 96.432 105.333 96.922 104.899 97.286C104.157 97.916 102.953 98.07 101.959 98.07C101.273 98.07 100.643 98.028 100.139 97.972V91.224ZM101.357 94.402V97.146C101.595 97.174 101.861 97.202 102.267 97.202C103.191 97.202 104.381 96.894 104.381 95.76C104.381 94.584 103.149 94.332 102.239 94.332C101.917 94.332 101.637 94.36 101.357 94.402ZM107.111 91.224H108.329V93.954H111.549V91.224H112.767V98H111.549V94.934H108.329V98H107.111V91.224ZM114.754 91.224H115.972V93.534C116.238 93.478 116.63 93.45 117.078 93.45C118.534 93.45 120.004 94.052 120.004 95.718C120.004 96.432 119.738 96.922 119.304 97.286C118.562 97.916 117.47 98.07 116.574 98.07C115.888 98.07 115.258 98.028 114.754 97.972V91.224ZM115.972 94.402V97.146C116.21 97.174 116.476 97.202 116.826 97.202C117.764 97.202 118.786 96.81 118.786 95.76C118.786 94.668 117.806 94.332 116.882 94.332C116.532 94.332 116.224 94.36 115.972 94.402ZM120.858 91.224H122.076V98H120.858V91.224ZM129.538 94.836H124.778C124.806 96.502 125.87 97.188 127.102 97.188C127.984 97.188 128.516 97.034 128.978 96.838L129.188 97.72C128.754 97.916 128.012 98.14 126.934 98.14C124.848 98.14 123.602 96.768 123.602 94.724C123.602 92.68 124.806 91.07 126.78 91.07C128.992 91.07 129.58 93.016 129.58 94.262C129.58 94.514 129.552 94.71 129.538 94.836ZM124.792 93.954H128.39C128.404 93.17 128.068 91.952 126.682 91.952C125.436 91.952 124.89 93.1 124.792 93.954ZM35.6758 105.224H37.0198L38.5038 109.228C38.6578 109.676 38.8258 110.208 38.9378 110.614H38.9658C39.0918 110.208 39.2318 109.69 39.3998 109.2L40.7438 105.224H42.0458L40.1978 110.054C39.3158 112.378 38.7138 113.568 37.8738 114.296C37.2718 114.828 36.6698 115.038 36.3618 115.094L36.0538 114.058C36.3618 113.96 36.7678 113.764 37.1318 113.456C37.4678 113.19 37.8878 112.714 38.1678 112.084C38.2238 111.958 38.2658 111.86 38.2658 111.79C38.2658 111.72 38.2378 111.622 38.1818 111.468L35.6758 105.224ZM43.485 105.224H48.189V112H46.971V106.19H44.647V107.954C44.647 109.858 44.465 111.132 43.583 111.706C43.247 111.972 42.869 112.126 42.239 112.126L42.113 111.16C42.351 111.118 42.617 111.02 42.785 110.88C43.415 110.418 43.485 109.466 43.485 107.954V105.224ZM50.1747 105.224H51.3367V108.08C51.3367 109.158 51.3227 109.83 51.2667 110.796L51.3087 110.81C51.7147 109.984 51.9527 109.508 52.4007 108.724L54.5147 105.224H55.9567V112H54.7807V109.13C54.7807 108.024 54.8087 107.45 54.8647 106.358H54.8227C54.3887 107.226 54.0947 107.772 53.7027 108.458C53.0587 109.508 52.3167 110.81 51.5887 112H50.1747V105.224ZM57.9266 105.224H59.1446V111.034H62.2666V105.224H63.4846V111.076L64.1846 111.09L64.1146 114.156H63.1626L63.1066 112H57.9266V105.224ZM65.6239 105.224H66.8419V107.534C67.1079 107.478 67.4999 107.45 67.9479 107.45C69.4039 107.45 70.8739 108.052 70.8739 109.718C70.8739 110.432 70.6079 110.922 70.1739 111.286C69.4319 111.916 68.3399 112.07 67.4439 112.07C66.7579 112.07 66.1279 112.028 65.6239 111.972V105.224ZM66.8419 108.402V111.146C67.0799 111.174 67.3459 111.202 67.6959 111.202C68.6339 111.202 69.6559 110.81 69.6559 109.76C69.6559 108.668 68.6759 108.332 67.7519 108.332C67.4019 108.332 67.0939 108.36 66.8419 108.402ZM71.7279 105.224H72.9459V112H71.7279V105.224ZM77.9012 105.224H79.0632V108.08C79.0632 109.158 79.0492 109.83 78.9932 110.796L79.0352 110.81C79.4412 109.984 79.6792 109.508 80.1272 108.724L82.2412 105.224H83.6832V112H82.5072V109.13C82.5072 108.024 82.5352 107.45 82.5912 106.358H82.5492C82.1152 107.226 81.8212 107.772 81.4292 108.458C80.7852 109.508 80.0432 110.81 79.3152 112H77.9012V105.224ZM88.62 105.224H94.22V112H92.988V106.204H89.838V112H88.62V105.224ZM96.6549 105.224H101.359V112H100.141V106.19H97.8169V107.954C97.8169 109.858 97.6349 111.132 96.7529 111.706C96.4169 111.972 96.0389 112.126 95.4089 112.126L95.2829 111.16C95.5209 111.118 95.7869 111.02 95.9549 110.88C96.5849 110.418 96.6549 109.466 96.6549 107.954V105.224ZM106.243 105.07C108.189 105.07 109.505 106.484 109.505 108.556C109.505 111.062 107.769 112.154 106.131 112.154C104.297 112.154 102.883 110.81 102.883 108.668C102.883 106.4 104.367 105.07 106.243 105.07ZM106.215 105.994C104.759 105.994 104.129 107.338 104.129 108.626C104.129 110.11 104.983 111.23 106.187 111.23C107.363 111.23 108.245 110.124 108.245 108.598C108.245 107.45 107.671 105.994 106.215 105.994ZM111.028 105.224H112.232V111.034H114.598V105.224H115.802V111.034H118.168V105.224H119.386V111.076L120.072 111.09L120.002 114.156H119.05L118.994 112H111.028V105.224ZM126.415 112H125.295L125.197 111.146H125.155C124.777 111.678 124.049 112.154 123.083 112.154C121.711 112.154 121.011 111.188 121.011 110.208C121.011 108.57 122.467 107.674 125.085 107.688V107.548C125.085 106.988 124.931 105.98 123.545 105.98C122.915 105.98 122.257 106.176 121.781 106.484L121.501 105.672C122.061 105.308 122.873 105.07 123.727 105.07C125.799 105.07 126.303 106.484 126.303 107.842V110.376C126.303 110.964 126.331 111.538 126.415 112ZM125.113 109.718V108.542C123.769 108.514 122.243 108.752 122.243 110.068C122.243 110.866 122.775 111.244 123.405 111.244C124.287 111.244 124.847 110.684 125.043 110.11C125.085 109.984 125.113 109.844 125.113 109.718ZM129.024 105.224H133.546V111.076L134.246 111.09L134.176 114.156H133.21L133.154 112H128.464L128.408 114.156H127.442L127.386 111.09L127.96 111.076C128.254 110.642 128.478 110.18 128.632 109.69C128.898 108.85 129.024 107.94 129.024 106.988V105.224ZM130.116 106.162V107.282C130.116 108.178 129.99 109.046 129.766 109.802C129.626 110.264 129.43 110.684 129.22 111.062H132.342V106.162H130.116ZM135.692 105.224H136.854V108.08C136.854 109.158 136.84 109.83 136.784 110.796L136.826 110.81C137.232 109.984 137.47 109.508 137.918 108.724L140.032 105.224H141.474V112H140.298V109.13C140.298 108.024 140.326 107.45 140.382 106.358H140.34C139.906 107.226 139.612 107.772 139.22 108.458C138.576 109.508 137.834 110.81 137.106 112H135.692V105.224ZM74.1436 126L73.9056 121.856C73.8356 120.54 73.7516 118.958 73.7656 117.782H73.7236C73.4016 118.888 73.0096 120.064 72.5336 121.366L70.8676 125.944H69.9436L68.4176 121.45C67.9696 120.12 67.5916 118.902 67.3256 117.782H67.2976C67.2696 118.958 67.1996 120.54 67.1156 121.954L66.8636 126H65.7016L66.3596 116.564H67.9136L69.5236 121.128C69.9156 122.29 70.2376 123.326 70.4756 124.306H70.5176C70.7556 123.354 71.0916 122.318 71.5116 121.128L73.1916 116.564H74.7456L75.3336 126H74.1436ZM80.0336 119.07C81.9796 119.07 83.2956 120.484 83.2956 122.556C83.2956 125.062 81.5596 126.154 79.9216 126.154C78.0876 126.154 76.6736 124.81 76.6736 122.668C76.6736 120.4 78.1576 119.07 80.0336 119.07ZM80.0056 119.994C78.5496 119.994 77.9196 121.338 77.9196 122.626C77.9196 124.11 78.7736 125.23 79.9776 125.23C81.1536 125.23 82.0356 124.124 82.0356 122.598C82.0356 121.45 81.4616 119.994 80.0056 119.994ZM89.4672 124.824L89.6772 125.748C89.3552 125.916 88.6412 126.14 87.7312 126.14C85.6872 126.14 84.3572 124.754 84.3572 122.682C84.3572 120.596 85.7852 119.084 87.9972 119.084C88.7252 119.084 89.3692 119.266 89.7052 119.434L89.4252 120.386C89.1312 120.218 88.6692 120.064 87.9972 120.064C86.4432 120.064 85.6032 121.212 85.6032 122.626C85.6032 124.194 86.6112 125.16 87.9552 125.16C88.6552 125.16 89.1172 124.978 89.4672 124.824ZM91.1226 119.224H92.3406V122.164H92.6346L95.1826 119.224H96.6806L93.7266 122.29C94.8186 122.402 95.4766 123.13 96.0086 124.348C96.1906 124.796 96.4286 125.454 96.7366 126H95.4486C95.2666 125.706 95.0286 125.174 94.8186 124.614C94.3566 123.522 93.7266 123.018 92.5786 123.018H92.3406V126H91.1226V119.224ZM97.7938 126V119.308C98.2698 119.224 99.1518 119.154 99.9498 119.154C101.084 119.154 102.96 119.336 102.96 120.848C102.96 121.688 102.316 122.206 101.546 122.374V122.402C102.54 122.542 103.268 123.102 103.268 124.082C103.268 125.86 101.028 126.084 99.6978 126.084C98.9418 126.084 98.1578 126.028 97.7938 126ZM98.9698 120.064V122.066H99.8938C100.804 122.066 101.742 121.8 101.742 121.002C101.742 120.33 101.154 120.008 99.9218 120.008C99.5158 120.008 99.2638 120.036 98.9698 120.064ZM98.9558 122.878V125.188C99.3058 125.23 99.5578 125.244 99.9498 125.244C100.776 125.244 102.008 125.048 102.008 124.068C102.008 123.088 101.028 122.878 99.8518 122.878H98.9558ZM104.794 119.224H106.012V121.534C106.278 121.478 106.67 121.45 107.118 121.45C108.574 121.45 110.044 122.052 110.044 123.718C110.044 124.432 109.778 124.922 109.344 125.286C108.602 125.916 107.51 126.07 106.614 126.07C105.928 126.07 105.298 126.028 104.794 125.972V119.224ZM106.012 122.402V125.146C106.25 125.174 106.516 125.202 106.866 125.202C107.804 125.202 108.826 124.81 108.826 123.76C108.826 122.668 107.846 122.332 106.922 122.332C106.572 122.332 106.264 122.36 106.012 122.402ZM110.898 119.224H112.116V126H110.898V119.224Z" fill="#3D348A"/>
<g clip-path="url(#clip0_2001_2)">
<rect width="164.51" height="158.835" transform="matrix(0.994173 -0.107795 0.107578 0.994197 162.249 17.0002)" fill="#3B3393"/>
<path d="M213.16 41.3075V44.6675L209.56 51.7675V52.3875H213.16V54.3875H207.46V51.4875L211.06 44.3875V42.3875H209.56V44.3875H207.46V41.3075C207.46 40.7675 207.82 40.3875 208.38 40.3875H212.24C212.8 40.3875 213.16 40.7675 213.16 41.3075ZM219.659 54.3875H217.559V51.7875H214.059V49.9875L216.819 40.3875H219.019L216.319 49.7875H217.559V47.9875L219.659 47.5875V49.7875H220.459V51.7875H219.659V54.3875ZM228.865 45.7875V42.3875H226.965V45.7875H228.865ZM228.865 47.7875H226.965V52.3875H228.865V47.7875ZM230.965 41.3075V45.2275C230.965 46.0275 230.545 46.5675 229.925 46.7875C230.545 47.0075 230.965 47.5275 230.965 48.3475V53.4675C230.965 54.0075 230.605 54.3875 230.045 54.3875H224.865V40.3875H230.045C230.605 40.3875 230.965 40.7675 230.965 41.3075ZM238.67 54.3875H236.57V46.5475L234.27 51.3675V54.3875H232.17V40.3875H234.27V47.5075L236.57 42.6875V40.3875H238.67V54.3875ZM242.285 52.3875H243.865V42.3875H242.965L242.285 52.3875ZM240.985 40.3875H245.965V52.3875H246.665V56.2275H244.565V54.3875H241.465V56.2275H239.365V52.3875H240.165L240.985 40.3875ZM247.463 40.3875H253.663V54.3875H251.563V49.7875H249.563V54.3875H247.463V40.3875ZM251.563 47.7875V42.3875H249.563V47.7875H251.563ZM264.363 54.3875H259.183C258.623 54.3875 258.263 54.0075 258.263 53.4675V41.3075C258.263 40.7675 258.623 40.3875 259.183 40.3875H264.363V44.3875H262.263V42.3875H260.363V52.3875H262.263V49.7875H264.363V54.3875ZM265.47 40.3875H271.87V54.3875H269.77V42.3875H267.57V54.3875H265.47V40.3875ZM275.168 52.3875H277.268V42.3875H275.168V52.3875ZM278.448 54.3875H273.988C273.428 54.3875 273.068 54.0075 273.068 53.4675V41.3075C273.068 40.7675 273.428 40.3875 273.988 40.3875H278.448C279.008 40.3875 279.368 40.7675 279.368 41.3075V53.4675C279.368 54.0075 279.008 54.3875 278.448 54.3875ZM282.668 42.3875V47.7875H284.668V42.3875H282.668ZM285.848 49.7875H282.668V54.3875H280.568V40.3875H285.848C286.408 40.3875 286.768 40.7675 286.768 41.3075V48.8675C286.768 49.4075 286.408 49.7875 285.848 49.7875ZM287.473 42.3875V40.3875H293.573V42.3875H291.573V54.3875H289.473V42.3875H287.473ZM294.377 40.3875H300.577V54.3875H298.477V49.7875H296.477V54.3875H294.377V40.3875ZM298.477 47.7875V42.3875H296.477V47.7875H298.477Z" fill="white"/>
<path d="M207.294 88.564H212.838V98H211.606V89.586H208.484V92.442C208.484 94.486 208.4 96.768 207.07 97.664C206.72 97.888 206.174 98.112 205.628 98.112L205.474 97.132C205.852 97.062 206.244 96.838 206.468 96.628C207.224 95.886 207.294 94.052 207.294 92.54V88.564ZM214.879 91.224H216.083V94.08H217.245C217.455 92.288 218.631 91.07 220.255 91.07C222.019 91.07 223.223 92.47 223.223 94.556C223.223 96.754 221.879 98.154 220.171 98.154C218.547 98.154 217.357 96.95 217.217 95.018H216.083V98H214.879V91.224ZM220.185 97.244C221.431 97.244 221.991 95.872 221.991 94.584C221.991 93.31 221.417 91.994 220.213 91.994C219.023 91.994 218.393 93.282 218.393 94.654C218.393 95.97 218.995 97.244 220.185 97.244ZM229.958 87.906L229.902 88.928C229.552 89.054 228.936 89.166 228.488 89.236C227.396 89.404 226.598 89.768 226.08 90.51C225.646 91.126 225.394 92.036 225.338 92.75H225.38C225.814 91.77 226.766 91.224 227.732 91.224C229.398 91.224 230.616 92.414 230.616 94.57C230.616 96.782 229.468 98.154 227.48 98.154C225.1 98.154 224.316 95.872 224.316 93.618C224.316 92.078 224.638 90.818 225.366 89.866C226.024 88.928 226.962 88.494 228.278 88.27C228.824 88.186 229.496 88.074 229.958 87.906ZM229.37 94.668C229.37 93.562 228.936 92.134 227.48 92.134C226.752 92.134 226.234 92.512 225.954 93.058C225.73 93.464 225.618 93.954 225.618 94.5C225.618 95.62 226.164 97.23 227.508 97.23C228.866 97.23 229.37 95.914 229.37 94.668ZM235.044 91.07C236.99 91.07 238.306 92.484 238.306 94.556C238.306 97.062 236.57 98.154 234.932 98.154C233.098 98.154 231.684 96.81 231.684 94.668C231.684 92.4 233.168 91.07 235.044 91.07ZM235.016 91.994C233.56 91.994 232.93 93.338 232.93 94.626C232.93 96.11 233.784 97.23 234.988 97.23C236.164 97.23 237.046 96.124 237.046 94.598C237.046 93.45 236.472 91.994 235.016 91.994ZM239.83 91.224H240.992V94.08C240.992 95.158 240.978 95.83 240.922 96.796L240.964 96.81C241.37 95.984 241.608 95.508 242.056 94.724L244.17 91.224H245.612V98H244.436V95.13C244.436 94.024 244.464 93.45 244.52 92.358H244.478C244.044 93.226 243.75 93.772 243.358 94.458C242.714 95.508 241.972 96.81 241.244 98H239.83V91.224ZM240.894 88.466H241.79C241.832 89.068 242.126 89.53 242.686 89.53C243.288 89.53 243.568 89.082 243.638 88.466H244.52C244.464 89.614 243.736 90.202 242.658 90.202C241.426 90.202 240.95 89.432 240.894 88.466ZM249.681 91.224H251.025L252.509 95.228C252.663 95.676 252.831 96.208 252.943 96.614H252.971C253.097 96.208 253.237 95.69 253.405 95.2L254.749 91.224H256.051L254.203 96.054C253.321 98.378 252.719 99.568 251.879 100.296C251.277 100.828 250.675 101.038 250.367 101.094L250.059 100.058C250.367 99.96 250.773 99.764 251.137 99.456C251.473 99.19 251.893 98.714 252.173 98.084C252.229 97.958 252.271 97.86 252.271 97.79C252.271 97.72 252.243 97.622 252.187 97.468L249.681 91.224ZM257.167 100.772V93.436C257.167 92.568 257.139 91.868 257.111 91.224H258.217L258.273 92.386H258.301C258.805 91.56 259.603 91.07 260.709 91.07C262.347 91.07 263.579 92.456 263.579 94.514C263.579 96.95 262.095 98.154 260.499 98.154C259.603 98.154 258.819 97.762 258.413 97.09H258.385V100.772H257.167ZM258.385 94.08V95.242C258.385 95.424 258.413 95.592 258.441 95.746C258.665 96.6 259.407 97.188 260.289 97.188C261.591 97.188 262.347 96.124 262.347 94.57C262.347 93.212 261.633 92.05 260.331 92.05C259.491 92.05 258.707 92.652 258.469 93.576C258.427 93.73 258.385 93.912 258.385 94.08ZM268.007 91.07C269.953 91.07 271.269 92.484 271.269 94.556C271.269 97.062 269.533 98.154 267.895 98.154C266.061 98.154 264.647 96.81 264.647 94.668C264.647 92.4 266.131 91.07 268.007 91.07ZM267.979 91.994C266.523 91.994 265.893 93.338 265.893 94.626C265.893 96.11 266.747 97.23 267.951 97.23C269.127 97.23 270.009 96.124 270.009 94.598C270.009 93.45 269.435 91.994 267.979 91.994ZM272.793 98V91.308C273.269 91.224 274.151 91.154 274.949 91.154C276.083 91.154 277.959 91.336 277.959 92.848C277.959 93.688 277.315 94.206 276.545 94.374V94.402C277.539 94.542 278.267 95.102 278.267 96.082C278.267 97.86 276.027 98.084 274.697 98.084C273.941 98.084 273.157 98.028 272.793 98ZM273.969 92.064V94.066H274.893C275.803 94.066 276.741 93.8 276.741 93.002C276.741 92.33 276.153 92.008 274.921 92.008C274.515 92.008 274.263 92.036 273.969 92.064ZM273.955 94.878V97.188C274.305 97.23 274.557 97.244 274.949 97.244C275.775 97.244 277.007 97.048 277.007 96.068C277.007 95.088 276.027 94.878 274.851 94.878H273.955ZM285.267 94.836H280.507C280.535 96.502 281.599 97.188 282.831 97.188C283.713 97.188 284.245 97.034 284.707 96.838L284.917 97.72C284.483 97.916 283.741 98.14 282.663 98.14C280.577 98.14 279.331 96.768 279.331 94.724C279.331 92.68 280.535 91.07 282.509 91.07C284.721 91.07 285.309 93.016 285.309 94.262C285.309 94.514 285.281 94.71 285.267 94.836ZM280.521 93.954H284.119C284.133 93.17 283.797 91.952 282.411 91.952C281.165 91.952 280.619 93.1 280.521 93.954ZM286.807 91.224H288.025V93.954H291.245V91.224H292.463V98H291.245V94.934H288.025V98H286.807V91.224ZM294.449 91.224H295.667V93.52C295.947 93.464 296.423 93.45 296.787 93.45C298.313 93.45 299.923 93.926 299.923 95.732C299.923 96.432 299.643 96.922 299.209 97.286C298.467 97.916 297.263 98.07 296.269 98.07C295.583 98.07 294.953 98.028 294.449 97.972V91.224ZM295.667 94.402V97.146C295.905 97.174 296.171 97.202 296.577 97.202C297.501 97.202 298.691 96.894 298.691 95.76C298.691 94.584 297.459 94.332 296.549 94.332C296.227 94.332 295.947 94.36 295.667 94.402ZM219.049 105.224H224.649V112H223.417V106.204H220.267V112H219.049V105.224ZM229.521 105.07C231.467 105.07 232.783 106.484 232.783 108.556C232.783 111.062 231.047 112.154 229.409 112.154C227.575 112.154 226.161 110.81 226.161 108.668C226.161 106.4 227.645 105.07 229.521 105.07ZM229.493 105.994C228.037 105.994 227.407 107.338 227.407 108.626C227.407 110.11 228.261 111.23 229.465 111.23C230.641 111.23 231.523 110.124 231.523 108.598C231.523 107.45 230.949 105.994 229.493 105.994ZM234.967 105.224H239.489V111.076L240.189 111.09L240.119 114.156H239.153L239.097 112H234.407L234.351 114.156H233.385L233.329 111.09L233.903 111.076C234.197 110.642 234.421 110.18 234.575 109.69C234.841 108.85 234.967 107.94 234.967 106.988V105.224ZM236.059 106.162V107.282C236.059 108.178 235.933 109.046 235.709 109.802C235.569 110.264 235.373 110.684 235.163 111.062H238.285V106.162H236.059ZM241.635 105.224H245.793V106.218H242.853V112H241.635V105.224ZM249.646 105.07C251.592 105.07 252.908 106.484 252.908 108.556C252.908 111.062 251.172 112.154 249.534 112.154C247.7 112.154 246.286 110.81 246.286 108.668C246.286 106.4 247.77 105.07 249.646 105.07ZM249.618 105.994C248.162 105.994 247.532 107.338 247.532 108.626C247.532 110.11 248.386 111.23 249.59 111.23C250.766 111.23 251.648 110.124 251.648 108.598C251.648 107.45 251.074 105.994 249.618 105.994ZM253.482 105.224H258.928V106.204H256.814V112H255.596V106.204H253.482V105.224ZM262.703 105.07C264.649 105.07 265.965 106.484 265.965 108.556C265.965 111.062 264.229 112.154 262.591 112.154C260.757 112.154 259.343 110.81 259.343 108.668C259.343 106.4 260.827 105.07 262.703 105.07ZM262.675 105.994C261.219 105.994 260.589 107.338 260.589 108.626C260.589 110.11 261.443 111.23 262.647 111.23C263.823 111.23 264.705 110.124 264.705 108.598C264.705 107.45 264.131 105.994 262.675 105.994ZM267.488 112V105.308C267.964 105.224 268.846 105.154 269.644 105.154C270.778 105.154 272.654 105.336 272.654 106.848C272.654 107.688 272.01 108.206 271.24 108.374V108.402C272.234 108.542 272.962 109.102 272.962 110.082C272.962 111.86 270.722 112.084 269.392 112.084C268.636 112.084 267.852 112.028 267.488 112ZM268.664 106.064V108.066H269.588C270.498 108.066 271.436 107.8 271.436 107.002C271.436 106.33 270.848 106.008 269.616 106.008C269.21 106.008 268.958 106.036 268.664 106.064ZM268.65 108.878V111.188C269 111.23 269.252 111.244 269.644 111.244C270.47 111.244 271.702 111.048 271.702 110.068C271.702 109.088 270.722 108.878 269.546 108.878H268.65ZM274.516 105.224H275.734V108.164H276.028L278.576 105.224H280.074L277.12 108.29C278.212 108.402 278.87 109.13 279.402 110.348C279.584 110.796 279.822 111.454 280.13 112H278.842C278.66 111.706 278.422 111.174 278.212 110.614C277.75 109.522 277.12 109.018 275.972 109.018H275.734V112H274.516V105.224ZM281.187 105.224H282.349V108.08C282.349 109.158 282.335 109.83 282.279 110.796L282.321 110.81C282.727 109.984 282.965 109.508 283.413 108.724L285.527 105.224H286.969V112H285.793V109.13C285.793 108.024 285.821 107.45 285.877 106.358H285.835C285.401 107.226 285.107 107.772 284.715 108.458C284.071 109.508 283.329 110.81 282.601 112H281.187V105.224Z" fill="white"/>
</g>
<rect width="164.51" height="158.835" transform="matrix(0.997643 -0.0686209 0.0684026 0.997658 2.93619 169.188)" fill="#3B3393"/>
<path d="M42.2788 198.116V196.116H45.2788V210.116H43.1788V198.116H42.2788ZM48.6803 208.116H50.1803V198.116H48.6803V208.116ZM51.3603 210.116H47.5003C46.9403 210.116 46.5803 209.736 46.5803 209.196V197.036C46.5803 196.496 46.9403 196.116 47.5003 196.116H51.3603C51.9203 196.116 52.2803 196.496 52.2803 197.036V209.196C52.2803 209.736 51.9203 210.116 51.3603 210.116ZM55.5749 208.116H57.0749V198.116H55.5749V208.116ZM58.2549 210.116H54.3949C53.8349 210.116 53.4749 209.736 53.4749 209.196V197.036C53.4749 196.496 53.8349 196.116 54.3949 196.116H58.2549C58.8149 196.116 59.1749 196.496 59.1749 197.036V209.196C59.1749 209.736 58.8149 210.116 58.2549 210.116ZM63.3678 198.116V196.116H69.4678V198.116H67.4678V210.116H65.3678V198.116H63.3678ZM72.3717 198.116V203.516H74.3717V198.116H72.3717ZM75.5517 205.516H72.3717V210.116H70.2717V196.116H75.5517C76.1117 196.116 76.4717 196.496 76.4717 197.036V204.596C76.4717 205.136 76.1117 205.516 75.5517 205.516ZM77.5764 210.116V196.116H82.7764V198.116H79.6764V201.516H82.6764V203.516H79.6764V208.116H82.7764V210.116H77.5764ZM88.285 196.116H90.385V210.116H88.285V203.516H85.985V210.116H83.885V196.116H85.985V201.516H88.285V196.116ZM98.0803 210.116H95.9803V202.276L93.6803 207.096V210.116H91.5803V196.116H93.6803V203.236L95.9803 198.416V196.116H98.0803V210.116ZM101.376 198.116V203.516H103.376V198.116H101.376ZM104.556 205.516H101.376V210.116H99.2756V196.116H104.556C105.116 196.116 105.476 196.496 105.476 197.036V204.596C105.476 205.136 105.116 205.516 104.556 205.516ZM108.68 208.116H110.78V198.116H108.68V208.116ZM111.96 210.116H107.5C106.94 210.116 106.58 209.736 106.58 209.196V197.036C106.58 196.496 106.94 196.116 107.5 196.116H111.96C112.52 196.116 112.88 196.496 112.88 197.036V209.196C112.88 209.736 112.52 210.116 111.96 210.116ZM118.08 201.516V198.116H116.18V201.516H118.08ZM118.08 203.516H116.18V208.116H118.08V203.516ZM120.18 197.036V200.956C120.18 201.756 119.76 202.296 119.14 202.516C119.76 202.736 120.18 203.256 120.18 204.076V209.196C120.18 209.736 119.82 210.116 119.26 210.116H114.08V196.116H119.26C119.82 196.116 120.18 196.496 120.18 197.036ZM123.485 208.116H125.585V198.116H123.485V208.116ZM126.765 210.116H122.305C121.745 210.116 121.385 209.736 121.385 209.196V197.036C121.385 196.496 121.745 196.116 122.305 196.116H126.765C127.325 196.116 127.685 196.496 127.685 197.036V209.196C127.685 209.736 127.325 210.116 126.765 210.116ZM133.425 202.516L135.585 210.116H133.365L131.525 203.516H130.985V210.116H128.885V196.116H130.985V201.516H131.585L133.365 196.116H135.585L133.425 202.516Z" fill="white"/>
<path d="M53.4446 241.546H60.2626V250.982H59.0446V242.568H54.6626V250.982H53.4446V241.546ZM65.214 244.052C67.16 244.052 68.476 245.466 68.476 247.538C68.476 250.044 66.74 251.136 65.102 251.136C63.268 251.136 61.854 249.792 61.854 247.65C61.854 245.382 63.338 244.052 65.214 244.052ZM65.186 244.976C63.73 244.976 63.1 246.32 63.1 247.608C63.1 249.092 63.954 250.212 65.158 250.212C66.334 250.212 67.216 249.106 67.216 247.58C67.216 246.432 66.642 244.976 65.186 244.976ZM70.6599 244.206H75.1819V250.058L75.8819 250.072L75.8119 253.138H74.8459L74.7899 250.982H70.0999L70.0439 253.138H69.0779L69.0219 250.072L69.5959 250.058C69.8899 249.624 70.1139 249.162 70.2679 248.672C70.5339 247.832 70.6599 246.922 70.6599 245.97V244.206ZM71.7519 245.144V246.264C71.7519 247.16 71.6259 248.028 71.4019 248.784C71.2619 249.246 71.0659 249.666 70.8559 250.044H73.9779V245.144H71.7519ZM78.3435 244.206H82.8655V250.058L83.5655 250.072L83.4955 253.138H82.5295L82.4735 250.982H77.7835L77.7275 253.138H76.7615L76.7055 250.072L77.2795 250.058C77.5735 249.624 77.7975 249.162 77.9515 248.672C78.2175 247.832 78.3435 246.922 78.3435 245.97V244.206ZM79.4355 245.144V246.264C79.4355 247.16 79.3095 248.028 79.0855 248.784C78.9455 249.246 78.7495 249.666 78.5395 250.044H81.6615V245.144H79.4355ZM90.4307 247.818H85.6707C85.6987 249.484 86.7627 250.17 87.9947 250.17C88.8767 250.17 89.4087 250.016 89.8707 249.82L90.0807 250.702C89.6467 250.898 88.9047 251.122 87.8267 251.122C85.7407 251.122 84.4947 249.75 84.4947 247.706C84.4947 245.662 85.6987 244.052 87.6727 244.052C89.8847 244.052 90.4727 245.998 90.4727 247.244C90.4727 247.496 90.4447 247.692 90.4307 247.818ZM85.6847 246.936H89.2827C89.2967 246.152 88.9607 244.934 87.5747 244.934C86.3287 244.934 85.7827 246.082 85.6847 246.936ZM91.9983 253.754V246.418C91.9983 245.55 91.9703 244.85 91.9423 244.206H93.0483L93.1043 245.368H93.1323C93.6363 244.542 94.4343 244.052 95.5403 244.052C97.1783 244.052 98.4103 245.438 98.4103 247.496C98.4103 249.932 96.9263 251.136 95.3303 251.136C94.4343 251.136 93.6503 250.744 93.2443 250.072H93.2163V253.754H91.9983ZM93.2163 247.062V248.224C93.2163 248.406 93.2443 248.574 93.2723 248.728C93.4963 249.582 94.2383 250.17 95.1203 250.17C96.4223 250.17 97.1783 249.106 97.1783 247.552C97.1783 246.194 96.4643 245.032 95.1623 245.032C94.3223 245.032 93.5383 245.634 93.3003 246.558C93.2583 246.712 93.2163 246.894 93.2163 247.062ZM99.0196 244.206H100.434L102.674 247.16H102.926V244.206H104.102V247.16H104.34L106.58 244.206H107.994L105.32 247.286C106.342 247.398 106.944 248 107.35 249.078C107.588 249.736 107.812 250.45 108.092 250.982H106.86C106.636 250.576 106.44 250.016 106.244 249.428C105.824 248.322 105.194 247.986 104.312 247.986H104.102V250.982H102.926V247.986H102.702C101.75 247.986 101.176 248.336 100.756 249.442C100.532 250.03 100.35 250.562 100.112 250.982H98.9216C99.2016 250.436 99.4256 249.722 99.6636 249.092C100.084 248 100.686 247.398 101.708 247.286L99.0196 244.206ZM109.198 244.206H110.416V247.146H110.71L113.258 244.206H114.756L111.802 247.272C112.894 247.384 113.552 248.112 114.084 249.33C114.266 249.778 114.504 250.436 114.812 250.982H113.524C113.342 250.688 113.104 250.156 112.894 249.596C112.432 248.504 111.802 248 110.654 248H110.416V250.982H109.198V244.206ZM120.905 250.982H119.785L119.687 250.128H119.645C119.267 250.66 118.539 251.136 117.573 251.136C116.201 251.136 115.501 250.17 115.501 249.19C115.501 247.552 116.957 246.656 119.575 246.67V246.53C119.575 245.97 119.421 244.962 118.035 244.962C117.405 244.962 116.747 245.158 116.271 245.466L115.991 244.654C116.551 244.29 117.363 244.052 118.217 244.052C120.289 244.052 120.793 245.466 120.793 246.824V249.358C120.793 249.946 120.821 250.52 120.905 250.982ZM119.603 248.7V247.524C118.259 247.496 116.733 247.734 116.733 249.05C116.733 249.848 117.265 250.226 117.895 250.226C118.777 250.226 119.337 249.666 119.533 249.092C119.575 248.966 119.603 248.826 119.603 248.7ZM64.1545 258.052C66.1005 258.052 67.4165 259.466 67.4165 261.538C67.4165 264.044 65.6805 265.136 64.0425 265.136C62.2085 265.136 60.7945 263.792 60.7945 261.65C60.7945 259.382 62.2785 258.052 64.1545 258.052ZM64.1265 258.976C62.6705 258.976 62.0405 260.32 62.0405 261.608C62.0405 263.092 62.8945 264.212 64.0985 264.212C65.2745 264.212 66.1565 263.106 66.1565 261.58C66.1565 260.432 65.5825 258.976 64.1265 258.976ZM68.94 258.206H74.54V264.982H73.308V259.186H70.158V264.982H68.94V258.206ZM76.5143 258.206H77.7323V260.516C77.9983 260.46 78.3903 260.432 78.8383 260.432C80.2943 260.432 81.7643 261.034 81.7643 262.7C81.7643 263.414 81.4983 263.904 81.0643 264.268C80.3223 264.898 79.2303 265.052 78.3343 265.052C77.6483 265.052 77.0183 265.01 76.5143 264.954V258.206ZM77.7323 261.384V264.128C77.9703 264.156 78.2363 264.184 78.5863 264.184C79.5243 264.184 80.5463 263.792 80.5463 262.742C80.5463 261.65 79.5663 261.314 78.6423 261.314C78.2923 261.314 77.9843 261.342 77.7323 261.384ZM82.6183 258.206H83.8363V264.982H82.6183V258.206ZM84.9438 258.206H90.3898V259.186H88.2758V264.982H87.0578V259.186H84.9438V258.206ZM91.444 258.206H92.662V260.936H95.882V258.206H97.1V264.982H95.882V261.916H92.662V264.982H91.444V258.206ZM99.0865 258.206H100.305V260.516C100.571 260.46 100.963 260.432 101.411 260.432C102.867 260.432 104.337 261.034 104.337 262.7C104.337 263.414 104.071 263.904 103.637 264.268C102.895 264.898 101.803 265.052 100.907 265.052C100.221 265.052 99.5905 265.01 99.0865 264.954V258.206ZM100.305 261.384V264.128C100.543 264.156 100.809 264.184 101.159 264.184C102.097 264.184 103.119 263.792 103.119 262.742C103.119 261.65 102.139 261.314 101.215 261.314C100.865 261.314 100.557 261.342 100.305 261.384ZM105.191 258.206H106.409V264.982H105.191V258.206ZM107.627 258.206H108.999L109.965 259.662C110.217 260.04 110.427 260.39 110.651 260.768H110.693C110.917 260.362 111.141 260.012 111.365 259.648L112.317 258.206H113.647L111.337 261.482L113.717 264.982H112.317L111.323 263.456C111.057 263.064 110.833 262.686 110.595 262.28H110.567C110.343 262.686 110.105 263.05 109.853 263.456L108.873 264.982H107.515L109.923 261.524L107.627 258.206ZM49.6149 272.206H50.8329V274.936H54.0529V272.206H55.2709V278.982H54.0529V275.916H50.8329V278.982H49.6149V272.206ZM62.1574 278.982H61.0374L60.9394 278.128H60.8974C60.5194 278.66 59.7914 279.136 58.8254 279.136C57.4534 279.136 56.7534 278.17 56.7534 277.19C56.7534 275.552 58.2094 274.656 60.8274 274.67V274.53C60.8274 273.97 60.6734 272.962 59.2874 272.962C58.6574 272.962 57.9994 273.158 57.5234 273.466L57.2434 272.654C57.8034 272.29 58.6154 272.052 59.4694 272.052C61.5414 272.052 62.0454 273.466 62.0454 274.824V277.358C62.0454 277.946 62.0734 278.52 62.1574 278.982ZM60.8554 276.7V275.524C59.5114 275.496 57.9854 275.734 57.9854 277.05C57.9854 277.848 58.5174 278.226 59.1474 278.226C60.0294 278.226 60.5894 277.666 60.7854 277.092C60.8274 276.966 60.8554 276.826 60.8554 276.7ZM68.6593 277.806L68.8693 278.73C68.5473 278.898 67.8333 279.122 66.9233 279.122C64.8793 279.122 63.5493 277.736 63.5493 275.664C63.5493 273.578 64.9773 272.066 67.1893 272.066C67.9173 272.066 68.5613 272.248 68.8973 272.416L68.6173 273.368C68.3233 273.2 67.8613 273.046 67.1893 273.046C65.6353 273.046 64.7953 274.194 64.7953 275.608C64.7953 277.176 65.8033 278.142 67.1473 278.142C67.8473 278.142 68.3093 277.96 68.6593 277.806ZM69.6655 272.206H75.1115V273.186H72.9975V278.982H71.7795V273.186H69.6655V272.206ZM80.9699 278.982H79.8499L79.7519 278.128H79.7099C79.3319 278.66 78.6039 279.136 77.6379 279.136C76.2659 279.136 75.5659 278.17 75.5659 277.19C75.5659 275.552 77.0219 274.656 79.6399 274.67V274.53C79.6399 273.97 79.4859 272.962 78.0999 272.962C77.4699 272.962 76.8119 273.158 76.3359 273.466L76.0559 272.654C76.6159 272.29 77.4279 272.052 78.2819 272.052C80.3539 272.052 80.8579 273.466 80.8579 274.824V277.358C80.8579 277.946 80.8859 278.52 80.9699 278.982ZM79.6679 276.7V275.524C78.3239 275.496 76.7979 275.734 76.7979 277.05C76.7979 277.848 77.3299 278.226 77.9599 278.226C78.8419 278.226 79.4019 277.666 79.5979 277.092C79.6399 276.966 79.6679 276.826 79.6679 276.7ZM82.8238 278.982V272.29C83.2998 272.206 84.1818 272.136 84.9798 272.136C86.1138 272.136 87.9898 272.318 87.9898 273.83C87.9898 274.67 87.3458 275.188 86.5758 275.356V275.384C87.5698 275.524 88.2978 276.084 88.2978 277.064C88.2978 278.842 86.0578 279.066 84.7278 279.066C83.9718 279.066 83.1878 279.01 82.8238 278.982ZM83.9998 273.046V275.048H84.9238C85.8338 275.048 86.7718 274.782 86.7718 273.984C86.7718 273.312 86.1838 272.99 84.9518 272.99C84.5458 272.99 84.2938 273.018 83.9998 273.046ZM83.9858 275.86V278.17C84.3358 278.212 84.5878 278.226 84.9798 278.226C85.8058 278.226 87.0378 278.03 87.0378 277.05C87.0378 276.07 86.0578 275.86 84.8818 275.86H83.9858ZM89.8238 272.206H91.0418V274.936H94.2618V272.206H95.4798V278.982H94.2618V275.916H91.0418V278.982H89.8238V272.206ZM97.4664 272.206H98.6284V275.062C98.6284 276.14 98.6144 276.812 98.5584 277.778L98.6004 277.792C99.0064 276.966 99.2444 276.49 99.6924 275.706L101.806 272.206H103.248V278.982H102.072V276.112C102.072 275.006 102.1 274.432 102.156 273.34H102.114C101.68 274.208 101.386 274.754 100.994 275.44C100.35 276.49 99.6084 277.792 98.8804 278.982H97.4664V272.206ZM105.246 272.206H106.464V275.146H106.758L109.306 272.206H110.804L107.85 275.272C108.942 275.384 109.6 276.112 110.132 277.33C110.314 277.778 110.552 278.436 110.86 278.982H109.572C109.39 278.688 109.152 278.156 108.942 277.596C108.48 276.504 107.85 276 106.702 276H106.464V278.982H105.246V272.206ZM114.734 272.052C116.68 272.052 117.996 273.466 117.996 275.538C117.996 278.044 116.26 279.136 114.622 279.136C112.788 279.136 111.374 277.792 111.374 275.65C111.374 273.382 112.858 272.052 114.734 272.052ZM114.706 272.976C113.25 272.976 112.62 274.32 112.62 275.608C112.62 277.092 113.474 278.212 114.678 278.212C115.854 278.212 116.736 277.106 116.736 275.58C116.736 274.432 116.162 272.976 114.706 272.976ZM119.519 278.982V272.29C119.995 272.206 120.877 272.136 121.675 272.136C122.809 272.136 124.685 272.318 124.685 273.83C124.685 274.67 124.041 275.188 123.271 275.356V275.384C124.265 275.524 124.993 276.084 124.993 277.064C124.993 278.842 122.753 279.066 121.423 279.066C120.667 279.066 119.883 279.01 119.519 278.982ZM120.695 273.046V275.048H121.619C122.529 275.048 123.467 274.782 123.467 273.984C123.467 273.312 122.879 272.99 121.647 272.99C121.241 272.99 120.989 273.018 120.695 273.046ZM120.681 275.86V278.17C121.031 278.212 121.283 278.226 121.675 278.226C122.501 278.226 123.733 278.03 123.733 277.05C123.733 276.07 122.753 275.86 121.577 275.86H120.681Z" fill="white"/>
<rect width="164.51" height="158.835" transform="matrix(0.995496 0.0948003 -0.0950181 0.995476 179.092 153.235)" fill="white"/>
<path d="M196.638 208H192.778C192.218 208 191.858 207.62 191.858 207.08V203.4H193.958V206H195.458V201.04H193.358V199.18L195.258 196H191.958V194H197.458V195.8L195.538 199.04H196.638C197.198 199.04 197.558 199.42 197.558 199.96V207.08C197.558 207.62 197.198 208 196.638 208ZM200.852 206H202.352V196H200.852V206ZM203.532 208H199.672C199.112 208 198.752 207.62 198.752 207.08V194.92C198.752 194.38 199.112 194 199.672 194H203.532C204.092 194 204.452 194.38 204.452 194.92V207.08C204.452 207.62 204.092 208 203.532 208ZM207.747 206H209.247V196H207.747V206ZM210.427 208H206.567C206.007 208 205.647 207.62 205.647 207.08V194.92C205.647 194.38 206.007 194 206.567 194H210.427C210.987 194 211.347 194.38 211.347 194.92V207.08C211.347 207.62 210.987 208 210.427 208ZM218.04 206H219.54V196H218.04V206ZM220.72 208H216.86C216.3 208 215.94 207.62 215.94 207.08V194.92C215.94 194.38 216.3 194 216.86 194H220.72C221.28 194 221.64 194.38 221.64 194.92V207.08C221.64 207.62 221.28 208 220.72 208ZM224.934 206H226.434V196H224.934V206ZM227.614 208H223.754C223.194 208 222.834 207.62 222.834 207.08V194.92C222.834 194.38 223.194 194 223.754 194H227.614C228.174 194 228.534 194.38 228.534 194.92V207.08C228.534 207.62 228.174 208 227.614 208ZM231.829 206H233.329V196H231.829V206ZM234.509 208H230.649C230.089 208 229.729 207.62 229.729 207.08V194.92C229.729 194.38 230.089 194 230.649 194H234.509C235.069 194 235.429 194.38 235.429 194.92V207.08C235.429 207.62 235.069 208 234.509 208ZM246.622 194L244.342 208H241.502V206H242.582L243.002 203.4H241.502L239.522 194H241.662L243.222 201.4H243.322L244.542 194H246.622ZM247.227 202.48V194H249.327V201.4H251.327V194H253.427V208H251.327V203.4H248.147C247.587 203.4 247.227 203.02 247.227 202.48ZM254.631 194H260.831V208H258.731V203.4H256.731V208H254.631V194ZM258.731 201.4V196H256.731V201.4H258.731ZM268.134 208H262.954C262.394 208 262.034 207.62 262.034 207.08V194.92C262.034 194.38 262.394 194 262.954 194H268.134V198H266.034V196H264.134V206H266.034V203.4H268.134V208ZM268.841 196V194H274.941V196H272.941V208H270.841V196H268.841ZM280.145 194H282.245V208H280.145V201.4H277.845V208H275.745V194H277.845V199.4H280.145V194ZM289.94 208H287.84V200.16L285.54 204.98V208H283.44V194H285.54V201.12L287.84 196.3V194H289.94V208ZM295.675 200.4L297.835 208H295.615L293.775 201.4H293.235V208H291.135V194H293.235V199.4H293.835L295.615 194H297.835L295.675 200.4ZM300.638 206H302.738V196H300.638V206ZM303.918 208H299.458C298.898 208 298.538 207.62 298.538 207.08V194.92C298.538 194.38 298.898 194 299.458 194H303.918C304.478 194 304.838 194.38 304.838 194.92V207.08C304.838 207.62 304.478 208 303.918 208ZM310.038 199.4V196H308.138V199.4H310.038ZM310.038 201.4H308.138V206H310.038V201.4ZM312.138 194.92V198.84C312.138 199.64 311.718 200.18 311.098 200.4C311.718 200.62 312.138 201.14 312.138 201.96V207.08C312.138 207.62 311.778 208 311.218 208H306.038V194H311.218C311.778 194 312.138 194.38 312.138 194.92Z" fill="#3D348A"/>
<path d="M223.814 241.41C226.39 241.41 228.056 243.384 228.056 246.184C228.056 249.432 226.082 251.154 223.674 251.154C221.182 251.154 219.432 249.222 219.432 246.366C219.432 243.37 221.294 241.41 223.814 241.41ZM223.758 242.404C221.742 242.404 220.734 244.266 220.734 246.338C220.734 248.354 221.826 250.16 223.744 250.16C225.676 250.16 226.768 248.382 226.768 246.24C226.768 244.364 225.788 242.404 223.758 242.404ZM234.782 240.906L234.726 241.928C234.376 242.054 233.76 242.166 233.312 242.236C232.22 242.404 231.422 242.768 230.904 243.51C230.47 244.126 230.218 245.036 230.162 245.75H230.204C230.638 244.77 231.59 244.224 232.556 244.224C234.222 244.224 235.44 245.414 235.44 247.57C235.44 249.782 234.292 251.154 232.304 251.154C229.924 251.154 229.14 248.872 229.14 246.618C229.14 245.078 229.462 243.818 230.19 242.866C230.848 241.928 231.786 241.494 233.102 241.27C233.648 241.186 234.32 241.074 234.782 240.906ZM234.194 247.668C234.194 246.562 233.76 245.134 232.304 245.134C231.576 245.134 231.058 245.512 230.778 246.058C230.554 246.464 230.442 246.954 230.442 247.5C230.442 248.62 230.988 250.23 232.332 250.23C233.69 250.23 234.194 248.914 234.194 247.668ZM236.971 244.224H238.175V250.034H240.541V244.224H241.745V250.034H244.111V244.224H245.329V250.076L246.015 250.09L245.945 253.156H244.993L244.937 251H236.971V244.224ZM252.876 247.836H248.116C248.144 249.502 249.208 250.188 250.44 250.188C251.322 250.188 251.854 250.034 252.316 249.838L252.526 250.72C252.092 250.916 251.35 251.14 250.272 251.14C248.186 251.14 246.94 249.768 246.94 247.724C246.94 245.68 248.144 244.07 250.118 244.07C252.33 244.07 252.918 246.016 252.918 247.262C252.918 247.514 252.89 247.71 252.876 247.836ZM248.13 246.954H251.728C251.742 246.17 251.406 244.952 250.02 244.952C248.774 244.952 248.228 246.1 248.13 246.954ZM254.416 244.224H255.634V246.954H258.854V244.224H260.072V251H258.854V247.934H255.634V251H254.416V244.224ZM262.058 244.224H263.22V247.08C263.22 248.158 263.206 248.83 263.15 249.796L263.192 249.81C263.598 248.984 263.836 248.508 264.284 247.724L266.398 244.224H267.84V251H266.664V248.13C266.664 247.024 266.692 246.45 266.748 245.358H266.706C266.272 246.226 265.978 246.772 265.586 247.458C264.942 248.508 264.2 249.81 263.472 251H262.058V244.224ZM275.284 247.836H270.524C270.552 249.502 271.616 250.188 272.848 250.188C273.73 250.188 274.262 250.034 274.724 249.838L274.934 250.72C274.5 250.916 273.758 251.14 272.68 251.14C270.594 251.14 269.348 249.768 269.348 247.724C269.348 245.68 270.552 244.07 272.526 244.07C274.738 244.07 275.326 246.016 275.326 247.262C275.326 247.514 275.298 247.71 275.284 247.836ZM270.538 246.954H274.136C274.15 246.17 273.814 244.952 272.428 244.952C271.182 244.952 270.636 246.1 270.538 246.954ZM284.439 249.824L284.649 250.748C284.327 250.916 283.613 251.14 282.703 251.14C280.659 251.14 279.329 249.754 279.329 247.682C279.329 245.596 280.757 244.084 282.969 244.084C283.697 244.084 284.341 244.266 284.677 244.434L284.397 245.386C284.103 245.218 283.641 245.064 282.969 245.064C281.415 245.064 280.575 246.212 280.575 247.626C280.575 249.194 281.583 250.16 282.927 250.16C283.627 250.16 284.089 249.978 284.439 249.824ZM191.654 261.836H186.894C186.922 263.502 187.986 264.188 189.218 264.188C190.1 264.188 190.632 264.034 191.094 263.838L191.304 264.72C190.87 264.916 190.128 265.14 189.05 265.14C186.964 265.14 185.718 263.768 185.718 261.724C185.718 259.68 186.922 258.07 188.896 258.07C191.108 258.07 191.696 260.016 191.696 261.262C191.696 261.514 191.668 261.71 191.654 261.836ZM186.908 260.954H190.506C190.52 260.17 190.184 258.952 188.798 258.952C187.552 258.952 187.006 260.1 186.908 260.954ZM193.99 258.224H198.512V264.076L199.212 264.09L199.142 267.156H198.176L198.12 265H193.43L193.374 267.156H192.408L192.352 264.09L192.926 264.076C193.22 263.642 193.444 263.18 193.598 262.69C193.864 261.85 193.99 260.94 193.99 259.988V258.224ZM195.082 259.162V260.282C195.082 261.178 194.956 262.046 194.732 262.802C194.592 263.264 194.396 263.684 194.186 264.062H197.308V259.162H195.082ZM200.658 258.224H201.82V261.08C201.82 262.158 201.806 262.83 201.75 263.796L201.792 263.81C202.198 262.984 202.436 262.508 202.884 261.724L204.998 258.224H206.44V265H205.264V262.13C205.264 261.024 205.292 260.45 205.348 259.358H205.306C204.872 260.226 204.578 260.772 204.186 261.458C203.542 262.508 202.8 263.81 202.072 265H200.658V258.224ZM208.41 258.224H209.628V260.954H212.848V258.224H214.066V265H212.848V261.934H209.628V265H208.41V258.224ZM218.951 258.07C220.897 258.07 222.213 259.484 222.213 261.556C222.213 264.062 220.477 265.154 218.839 265.154C217.005 265.154 215.591 263.81 215.591 261.668C215.591 259.4 217.075 258.07 218.951 258.07ZM218.923 258.994C217.467 258.994 216.837 260.338 216.837 261.626C216.837 263.11 217.691 264.23 218.895 264.23C220.071 264.23 220.953 263.124 220.953 261.598C220.953 260.45 220.379 258.994 218.923 258.994ZM223.33 265L223.834 258.224H225.346L226.578 261.64C226.746 262.144 227.04 262.97 227.194 263.502H227.222C227.376 262.998 227.754 261.92 228.02 261.178L229.112 258.224H230.638L231.114 265H229.938L229.784 261.766C229.742 261.038 229.686 260.17 229.658 259.344H229.616C229.434 259.96 229.252 260.506 228.874 261.542L227.572 264.958H226.676L225.472 261.612C225.262 260.968 224.968 259.988 224.8 259.358H224.744C224.716 260.156 224.674 261.052 224.632 261.794L224.464 265H223.33ZM232.678 258.224H233.896V260.534C234.162 260.478 234.554 260.45 235.002 260.45C236.458 260.45 237.928 261.052 237.928 262.718C237.928 263.432 237.662 263.922 237.228 264.286C236.486 264.916 235.394 265.07 234.498 265.07C233.812 265.07 233.182 265.028 232.678 264.972V258.224ZM233.896 261.402V264.146C234.134 264.174 234.4 264.202 234.75 264.202C235.688 264.202 236.71 263.81 236.71 262.76C236.71 261.668 235.73 261.332 234.806 261.332C234.456 261.332 234.148 261.36 233.896 261.402ZM238.782 258.224H240V265H238.782V258.224ZM241.988 258.224H243.192V264.034H245.558V258.224H246.762V264.034H249.128V258.224H250.346V265H241.988V258.224ZM252.785 258.224H257.489V265H256.271V259.19H253.947V260.954C253.947 262.858 253.765 264.132 252.883 264.706C252.547 264.972 252.169 265.126 251.539 265.126L251.413 264.16C251.651 264.118 251.917 264.02 252.085 263.88C252.715 263.418 252.785 262.466 252.785 260.954V258.224ZM264.948 261.836H260.188C260.216 263.502 261.28 264.188 262.512 264.188C263.394 264.188 263.926 264.034 264.388 263.838L264.598 264.72C264.164 264.916 263.422 265.14 262.344 265.14C260.258 265.14 259.012 263.768 259.012 261.724C259.012 259.68 260.216 258.07 262.19 258.07C264.402 258.07 264.99 260.016 264.99 261.262C264.99 261.514 264.962 261.71 264.948 261.836ZM260.202 260.954H263.8C263.814 260.17 263.478 258.952 262.092 258.952C260.846 258.952 260.3 260.1 260.202 260.954ZM266.488 258.224H267.706V260.954H270.926V258.224H272.144V265H270.926V261.934H267.706V265H266.488V258.224ZM274.131 258.224H275.349V260.954H278.569V258.224H279.787V265H278.569V261.934H275.349V265H274.131V258.224ZM281.773 258.224H282.935V261.08C282.935 262.158 282.921 262.83 282.865 263.796L282.907 263.81C283.313 262.984 283.551 262.508 283.999 261.724L286.113 258.224H287.555V265H286.379V262.13C286.379 261.024 286.407 260.45 286.463 259.358H286.421C285.987 260.226 285.693 260.772 285.301 261.458C284.657 262.508 283.915 263.81 283.187 265H281.773V258.224ZM289.553 258.224H290.771V261.164H291.065L293.613 258.224H295.111L292.157 261.29C293.249 261.402 293.907 262.13 294.439 263.348C294.621 263.796 294.859 264.454 295.167 265H293.879C293.697 264.706 293.459 264.174 293.249 263.614C292.787 262.522 292.157 262.018 291.009 262.018H290.771V265H289.553V258.224ZM301.261 265H300.141L300.043 264.146H300.001C299.623 264.678 298.895 265.154 297.929 265.154C296.557 265.154 295.857 264.188 295.857 263.208C295.857 261.57 297.313 260.674 299.931 260.688V260.548C299.931 259.988 299.777 258.98 298.391 258.98C297.761 258.98 297.103 259.176 296.627 259.484L296.347 258.672C296.907 258.308 297.719 258.07 298.573 258.07C300.645 258.07 301.149 259.484 301.149 260.842V263.376C301.149 263.964 301.177 264.538 301.261 265ZM299.959 262.718V261.542C298.615 261.514 297.089 261.752 297.089 263.068C297.089 263.866 297.621 264.244 298.251 264.244C299.133 264.244 299.693 263.684 299.889 263.11C299.931 262.984 299.959 262.844 299.959 262.718ZM302.709 265L303.213 258.224H304.725L305.957 261.64C306.125 262.144 306.419 262.97 306.573 263.502H306.601C306.755 262.998 307.133 261.92 307.399 261.178L308.491 258.224H310.017L310.493 265H309.317L309.163 261.766C309.121 261.038 309.065 260.17 309.037 259.344H308.995C308.813 259.96 308.631 260.506 308.253 261.542L306.951 264.958H306.055L304.851 261.612C304.641 260.968 304.347 259.988 304.179 259.358H304.123C304.095 260.156 304.053 261.052 304.011 261.794L303.843 265H302.709ZM312.057 258.224H313.219V261.08C313.219 262.158 313.205 262.83 313.149 263.796L313.191 263.81C313.597 262.984 313.835 262.508 314.283 261.724L316.397 258.224H317.839V265H316.663V262.13C316.663 261.024 316.691 260.45 316.747 259.358H316.705C316.271 260.226 315.977 260.772 315.585 261.458C314.941 262.508 314.199 263.81 313.471 265H312.057V258.224Z" fill="#3D348A"/>
<defs>
<clipPath id="clip0_2001_2">
<rect width="180.86" height="175.295" fill="white" transform="translate(162.14)"/>
</clipPath>
</defs>
</svg>
