<svg width="344" height="331" viewBox="0 0 344 331" fill="none" xmlns="http://www.w3.org/2000/svg">
<rect width="164.51" height="158.835" transform="matrix(0.995496 0.0948003 -0.0950181 0.995476 16.0922 0.234863)" fill="white"/>
<path d="M46.6739 52.3875H48.2539V42.3875H47.3539L46.6739 52.3875ZM45.3739 40.3875H50.3539V52.3875H51.0539V56.2275H48.9539V54.3875H45.8539V56.2275H43.7539V52.3875H44.5539L45.3739 40.3875ZM51.8516 54.3875V40.3875H57.0516V42.3875H53.9516V45.7875H56.9516V47.7875H53.9516V52.3875H57.0516V54.3875H51.8516ZM64.2602 54.3875H59.0802C58.5202 54.3875 58.1602 54.0075 58.1602 53.4675V41.3075C58.1602 40.7675 58.5202 40.3875 59.0802 40.3875H64.2602V44.3875H62.1602V42.3875H60.2602V52.3875H62.1602V49.7875H64.2602V54.3875ZM67.1872 54.3875H64.9672L67.0272 47.7875H66.3872C65.8272 47.7875 65.4672 47.4075 65.4672 46.8675V41.3075C65.4672 40.7675 65.8272 40.3875 66.3872 40.3875H71.5672V54.3875H69.4672V47.7875H69.2672L67.1872 54.3875ZM69.4672 45.7875V42.3875H67.5672V45.7875H69.4672ZM72.3696 42.3875V40.3875H78.4696V42.3875H76.4696V54.3875H74.3696V42.3875H72.3696ZM83.8135 46.7875L85.9735 54.3875H83.7535L81.9135 47.7875H81.3735V54.3875H79.2735V40.3875H81.3735V45.7875H81.9735L83.7535 40.3875H85.9735L83.8135 46.7875ZM93.1758 54.3875H91.0758V46.5475L88.7758 51.3675V54.3875H86.6758V40.3875H88.7758V47.5075L91.0758 42.6875V40.3875H93.1758V54.3875ZM101.77 45.7875V42.3875H99.8696V45.7875H101.77ZM101.77 47.7875H99.8696V52.3875H101.77V47.7875ZM103.87 41.3075V45.2275C103.87 46.0275 103.45 46.5675 102.83 46.7875C103.45 47.0075 103.87 47.5275 103.87 48.3475V53.4675C103.87 54.0075 103.51 54.3875 102.95 54.3875H97.7696V40.3875H102.95C103.51 40.3875 103.87 40.7675 103.87 41.3075ZM111.574 54.3875H109.474V46.5475L107.174 51.3675V54.3875H105.074V40.3875H107.174V47.5075L109.474 42.6875V40.3875H111.574V54.3875ZM115.19 52.3875H116.77V42.3875H115.87L115.19 52.3875ZM113.89 40.3875H118.87V52.3875H119.57V56.2275H117.47V54.3875H114.37V56.2275H112.27V52.3875H113.07L113.89 40.3875ZM122.467 52.3875H124.567V42.3875H122.467V52.3875ZM125.747 54.3875H121.287C120.727 54.3875 120.367 54.0075 120.367 53.4675V41.3075C120.367 40.7675 120.727 40.3875 121.287 40.3875H125.747C126.307 40.3875 126.667 40.7675 126.667 41.3075V53.4675C126.667 54.0075 126.307 54.3875 125.747 54.3875ZM131.867 45.7875V42.3875H129.967V45.7875H131.867ZM131.867 47.7875H129.967V52.3875H131.867V47.7875ZM133.967 41.3075V45.2275C133.967 46.0275 133.547 46.5675 132.927 46.7875C133.547 47.0075 133.967 47.5275 133.967 48.3475V53.4675C133.967 54.0075 133.607 54.3875 133.047 54.3875H127.867V40.3875H133.047C133.607 40.3875 133.967 40.7675 133.967 41.3075ZM74.0551 74.3875H68.8751C68.3151 74.3875 67.9551 74.0075 67.9551 73.4675V61.3075C67.9551 60.7675 68.3151 60.3875 68.8751 60.3875H74.0551V64.3875H71.9551V62.3875H70.0551V72.3875H71.9551V69.7875H74.0551V74.3875ZM75.1621 60.3875H81.5621V74.3875H79.4621V62.3875H77.2621V74.3875H75.1621V60.3875ZM84.8598 72.3875H86.9598V62.3875H84.8598V72.3875ZM88.1398 74.3875H83.6798C83.1198 74.3875 82.7598 74.0075 82.7598 73.4675V61.3075C82.7598 60.7675 83.1198 60.3875 83.6798 60.3875H88.1398C88.6998 60.3875 89.0598 60.7675 89.0598 61.3075V73.4675C89.0598 74.0075 88.6998 74.3875 88.1398 74.3875ZM92.3598 62.3875V67.7875H94.3598V62.3875H92.3598ZM95.5398 69.7875H92.3598V74.3875H90.2598V60.3875H95.5398C96.0998 60.3875 96.4598 60.7675 96.4598 61.3075V68.8675C96.4598 69.4075 96.0998 69.7875 95.5398 69.7875ZM97.1645 62.3875V60.3875H103.264V62.3875H101.264V74.3875H99.1645V62.3875H97.1645ZM104.068 60.3875H110.268V74.3875H108.168V69.7875H106.168V74.3875H104.068V60.3875ZM108.168 67.7875V62.3875H106.168V67.7875H108.168Z" fill="#3D348A"/>
<path d="M59.4324 99.564H64.7104V108.006L65.5364 108.034L65.4524 111.268H64.5004L64.4164 109H58.4664L58.3824 111.268H57.4304L57.3464 108.034L58.0604 108.006C58.4104 107.362 58.7604 106.676 58.9844 105.934C59.3064 104.842 59.4324 103.582 59.4324 101.958V99.564ZM60.5664 100.572V102.35C60.5664 103.862 60.4264 105.136 60.0904 106.2C59.8944 106.858 59.6004 107.488 59.3204 107.992H63.4924V100.572H60.5664ZM67.6021 102.224H72.3061V109H71.0881V103.19H68.7641V104.954C68.7641 106.858 68.5821 108.132 67.7001 108.706C67.3641 108.972 66.9861 109.126 66.3561 109.126L66.2301 108.16C66.4681 108.118 66.7341 108.02 66.9021 107.88C67.5321 107.418 67.6021 106.466 67.6021 104.954V102.224ZM79.3165 102.28V109H78.0985V106.158H77.1885C76.6705 106.158 76.3205 106.298 76.0545 106.536C75.5505 106.942 75.3685 107.782 75.1025 108.44C75.0185 108.65 74.9205 108.832 74.8225 109H73.5065C73.6605 108.776 73.8005 108.524 73.9265 108.23C74.2205 107.572 74.3885 106.69 74.9905 106.186C75.2005 106.004 75.4525 105.85 75.7605 105.794V105.752C74.8785 105.654 73.9685 105.108 73.9685 104.072C73.9685 103.372 74.3465 102.896 74.8645 102.602C75.4245 102.28 76.2505 102.14 77.1325 102.14C77.9445 102.14 78.7285 102.21 79.3165 102.28ZM78.0985 105.318V103.036C77.7905 102.994 77.5105 102.966 77.0765 102.966C76.2365 102.966 75.2425 103.204 75.2425 104.142C75.2425 105.01 76.3205 105.318 77.0485 105.318C77.5525 105.318 77.8185 105.318 78.0985 105.318ZM85.0146 102.224H89.5366V108.076L90.2366 108.09L90.1666 111.156H89.2006L89.1446 109H84.4546L84.3986 111.156H83.4326L83.3766 108.09L83.9506 108.076C84.2446 107.642 84.4686 107.18 84.6226 106.69C84.8886 105.85 85.0146 104.94 85.0146 103.988V102.224ZM86.1066 103.162V104.282C86.1066 105.178 85.9806 106.046 85.7566 106.802C85.6166 107.264 85.4206 107.684 85.2106 108.062H88.3326V103.162H86.1066ZM97.1018 105.836H92.3418C92.3698 107.502 93.4338 108.188 94.6658 108.188C95.5478 108.188 96.0798 108.034 96.5418 107.838L96.7518 108.72C96.3178 108.916 95.5758 109.14 94.4978 109.14C92.4118 109.14 91.1658 107.768 91.1658 105.724C91.1658 103.68 92.3698 102.07 94.3438 102.07C96.5558 102.07 97.1438 104.016 97.1438 105.262C97.1438 105.514 97.1158 105.71 97.1018 105.836ZM92.3558 104.954H95.9538C95.9678 104.17 95.6318 102.952 94.2458 102.952C92.9998 102.952 92.4538 104.1 92.3558 104.954ZM97.7468 102.224H103.193V103.204H101.079V109H99.8608V103.204H97.7468V102.224ZM109.543 105.836H104.783C104.811 107.502 105.875 108.188 107.107 108.188C107.989 108.188 108.521 108.034 108.983 107.838L109.193 108.72C108.759 108.916 108.017 109.14 106.939 109.14C104.853 109.14 103.607 107.768 103.607 105.724C103.607 103.68 104.811 102.07 106.785 102.07C108.997 102.07 109.585 104.016 109.585 105.262C109.585 105.514 109.557 105.71 109.543 105.836ZM104.797 104.954H108.395C108.409 104.17 108.073 102.952 106.687 102.952C105.441 102.952 104.895 104.1 104.797 104.954ZM111.083 102.224H112.245V105.08C112.245 106.158 112.231 106.83 112.175 107.796L112.217 107.81C112.623 106.984 112.861 106.508 113.309 105.724L115.423 102.224H116.865V109H115.689V106.13C115.689 105.024 115.717 104.45 115.773 103.358H115.731C115.297 104.226 115.003 104.772 114.611 105.458C113.967 106.508 113.225 107.81 112.497 109H111.083V102.224ZM112.147 99.466H113.043C113.085 100.068 113.379 100.53 113.939 100.53C114.541 100.53 114.821 100.082 114.891 99.466H115.773C115.717 100.614 114.989 101.202 113.911 101.202C112.679 101.202 112.203 100.432 112.147 99.466ZM23.412 116.224H24.574V119.08C24.574 120.158 24.56 120.83 24.504 121.796L24.546 121.81C24.952 120.984 25.19 120.508 25.638 119.724L27.752 116.224H29.194V123H28.018V120.13C28.018 119.024 28.046 118.45 28.102 117.358H28.06C27.626 118.226 27.332 118.772 26.94 119.458C26.296 120.508 25.554 121.81 24.826 123H23.412V116.224ZM34.1307 123V116.308C34.6067 116.224 35.4887 116.154 36.2867 116.154C37.4207 116.154 39.2967 116.336 39.2967 117.848C39.2967 118.688 38.6527 119.206 37.8827 119.374V119.402C38.8767 119.542 39.6047 120.102 39.6047 121.082C39.6047 122.86 37.3647 123.084 36.0347 123.084C35.2787 123.084 34.4947 123.028 34.1307 123ZM35.3067 117.064V119.066H36.2307C37.1407 119.066 38.0787 118.8 38.0787 118.002C38.0787 117.33 37.4907 117.008 36.2587 117.008C35.8527 117.008 35.6007 117.036 35.3067 117.064ZM35.2927 119.878V122.188C35.6427 122.23 35.8947 122.244 36.2867 122.244C37.1127 122.244 38.3447 122.048 38.3447 121.068C38.3447 120.088 37.3647 119.878 36.1887 119.878H35.2927ZM41.7187 119.906V119.066H42.3067C43.3427 119.066 44.0427 118.59 44.0427 117.96C44.0427 117.358 43.4967 116.98 42.7267 116.98C42.1807 116.98 41.5647 117.162 41.0887 117.456L40.7807 116.7C41.4667 116.28 42.2507 116.084 43.0347 116.084C44.0707 116.084 45.3307 116.546 45.3307 117.862C45.3307 118.702 44.5607 119.248 43.8047 119.402V119.43C44.8127 119.514 45.6527 120.13 45.6527 121.124C45.6527 122.594 44.1547 123.14 42.7267 123.14C41.9287 123.14 41.1307 122.93 40.5287 122.594L40.8507 121.768C41.3407 122.034 41.9987 122.23 42.6427 122.23C43.6647 122.23 44.3087 121.74 44.3087 121.068C44.3087 120.158 43.3567 119.906 42.3347 119.906H41.7187ZM47.188 125.772V118.436C47.188 117.568 47.16 116.868 47.132 116.224H48.238L48.294 117.386H48.322C48.826 116.56 49.624 116.07 50.73 116.07C52.368 116.07 53.6 117.456 53.6 119.514C53.6 121.95 52.116 123.154 50.52 123.154C49.624 123.154 48.84 122.762 48.434 122.09H48.406V125.772H47.188ZM48.406 119.08V120.242C48.406 120.424 48.434 120.592 48.462 120.746C48.686 121.6 49.428 122.188 50.31 122.188C51.612 122.188 52.368 121.124 52.368 119.57C52.368 118.212 51.654 117.05 50.352 117.05C49.512 117.05 48.728 117.652 48.49 118.576C48.448 118.73 48.406 118.912 48.406 119.08ZM58.0287 116.07C59.9747 116.07 61.2907 117.484 61.2907 119.556C61.2907 122.062 59.5547 123.154 57.9167 123.154C56.0827 123.154 54.6687 121.81 54.6687 119.668C54.6687 117.4 56.1527 116.07 58.0287 116.07ZM58.0007 116.994C56.5447 116.994 55.9147 118.338 55.9147 119.626C55.9147 121.11 56.7687 122.23 57.9727 122.23C59.1487 122.23 60.0307 121.124 60.0307 119.598C60.0307 118.45 59.4567 116.994 58.0007 116.994ZM67.4623 121.824L67.6723 122.748C67.3503 122.916 66.6363 123.14 65.7263 123.14C63.6823 123.14 62.3523 121.754 62.3523 119.682C62.3523 117.596 63.7803 116.084 65.9923 116.084C66.7203 116.084 67.3643 116.266 67.7003 116.434L67.4203 117.386C67.1263 117.218 66.6643 117.064 65.9923 117.064C64.4383 117.064 63.5983 118.212 63.5983 119.626C63.5983 121.194 64.6063 122.16 65.9503 122.16C66.6503 122.16 67.1123 121.978 67.4623 121.824ZM69.7965 116.224H74.5005V123H73.2825V117.19H70.9585V118.954C70.9585 120.858 70.7765 122.132 69.8945 122.706C69.5585 122.972 69.1805 123.126 68.5505 123.126L68.4245 122.16C68.6625 122.118 68.9285 122.02 69.0965 121.88C69.7265 121.418 69.7965 120.466 69.7965 118.954V116.224ZM76.4862 116.224H77.7042V118.534C77.9702 118.478 78.3622 118.45 78.8102 118.45C80.2662 118.45 81.7362 119.052 81.7362 120.718C81.7362 121.432 81.4702 121.922 81.0362 122.286C80.2942 122.916 79.2022 123.07 78.3062 123.07C77.6202 123.07 76.9902 123.028 76.4862 122.972V116.224ZM77.7042 119.402V122.146C77.9422 122.174 78.2082 122.202 78.5582 122.202C79.4962 122.202 80.5182 121.81 80.5182 120.76C80.5182 119.668 79.5382 119.332 78.6142 119.332C78.2642 119.332 77.9562 119.36 77.7042 119.402ZM82.5902 116.224H83.8082V123H82.5902V116.224ZM85.0267 116.224H86.3987L87.3647 117.68C87.6167 118.058 87.8267 118.408 88.0507 118.786H88.0927C88.3167 118.38 88.5407 118.03 88.7647 117.666L89.7167 116.224H91.0467L88.7367 119.5L91.1167 123H89.7167L88.7227 121.474C88.4567 121.082 88.2327 120.704 87.9947 120.298H87.9667C87.7427 120.704 87.5047 121.068 87.2527 121.474L86.2727 123H84.9147L87.3227 119.542L85.0267 116.224ZM92.3892 124.638L91.5072 124.722C91.8152 123.896 92.1932 122.398 92.3472 121.376L93.7192 121.236C93.3972 122.426 92.7812 123.98 92.3892 124.638ZM98.1424 116.224H99.3604V118.954H102.58V116.224H103.798V123H102.58V119.934H99.3604V123H98.1424V116.224ZM108.683 116.07C110.629 116.07 111.945 117.484 111.945 119.556C111.945 122.062 110.209 123.154 108.571 123.154C106.737 123.154 105.323 121.81 105.323 119.668C105.323 117.4 106.807 116.07 108.683 116.07ZM108.655 116.994C107.199 116.994 106.569 118.338 106.569 119.626C106.569 121.11 107.423 122.23 108.627 122.23C109.803 122.23 110.685 121.124 110.685 119.598C110.685 118.45 110.111 116.994 108.655 116.994ZM113.469 123V116.308C113.945 116.224 114.827 116.154 115.625 116.154C116.759 116.154 118.635 116.336 118.635 117.848C118.635 118.688 117.991 119.206 117.221 119.374V119.402C118.215 119.542 118.943 120.102 118.943 121.082C118.943 122.86 116.703 123.084 115.373 123.084C114.617 123.084 113.833 123.028 113.469 123ZM114.645 117.064V119.066H115.569C116.479 119.066 117.417 118.8 117.417 118.002C117.417 117.33 116.829 117.008 115.597 117.008C115.191 117.008 114.939 117.036 114.645 117.064ZM114.631 119.878V122.188C114.981 122.23 115.233 122.244 115.625 122.244C116.451 122.244 117.683 122.048 117.683 121.068C117.683 120.088 116.703 119.878 115.527 119.878H114.631ZM120.469 116.224H121.631V119.08C121.631 120.158 121.617 120.83 121.561 121.796L121.603 121.81C122.009 120.984 122.247 120.508 122.695 119.724L124.809 116.224H126.251V123H125.075V120.13C125.075 119.024 125.103 118.45 125.159 117.358H125.117C124.683 118.226 124.389 118.772 123.997 119.458C123.353 120.508 122.611 121.81 121.883 123H120.469V116.224ZM127.986 116.224H129.218V118.45C129.218 119.304 129.54 119.892 130.618 119.892C131.15 119.892 131.696 119.696 132.074 119.416V116.224H133.292V123H132.074V120.284H132.046C131.584 120.592 130.856 120.802 130.212 120.802C128.924 120.802 127.986 120.144 127.986 118.59V116.224ZM135.303 116.224H136.521V119.164H136.815L139.363 116.224H140.861L137.907 119.29C138.999 119.402 139.657 120.13 140.189 121.348C140.371 121.796 140.609 122.454 140.917 123H139.629C139.447 122.706 139.209 122.174 138.999 121.614C138.537 120.522 137.907 120.018 136.759 120.018H136.521V123H135.303V116.224ZM144.79 116.07C146.736 116.07 148.052 117.484 148.052 119.556C148.052 122.062 146.316 123.154 144.678 123.154C142.844 123.154 141.43 121.81 141.43 119.668C141.43 117.4 142.914 116.07 144.79 116.07ZM144.762 116.994C143.306 116.994 142.676 118.338 142.676 119.626C142.676 121.11 143.53 122.23 144.734 122.23C145.91 122.23 146.792 121.124 146.792 119.598C146.792 118.45 146.218 116.994 144.762 116.994ZM149.576 123V116.308C150.052 116.224 150.934 116.154 151.732 116.154C152.866 116.154 154.742 116.336 154.742 117.848C154.742 118.688 154.098 119.206 153.328 119.374V119.402C154.322 119.542 155.05 120.102 155.05 121.082C155.05 122.86 152.81 123.084 151.48 123.084C150.724 123.084 149.94 123.028 149.576 123ZM150.752 117.064V119.066H151.676C152.586 119.066 153.524 118.8 153.524 118.002C153.524 117.33 152.936 117.008 151.704 117.008C151.298 117.008 151.046 117.036 150.752 117.064ZM150.738 119.878V122.188C151.088 122.23 151.34 122.244 151.732 122.244C152.558 122.244 153.79 122.048 153.79 121.068C153.79 120.088 152.81 119.878 151.634 119.878H150.738ZM32.9481 130.224H34.1101V133.08C34.1101 134.158 34.0961 134.83 34.0401 135.796L34.0821 135.81C34.4881 134.984 34.7261 134.508 35.1741 133.724L37.2881 130.224H38.7301V137H37.5541V134.13C37.5541 133.024 37.5821 132.45 37.6381 131.358H37.5961C37.1621 132.226 36.8681 132.772 36.4761 133.458C35.8321 134.508 35.0901 135.81 34.3621 137H32.9481V130.224ZM43.6669 130.224H49.2669V137H48.0349V131.204H44.8849V137H43.6669V130.224ZM51.2691 139.772V132.436C51.2691 131.568 51.2411 130.868 51.2131 130.224H52.3191L52.3751 131.386H52.4031C52.9071 130.56 53.7051 130.07 54.8111 130.07C56.4491 130.07 57.6811 131.456 57.6811 133.514C57.6811 135.95 56.1971 137.154 54.6011 137.154C53.7051 137.154 52.9211 136.762 52.5151 136.09H52.4871V139.772H51.2691ZM52.4871 133.08V134.242C52.4871 134.424 52.5151 134.592 52.5431 134.746C52.7671 135.6 53.5091 136.188 54.3911 136.188C55.6931 136.188 56.4491 135.124 56.4491 133.57C56.4491 132.212 55.7351 131.05 54.4331 131.05C53.5931 131.05 52.8091 131.652 52.5711 132.576C52.5291 132.73 52.4871 132.912 52.4871 133.08ZM62.1098 130.07C64.0558 130.07 65.3718 131.484 65.3718 133.556C65.3718 136.062 63.6358 137.154 61.9978 137.154C60.1638 137.154 58.7498 135.81 58.7498 133.668C58.7498 131.4 60.2338 130.07 62.1098 130.07ZM62.0818 130.994C60.6258 130.994 59.9958 132.338 59.9958 133.626C59.9958 135.11 60.8498 136.23 62.0538 136.23C63.2298 136.23 64.1118 135.124 64.1118 133.598C64.1118 132.45 63.5378 130.994 62.0818 130.994ZM69.8354 127.06H70.9554V130.098C72.9294 130.238 74.3574 131.484 74.3574 133.598C74.3574 135.824 72.8454 137 70.9554 137.126V139.772H69.8354V137.14C67.8754 137.014 66.4334 135.782 66.4334 133.668C66.4334 131.428 67.9314 130.252 69.8354 130.098V127.06ZM69.8354 136.286V130.938C68.4634 131.12 67.6514 132.24 67.6514 133.626C67.6514 135.026 68.4914 136.118 69.8354 136.286ZM70.9554 130.938V136.286C72.3134 136.104 73.1394 134.984 73.1394 133.598C73.1394 132.198 72.3134 131.134 70.9554 130.938ZM81.3381 133.836H76.5781C76.6061 135.502 77.6701 136.188 78.9021 136.188C79.7841 136.188 80.3161 136.034 80.7781 135.838L80.9881 136.72C80.5541 136.916 79.8121 137.14 78.7341 137.14C76.6481 137.14 75.4021 135.768 75.4021 133.724C75.4021 131.68 76.6061 130.07 78.5801 130.07C80.7921 130.07 81.3801 132.016 81.3801 133.262C81.3801 133.514 81.3521 133.71 81.3381 133.836ZM76.5921 132.954H80.1901C80.2041 132.17 79.8681 130.952 78.4821 130.952C77.2361 130.952 76.6901 132.1 76.5921 132.954ZM87.5258 135.824L87.7358 136.748C87.4138 136.916 86.6998 137.14 85.7898 137.14C83.7458 137.14 82.4158 135.754 82.4158 133.682C82.4158 131.596 83.8438 130.084 86.0558 130.084C86.7838 130.084 87.4278 130.266 87.7638 130.434L87.4838 131.386C87.1898 131.218 86.7278 131.064 86.0558 131.064C84.5018 131.064 83.6618 132.212 83.6618 133.626C83.6618 135.194 84.6698 136.16 86.0138 136.16C86.7138 136.16 87.1758 135.978 87.5258 135.824ZM93.7191 135.824L93.9291 136.748C93.6071 136.916 92.8931 137.14 91.9831 137.14C89.9391 137.14 88.6091 135.754 88.6091 133.682C88.6091 131.596 90.0371 130.084 92.2491 130.084C92.9771 130.084 93.6211 130.266 93.9571 130.434L93.6771 131.386C93.3831 131.218 92.9211 131.064 92.2491 131.064C90.6951 131.064 89.8551 132.212 89.8551 133.626C89.8551 135.194 90.8631 136.16 92.2071 136.16C92.9071 136.16 93.3691 135.978 93.7191 135.824ZM95.3465 130.224H96.5085V133.08C96.5085 134.158 96.4945 134.83 96.4385 135.796L96.4805 135.81C96.8865 134.984 97.1245 134.508 97.5725 133.724L99.6865 130.224H101.129V137H99.9525V134.13C99.9525 133.024 99.9805 132.45 100.037 131.358H99.9945C99.5605 132.226 99.2665 132.772 98.8745 133.458C98.2305 134.508 97.4885 135.81 96.7605 137H95.3465V130.224ZM105.996 130.07C107.942 130.07 109.258 131.484 109.258 133.556C109.258 136.062 107.522 137.154 105.884 137.154C104.05 137.154 102.636 135.81 102.636 133.668C102.636 131.4 104.12 130.07 105.996 130.07ZM105.968 130.994C104.512 130.994 103.882 132.338 103.882 133.626C103.882 135.11 104.736 136.23 105.94 136.23C107.116 136.23 107.998 135.124 107.998 133.598C107.998 132.45 107.424 130.994 105.968 130.994ZM110.782 130.224H112V132.954H115.22V130.224H116.438V137H115.22V133.934H112V137H110.782V130.224ZM123.325 137H122.205L122.107 136.146H122.065C121.687 136.678 120.959 137.154 119.993 137.154C118.621 137.154 117.921 136.188 117.921 135.208C117.921 133.57 119.377 132.674 121.995 132.688V132.548C121.995 131.988 121.841 130.98 120.455 130.98C119.825 130.98 119.167 131.176 118.691 131.484L118.411 130.672C118.971 130.308 119.783 130.07 120.637 130.07C122.709 130.07 123.213 131.484 123.213 132.842V135.376C123.213 135.964 123.241 136.538 123.325 137ZM122.023 134.718V133.542C120.679 133.514 119.153 133.752 119.153 135.068C119.153 135.866 119.685 136.244 120.315 136.244C121.197 136.244 121.757 135.684 121.953 135.11C121.995 134.984 122.023 134.844 122.023 134.718ZM125.667 130.224H130.371V137H129.153V131.19H126.829V132.954C126.829 134.858 126.647 136.132 125.765 136.706C125.429 136.972 125.051 137.126 124.421 137.126L124.295 136.16C124.533 136.118 124.799 136.02 124.967 135.88C125.597 135.418 125.667 134.466 125.667 132.954V130.224ZM135.254 130.07C137.2 130.07 138.516 131.484 138.516 133.556C138.516 136.062 136.78 137.154 135.142 137.154C133.308 137.154 131.894 135.81 131.894 133.668C131.894 131.4 133.378 130.07 135.254 130.07ZM135.226 130.994C133.77 130.994 133.14 132.338 133.14 133.626C133.14 135.11 133.994 136.23 135.198 136.23C136.374 136.23 137.256 135.124 137.256 133.598C137.256 132.45 136.682 130.994 135.226 130.994ZM140.04 137V130.308C140.516 130.224 141.398 130.154 142.196 130.154C143.33 130.154 145.206 130.336 145.206 131.848C145.206 132.688 144.562 133.206 143.792 133.374V133.402C144.786 133.542 145.514 134.102 145.514 135.082C145.514 136.86 143.274 137.084 141.944 137.084C141.188 137.084 140.404 137.028 140.04 137ZM141.216 131.064V133.066H142.14C143.05 133.066 143.988 132.8 143.988 132.002C143.988 131.33 143.4 131.008 142.168 131.008C141.762 131.008 141.51 131.036 141.216 131.064ZM141.202 133.878V136.188C141.552 136.23 141.804 136.244 142.196 136.244C143.022 136.244 144.254 136.048 144.254 135.068C144.254 134.088 143.274 133.878 142.098 133.878H141.202Z" fill="#3D348A"/>
<g clip-path="url(#clip0_2003_6)">
<rect width="164.51" height="158.835" transform="matrix(0.994173 -0.107795 0.107578 0.994197 162.249 17.0002)" fill="#3B3393"/>
<path d="M216.455 43.3875V50.3875H217.755V43.3875H216.455ZM221.155 50.3875V43.3875H219.855V50.3875H221.155ZM217.755 52.3875H215.275C214.715 52.3875 214.355 52.0075 214.355 51.4675V42.3075C214.355 41.7675 214.715 41.3875 215.275 41.3875H217.755V40.1875H219.855V41.3875H222.335C222.895 41.3875 223.255 41.7675 223.255 42.3075V51.4675C223.255 52.0075 222.895 52.3875 222.335 52.3875H219.855V54.5875H217.755V52.3875ZM224.357 40.3875H230.557V54.3875H228.457V49.7875H226.457V54.3875H224.357V40.3875ZM228.457 47.7875V42.3875H226.457V47.7875H228.457ZM236.159 40.3875H238.259V54.3875H236.159V47.7875H233.859V54.3875H231.759V40.3875H233.859V45.7875H236.159V40.3875ZM239.755 48.0675V46.3075H243.755V48.0675H239.755ZM249.256 45.7875V42.3875H247.356V45.7875H249.256ZM249.256 47.7875H247.356V52.3875H249.256V47.7875ZM251.356 41.3075V45.2275C251.356 46.0275 250.936 46.5675 250.316 46.7875C250.936 47.0075 251.356 47.5275 251.356 48.3475V53.4675C251.356 54.0075 250.996 54.3875 250.436 54.3875H245.256V40.3875H250.436C250.996 40.3875 251.356 40.7675 251.356 41.3075ZM258.66 54.3875H253.48C252.92 54.3875 252.56 54.0075 252.56 53.4675V41.3075C252.56 40.7675 252.92 40.3875 253.48 40.3875H258.66V44.3875H256.56V42.3875H254.66V52.3875H256.56V49.7875H258.66V54.3875ZM259.367 42.3875V40.3875H265.467V42.3875H263.467V54.3875H261.367V42.3875H259.367ZM268.371 42.3875V47.7875H270.371V42.3875H268.371ZM271.551 49.7875H268.371V54.3875H266.271V40.3875H271.551C272.111 40.3875 272.471 40.7675 272.471 41.3075V48.8675C272.471 49.4075 272.111 49.7875 271.551 49.7875ZM273.576 54.3875V40.3875H278.776V42.3875H275.676V45.7875H278.676V47.7875H275.676V52.3875H278.776V54.3875H273.576ZM279.784 48.8675V40.3875H281.884V47.7875H283.884V40.3875H285.984V54.3875H283.884V49.7875H280.704C280.144 49.7875 279.784 49.4075 279.784 48.8675ZM293.689 54.3875H291.589V46.5475L289.289 51.3675V54.3875H287.189V40.3875H289.289V47.5075L291.589 42.6875V40.3875H293.689V54.3875Z" fill="white"/>
<path d="M217.262 74.564H218.648L220.524 78.61C220.762 79.17 220.986 79.716 221.196 80.262H221.238C221.406 79.786 221.588 79.24 221.812 78.568L223.296 74.564H224.584L222.596 79.436C222.092 80.696 221.504 82.138 220.832 83.006C220.23 83.776 219.544 84.168 218.704 84.168C218.382 84.168 218.172 84.14 218.018 84.084L218.13 83.09C218.242 83.118 218.382 83.132 218.592 83.132C219.558 83.132 220.132 82.194 220.44 81.522C220.538 81.312 220.51 81.172 220.398 80.948L217.262 74.564ZM225.173 77.224H226.405V79.954H229.611V77.224H230.843V84H229.611V80.934H226.405V84H225.173V77.224ZM232.816 77.224H233.992V80.08C233.992 81.144 233.964 81.83 233.908 82.796L233.95 82.81C234.37 81.984 234.594 81.508 235.056 80.724L237.17 77.224H238.612V84H237.436V81.13C237.436 80.024 237.464 79.45 237.52 78.344H237.492C237.044 79.226 236.764 79.772 236.358 80.458C235.714 81.508 234.958 82.81 234.244 84H232.816V77.224ZM240.61 77.224H241.828V80.164H242.122L244.656 77.224H246.154L243.214 80.276C244.306 80.402 244.964 81.13 245.496 82.348C245.678 82.796 245.902 83.454 246.21 84H244.922C244.74 83.706 244.516 83.174 244.292 82.614C243.83 81.522 243.2 81.018 242.066 81.018H241.828V84H240.61V77.224ZM252.206 79.842V82.376C252.206 82.964 252.234 83.538 252.304 84H251.198L251.1 83.146H251.058C250.68 83.678 249.952 84.154 248.986 84.154C247.614 84.154 246.914 83.188 246.914 82.208C246.914 80.57 248.37 79.674 250.988 79.688V79.548C250.988 79.002 250.834 77.98 249.448 77.994C248.804 77.994 248.146 78.176 247.67 78.498L247.39 77.672C247.95 77.322 248.776 77.084 249.63 77.084C251.702 77.084 252.206 78.498 252.206 79.842ZM251.016 81.718V80.542C249.672 80.514 248.146 80.752 248.146 82.068C248.146 82.88 248.678 83.244 249.294 83.244C250.19 83.244 250.764 82.684 250.96 82.11C251.002 81.97 251.016 81.83 251.016 81.718ZM254.66 77.224H259.378V84H258.146V78.19H255.822V79.926C255.822 81.83 255.64 83.104 254.758 83.678C254.422 83.944 254.044 84.098 253.414 84.098L253.288 83.132C253.526 83.09 253.792 82.992 253.96 82.852C254.59 82.39 254.66 81.438 254.66 79.926V77.224ZM261.335 77.224H262.567V79.506C262.861 79.464 263.323 79.436 263.687 79.436C265.213 79.436 266.823 79.926 266.823 81.732C266.823 82.432 266.543 82.922 266.109 83.286C265.367 83.916 264.149 84.07 263.155 84.07C262.483 84.07 261.853 84.028 261.335 83.972V77.224ZM262.553 80.402V83.132C262.805 83.174 263.071 83.188 263.477 83.188C264.387 83.188 265.591 82.88 265.591 81.76C265.591 80.584 264.359 80.318 263.435 80.318C263.113 80.318 262.847 80.346 262.553 80.402ZM268.308 77.224H269.54V79.954H272.746V77.224H273.978V84H272.746V80.934H269.54V84H268.308V77.224ZM280.753 79.842V82.376C280.753 82.964 280.781 83.538 280.851 84H279.745L279.647 83.146H279.605C279.227 83.678 278.499 84.154 277.533 84.154C276.161 84.154 275.461 83.188 275.461 82.208C275.461 80.57 276.917 79.674 279.535 79.688V79.548C279.535 79.002 279.381 77.98 277.995 77.994C277.351 77.994 276.693 78.176 276.217 78.498L275.937 77.672C276.497 77.322 277.323 77.084 278.177 77.084C280.249 77.084 280.753 78.498 280.753 79.842ZM279.563 81.718V80.542C278.219 80.514 276.693 80.752 276.693 82.068C276.693 82.88 277.225 83.244 277.841 83.244C278.737 83.244 279.311 82.684 279.507 82.11C279.549 81.97 279.563 81.83 279.563 81.718ZM287.784 77.28V84H286.566V81.158H285.656C285.138 81.158 284.788 81.298 284.536 81.55C284.018 81.956 283.836 82.782 283.57 83.44C283.486 83.65 283.388 83.832 283.29 84H281.974C282.128 83.776 282.268 83.524 282.394 83.23C282.688 82.572 282.856 81.69 283.458 81.186C283.668 81.004 283.92 80.864 284.228 80.794V80.766C283.346 80.668 282.436 80.122 282.436 79.072C282.436 78.372 282.814 77.896 283.332 77.602C283.892 77.266 284.718 77.14 285.614 77.14C286.412 77.14 287.196 77.196 287.784 77.28ZM286.566 80.332V78.036C286.258 77.994 285.978 77.966 285.544 77.966C284.718 77.966 283.71 78.204 283.71 79.142C283.71 80.01 284.788 80.332 285.516 80.332C286.034 80.332 286.286 80.332 286.566 80.332ZM213.47 98V91.308C213.96 91.224 214.842 91.154 215.626 91.154C216.774 91.154 218.65 91.35 218.65 92.848C218.65 93.688 218.006 94.22 217.236 94.388V94.416C218.23 94.556 218.958 95.102 218.958 96.082C218.958 97.86 216.718 98.084 215.388 98.084C214.632 98.084 213.834 98.028 213.47 98ZM214.66 92.064V94.08H215.584C216.494 94.08 217.432 93.814 217.432 93.002C217.432 92.33 216.844 92.008 215.612 92.008C215.192 92.008 214.94 92.036 214.66 92.064ZM214.646 94.878V97.202C214.996 97.23 215.248 97.244 215.626 97.244C216.466 97.244 217.698 97.062 217.698 96.068C217.698 95.088 216.704 94.878 215.542 94.878H214.646ZM223.382 91.084C225.328 91.084 226.644 92.498 226.644 94.556C226.644 97.062 224.894 98.154 223.27 98.154C221.45 98.154 220.022 96.81 220.022 94.668C220.022 92.414 221.52 91.084 223.382 91.084ZM223.354 92.008C221.912 92.008 221.282 93.352 221.282 94.626C221.282 96.11 222.122 97.23 223.326 97.23C224.502 97.23 225.384 96.124 225.384 94.598C225.384 93.45 224.81 92.008 223.354 92.008ZM228.77 94.906L228.756 94.066H229.344C230.38 94.066 231.08 93.59 231.08 92.96C231.08 92.358 230.534 91.966 229.764 91.966C229.218 91.966 228.602 92.162 228.126 92.456L227.818 91.7C228.504 91.28 229.288 91.084 230.072 91.084C231.108 91.084 232.368 91.546 232.368 92.862C232.368 93.702 231.598 94.248 230.842 94.402V94.43C231.85 94.528 232.69 95.13 232.69 96.124C232.69 97.58 231.192 98.14 229.764 98.14C228.98 98.14 228.168 97.93 227.566 97.594L227.888 96.754C228.378 97.034 229.05 97.23 229.68 97.23C230.702 97.23 231.346 96.74 231.346 96.068C231.346 95.158 230.394 94.906 229.372 94.906H228.77ZM233.791 98L234.309 91.224H235.821L237.039 94.64C237.221 95.144 237.501 95.97 237.655 96.502H237.683C237.837 95.984 238.215 94.92 238.495 94.178L239.573 91.224H241.099L241.575 98H240.399L240.245 94.766C240.217 94.024 240.161 93.17 240.133 92.344H240.091C239.909 92.96 239.713 93.492 239.335 94.542L238.033 97.958H237.151L235.947 94.598C235.723 93.968 235.429 92.988 235.261 92.358H235.205C235.177 93.156 235.149 94.052 235.107 94.794L234.925 98H233.791ZM246.037 91.084C247.983 91.084 249.299 92.498 249.299 94.556C249.299 97.062 247.549 98.154 245.925 98.154C244.105 98.154 242.677 96.81 242.677 94.668C242.677 92.414 244.175 91.084 246.037 91.084ZM246.009 92.008C244.567 92.008 243.937 93.352 243.937 94.626C243.937 96.11 244.777 97.23 245.981 97.23C247.157 97.23 248.039 96.124 248.039 94.598C248.039 93.45 247.465 92.008 246.009 92.008ZM249.915 91.224H251.315L253.569 94.178H253.807V91.224H254.983V94.178H255.221L257.461 91.224H258.875L256.201 94.304C257.223 94.416 257.825 95.018 258.231 96.096C258.469 96.754 258.693 97.468 258.973 98H257.741C257.517 97.594 257.321 97.034 257.125 96.446C256.705 95.34 256.075 95.004 255.193 95.004H254.983V98H253.807V95.004H253.597C252.631 95.004 252.057 95.354 251.637 96.46C251.413 97.048 251.231 97.58 251.007 98H249.803C250.097 97.454 250.321 96.74 250.559 96.11C250.979 95.018 251.567 94.416 252.589 94.304L249.915 91.224ZM260.037 91.224H261.269V93.954H264.475V91.224H265.707V98H264.475V94.934H261.269V98H260.037V91.224ZM270.591 91.084C272.537 91.084 273.853 92.498 273.853 94.556C273.853 97.062 272.103 98.154 270.479 98.154C268.659 98.154 267.231 96.81 267.231 94.668C267.231 92.414 268.729 91.084 270.591 91.084ZM270.563 92.008C269.121 92.008 268.491 93.352 268.491 94.626C268.491 96.11 269.331 97.23 270.535 97.23C271.711 97.23 272.593 96.124 272.593 94.598C272.593 93.45 272.019 92.008 270.563 92.008ZM280.025 96.838L280.235 97.762C279.913 97.916 279.199 98.154 278.289 98.154C276.245 98.154 274.915 96.768 274.915 94.696C274.915 92.61 276.343 91.084 278.555 91.084C279.283 91.084 279.927 91.266 280.263 91.448L279.983 92.386C279.689 92.232 279.227 92.064 278.555 92.064C277.001 92.064 276.161 93.226 276.161 94.626C276.161 96.194 277.169 97.16 278.513 97.16C279.213 97.16 279.675 96.992 280.025 96.838ZM281.017 91.224H286.477V92.19H284.363V98H283.131V92.19H281.017V91.224ZM287.517 91.224H288.749V93.506C289.043 93.464 289.505 93.436 289.869 93.436C291.395 93.436 293.005 93.926 293.005 95.732C293.005 96.432 292.725 96.922 292.291 97.286C291.549 97.916 290.331 98.07 289.337 98.07C288.665 98.07 288.035 98.028 287.517 97.972V91.224ZM288.735 94.402V97.132C288.987 97.174 289.253 97.188 289.659 97.188C290.569 97.188 291.773 96.88 291.773 95.76C291.773 94.584 290.541 94.318 289.617 94.318C289.295 94.318 289.029 94.346 288.735 94.402ZM208.842 112V105.308C209.332 105.224 210.214 105.154 210.998 105.154C212.146 105.154 214.022 105.35 214.022 106.848C214.022 107.688 213.378 108.22 212.608 108.388V108.416C213.602 108.556 214.33 109.102 214.33 110.082C214.33 111.86 212.09 112.084 210.76 112.084C210.004 112.084 209.206 112.028 208.842 112ZM210.032 106.064V108.08H210.956C211.866 108.08 212.804 107.814 212.804 107.002C212.804 106.33 212.216 106.008 210.984 106.008C210.564 106.008 210.312 106.036 210.032 106.064ZM210.018 108.878V111.202C210.368 111.23 210.62 111.244 210.998 111.244C211.838 111.244 213.07 111.062 213.07 110.068C213.07 109.088 212.076 108.878 210.914 108.878H210.018ZM220.504 110.838L220.714 111.762C220.392 111.916 219.678 112.154 218.768 112.154C216.724 112.154 215.394 110.768 215.394 108.696C215.394 106.61 216.822 105.084 219.034 105.084C219.762 105.084 220.406 105.266 220.742 105.448L220.462 106.386C220.168 106.232 219.706 106.064 219.034 106.064C217.48 106.064 216.64 107.226 216.64 108.626C216.64 110.194 217.648 111.16 218.992 111.16C219.692 111.16 220.154 110.992 220.504 110.838ZM221.496 105.224H226.956V106.19H224.842V112H223.61V106.19H221.496V105.224ZM228.039 114.772V107.436C228.039 106.568 228.011 105.868 227.983 105.224H229.075L229.145 106.386H229.173C229.663 105.56 230.475 105.084 231.581 105.084C233.233 105.084 234.465 106.47 234.465 108.514C234.465 110.95 232.967 112.154 231.371 112.154C230.475 112.154 229.691 111.762 229.285 111.09H229.257V114.772H228.039ZM229.257 108.066V109.242C229.257 109.424 229.271 109.592 229.313 109.746C229.537 110.6 230.279 111.188 231.161 111.188C232.463 111.188 233.219 110.124 233.219 108.57C233.219 107.226 232.505 106.064 231.203 106.064C230.363 106.064 229.565 106.652 229.341 107.576C229.299 107.73 229.257 107.912 229.257 108.066ZM241.455 108.836H236.695C236.723 110.502 237.773 111.188 239.019 111.188C239.901 111.188 240.447 111.034 240.895 110.838L241.119 111.72C240.685 111.916 239.929 112.154 238.851 112.154C236.765 112.154 235.519 110.768 235.519 108.724C235.519 106.68 236.723 105.084 238.697 105.084C240.923 105.084 241.497 107.016 241.497 108.262C241.497 108.514 241.483 108.696 241.455 108.836ZM236.709 107.954H240.307C240.321 107.184 239.985 105.966 238.599 105.966C237.339 105.966 236.807 107.1 236.709 107.954ZM242.086 105.224H247.546V106.19H245.432V112H244.2V106.19H242.086V105.224ZM248.586 105.224H249.762V108.08C249.762 109.144 249.734 109.83 249.678 110.796L249.72 110.81C250.14 109.984 250.364 109.508 250.826 108.724L252.94 105.224H254.382V112H253.206V109.13C253.206 108.024 253.234 107.45 253.29 106.344H253.262C252.814 107.226 252.534 107.772 252.128 108.458C251.484 109.508 250.728 110.81 250.014 112H248.586V105.224ZM255.457 105.224H260.917V106.19H258.803V112H257.571V106.19H255.457V105.224ZM261.958 105.224H263.19V107.506C263.484 107.464 263.946 107.436 264.31 107.436C265.836 107.436 267.446 107.926 267.446 109.732C267.446 110.432 267.166 110.922 266.732 111.286C265.99 111.916 264.772 112.07 263.778 112.07C263.106 112.07 262.476 112.028 261.958 111.972V105.224ZM263.176 108.402V111.132C263.428 111.174 263.694 111.188 264.1 111.188C265.01 111.188 266.214 110.88 266.214 109.76C266.214 108.584 264.982 108.318 264.058 108.318C263.736 108.318 263.47 108.346 263.176 108.402ZM273.592 110.838L273.802 111.762C273.48 111.916 272.766 112.154 271.856 112.154C269.812 112.154 268.482 110.768 268.482 108.696C268.482 106.61 269.91 105.084 272.122 105.084C272.85 105.084 273.494 105.266 273.83 105.448L273.55 106.386C273.256 106.232 272.794 106.064 272.122 106.064C270.568 106.064 269.728 107.226 269.728 108.626C269.728 110.194 270.736 111.16 272.08 111.16C272.78 111.16 273.242 110.992 273.592 110.838ZM280.313 105.28V112H279.095V109.158H278.185C277.667 109.158 277.317 109.298 277.065 109.55C276.547 109.956 276.365 110.782 276.099 111.44C276.015 111.65 275.917 111.832 275.819 112H274.503C274.657 111.776 274.797 111.524 274.923 111.23C275.217 110.572 275.385 109.69 275.987 109.186C276.197 109.004 276.449 108.864 276.757 108.794V108.766C275.875 108.668 274.965 108.122 274.965 107.072C274.965 106.372 275.343 105.896 275.861 105.602C276.421 105.266 277.247 105.14 278.143 105.14C278.941 105.14 279.725 105.196 280.313 105.28ZM279.095 108.332V106.036C278.787 105.994 278.507 105.966 278.073 105.966C277.247 105.966 276.239 106.204 276.239 107.142C276.239 108.01 277.317 108.332 278.045 108.332C278.563 108.332 278.815 108.332 279.095 108.332ZM289.903 110.838L290.113 111.762C289.791 111.916 289.077 112.154 288.167 112.154C286.123 112.154 284.793 110.768 284.793 108.696C284.793 106.61 286.221 105.084 288.433 105.084C289.161 105.084 289.805 105.266 290.141 105.448L289.861 106.386C289.567 106.232 289.105 106.064 288.433 106.064C286.879 106.064 286.039 107.226 286.039 108.626C286.039 110.194 287.047 111.16 288.391 111.16C289.091 111.16 289.553 110.992 289.903 110.838ZM294.346 105.084C296.292 105.084 297.608 106.498 297.608 108.556C297.608 111.062 295.858 112.154 294.234 112.154C292.414 112.154 290.986 110.81 290.986 108.668C290.986 106.414 292.484 105.084 294.346 105.084ZM294.318 106.008C292.876 106.008 292.246 107.352 292.246 108.626C292.246 110.11 293.086 111.23 294.29 111.23C295.466 111.23 296.348 110.124 296.348 108.598C296.348 107.45 295.774 106.008 294.318 106.008ZM195.369 124.838L195.579 125.762C195.257 125.916 194.543 126.154 193.633 126.154C191.589 126.154 190.259 124.768 190.259 122.696C190.259 120.61 191.687 119.084 193.899 119.084C194.627 119.084 195.271 119.266 195.607 119.448L195.327 120.386C195.033 120.232 194.571 120.064 193.899 120.064C192.345 120.064 191.505 121.226 191.505 122.626C191.505 124.194 192.513 125.16 193.857 125.16C194.557 125.16 195.019 124.992 195.369 124.838ZM196.982 126V119.308C197.472 119.224 198.354 119.154 199.138 119.154C200.286 119.154 202.162 119.35 202.162 120.848C202.162 121.688 201.518 122.22 200.748 122.388V122.416C201.742 122.556 202.47 123.102 202.47 124.082C202.47 125.86 200.23 126.084 198.9 126.084C198.144 126.084 197.346 126.028 196.982 126ZM198.172 120.064V122.08H199.096C200.006 122.08 200.944 121.814 200.944 121.002C200.944 120.33 200.356 120.008 199.124 120.008C198.704 120.008 198.452 120.036 198.172 120.064ZM198.158 122.878V125.202C198.508 125.23 198.76 125.244 199.138 125.244C199.978 125.244 201.21 125.062 201.21 124.068C201.21 123.088 200.216 122.878 199.054 122.878H198.158ZM206.894 119.084C208.84 119.084 210.156 120.498 210.156 122.556C210.156 125.062 208.406 126.154 206.782 126.154C204.962 126.154 203.534 124.81 203.534 122.668C203.534 120.414 205.032 119.084 206.894 119.084ZM206.866 120.008C205.424 120.008 204.794 121.352 204.794 122.626C204.794 124.11 205.634 125.23 206.838 125.23C208.014 125.23 208.896 124.124 208.896 122.598C208.896 121.45 208.322 120.008 206.866 120.008ZM211.666 119.224H212.842V122.08C212.842 123.144 212.814 123.83 212.758 124.796L212.8 124.81C213.22 123.984 213.444 123.508 213.906 122.724L216.02 119.224H217.462V126H216.286V123.13C216.286 122.024 216.314 121.45 216.37 120.344H216.342C215.894 121.226 215.614 121.772 215.208 122.458C214.564 123.508 213.808 124.81 213.094 126H211.666V119.224ZM219.026 126L219.544 119.224H221.056L222.274 122.64C222.456 123.144 222.736 123.97 222.89 124.502H222.918C223.072 123.984 223.45 122.92 223.73 122.178L224.808 119.224H226.334L226.81 126H225.633L225.48 122.766C225.452 122.024 225.396 121.17 225.368 120.344H225.326C225.144 120.96 224.948 121.492 224.57 122.542L223.268 125.958H222.386L221.182 122.598C220.958 121.968 220.664 120.988 220.495 120.358H220.44C220.412 121.156 220.384 122.052 220.342 122.794L220.16 126H219.026ZM228.359 119.224H229.535V122.08C229.535 123.144 229.507 123.83 229.451 124.796L229.493 124.81C229.913 123.984 230.137 123.508 230.599 122.724L232.713 119.224H234.155V126H232.979V123.13C232.979 122.024 233.007 121.45 233.063 120.344H233.035C232.587 121.226 232.307 121.772 231.901 122.458C231.257 123.508 230.501 124.81 229.787 126H228.359V119.224ZM239.12 119.224H240.338V122.164H240.632L243.166 119.224H244.664L241.724 122.276C242.816 122.402 243.474 123.13 244.006 124.348C244.188 124.796 244.412 125.454 244.72 126H243.432C243.25 125.706 243.026 125.174 242.802 124.614C242.34 123.522 241.71 123.018 240.576 123.018H240.338V126H239.12V119.224ZM245.019 119.224H246.363L247.833 123.228C248.001 123.676 248.169 124.208 248.281 124.614H248.309C248.435 124.208 248.575 123.69 248.743 123.2L250.087 119.224H251.389L249.541 124.054C248.659 126.378 248.057 127.554 247.217 128.296C246.601 128.814 246.013 129.024 245.705 129.08L245.397 128.058C245.705 127.96 246.111 127.764 246.475 127.456C246.811 127.19 247.217 126.714 247.511 126.084C247.567 125.958 247.609 125.86 247.609 125.79C247.609 125.72 247.581 125.622 247.511 125.468L245.019 119.224ZM252.002 126L252.52 119.224H254.032L255.25 122.64C255.432 123.144 255.712 123.97 255.866 124.502H255.894C256.048 123.984 256.426 122.92 256.706 122.178L257.784 119.224H259.31L259.786 126H258.61L258.456 122.766C258.428 122.024 258.372 121.17 258.344 120.344H258.302C258.12 120.96 257.924 121.492 257.546 122.542L256.244 125.958H255.362L254.158 122.598C253.934 121.968 253.64 120.988 253.472 120.358H253.416C253.388 121.156 253.36 122.052 253.318 122.794L253.136 126H252.002ZM261.335 119.224H262.511V122.08C262.511 123.144 262.483 123.83 262.427 124.796L262.469 124.81C262.889 123.984 263.113 123.508 263.575 122.724L265.689 119.224H267.131V126H265.955V123.13C265.955 122.024 265.983 121.45 266.039 120.344H266.011C265.563 121.226 265.283 121.772 264.877 122.458C264.233 123.508 263.477 124.81 262.763 126H261.335V119.224ZM269.129 128.772V121.436C269.129 120.568 269.101 119.868 269.073 119.224H270.165L270.235 120.386H270.263C270.753 119.56 271.565 119.084 272.671 119.084C274.323 119.084 275.555 120.47 275.555 122.514C275.555 124.95 274.057 126.154 272.461 126.154C271.565 126.154 270.781 125.762 270.375 125.09H270.347V128.772H269.129ZM270.347 122.066V123.242C270.347 123.424 270.361 123.592 270.403 123.746C270.627 124.6 271.369 125.188 272.251 125.188C273.553 125.188 274.309 124.124 274.309 122.57C274.309 121.226 273.595 120.064 272.293 120.064C271.453 120.064 270.655 120.652 270.431 121.576C270.389 121.73 270.347 121.912 270.347 122.066ZM281.86 121.842V124.376C281.86 124.964 281.888 125.538 281.958 126H280.852L280.754 125.146H280.712C280.334 125.678 279.606 126.154 278.64 126.154C277.268 126.154 276.568 125.188 276.568 124.208C276.568 122.57 278.024 121.674 280.642 121.688V121.548C280.642 121.002 280.488 119.98 279.102 119.994C278.458 119.994 277.8 120.176 277.324 120.498L277.044 119.672C277.604 119.322 278.43 119.084 279.284 119.084C281.356 119.084 281.86 120.498 281.86 121.842ZM280.67 123.718V122.542C279.326 122.514 277.8 122.752 277.8 124.068C277.8 124.88 278.332 125.244 278.948 125.244C279.844 125.244 280.418 124.684 280.614 124.11C280.656 123.97 280.67 123.83 280.67 123.718ZM283.42 126L283.938 119.224H285.45L286.668 122.64C286.85 123.144 287.13 123.97 287.284 124.502H287.312C287.466 123.984 287.844 122.92 288.124 122.178L289.202 119.224H290.728L291.204 126H290.028L289.874 122.766C289.846 122.024 289.79 121.17 289.762 120.344H289.72C289.538 120.96 289.342 121.492 288.964 122.542L287.662 125.958H286.78L285.576 122.598C285.352 121.968 285.058 120.988 284.89 120.358H284.834C284.806 121.156 284.778 122.052 284.736 122.794L284.554 126H283.42ZM292.753 119.224H293.929V122.08C293.929 123.144 293.901 123.83 293.845 124.796L293.887 124.81C294.307 123.984 294.531 123.508 294.993 122.724L297.107 119.224H298.549V126H297.373V123.13C297.373 122.024 297.401 121.45 297.457 120.344H297.429C296.981 121.226 296.701 121.772 296.295 122.458C295.651 123.508 294.895 124.81 294.181 126H292.753V119.224ZM303.472 119.224H304.648V122.08C304.648 123.144 304.62 123.83 304.564 124.796L304.606 124.81C305.026 123.984 305.25 123.508 305.712 122.724L307.826 119.224H309.268V126H308.092V123.13C308.092 122.024 308.12 121.45 308.176 120.344H308.148C307.7 121.226 307.42 121.772 307.014 122.458C306.37 123.508 305.614 124.81 304.9 126H303.472V119.224ZM311.84 122.906L311.826 122.066H312.414C313.45 122.066 314.15 121.59 314.15 120.96C314.15 120.358 313.604 119.966 312.834 119.966C312.288 119.966 311.672 120.162 311.196 120.456L310.888 119.7C311.574 119.28 312.358 119.084 313.142 119.084C314.178 119.084 315.438 119.546 315.438 120.862C315.438 121.702 314.668 122.248 313.912 122.402V122.43C314.92 122.528 315.76 123.13 315.76 124.124C315.76 125.58 314.262 126.14 312.834 126.14C312.05 126.14 311.238 125.93 310.636 125.594L310.958 124.754C311.448 125.034 312.12 125.23 312.75 125.23C313.772 125.23 314.416 124.74 314.416 124.068C314.416 123.158 313.464 122.906 312.442 122.906H311.84ZM215.539 140L216.057 133.224H217.569L218.787 136.64C218.969 137.144 219.249 137.97 219.403 138.502H219.431C219.585 137.984 219.963 136.92 220.243 136.178L221.321 133.224H222.847L223.323 140H222.147L221.993 136.766C221.965 136.024 221.909 135.17 221.881 134.344H221.839C221.657 134.96 221.461 135.492 221.083 136.542L219.781 139.958H218.899L217.695 136.598C217.471 135.968 217.177 134.988 217.009 134.358H216.953C216.925 135.156 216.897 136.052 216.855 136.794L216.673 140H215.539ZM224.873 133.224H226.049V136.08C226.049 137.144 226.021 137.83 225.965 138.796L226.007 138.81C226.427 137.984 226.651 137.508 227.113 136.724L229.227 133.224H230.669V140H229.493V137.13C229.493 136.024 229.521 135.45 229.577 134.344H229.549C229.101 135.226 228.821 135.772 228.415 136.458C227.771 137.508 227.015 138.81 226.301 140H224.873V133.224ZM232.667 142.772V135.436C232.667 134.568 232.639 133.868 232.611 133.224H233.703L233.773 134.386H233.801C234.291 133.56 235.103 133.084 236.209 133.084C237.861 133.084 239.093 134.47 239.093 136.514C239.093 138.95 237.595 140.154 235.999 140.154C235.103 140.154 234.319 139.762 233.913 139.09H233.885V142.772H232.667ZM233.885 136.066V137.242C233.885 137.424 233.899 137.592 233.941 137.746C234.165 138.6 234.907 139.188 235.789 139.188C237.091 139.188 237.847 138.124 237.847 136.57C237.847 135.226 237.133 134.064 235.831 134.064C234.991 134.064 234.193 134.652 233.969 135.576C233.927 135.73 233.885 135.912 233.885 136.066ZM245.397 135.842V138.376C245.397 138.964 245.425 139.538 245.495 140H244.389L244.291 139.146H244.249C243.871 139.678 243.143 140.154 242.177 140.154C240.805 140.154 240.105 139.188 240.105 138.208C240.105 136.57 241.561 135.674 244.179 135.688V135.548C244.179 135.002 244.025 133.98 242.639 133.994C241.995 133.994 241.337 134.176 240.861 134.498L240.581 133.672C241.141 133.322 241.967 133.084 242.821 133.084C244.893 133.084 245.397 134.498 245.397 135.842ZM244.207 137.718V136.542C242.863 136.514 241.337 136.752 241.337 138.068C241.337 138.88 241.869 139.244 242.485 139.244C243.381 139.244 243.955 138.684 244.151 138.11C244.193 137.97 244.207 137.83 244.207 137.718ZM254.978 138.838L255.188 139.762C254.866 139.916 254.152 140.154 253.242 140.154C251.198 140.154 249.868 138.768 249.868 136.696C249.868 134.61 251.296 133.084 253.508 133.084C254.236 133.084 254.88 133.266 255.216 133.448L254.936 134.386C254.642 134.232 254.18 134.064 253.508 134.064C251.954 134.064 251.114 135.226 251.114 136.626C251.114 138.194 252.122 139.16 253.466 139.16C254.166 139.16 254.628 138.992 254.978 138.838ZM256.591 133.224H262.205V140H260.973V134.19H257.823V140H256.591V133.224ZM267.078 133.084C269.024 133.084 270.34 134.498 270.34 136.556C270.34 139.062 268.59 140.154 266.966 140.154C265.146 140.154 263.718 138.81 263.718 136.668C263.718 134.414 265.216 133.084 267.078 133.084ZM267.05 134.008C265.608 134.008 264.978 135.352 264.978 136.626C264.978 138.11 265.818 139.23 267.022 139.23C268.198 139.23 269.08 138.124 269.08 136.598C269.08 135.45 268.506 134.008 267.05 134.008ZM271.891 142.772V135.436C271.891 134.568 271.863 133.868 271.835 133.224H272.927L272.997 134.386H273.025C273.515 133.56 274.327 133.084 275.433 133.084C277.085 133.084 278.317 134.47 278.317 136.514C278.317 138.95 276.819 140.154 275.223 140.154C274.327 140.154 273.543 139.762 273.137 139.09H273.109V142.772H271.891ZM273.109 136.066V137.242C273.109 137.424 273.123 137.592 273.165 137.746C273.389 138.6 274.131 139.188 275.013 139.188C276.315 139.188 277.071 138.124 277.071 136.57C277.071 135.226 276.357 134.064 275.055 134.064C274.215 134.064 273.417 134.652 273.193 135.576C273.151 135.73 273.109 135.912 273.109 136.066ZM278.87 133.224H284.33V134.19H282.216V140H280.984V134.19H278.87V133.224ZM290.077 135.842V138.376C290.077 138.964 290.105 139.538 290.175 140H289.069L288.971 139.146H288.929C288.551 139.678 287.823 140.154 286.857 140.154C285.485 140.154 284.785 139.188 284.785 138.208C284.785 136.57 286.241 135.674 288.859 135.688V135.548C288.859 135.002 288.705 133.98 287.319 133.994C286.675 133.994 286.017 134.176 285.541 134.498L285.261 133.672C285.821 133.322 286.647 133.084 287.501 133.084C289.573 133.084 290.077 134.498 290.077 135.842ZM288.887 137.718V136.542C287.543 136.514 286.017 136.752 286.017 138.068C286.017 138.88 286.549 139.244 287.165 139.244C288.061 139.244 288.635 138.684 288.831 138.11C288.873 137.97 288.887 137.83 288.887 137.718Z" fill="white"/>
</g>
<rect width="164.51" height="158.835" transform="matrix(0.997643 -0.0686209 0.0684026 0.997658 2.93616 169.188)" fill="#3B3393"/>
<path d="M27.069 203.316V208.116H28.969V203.316H27.069ZM27.069 201.316H30.149C30.709 201.316 31.069 201.696 31.069 202.236V209.196C31.069 209.736 30.709 210.116 30.149 210.116H24.969V196.116H30.869V198.116H27.069V201.316ZM34.276 208.116H36.376V198.116H34.276V208.116ZM37.556 210.116H33.096C32.536 210.116 32.176 209.736 32.176 209.196V197.036C32.176 196.496 32.536 196.116 33.096 196.116H37.556C38.116 196.116 38.476 196.496 38.476 197.036V209.196C38.476 209.736 38.116 210.116 37.556 210.116ZM42.636 198.116L41.956 210.116H39.176V208.116H39.976L40.656 196.116H45.776V210.116H43.676V198.116H42.636ZM49.0807 203.316V208.116H50.9807V203.316H49.0807ZM52.1607 210.116H46.9807V196.116H49.0807V201.316H52.1607C52.7207 201.316 53.0807 201.696 53.0807 202.236V209.196C53.0807 209.736 52.7207 210.116 52.1607 210.116ZM63.8878 210.116H54.1878V196.116H56.2878V208.116H57.9878V196.116H60.0878V208.116H61.7878V196.116H63.8878V210.116ZM67.1862 208.116H69.2862V198.116H67.1862V208.116ZM70.4662 210.116H66.0062C65.4462 210.116 65.0862 209.736 65.0862 209.196V197.036C65.0862 196.496 65.4462 196.116 66.0062 196.116H70.4662C71.0262 196.116 71.3862 196.496 71.3862 197.036V209.196C71.3862 209.736 71.0262 210.116 70.4662 210.116ZM72.5862 210.116V196.116H77.7862V198.116H74.6862V201.516H77.6862V203.516H74.6862V208.116H77.7862V210.116H72.5862ZM86.8332 202.516L88.9932 210.116H86.7732L84.9332 203.516H84.3932V210.116H82.2932V196.116H84.3932V201.516H84.9932L86.7732 196.116H88.9932L86.8332 202.516ZM91.7956 208.116H93.8956V198.116H91.7956V208.116ZM95.0756 210.116H90.6156C90.0556 210.116 89.6956 209.736 89.6956 209.196V197.036C89.6956 196.496 90.0556 196.116 90.6156 196.116H95.0756C95.6356 196.116 95.9956 196.496 95.9956 197.036V209.196C95.9956 209.736 95.6356 210.116 95.0756 210.116ZM101.516 204.116L103.236 196.116H105.796V210.116H103.696V204.116L104.036 200.116H103.936L102.476 207.316H100.516L99.0156 200.116H98.9156L99.2956 204.116V210.116H97.1956V196.116H99.7556L101.456 204.116H101.516ZM109.1 203.316V208.116H111V203.316H109.1ZM112.18 210.116H107V196.116H109.1V201.316H112.18C112.74 201.316 113.1 201.696 113.1 202.236V209.196C113.1 209.736 112.74 210.116 112.18 210.116ZM122.087 210.116H118.327C117.767 210.116 117.407 209.736 117.407 209.196V203.716H116.307V210.116H114.207V196.116H116.307V201.716H117.407V197.036C117.407 196.496 117.767 196.116 118.327 196.116H122.087C122.647 196.116 123.007 196.496 123.007 197.036V209.196C123.007 209.736 122.647 210.116 122.087 210.116ZM119.507 208.116H120.907V198.116H119.507V208.116ZM128.607 196.116H130.707V210.116H128.607V203.516H126.307V210.116H124.207V196.116H126.307V201.516H128.607V196.116ZM138.403 210.116H136.303V202.276L134.003 207.096V210.116H131.903V196.116H134.003V203.236L136.303 198.416V196.116H138.403V210.116ZM139.198 198.116V196.116H145.298V198.116H143.298V210.116H141.198V198.116H139.198ZM152.602 210.116H150.502V202.276L148.202 207.096V210.116H146.102V196.116H148.202V203.236L150.502 198.416V196.116H152.602V210.116Z" fill="white"/>
<path d="M60.4424 270.982V263.03H60.4144L58.8324 263.884L58.5944 262.946L60.5824 261.882H61.6324V270.982H60.4424ZM70.3782 261.882V262.918H66.9062L66.5562 265.256C66.7662 265.228 66.9622 265.2 67.2982 265.2C67.9982 265.2 68.6982 265.354 69.2582 265.69C69.9722 266.096 70.5602 266.88 70.5602 268.028C70.5602 269.806 69.1462 271.136 67.1722 271.136C66.1782 271.136 65.3382 270.856 64.9042 270.576L65.2122 269.638C65.5902 269.862 66.3322 270.142 67.1582 270.142C68.3202 270.142 69.3142 269.386 69.3142 268.168C69.3002 266.992 68.5162 266.152 66.6962 266.152C66.1782 266.152 65.7722 266.208 65.4362 266.25L66.0242 261.882H70.3782ZM75.1619 261.728C77.0799 261.728 78.1719 263.436 78.1719 266.334C78.1719 269.428 77.0239 271.136 75.0079 271.136C73.2299 271.136 72.0259 269.47 71.9979 266.46C71.9979 263.408 73.3139 261.728 75.1619 261.728ZM75.0919 262.68C74.0139 262.68 73.2299 263.996 73.2299 266.474C73.2299 268.84 73.9579 270.184 75.0779 270.184C76.3379 270.184 76.9399 268.714 76.9399 266.39C76.9399 264.15 76.3659 262.68 75.0919 262.68ZM81.7924 264.206H87.2384V265.186H85.1244V270.982H83.9064V265.186H81.7924V264.206ZM88.2926 264.206H89.5106V266.516C89.7766 266.46 90.1686 266.432 90.6166 266.432C92.0726 266.432 93.5426 267.034 93.5426 268.7C93.5426 269.414 93.2766 269.904 92.8426 270.268C92.1006 270.898 91.0086 271.052 90.1126 271.052C89.4266 271.052 88.7966 271.01 88.2926 270.954V264.206ZM89.5106 267.384V270.128C89.7486 270.156 90.0146 270.184 90.3646 270.184C91.3026 270.184 92.3246 269.792 92.3246 268.742C92.3246 267.65 91.3446 267.314 90.4206 267.314C90.0706 267.314 89.7626 267.342 89.5106 267.384ZM94.3966 264.206H95.6146V270.982H94.3966V264.206ZM102.251 269.806L102.461 270.73C102.139 270.898 101.425 271.122 100.515 271.122C98.4711 271.122 97.1411 269.736 97.1411 267.664C97.1411 265.578 98.5691 264.066 100.781 264.066C101.509 264.066 102.153 264.248 102.489 264.416L102.209 265.368C101.915 265.2 101.453 265.046 100.781 265.046C99.2271 265.046 98.3871 266.194 98.3871 267.608C98.3871 269.176 99.3951 270.142 100.739 270.142C101.439 270.142 101.901 269.96 102.251 269.806ZM108.972 264.262V270.982H107.754V268.14H106.844C106.326 268.14 105.976 268.28 105.71 268.518C105.206 268.924 105.024 269.764 104.758 270.422C104.674 270.632 104.576 270.814 104.478 270.982H103.162C103.316 270.758 103.456 270.506 103.582 270.212C103.876 269.554 104.044 268.672 104.646 268.168C104.856 267.986 105.108 267.832 105.416 267.776V267.734C104.534 267.636 103.624 267.09 103.624 266.054C103.624 265.354 104.002 264.878 104.52 264.584C105.08 264.262 105.906 264.122 106.788 264.122C107.6 264.122 108.384 264.192 108.972 264.262ZM107.754 267.3V265.018C107.446 264.976 107.166 264.948 106.732 264.948C105.892 264.948 104.898 265.186 104.898 266.124C104.898 266.992 105.976 267.3 106.704 267.3C107.208 267.3 107.474 267.3 107.754 267.3ZM110.712 264.206H111.944V266.432C111.944 267.286 112.266 267.874 113.344 267.874C113.876 267.874 114.422 267.678 114.8 267.398V264.206H116.018V270.982H114.8V268.266H114.772C114.31 268.574 113.582 268.784 112.938 268.784C111.65 268.784 110.712 268.126 110.712 266.572V264.206ZM32.8832 278.206H37.5872V284.982H36.3692V279.172H34.0452V280.936C34.0452 282.84 33.8632 284.114 32.9812 284.688C32.6452 284.954 32.2672 285.108 31.6372 285.108L31.5112 284.142C31.7492 284.1 32.0152 284.002 32.1832 283.862C32.8132 283.4 32.8832 282.448 32.8832 280.936V278.206ZM39.5729 278.206H40.7769V281.062H41.9389C42.1489 279.27 43.3249 278.052 44.9489 278.052C46.7129 278.052 47.9169 279.452 47.9169 281.538C47.9169 283.736 46.5729 285.136 44.8649 285.136C43.2409 285.136 42.0509 283.932 41.9109 282H40.7769V284.982H39.5729V278.206ZM44.8789 284.226C46.1249 284.226 46.6849 282.854 46.6849 281.566C46.6849 280.292 46.1109 278.976 44.9069 278.976C43.7169 278.976 43.0869 280.264 43.0869 281.636C43.0869 282.952 43.6889 284.226 44.8789 284.226ZM54.652 274.888L54.596 275.91C54.246 276.036 53.63 276.148 53.182 276.218C52.09 276.386 51.292 276.75 50.774 277.492C50.34 278.108 50.088 279.018 50.032 279.732H50.074C50.508 278.752 51.46 278.206 52.426 278.206C54.092 278.206 55.31 279.396 55.31 281.552C55.31 283.764 54.162 285.136 52.174 285.136C49.794 285.136 49.01 282.854 49.01 280.6C49.01 279.06 49.332 277.8 50.06 276.848C50.718 275.91 51.656 275.476 52.972 275.252C53.518 275.168 54.19 275.056 54.652 274.888ZM54.064 281.65C54.064 280.544 53.63 279.116 52.174 279.116C51.446 279.116 50.928 279.494 50.648 280.04C50.424 280.446 50.312 280.936 50.312 281.482C50.312 282.602 50.858 284.212 52.202 284.212C53.56 284.212 54.064 282.896 54.064 281.65ZM56.8404 278.206H58.0024V281.062C58.0024 282.14 57.9884 282.812 57.9324 283.778L57.9744 283.792C58.3804 282.966 58.6184 282.49 59.0664 281.706L61.1804 278.206H62.6224V284.982H61.4464V282.112C61.4464 281.006 61.4744 280.432 61.5304 279.34H61.4884C61.0544 280.208 60.7604 280.754 60.3684 281.44C59.7244 282.49 58.9824 283.792 58.2544 284.982H56.8404V278.206ZM63.7114 278.206H69.1574V279.186H67.0434V284.982H65.8254V279.186H63.7114V278.206ZM75.5078 281.818H70.7478C70.7758 283.484 71.8398 284.17 73.0718 284.17C73.9538 284.17 74.4858 284.016 74.9478 283.82L75.1578 284.702C74.7238 284.898 73.9818 285.122 72.9038 285.122C70.8178 285.122 69.5718 283.75 69.5718 281.706C69.5718 279.662 70.7758 278.052 72.7498 278.052C74.9618 278.052 75.5498 279.998 75.5498 281.244C75.5498 281.496 75.5218 281.692 75.5078 281.818ZM70.7618 280.936H74.3598C74.3738 280.152 74.0378 278.934 72.6518 278.934C71.4058 278.934 70.8598 280.082 70.7618 280.936ZM77.5218 278.206H82.2258V284.982H81.0078V279.172H78.6838V280.936C78.6838 282.84 78.5018 284.114 77.6198 284.688C77.2838 284.954 76.9058 285.108 76.2758 285.108L76.1498 284.142C76.3878 284.1 76.6538 284.002 76.8218 283.862C77.4518 283.4 77.5218 282.448 77.5218 280.936V278.206ZM89.6855 281.818H84.9255C84.9535 283.484 86.0175 284.17 87.2495 284.17C88.1315 284.17 88.6635 284.016 89.1255 283.82L89.3355 284.702C88.9015 284.898 88.1595 285.122 87.0815 285.122C84.9955 285.122 83.7495 283.75 83.7495 281.706C83.7495 279.662 84.9535 278.052 86.9275 278.052C89.1395 278.052 89.7275 279.998 89.7275 281.244C89.7275 281.496 89.6995 281.692 89.6855 281.818ZM84.9395 280.936H88.5375C88.5515 280.152 88.2155 278.934 86.8295 278.934C85.5835 278.934 85.0375 280.082 84.9395 280.936ZM91.2252 278.206H92.3872V281.062C92.3872 282.14 92.3732 282.812 92.3172 283.778L92.3592 283.792C92.7652 282.966 93.0032 282.49 93.4512 281.706L95.5652 278.206H97.0072V284.982H95.8312V282.112C95.8312 281.006 95.8592 280.432 95.9152 279.34H95.8732C95.4392 280.208 95.1452 280.754 94.7532 281.44C94.1092 282.49 93.3672 283.792 92.6392 284.982H91.2252V278.206ZM92.2892 275.448H93.1852C93.2272 276.05 93.5212 276.512 94.0812 276.512C94.6832 276.512 94.9632 276.064 95.0332 275.448H95.9152C95.8592 276.596 95.1312 277.184 94.0532 277.184C92.8212 277.184 92.3452 276.414 92.2892 275.448ZM106.592 283.806L106.802 284.73C106.48 284.898 105.766 285.122 104.856 285.122C102.812 285.122 101.482 283.736 101.482 281.664C101.482 279.578 102.91 278.066 105.122 278.066C105.85 278.066 106.494 278.248 106.83 278.416L106.55 279.368C106.256 279.2 105.794 279.046 105.122 279.046C103.568 279.046 102.728 280.194 102.728 281.608C102.728 283.176 103.736 284.142 105.08 284.142C105.78 284.142 106.242 283.96 106.592 283.806ZM108.219 278.206H113.819V284.982H112.587V279.186H109.437V284.982H108.219V278.206ZM118.692 278.052C120.638 278.052 121.954 279.466 121.954 281.538C121.954 284.044 120.218 285.136 118.58 285.136C116.746 285.136 115.332 283.792 115.332 281.65C115.332 279.382 116.816 278.052 118.692 278.052ZM118.664 278.976C117.208 278.976 116.578 280.32 116.578 281.608C116.578 283.092 117.432 284.212 118.636 284.212C119.812 284.212 120.694 283.106 120.694 281.58C120.694 280.432 120.12 278.976 118.664 278.976ZM123.505 287.754V280.418C123.505 279.55 123.477 278.85 123.449 278.206H124.555L124.611 279.368H124.639C125.143 278.542 125.941 278.052 127.047 278.052C128.685 278.052 129.917 279.438 129.917 281.496C129.917 283.932 128.433 285.136 126.837 285.136C125.941 285.136 125.157 284.744 124.751 284.072H124.723V287.754H123.505ZM124.723 281.062V282.224C124.723 282.406 124.751 282.574 124.779 282.728C125.003 283.582 125.745 284.17 126.627 284.17C127.929 284.17 128.685 283.106 128.685 281.552C128.685 280.194 127.971 279.032 126.669 279.032C125.829 279.032 125.045 279.634 124.807 280.558C124.765 280.712 124.723 280.894 124.723 281.062ZM130.498 278.206H135.944V279.186H133.83V284.982H132.612V279.186H130.498V278.206ZM141.803 284.982H140.683L140.585 284.128H140.543C140.165 284.66 139.437 285.136 138.471 285.136C137.099 285.136 136.399 284.17 136.399 283.19C136.399 281.552 137.855 280.656 140.473 280.67V280.53C140.473 279.97 140.319 278.962 138.933 278.962C138.303 278.962 137.645 279.158 137.169 279.466L136.889 278.654C137.449 278.29 138.261 278.052 139.115 278.052C141.187 278.052 141.691 279.466 141.691 280.824V283.358C141.691 283.946 141.719 284.52 141.803 284.982ZM140.501 282.7V281.524C139.157 281.496 137.631 281.734 137.631 283.05C137.631 283.848 138.163 284.226 138.793 284.226C139.675 284.226 140.235 283.666 140.431 283.092C140.473 282.966 140.501 282.826 140.501 282.7Z" fill="white"/>
<rect width="164.51" height="158.835" transform="matrix(0.995496 0.0948003 -0.0950181 0.995476 179.092 153.235)" fill="white"/>
<path d="M230.349 200.4L232.509 208H230.289L228.449 201.4H227.909V208H225.809V194H227.909V199.4H228.509L230.289 194H232.509L230.349 200.4ZM235.311 206H237.411V196H235.311V206ZM238.591 208H234.131C233.571 208 233.211 207.62 233.211 207.08V194.92C233.211 194.38 233.571 194 234.131 194H238.591C239.151 194 239.511 194.38 239.511 194.92V207.08C239.511 207.62 239.151 208 238.591 208ZM245.111 194H247.211V208H245.111V201.4H242.811V208H240.711V194H242.811V199.4H245.111V194ZM253.206 209.84V208H248.406V194H250.506V206H252.506V194H254.606V206H255.306V209.84H253.206ZM256.102 208V194H261.302V196H258.202V199.4H261.202V201.4H258.202V206H261.302V208H256.102ZM264.51 196V201.4H266.51V196H264.51ZM267.69 203.4H264.51V208H262.41V194H267.69C268.25 194 268.61 194.38 268.61 194.92V202.48C268.61 203.02 268.25 203.4 267.69 203.4ZM269.315 196V194H275.415V196H273.415V208H271.315V196H269.315ZM210.151 228H204.971C204.411 228 204.051 227.62 204.051 227.08V214.92C204.051 214.38 204.411 214 204.971 214H210.151V218H208.051V216H206.151V226H208.051V223.4H210.151V228ZM214.656 214H221.056V228H218.956V216H216.756V228H214.656V214ZM224.354 226H226.454V216H224.354V226ZM227.634 228H223.174C222.614 228 222.254 227.62 222.254 227.08V214.92C222.254 214.38 222.614 214 223.174 214H227.634C228.194 214 228.554 214.38 228.554 214.92V227.08C228.554 227.62 228.194 228 227.634 228ZM229.754 214H236.154V228H234.054V216H231.854V228H229.754V214ZM243.952 214L241.672 228H238.832V226H239.912L240.332 223.4H238.832L236.852 214H238.992L240.552 221.4H240.652L241.872 214H243.952ZM247.226 216L246.546 228H243.766V226H244.566L245.246 214H250.366V228H248.266V216H247.226ZM253.39 228H251.17L253.23 221.4H252.59C252.03 221.4 251.67 221.02 251.67 220.48V214.92C251.67 214.38 252.03 214 252.59 214H257.77V228H255.67V221.4H255.47L253.39 228ZM255.67 219.4V216H253.77V219.4H255.67ZM261.073 216V221.4H263.073V216H261.073ZM264.253 223.4H261.073V228H258.973V214H264.253C264.813 214 265.173 214.38 265.173 214.92V222.48C265.173 223.02 264.813 223.4 264.253 223.4ZM270.677 214H272.777V228H270.677V221.4H268.377V228H266.277V214H268.377V219.4H270.677V214ZM276.073 221.2V226H277.673V221.2H276.073ZM282.673 228H280.573V214H282.673V228ZM279.773 220.12V227.08C279.773 227.62 279.413 228 278.853 228H273.973V214H276.073V219.2H278.853C279.413 219.2 279.773 219.58 279.773 220.12ZM288.195 222L289.915 214H292.475V228H290.375V222L290.715 218H290.615L289.155 225.2H287.195L285.695 218H285.595L285.975 222V228H283.875V214H286.435L288.135 222H288.195ZM300.18 228H298.08V220.16L295.78 224.98V228H293.68V214H295.78V221.12L298.08 216.3V214H300.18V228ZM218.953 234H225.153V248H223.053V243.4H221.053V248H218.953V234ZM223.053 241.4V236H221.053V241.4H223.053ZM228.456 236V241.4H230.456V236H228.456ZM231.636 243.4H228.456V248H226.356V234H231.636C232.196 234 232.556 234.38 232.556 234.92V242.48C232.556 243.02 232.196 243.4 231.636 243.4ZM233.26 236V234H239.36V236H237.36V248H235.26V236H233.26ZM246.664 248H244.564V240.16L242.264 244.98V248H240.164V234H242.264V241.12L244.564 236.3V234H246.664V248ZM253.959 248H248.779C248.219 248 247.859 247.62 247.859 247.08V234.92C247.859 234.38 248.219 234 248.779 234H253.959V238H251.859V236H249.959V246H251.859V243.4H253.959V248ZM254.666 236V234H260.766V236H258.766V248H256.666V236H254.666ZM261.57 234H267.77V248H265.67V243.4H263.67V248H261.57V234ZM265.67 241.4V236H263.67V241.4H265.67ZM273.293 242L275.013 234H277.573V248H275.473V242L275.813 238H275.713L274.253 245.2H272.293L270.793 238H270.693L271.073 242V248H268.973V234H271.533L273.233 242H273.293ZM285.277 248H283.177V240.16L280.877 244.98V248H278.777V234H280.877V241.12L283.177 236.3V234H285.277V248Z" fill="#3D348A"/>
<path d="M224.423 266.564H229.967V276H228.735V267.586H225.613V270.442C225.613 272.486 225.529 274.768 224.199 275.664C223.849 275.888 223.303 276.112 222.757 276.112L222.603 275.132C222.981 275.062 223.373 274.838 223.597 274.628C224.353 273.886 224.423 272.052 224.423 270.54V266.564ZM232.008 269.224H233.212V272.08H234.374C234.584 270.288 235.76 269.07 237.384 269.07C239.148 269.07 240.352 270.47 240.352 272.556C240.352 274.754 239.008 276.154 237.3 276.154C235.676 276.154 234.486 274.95 234.346 273.018H233.212V276H232.008V269.224ZM237.314 275.244C238.56 275.244 239.12 273.872 239.12 272.584C239.12 271.31 238.546 269.994 237.342 269.994C236.152 269.994 235.522 271.282 235.522 272.654C235.522 273.97 236.124 275.244 237.314 275.244ZM247.087 265.906L247.031 266.928C246.681 267.054 246.065 267.166 245.617 267.236C244.525 267.404 243.727 267.768 243.209 268.51C242.775 269.126 242.523 270.036 242.467 270.75H242.509C242.943 269.77 243.895 269.224 244.861 269.224C246.527 269.224 247.745 270.414 247.745 272.57C247.745 274.782 246.597 276.154 244.609 276.154C242.229 276.154 241.445 273.872 241.445 271.618C241.445 270.078 241.767 268.818 242.495 267.866C243.153 266.928 244.091 266.494 245.407 266.27C245.953 266.186 246.625 266.074 247.087 265.906ZM246.499 272.668C246.499 271.562 246.065 270.134 244.609 270.134C243.881 270.134 243.363 270.512 243.083 271.058C242.859 271.464 242.747 271.954 242.747 272.5C242.747 273.62 243.293 275.23 244.637 275.23C245.995 275.23 246.499 273.914 246.499 272.668ZM249.275 269.224H250.437V272.08C250.437 273.158 250.423 273.83 250.367 274.796L250.409 274.81C250.815 273.984 251.053 273.508 251.501 272.724L253.615 269.224H255.057V276H253.881V273.13C253.881 272.024 253.909 271.45 253.965 270.358H253.923C253.489 271.226 253.195 271.772 252.803 272.458C252.159 273.508 251.417 274.81 250.689 276H249.275V269.224ZM256.621 276L257.125 269.224H258.637L259.869 272.64C260.037 273.144 260.331 273.97 260.485 274.502H260.513C260.667 273.998 261.045 272.92 261.311 272.178L262.403 269.224H263.929L264.405 276H263.229L263.075 272.766C263.033 272.038 262.977 271.17 262.949 270.344H262.907C262.725 270.96 262.543 271.506 262.165 272.542L260.863 275.958H259.967L258.763 272.612C258.553 271.968 258.259 270.988 258.091 270.358H258.035C258.007 271.156 257.965 272.052 257.923 272.794L257.755 276H256.621ZM265.969 269.224H267.187V271.534C267.453 271.478 267.845 271.45 268.293 271.45C269.749 271.45 271.219 272.052 271.219 273.718C271.219 274.432 270.953 274.922 270.519 275.286C269.777 275.916 268.685 276.07 267.789 276.07C267.103 276.07 266.473 276.028 265.969 275.972V269.224ZM267.187 272.402V275.146C267.425 275.174 267.691 275.202 268.041 275.202C268.979 275.202 270.001 274.81 270.001 273.76C270.001 272.668 269.021 272.332 268.097 272.332C267.747 272.332 267.439 272.36 267.187 272.402ZM272.073 269.224H273.291V276H272.073V269.224ZM280.753 272.836H275.993C276.021 274.502 277.085 275.188 278.317 275.188C279.199 275.188 279.731 275.034 280.193 274.838L280.403 275.72C279.969 275.916 279.227 276.14 278.149 276.14C276.063 276.14 274.817 274.768 274.817 272.724C274.817 270.68 276.021 269.07 277.995 269.07C280.207 269.07 280.795 271.016 280.795 272.262C280.795 272.514 280.767 272.71 280.753 272.836ZM276.007 271.954H279.605C279.619 271.17 279.283 269.952 277.897 269.952C276.651 269.952 276.105 271.1 276.007 271.954ZM195.234 290L195.738 283.224H197.25L198.482 286.64C198.65 287.144 198.944 287.97 199.098 288.502H199.126C199.28 287.998 199.658 286.92 199.924 286.178L201.016 283.224H202.542L203.018 290H201.842L201.688 286.766C201.646 286.038 201.59 285.17 201.562 284.344H201.52C201.338 284.96 201.156 285.506 200.778 286.542L199.476 289.958H198.58L197.376 286.612C197.166 285.968 196.872 284.988 196.704 284.358H196.648C196.62 285.156 196.578 286.052 196.536 286.794L196.368 290H195.234ZM203.646 283.224H204.99L206.474 287.228C206.628 287.676 206.796 288.208 206.908 288.614H206.936C207.062 288.208 207.202 287.69 207.37 287.2L208.714 283.224H210.016L208.168 288.054C207.286 290.378 206.684 291.568 205.844 292.296C205.242 292.828 204.64 293.038 204.332 293.094L204.024 292.058C204.332 291.96 204.738 291.764 205.102 291.456C205.438 291.19 205.858 290.714 206.138 290.084C206.194 289.958 206.236 289.86 206.236 289.79C206.236 289.72 206.208 289.622 206.152 289.468L203.646 283.224ZM211.76 286.906V286.066H212.348C213.384 286.066 214.084 285.59 214.084 284.96C214.084 284.358 213.538 283.98 212.768 283.98C212.222 283.98 211.606 284.162 211.13 284.456L210.822 283.7C211.508 283.28 212.292 283.084 213.076 283.084C214.112 283.084 215.372 283.546 215.372 284.862C215.372 285.702 214.602 286.248 213.846 286.402V286.43C214.854 286.514 215.694 287.13 215.694 288.124C215.694 289.594 214.196 290.14 212.768 290.14C211.97 290.14 211.172 289.93 210.57 289.594L210.892 288.768C211.382 289.034 212.04 289.23 212.684 289.23C213.706 289.23 214.35 288.74 214.35 288.068C214.35 287.158 213.398 286.906 212.376 286.906H211.76ZM217.201 283.224H218.419V285.534C218.685 285.478 219.077 285.45 219.525 285.45C220.981 285.45 222.451 286.052 222.451 287.718C222.451 288.432 222.185 288.922 221.751 289.286C221.009 289.916 219.917 290.07 219.021 290.07C218.335 290.07 217.705 290.028 217.201 289.972V283.224ZM218.419 286.402V289.146C218.657 289.174 218.923 289.202 219.273 289.202C220.211 289.202 221.233 288.81 221.233 287.76C221.233 286.668 220.253 286.332 219.329 286.332C218.979 286.332 218.671 286.36 218.419 286.402ZM223.305 283.224H224.523V290H223.305V283.224ZM226.54 283.224H227.758V286.164H228.052L230.6 283.224H232.098L229.144 286.29C230.236 286.402 230.894 287.13 231.426 288.348C231.608 288.796 231.846 289.454 232.154 290H230.866C230.684 289.706 230.446 289.174 230.236 288.614C229.774 287.522 229.144 287.018 227.996 287.018H227.758V290H226.54V283.224ZM238.248 290H237.128L237.03 289.146H236.988C236.61 289.678 235.882 290.154 234.916 290.154C233.544 290.154 232.844 289.188 232.844 288.208C232.844 286.57 234.3 285.674 236.918 285.688V285.548C236.918 284.988 236.764 283.98 235.378 283.98C234.748 283.98 234.09 284.176 233.614 284.484L233.334 283.672C233.894 283.308 234.706 283.07 235.56 283.07C237.632 283.07 238.136 284.484 238.136 285.842V288.376C238.136 288.964 238.164 289.538 238.248 290ZM236.946 287.718V286.542C235.602 286.514 234.076 286.752 234.076 288.068C234.076 288.866 234.608 289.244 235.238 289.244C236.12 289.244 236.68 288.684 236.876 288.11C236.918 287.984 236.946 287.844 236.946 287.718ZM240.589 283.224H245.293V290H244.075V284.19H241.751V285.954C241.751 287.858 241.569 289.132 240.687 289.706C240.351 289.972 239.973 290.126 239.343 290.126L239.217 289.16C239.455 289.118 239.721 289.02 239.889 288.88C240.519 288.418 240.589 287.466 240.589 285.954V283.224ZM247.279 283.224H248.497V285.52C248.777 285.464 249.253 285.45 249.617 285.45C251.143 285.45 252.753 285.926 252.753 287.732C252.753 288.432 252.473 288.922 252.039 289.286C251.297 289.916 250.093 290.07 249.099 290.07C248.413 290.07 247.783 290.028 247.279 289.972V283.224ZM248.497 286.402V289.146C248.735 289.174 249.001 289.202 249.407 289.202C250.331 289.202 251.521 288.894 251.521 287.76C251.521 286.584 250.289 286.332 249.379 286.332C249.057 286.332 248.777 286.36 248.497 286.402ZM254.252 283.224H255.47V285.954H258.69V283.224H259.908V290H258.69V286.934H255.47V290H254.252V283.224ZM261.894 283.224H263.112V285.534C263.378 285.478 263.77 285.45 264.218 285.45C265.674 285.45 267.144 286.052 267.144 287.718C267.144 288.432 266.878 288.922 266.444 289.286C265.702 289.916 264.61 290.07 263.714 290.07C263.028 290.07 262.398 290.028 261.894 289.972V283.224ZM263.112 286.402V289.146C263.35 289.174 263.616 289.202 263.966 289.202C264.904 289.202 265.926 288.81 265.926 287.76C265.926 286.668 264.946 286.332 264.022 286.332C263.672 286.332 263.364 286.36 263.112 286.402ZM267.998 283.224H269.216V290H267.998V283.224ZM276.679 286.836H271.919C271.947 288.502 273.011 289.188 274.243 289.188C275.125 289.188 275.657 289.034 276.119 288.838L276.329 289.72C275.895 289.916 275.153 290.14 274.075 290.14C271.989 290.14 270.743 288.768 270.743 286.724C270.743 284.68 271.947 283.07 273.921 283.07C276.133 283.07 276.721 285.016 276.721 286.262C276.721 286.514 276.693 286.71 276.679 286.836ZM271.933 285.954H275.531C275.545 285.17 275.209 283.952 273.823 283.952C272.577 283.952 272.031 285.1 271.933 285.954ZM280.415 283.224H281.787L282.753 284.68C283.005 285.058 283.215 285.408 283.439 285.786H283.481C283.705 285.38 283.929 285.03 284.153 284.666L285.105 283.224H286.435L284.125 286.5L286.505 290H285.105L284.111 288.474C283.845 288.082 283.621 287.704 283.383 287.298H283.355C283.131 287.704 282.893 288.068 282.641 288.474L281.661 290H280.303L282.711 286.542L280.415 283.224ZM287.666 283.224H288.828V286.08C288.828 287.158 288.814 287.83 288.758 288.796L288.8 288.81C289.206 287.984 289.444 287.508 289.892 286.724L292.006 283.224H293.448V290H292.272V287.13C292.272 286.024 292.3 285.45 292.356 284.358H292.314C291.88 285.226 291.586 285.772 291.194 286.458C290.55 287.508 289.808 288.81 289.08 290H287.666V283.224ZM294.537 283.224H299.983V284.204H297.869V290H296.651V284.204H294.537V283.224ZM301.037 283.224H302.255V285.534C302.521 285.478 302.913 285.45 303.361 285.45C304.817 285.45 306.287 286.052 306.287 287.718C306.287 288.432 306.021 288.922 305.587 289.286C304.845 289.916 303.753 290.07 302.857 290.07C302.171 290.07 301.541 290.028 301.037 289.972V283.224ZM302.255 286.402V289.146C302.493 289.174 302.759 289.202 303.109 289.202C304.047 289.202 305.069 288.81 305.069 287.76C305.069 286.668 304.089 286.332 303.165 286.332C302.815 286.332 302.507 286.36 302.255 286.402ZM307.141 283.224H308.359V290H307.141V283.224Z" fill="#3D348A"/>
<defs>
<clipPath id="clip0_2003_6">
<rect width="180.86" height="175.295" fill="white" transform="translate(162.14)"/>
</clipPath>
</defs>
</svg>
