<svg width="441" height="270" viewBox="0 0 441 270" fill="none" xmlns="http://www.w3.org/2000/svg">
<g clip-path="url(#clip0_3_2624)">
<path d="M287.115 257.689C405.152 217.156 467.981 88.61 427.448 -29.4265L0 117.356C40.5329 235.393 169.079 298.222 287.115 257.689Z" fill="white"/>
<path d="M238.976 -58.7413C205.703 -30.6327 201.516 19.1271 229.625 52.4003C257.733 85.6736 307.493 89.8603 340.766 61.7517C374.04 33.6431 378.226 -16.1167 350.118 -49.3899C322.009 -82.6632 272.249 -86.8499 238.976 -58.7413Z" fill="#3B3393"/>
<path d="M118.041 150.8V144H114.241V150.8H118.041ZM118.041 154.8H114.241V164H118.041V154.8ZM122.241 141.84V149.68C122.241 151.28 121.401 152.36 120.161 152.8C121.401 153.24 122.241 154.28 122.241 155.92V166.16C122.241 167.24 121.521 168 120.401 168H110.041V140H120.401C121.521 140 122.241 140.76 122.241 141.84ZM130.77 157.56L128.05 168H123.85L128.13 153.24L124.13 140H128.33L130.77 149H130.89L133.37 140H137.57L133.57 153.24L137.85 168H133.65L130.89 157.56H130.77ZM143.655 164H147.855V144H143.655V164ZM150.215 168H141.295C140.175 168 139.455 167.24 139.455 166.16V141.84C139.455 140.76 140.175 140 141.295 140H150.215C151.335 140 152.055 140.76 152.055 141.84V166.16C152.055 167.24 151.335 168 150.215 168ZM159.295 164H162.455V144H160.655L159.295 164ZM156.695 140H166.655V164H168.055V171.68H163.855V168H157.655V171.68H153.455V164H155.055L156.695 140ZM180.647 154.4V164H184.447V154.4H180.647ZM180.647 150.4H186.807C187.927 150.4 188.647 151.16 188.647 152.24V166.16C188.647 167.24 187.927 168 186.807 168H176.447V140H188.247V144H180.647V150.4ZM190.861 168V140H201.261V144H195.061V150.8H201.061V154.8H195.061V164H201.261V168H190.861ZM215.679 168H205.319C204.199 168 203.479 167.24 203.479 166.16V141.84C203.479 140.76 204.199 140 205.319 140H215.679V148H211.479V144H207.679V164H211.479V158.8H215.679V168ZM217.893 140H230.693V168H226.493V144H222.093V168H217.893V140ZM239.008 144L237.648 168H232.088V164H233.688L235.048 140H245.288V168H241.088V144H239.008ZM247.697 140H260.097V168H255.897V158.8H251.897V168H247.697V140ZM255.897 154.8V144H251.897V154.8H255.897ZM261.702 144V140H273.902V144H269.902V168H265.702V144H261.702ZM284.31 140H288.51V168H284.31V154.8H279.71V168H275.51V140H279.71V150.8H284.31V140ZM295.1 154.4V164H298.3V154.4H295.1ZM308.3 168H304.1V140H308.3V168ZM302.5 152.24V166.16C302.5 167.24 301.78 168 300.66 168H290.9V140H295.1V150.4H300.66C301.78 150.4 302.5 151.16 302.5 152.24ZM314.705 138.8L313.905 135.8H319.705L318.905 138.8H314.705ZM323.705 168H319.505V152.32L314.905 161.96V168H310.705V140H314.905V154.24L319.505 144.6V140H323.705V168ZM326.496 168V164H330.496V168H326.496Z" fill="#EB3333"/>
</g>
<defs>
<clipPath id="clip0_3_2624">
<rect width="440.197" height="348" fill="white" transform="translate(0 -78)"/>
</clipPath>
</defs>
</svg>
