<svg width="441" height="270" viewBox="0 0 441 270" fill="none" xmlns="http://www.w3.org/2000/svg">
<g clip-path="url(#clip0_3_2624)">
<path d="M287.115 257.689C405.152 217.156 467.981 88.61 427.448 -29.4265L0 117.356C40.5329 235.393 169.079 298.222 287.115 257.689Z" fill="white"/>
<path d="M238.976 -58.7413C205.703 -30.6327 201.516 19.1271 229.625 52.4003C257.734 85.6736 307.493 89.8603 340.767 61.7517C374.04 33.6431 378.227 -16.1167 350.118 -49.3899C322.009 -82.6632 272.25 -86.8499 238.976 -58.7413Z" fill="#3B3393"/>
<path d="M121.635 150.8V144H117.835V150.8H121.635ZM121.635 154.8H117.835V164H121.635V154.8ZM125.835 141.84V149.68C125.835 151.28 124.995 152.36 123.755 152.8C124.995 153.24 125.835 154.28 125.835 155.92V166.16C125.835 167.24 125.115 168 123.995 168H113.635V140H123.995C125.115 140 125.835 140.76 125.835 141.84ZM134.364 157.56L131.644 168H127.444L131.724 153.24L127.724 140H131.924L134.364 149H134.484L136.964 140H141.164L137.164 153.24L141.444 168H137.244L134.484 157.56H134.364ZM147.249 164H151.449V144H147.249V164ZM153.809 168H144.889C143.769 168 143.049 167.24 143.049 166.16V141.84C143.049 140.76 143.769 140 144.889 140H153.809C154.929 140 155.649 140.76 155.649 141.84V166.16C155.649 167.24 154.929 168 153.809 168ZM162.889 164H166.049V144H164.249L162.889 164ZM160.289 140H170.249V164H171.649V171.68H167.449V168H161.249V171.68H157.049V164H158.649L160.289 140ZM184.241 154.4V164H188.041V154.4H184.241ZM184.241 150.4H190.401C191.521 150.4 192.241 151.16 192.241 152.24V166.16C192.241 167.24 191.521 168 190.401 168H180.041V140H191.841V144H184.241V150.4ZM194.455 168V140H204.855V144H198.655V150.8H204.655V154.8H198.655V164H204.855V168H194.455ZM219.272 168H208.912C207.792 168 207.072 167.24 207.072 166.16V141.84C207.072 140.76 207.792 140 208.912 140H219.272V148H215.072V144H211.272V164H215.072V158.8H219.272V168ZM221.486 140H234.286V168H230.086V144H225.686V168H221.486V140ZM242.602 144L241.242 168H235.682V164H237.282L238.642 140H248.882V168H244.682V144H242.602ZM251.291 140H263.691V168H259.491V158.8H255.491V168H251.291V140ZM259.491 154.8V144H255.491V154.8H259.491ZM265.296 144V140H277.496V144H273.496V168H269.296V144H265.296ZM287.904 140H292.104V168H287.904V154.8H283.304V168H279.104V140H283.304V150.8H287.904V140ZM298.694 154.4V164H301.894V154.4H298.694ZM311.894 168H307.694V140H311.894V168ZM306.094 152.24V166.16C306.094 167.24 305.374 168 304.254 168H294.494V140H298.694V150.4H304.254C305.374 150.4 306.094 151.16 306.094 152.24ZM318.299 138.8L317.499 135.8H323.299L322.499 138.8H318.299ZM327.299 168H323.099V152.32L318.499 161.96V168H314.299V140H318.499V154.24L323.099 144.6V140H327.299V168Z" fill="#EB3333"/>
</g>
<defs>
<clipPath id="clip0_3_2624">
<rect width="440.197" height="348" fill="white" transform="translate(0 -78)"/>
</clipPath>
</defs>
</svg>
