<svg width="36" height="27" viewBox="0 0 36 27" fill="none" xmlns="http://www.w3.org/2000/svg">
<path d="M33.2675 25.0923H34.2822V21.3802H33.6333C33.5856 22.6462 33.5284 24.3225 33.2675 25.0923ZM32.4023 20.391H35.6277V25.0923H35.9999V26.2183H31.6326V25.0923H31.9634C32.4182 24.0871 32.361 21.9464 32.4023 20.391Z" fill="#FF010B"/>
<path d="M28.4041 20.391H31.3877V21.517H29.7432V22.6748H31.1873V23.7945H29.7432V25.0923H31.4545V26.2183H28.4072V20.391H28.4041Z" fill="#FF010B"/>
<path d="M25.8499 25.2291H26.133C26.5783 25.2291 26.626 25.0096 26.626 24.4338C26.626 23.8581 26.5783 23.6386 26.1552 23.6386H25.8467V25.2259L25.8499 25.2291ZM27.6439 20.391V21.517H25.8531V22.6907H26.1043C27.2876 22.6907 27.9683 23.3301 27.9683 24.4179C27.9683 25.5058 27.6121 26.2183 26.4192 26.2183H24.5139V20.391H27.6439Z" fill="#FF010B"/>
<path d="M21.9597 24.7424C21.9597 24.8951 21.9597 25.2768 22.3478 25.2768C22.7359 25.2768 22.7359 24.8951 22.7359 24.7424V21.8637C22.7359 21.6601 22.7359 21.3293 22.3478 21.3293C21.9597 21.3293 21.9597 21.6601 21.9597 21.8637V24.7424ZM20.6238 21.9814C20.6238 20.8458 21.3522 20.2956 22.351 20.2956C23.3498 20.2956 24.0782 20.8458 24.0782 21.9814V24.631C24.0782 25.668 23.4229 26.3169 22.351 26.3169C21.279 26.3169 20.6238 25.668 20.6238 24.631V21.9814Z" fill="#FF010B"/>
<path d="M16.7336 20.391H20.1849V26.2183H18.8489V21.517H18.0696V26.2183H16.7336V20.391Z" fill="#FF010B"/>
<path d="M12.5222 24.7424C12.5222 24.8951 12.5222 25.2768 12.9103 25.2768C13.2984 25.2768 13.2984 24.8951 13.2984 24.7424V21.8637C13.2984 21.6601 13.2984 21.3293 12.9103 21.3293C12.5222 21.3293 12.5222 21.6601 12.5222 21.8637V24.7424ZM11.1831 21.9814C11.1831 20.8458 11.9115 20.2956 12.9103 20.2956C13.9091 20.2956 14.6375 20.8458 14.6375 21.9814V24.631C14.6375 25.668 13.9823 26.3169 12.9103 26.3169C11.8384 26.3169 11.1831 25.668 11.1831 24.631V21.9814Z" fill="#FF010B"/>
<path d="M7.88135 20.391H10.9604V21.517H10.092V26.2183H8.74655V21.517H7.87817V20.391H7.88135Z" fill="#FF010B"/>
<path d="M4.6145 20.391H7.59814V21.517H5.95364V22.6748H7.39774V23.7945H5.95364V25.0923H7.66493V26.2183H4.61768V20.391H4.6145Z" fill="#FF010B"/>
<path d="M0.158203 26.0497V25.0128C0.231363 25.1018 0.304522 25.1591 0.419033 25.1591C0.59716 25.1591 0.679862 25.1018 0.759383 24.8664C0.947053 24.3543 0.905702 22.5317 0.953415 20.391H4.17879V26.2183H2.8333V21.3802H2.1844C2.1685 22.3377 2.19395 24.3321 1.93312 25.2068C1.70728 25.9925 1.24287 26.2596 0.765745 26.2596C0.288618 26.2596 0.22182 26.1292 0.158203 26.0497Z" fill="#FF010B"/>
<path d="M35.7105 18.0849H35.3924V12.9605C35.3924 8.77135 31.9825 5.36148 27.7933 5.36148C23.6042 5.36148 20.1943 8.77135 20.1943 12.9605V18.0849H19.8762V12.9605C19.8762 10.8453 20.7001 8.85723 22.1951 7.36223C23.6901 5.86723 25.6781 5.04339 27.7933 5.04339C29.9086 5.04339 31.8966 5.86723 33.3916 7.36223C34.8866 8.85723 35.7105 10.8453 35.7105 12.9605V18.0849Z" fill="#FF010B"/>
<path d="M34.9758 18.0849H34.6577V12.986C34.6577 9.20076 31.5786 6.1217 27.7934 6.1217C24.0082 6.1217 20.9292 9.20076 20.9292 12.986V18.0849H20.6111V12.986C20.6111 11.0679 21.3586 9.26438 22.7136 7.90616C24.0718 6.54793 25.8754 5.80362 27.7934 5.80362C29.7115 5.80362 31.515 6.55111 32.8733 7.90616C34.2315 9.2612 34.9758 11.0679 34.9758 12.986V18.0849Z" fill="#FF010B"/>
<path d="M34.2156 18.0849H33.8975V12.986C33.8975 9.62063 31.1588 6.87874 27.7903 6.87874C24.4218 6.87874 21.6831 9.61745 21.6831 12.986V18.0849H21.365V12.986C21.365 9.4425 24.2468 6.56066 27.7903 6.56066C31.3338 6.56066 34.2156 9.4425 34.2156 12.986V18.0849Z" fill="#FF010B"/>
<path d="M33.5061 18.0849H33.188V13.0719C33.188 10.1041 30.7738 7.68668 27.8029 7.68668C24.832 7.68668 22.4177 10.1009 22.4177 13.0719V18.0849H22.0996V13.0719C22.0996 9.92599 24.657 7.36859 27.8029 7.36859C30.9487 7.36859 33.5061 9.92599 33.5061 13.0719V18.0849Z" fill="#FF010B"/>
<path d="M22.8123 18.0849V13.2373C22.8123 11.9077 23.3307 10.6544 24.2723 9.71606C25.2138 8.77771 26.4639 8.25605 27.7935 8.25605C30.5385 8.25605 32.7747 10.489 32.7747 13.2373V18.0849H32.4566V13.2373C32.4566 10.6671 30.3636 8.57413 27.7935 8.57413C25.2233 8.57413 25.376 9.05762 24.4949 9.93872C23.6138 10.8198 23.1303 11.9904 23.1303 13.2373V18.0849H22.8123Z" fill="#FF010B"/>
<path d="M32.0145 18.0849H31.6964V13.3136C31.6964 11.1602 29.9437 9.41069 27.7935 9.41069C25.6432 9.41069 23.8906 11.1633 23.8906 13.3136V18.0849H23.5725V13.3136C23.5725 10.9852 25.4651 9.09261 27.7935 9.09261C30.1219 9.09261 32.0145 10.9852 32.0145 13.3136V18.0849Z" fill="#FF010B"/>
<path d="M31.2798 18.0849H30.9617V13.3645C30.9617 11.6182 29.5399 10.1964 27.7936 10.1964C26.0473 10.1964 24.6255 11.6182 24.6255 13.3645V18.0849H24.3074V13.3645C24.3074 11.4401 25.8723 9.87828 27.7936 9.87828C29.7148 9.87828 31.2798 11.4433 31.2798 13.3645V18.0849Z" fill="#FF010B"/>
<path d="M6.10315 18.1264H0.848389V17.8083H6.10315C13.7022 17.8083 19.8858 11.6247 19.8858 4.0225V0.52993H20.2038V4.01932C20.2038 5.92465 19.8317 7.76954 19.0969 9.50946C18.3876 11.189 17.3697 12.6967 16.0751 13.9913C14.7805 15.2859 13.2728 16.3038 11.5933 17.0131C9.85337 17.7479 8.00848 18.12 6.10315 18.12V18.1264Z" fill="#FF010B"/>
<path d="M6.10315 17.3628H0.848389V17.0447H6.10315C13.3109 17.0447 19.1733 11.1792 19.1733 3.97145L19.1669 0.517046H19.485L19.4913 3.97145C19.4913 5.77817 19.1383 7.53081 18.4385 9.18167C17.7641 10.7753 16.8003 12.2067 15.5693 13.4376C14.3384 14.6686 12.907 15.6324 11.3134 16.3068C9.66252 17.0066 7.90987 17.3596 6.09997 17.3596L6.10315 17.3628Z" fill="#FF010B"/>
<path d="M6.10315 16.6026H0.848389V16.2845H6.10315C12.9133 16.2845 18.4544 10.7435 18.4544 3.9301V0.580664H18.7725V3.92691C18.7725 5.63821 18.4385 7.29543 17.7769 8.85723C17.1375 10.365 16.2246 11.72 15.0636 12.8842C13.8994 14.0484 12.5444 14.9613 11.0366 15.6006C9.47485 16.2622 7.81444 16.5962 6.10315 16.5962V16.6026Z" fill="#FF010B"/>
<path d="M6.10315 15.836H0.848389V15.5179H6.10315C12.5189 15.5179 17.7387 10.2982 17.7387 3.88238V0.520229H18.0568V3.88238C18.0568 5.49507 17.7419 7.06323 17.1184 8.53596C16.5172 9.96098 15.6552 11.2365 14.5578 12.3371C13.4604 13.4345 12.1817 14.2965 10.7599 14.8977C9.28718 15.5211 7.7222 15.836 6.10951 15.836H6.10315Z" fill="#FF010B"/>
<path d="M6.10634 15.0632L0.845215 15.0409V14.7228L6.10634 14.7451C12.1245 14.7451 17.023 9.84659 17.023 3.82842V0.520342H17.3411V3.82842C17.3411 5.34569 17.0453 6.81842 16.4568 8.20209C15.8906 9.54122 15.0795 10.7404 14.0489 11.7742C13.0183 12.8048 11.816 13.6159 10.4768 14.1821C9.09315 14.7674 7.62042 15.0632 6.10316 15.0632H6.10634Z" fill="#FF010B"/>
<path d="M6.10315 14.3061L0.845215 14.2966V13.9785L6.10315 13.988C11.7301 13.988 16.3041 9.41081 16.3041 3.78389V0.520342H16.6222V3.78707C16.6222 6.59894 15.528 9.23904 13.54 11.2271C11.5519 13.2151 8.91184 14.3093 6.09997 14.3093L6.10315 14.3061Z" fill="#FF010B"/>
<path d="M6.10315 13.5394H0.848389V13.2214H6.10315C11.3325 13.2214 15.5884 8.96538 15.5884 3.73607V0.520229H15.9065V3.73607C15.9065 6.3539 14.8855 8.81588 13.0342 10.6671C11.183 12.5184 8.72099 13.5394 6.10315 13.5394Z" fill="#FF010B"/>
<path d="M20.2038 0.520229H19.8857V18.0912H20.2038V0.520229Z" fill="#FF010B"/>
<path d="M19.4819 0.520229H19.1638V18.0912H19.4819V0.520229Z" fill="#FF010B"/>
<path d="M18.7822 0.520229H18.4641V18.0912H18.7822V0.520229Z" fill="#FF010B"/>
<path d="M18.0664 0.520229H17.7483V18.0912H18.0664V0.520229Z" fill="#FF010B"/>
<path d="M17.3442 0.532951H17.0261V18.0912H17.3442V0.532951Z" fill="#FF010B"/>
<path d="M16.3417 0.522646L16.311 18.0904L16.6291 18.091L16.6598 0.523202L16.3417 0.522646Z" fill="#FF010B"/>
<path d="M15.9001 0.520229H15.582V18.0912H15.9001V0.520229Z" fill="#FF010B"/>
</svg>
