<svg width="88" height="44" viewBox="0 0 88 44" fill="none" xmlns="http://www.w3.org/2000/svg">
<g clip-path="url(#clip0_21_333)">
<path d="M44.7556 6.08807H48.1993V12.2829H49.4359V4.97133H43.5215V12.2829H44.758V6.08807H44.7556Z" fill="black"/>
<path d="M60.0282 12.4051C62.0891 12.4051 63.4575 10.8354 63.4575 8.63069C63.4575 6.42596 62.0891 4.8563 60.0282 4.8563C57.9672 4.8563 56.5989 6.42596 56.5989 8.63069C56.5989 10.8354 57.9672 12.4051 60.0282 12.4051ZM60.0282 5.98502C61.3846 5.98502 62.1946 7.08738 62.1946 8.63069C62.1946 10.174 61.3702 11.2764 60.0282 11.2764C58.6862 11.2764 57.8738 10.174 57.8738 8.63069C57.8594 7.08978 58.6718 5.98502 60.0282 5.98502Z" fill="black"/>
<path d="M47.3869 31.3777L45.048 25.7149H43.519V33.0264H44.7029V27.7351L46.8836 33.0001H47.8806L50.0469 27.7351V33.0264H51.2164V25.7149H49.7138L47.3869 31.3777Z" fill="black"/>
<path d="M71.5813 8.92066L74.5193 12.2829H76.0746L72.8179 8.46773L76.0075 4.97133H74.5049L71.5813 8.13462V4.97133H70.3447V12.2829H71.5813V8.92066Z" fill="black"/>
<path d="M69.2449 11.1661H65.7222V9.07882H69.046V8.00282H65.7222V6.08807H69.2449V4.97133H64.4856V12.2829H69.2449V11.1661Z" fill="black"/>
<path d="M60.9077 20.1264H62.3576C63.8985 20.1264 64.8427 19.0504 64.8427 17.7348C64.8427 16.4191 63.9392 15.3431 62.3168 15.3431H59.6592V22.6546H60.8957V20.1288H60.9101L60.9077 20.1264ZM60.9077 16.4311H62.2114C63.1148 16.4311 63.6061 16.9631 63.6061 17.7348C63.6061 18.5064 63.1005 19.0504 62.2114 19.0504H60.9077V16.4311Z" fill="black"/>
<path d="M82.0489 4.97133H76.2136V6.08807H78.5142V12.2829H79.7508V6.08807H82.0513V4.97133H82.0489Z" fill="black"/>
<path d="M77.6851 29.2017C78.15 29.0028 78.6413 28.4828 78.6413 27.6201C78.6413 26.556 77.8696 25.7197 76.3814 25.7197H73.5632V33.0312H76.4749C77.9775 33.0312 78.9217 32.1661 78.9217 30.9583C78.9217 29.8823 78.2171 29.3503 77.6851 29.2041V29.2017ZM74.7998 26.7693H76.2089C76.9542 26.7693 77.3927 27.1408 77.3927 27.7662C77.3927 28.3246 77.0333 28.7632 76.264 28.7632H74.8022V26.7693H74.7998ZM76.3407 31.9528H74.7998V29.7721H76.3958C77.1795 29.7721 77.6731 30.1842 77.6731 30.8624C77.6587 31.567 77.1291 31.9528 76.3431 31.9528H76.3407Z" fill="black"/>
<path d="M72.8564 25.7149H71.3538L68.4158 28.8782V25.7149H67.1792V33.0264H68.4158V29.6642L71.3538 33.0264H72.9235L69.6523 29.2113L72.8564 25.7149Z" fill="black"/>
<path d="M87.0288 25.7149H85.7922V33.0264H87.0288V25.7149Z" fill="black"/>
<path d="M47.3869 21.0035L45.048 15.3407H43.519V22.6522H44.7029V17.3609L46.8836 22.6259H47.8806L50.0469 17.3609V22.6522H51.2164V15.3407H49.7138L47.3869 21.0035Z" fill="black"/>
<path d="M70.0789 22.6522H71.3826L68.6578 15.3407H67.3685L64.6558 22.6522H65.9594L66.5705 20.9244H69.4558L70.0813 22.6522H70.0789ZM66.942 19.8484L68.006 16.8169L69.07 19.8484H66.9444H66.942Z" fill="black"/>
<path d="M82.5331 28.3054H81.124V25.7125H79.8875V33.024H82.5595C84.0884 33.024 85.0446 31.9744 85.0446 30.6587C85.0446 29.3431 84.1267 28.3054 82.5331 28.3054ZM82.4133 31.9336H81.124V29.3958H82.4133C83.2904 29.3958 83.796 29.8871 83.796 30.6587C83.796 31.4304 83.2784 31.936 82.4133 31.936V31.9336Z" fill="black"/>
<path d="M55.9901 7.36536C55.9901 6.03534 55.0867 4.97372 53.4643 4.97372H50.8066V12.2853H52.0432V9.75941H53.493C55.0483 9.75941 55.9925 8.68341 55.9925 7.36776L55.9901 7.36536ZM52.0432 8.68101V6.0617H53.3469C54.2503 6.0617 54.7416 6.59371 54.7416 7.36536C54.7416 8.13702 54.2359 8.68101 53.3469 8.68101H52.0432Z" fill="black"/>
<path d="M63.1315 32.0127C61.8542 32.0127 61.0442 30.9104 61.0442 29.3671C61.0442 27.8238 61.8685 26.7214 63.1315 26.7214C64.1955 26.7214 64.7658 27.3588 64.9647 28.1041H66.2013C65.988 26.7358 64.9528 25.5927 63.1315 25.5927C61.1496 25.5927 59.7812 27.148 59.7812 29.3671C59.7812 31.5862 61.1904 33.1415 63.1315 33.1415C65.0726 33.1415 66.0959 31.7467 66.2277 30.6156H64.9791C64.8737 31.2411 64.2746 32.0103 63.1315 32.0103V32.0127Z" fill="black"/>
<path d="M55.2951 21.6529C54.1376 21.6529 53.5937 20.8956 53.4331 20.3636H52.1965C52.3571 21.3869 53.2606 22.7697 55.2807 22.7697C57.1955 22.7697 58.6429 21.3606 58.6429 18.9953C58.6429 16.63 57.2482 15.2209 55.2927 15.2209C53.4978 15.2209 52.4482 16.3784 52.2229 17.6269H53.4451C53.6584 16.9631 54.2287 16.3376 55.2927 16.3376C56.3567 16.3376 57.1811 17.0685 57.3537 18.3986H54.4564V19.4626H57.368C57.2482 20.8309 56.4502 21.6553 55.2951 21.6553V21.6529Z" fill="black"/>
<path d="M55.6715 25.5927C53.6106 25.5927 52.2422 27.1623 52.2422 29.3671C52.2422 31.5718 53.6106 33.1415 55.6715 33.1415C57.7324 33.1415 59.1008 31.5718 59.1008 29.3671C59.1008 27.1623 57.7324 25.5927 55.6715 25.5927ZM55.6715 32.0127C54.3151 32.0127 53.5171 30.9104 53.5171 29.3671C53.5171 27.8238 54.3271 26.7214 55.6715 26.7214C57.0159 26.7214 57.8379 27.8238 57.8379 29.3671C57.8379 30.9104 57.0279 32.0127 55.6715 32.0127Z" fill="black"/>
<path d="M3.27341 28.5475L4.20322 28.2407C4.0163 27.6967 4.28231 27.2294 4.64177 27.0713C4.77358 27.0042 4.91976 26.9514 5.08032 26.8987C5.91668 26.592 7.04779 26.1798 7.60616 24.0014C7.89853 22.832 8.36344 22.2856 8.85471 22.0483C8.57672 23.0716 8.69415 24.0422 8.80199 24.8665C8.86909 25.4105 8.93379 25.9306 8.86909 26.3284C8.76364 26.9395 8.31072 27.4715 7.5127 27.9627L7.34016 28.0682L7.28744 28.2671C7.28744 28.2671 6.5038 31.0709 6.09162 32.5208L6.05088 32.6669L6.09162 32.8131C6.13236 32.9857 6.18508 33.1462 6.22342 33.3044C6.4367 34.0761 6.60925 34.6871 6.60925 35.7368H7.67326C7.67326 34.541 7.47436 33.8364 7.24909 33.024C7.22273 32.9186 7.18199 32.7988 7.15563 32.6909C7.34256 32.0535 7.5798 31.1883 7.79309 30.4191C8.11181 30.34 8.40418 30.2585 8.67018 30.1938C10.0793 29.8487 10.7838 29.6618 12.1786 28.9045C13.2809 28.2934 14.1053 27.2438 14.4504 26.7382C15.3682 26.8172 17.9732 26.9898 19.7944 26.6447C21.4959 26.326 22.5072 25.9138 22.9841 25.6741L24.7647 28.1065L24.6329 28.2L24.0074 28.6793L24.3525 29.1058C24.3668 29.1202 25.1768 30.1171 25.589 30.6611C25.6681 30.781 26.0683 31.3801 25.4956 31.9768C24.9779 32.5208 23.8995 32.6286 23.2885 32.1901C23.0488 32.0175 22.9026 31.7922 22.8619 31.5119C22.8211 31.2459 22.8882 30.9535 23.0344 30.7546C23.5784 30.0357 23.6982 29.2137 23.3675 28.5355C23.0895 27.9771 22.5432 27.644 21.8913 27.644C21.5055 27.644 21.0406 27.644 20.4966 27.6584C19.1282 27.6728 17.4124 27.6991 15.6989 27.644L14.7428 27.6177L15.222 28.442C15.222 28.4564 15.5551 29.0004 15.8739 29.6379C15.0231 29.4246 13.7866 29.3047 12.284 29.6786C10.6616 30.0908 8.97453 31.4328 8.82835 33.4937C8.76125 34.3588 9.01527 35.1425 9.50654 35.7128C9.94509 36.2185 10.5442 36.4965 11.2344 36.5492H11.3949C12.1666 36.5492 12.8711 36.2161 13.3097 35.6313C13.7363 35.073 13.8537 34.3828 13.6428 33.731C13.5637 33.5057 13.4702 33.3188 13.3504 33.1462C14.067 33.0408 14.5079 33.3188 14.6541 33.5992C14.9872 34.2246 14.3473 34.8621 14.321 34.8884L14.0142 35.1808L15.397 37.4934H19.4901V36.4294H18.0954C17.9899 36.3239 17.8294 36.1514 17.7095 35.8973C17.6161 35.7104 17.3501 35.0873 17.7623 34.7806C18.0403 34.5673 18.3063 34.5673 18.9197 34.807C19.3056 34.9531 19.6387 35.1257 19.9957 35.3126C20.8992 35.7775 21.829 36.2688 23.5449 36.3095L24.0242 37.4934H28.2922V36.4294H26.4973L26.3775 35.9644C27.2426 35.6577 27.9998 35.1808 28.5582 34.5553C29.4617 33.544 29.8739 32.1901 29.754 30.6468C29.9002 30.4862 30.1518 30.2346 30.3651 30.0213L30.8971 29.5037L29.6486 28.8782C28.5846 28.3606 28.0669 27.8813 27.614 26.3116L27.3217 25.2092L26.3104 25.5687C25.7112 25.782 25.2991 26.314 25.208 26.9107L24.0385 25.3147C24.942 25.3003 25.8335 24.9552 26.2457 24.7156C27.9879 23.6923 28.8913 23.1747 29.3419 22.9087C30.0464 23.7594 31.2566 25.341 31.4962 26.072C31.6017 26.4051 31.6281 27.6416 31.6017 28.4253L32.6657 28.4516C32.6801 28.1065 32.7064 26.3787 32.5051 25.7388C32.1073 24.543 30.0991 22.149 29.8595 21.883L29.6198 21.5906L29.5935 21.5235C28.8362 21.9093 28.0238 22.0148 27.4271 22.0148C27.7338 21.6026 27.9855 21.0706 28.1173 20.3924L30.6958 18.9977C31.3069 19.6878 32.3302 20.9244 32.5699 21.5643C32.7017 21.9237 32.7831 23.2394 32.8095 24.0637L33.8735 24.0374C33.8591 23.6779 33.8064 21.8566 33.5811 21.2072C33.1833 20.1168 31.4148 18.1901 31.2159 17.9648L30.9379 17.6581L28.1868 19.1463C27.9998 17.7899 27.0964 16.6731 26.4062 15.8104C26.2457 15.6115 26.0995 15.4246 25.9796 15.2664C25.7544 14.9477 25.4884 14.4948 25.2487 14.0706C25.5675 14.1113 25.9269 14.097 26.3391 13.9915C26.6051 14.0442 27.3624 14.3102 27.9615 14.5619L28.2802 14.6937L28.8386 14.1617C29.5288 13.4978 29.5432 12.3811 28.8793 11.6885L26.8328 9.60124V8.81761L26.5404 8.67142C26.4086 8.60432 25.2775 8.06033 24.6137 7.95249C23.6839 7.76557 22.0878 7.73921 20.7986 9.09559L19.4829 8.72415C19.562 8.25924 19.6027 8.01959 19.6291 7.74161L19.6555 7.51634C19.8807 5.98741 18.9773 4.9234 18.2991 4.40577C18.498 3.9145 18.5771 3.19557 18.0067 2.62521C17.5274 2.14593 16.9427 2.04048 16.08 2.28013C15.5743 2.41193 15.1358 2.75941 14.6709 3.1045C14.4839 3.25068 14.285 3.39687 14.0861 3.52867C13.0221 4.25958 12.133 3.56941 11.6945 3.1045L10.9228 3.84979C11.5866 4.56872 12.3727 4.94017 13.1419 4.94017C13.6739 4.94017 14.1916 4.76763 14.6972 4.43452C14.9225 4.27396 15.1358 4.1158 15.3227 3.96961C15.7205 3.66287 16.0536 3.41124 16.3604 3.33216C16.9978 3.15962 17.1584 3.3058 17.2638 3.41124C17.5562 3.70361 17.2638 4.16852 17.2231 4.20926C16.6527 4.43452 15.1765 5.05999 14.9776 6.81419C14.9249 7.21199 14.8985 7.6793 14.8722 8.02439C14.194 8.01001 13.0245 8.11785 11.9605 8.8224L7.98001 3.38488L7.11489 4.01035L8.98891 6.57694C8.79 6.85493 8.21726 7.77276 8.56474 8.50367C8.79 8.98296 9.48257 10.4184 9.78692 11.0559C9.17583 11.8012 7.48634 13.9939 6.59726 16.5054L6.31928 17.289L7.14365 17.2099C8.38021 17.0901 8.95057 17.3705 9.56166 17.6629C9.81328 17.7827 10.0673 17.9025 10.3717 17.996C11.4884 18.3554 12.2864 18.2212 12.9766 18.1014C13.07 18.2739 13.1755 18.4465 13.2833 18.6071C13.0581 18.6071 12.8184 18.6334 12.5788 18.6861L12.4997 18.7005C11.9677 18.806 11.4501 18.9258 10.918 19.2325C10.5202 18.8203 9.76056 18.2763 8.56474 18.2763C6.70271 18.2763 5.3607 19.4458 4.85505 21.5067C4.40213 23.3688 3.9516 23.8984 3.58015 24.325C3.40761 24.5239 3.22068 24.7371 3.08888 25.0439C2.53051 26.2541 2.67669 27.2246 3.15598 28.5666L3.2758 28.5523L3.27341 28.5475ZM25.3781 36.403H24.7263L24.6736 36.2688C24.8989 36.2544 25.1121 36.2281 25.3254 36.1897L25.3781 36.403ZM25.9629 28.5211L26.0156 28.3749C26.042 28.3078 26.2816 27.6848 26.2409 27.1647C26.2265 26.9251 26.3607 26.6854 26.574 26.58C27.1323 28.4684 27.8632 29.1466 29.0854 29.7577C28.9536 29.9039 28.8338 30.0357 28.7667 30.1171L28.6469 30.2897L28.6732 30.4886C28.8194 31.8306 28.5007 32.9737 27.7554 33.7981C27.3169 34.2774 26.7441 34.6632 26.0683 34.9004L25.1241 35.1401C24.8461 35.1808 24.5538 35.2072 24.259 35.2192V35.2048H23.7534C22.1573 35.2048 21.3473 34.7806 20.4846 34.3277C20.1252 34.1408 19.7393 33.9419 19.3152 33.7693C18.8502 33.5824 17.9851 33.2517 17.1488 33.8748C16.4298 34.3924 16.2837 35.351 16.7773 36.3215C16.7917 36.3359 16.7917 36.3623 16.8037 36.3742H16.0201L15.3682 35.2719C15.766 34.7399 16.0872 33.8891 15.6199 33.0384C15.2077 32.2811 14.2635 31.8809 13.2282 32.0415C11.9126 32.2404 11.4069 32.933 11.22 33.544C11.1936 33.5968 11.1793 33.6639 11.1673 33.731V33.8101C11.1673 34.1551 11.4453 34.4475 11.8047 34.4475C12.1642 34.4475 12.4422 34.1695 12.4422 33.8101C12.4422 33.743 12.4278 33.6782 12.4158 33.6111C12.5093 33.6639 12.6147 33.7837 12.6938 34.009C12.7992 34.3157 12.7345 34.6464 12.5213 34.9268C12.2553 35.2719 11.8167 35.4588 11.3518 35.4181C10.954 35.3917 10.6065 35.2311 10.3549 34.9388C10.0481 34.5937 9.90195 34.0737 9.94269 33.4889C10.0625 31.7347 11.6705 30.8576 12.5884 30.63C15.0351 30.0189 16.5904 30.9223 16.6551 30.9487L17.9444 31.7323L17.4268 30.3113C17.2398 29.7936 16.9091 29.1538 16.6431 28.6361C18.0786 28.6625 19.4733 28.6361 20.5517 28.6218C21.0957 28.6074 21.563 28.6074 21.9345 28.6074C22.1741 28.6074 22.3586 28.7128 22.4521 28.9141C22.5719 29.1538 22.5719 29.566 22.2268 30.0165C21.9081 30.4431 21.7739 31.0278 21.8554 31.5718C21.9345 32.1301 22.2412 32.6094 22.7061 32.9401C23.7558 33.6974 25.4045 33.5393 26.296 32.5951C27.1323 31.7036 26.9862 30.6156 26.4685 29.911C26.2169 29.5779 25.8311 29.101 25.5507 28.7536L25.9629 28.5139V28.5211ZM15.2772 9.11237L15.8763 9.21781L15.9026 8.60672C15.9026 8.59234 15.9434 7.65054 16.0344 6.93161C16.1662 5.81487 17.0841 5.40268 17.5753 5.20378C17.9468 5.48177 18.7712 6.21508 18.613 7.37016L18.5866 7.59542C18.5339 7.94051 18.4932 8.23288 18.3614 9.00453L18.2679 9.48382L20.1299 10.0158C19.2121 11.6382 19.2265 13.6584 19.32 15.0795C19.4134 16.4742 19.8376 17.7515 19.8639 17.8042L20.8752 17.4711C20.8752 17.4568 20.4774 16.2609 20.384 15.0124C20.2905 13.6297 20.2785 11.6238 21.2491 10.2267C22.1933 8.89669 23.4826 8.80562 24.386 8.96379C24.7191 9.01651 25.3302 9.27053 25.728 9.45506V9.99905L28.0669 12.4051C28.1868 12.5369 28.2659 12.7118 28.2539 12.8844C28.2539 13.0713 28.1748 13.2438 28.055 13.3636L28.0022 13.4164C27.4583 13.2031 26.6459 12.8987 26.2744 12.8844H26.1953L26.1162 12.9107C25.093 13.1887 24.549 12.6855 24.5346 12.6591L24.017 12.1151L23.6839 12.7933C23.564 13.0329 23.5521 13.1528 24.1368 14.2815C24.2973 14.5882 24.7071 15.3575 25.081 15.8775C25.2128 16.0644 25.3734 16.2633 25.5459 16.4622C26.3439 17.4448 27.3264 18.6694 27.0868 20.0641C26.9406 20.9412 26.5428 21.4588 26.0108 21.9645L25.4261 22.5085L26.157 22.8416C26.3295 22.9206 26.6219 22.9877 26.9814 23.0285C26.6219 23.2418 26.1977 23.4814 25.7065 23.7738C25.347 23.9727 23.7653 24.6245 23.0081 23.8936L12.6003 9.67074C13.8225 8.8871 15.2724 9.11237 15.2843 9.11237H15.2772ZM12.7513 19.7597L12.8304 19.7454C13.7075 19.5584 14.5726 19.8772 14.5726 19.8772C15.0112 20.1839 15.5168 20.4212 16.0344 20.5554L16.3124 19.5321C15.1837 19.2253 14.2251 18.3746 13.8129 17.325L13.6524 16.9391L13.2402 17.0062C13.1204 17.0206 12.9886 17.047 12.8687 17.0733C12.2169 17.1788 11.6058 17.2866 10.7143 17.0062C10.4747 16.9272 10.2614 16.8337 10.0362 16.7282C9.49216 16.4766 8.89305 16.1843 7.89613 16.1579C8.98651 13.632 10.8078 11.5448 10.8198 11.5184L11.0451 11.2524L10.8989 10.9337C10.8989 10.9337 9.83485 8.6882 9.5305 8.06273C9.48976 7.99563 9.55686 7.77036 9.67669 7.51874L22.3179 24.7731C21.865 24.972 20.9879 25.3051 19.5788 25.5711C17.5586 25.9569 14.2491 25.6238 14.2227 25.6238L13.8896 25.5831L13.7171 25.8754C13.7027 25.8898 12.8663 27.2846 11.6561 27.9364C10.3812 28.6266 9.76775 28.7871 8.39938 29.1322C8.30592 29.1586 8.21246 29.1849 8.10702 29.1993C8.15974 29.0124 8.20048 28.8542 8.23882 28.7344C9.18302 28.0969 9.74139 27.3517 9.89956 26.5009C10.005 25.9425 9.92592 25.3434 9.84683 24.7204C9.70065 23.5365 9.54009 22.3143 10.4987 21.0658C11.2823 20.0689 11.867 19.9491 12.7441 19.7621L12.7513 19.7597ZM4.41651 25.0367C4.82869 24.5574 5.39905 23.8936 5.90469 21.7799C6.1707 20.6776 6.86087 19.3619 8.57672 19.3619C9.34837 19.3619 9.82527 19.6687 10.0913 19.9203C9.94509 20.0665 9.7989 20.239 9.65272 20.4259C9.54728 20.5578 9.45382 20.692 9.37474 20.8238C8.28436 20.9172 7.10291 21.5547 6.55652 23.7354C6.14434 25.3842 5.43978 25.6358 4.69449 25.9018C4.52195 25.9689 4.33503 26.0336 4.16248 26.1151C4.04266 26.1678 3.92284 26.2469 3.8174 26.3284C3.85814 26.0624 3.92284 25.8107 4.05704 25.5184C4.16248 25.3315 4.27032 25.2116 4.41651 25.0391V25.0367Z" fill="black"/>
<path d="M0.548584 33.2733C0.548584 37.5533 3.10079 40.1055 7.38083 40.1055H12.4062C14.5606 40.1055 16.6191 41.0233 18.0546 42.6433L18.4524 43.0819L18.8502 42.6433C20.2856 41.0353 22.3466 40.1055 24.4986 40.1055H29.5239C33.9238 40.1055 36.3561 37.6731 36.3561 33.2733V0.322239H0.548584V33.2733ZM1.6126 1.38626H35.2945V33.2756C35.2945 37.05 33.3007 39.0439 29.5263 39.0439H24.501C22.2411 39.0439 20.0604 39.9353 18.4524 41.517C16.8444 39.9353 14.6636 39.0439 12.4038 39.0439H7.37843C3.70948 39.0439 1.61021 36.9446 1.61021 33.2756V1.38626H1.6126Z" fill="black"/>
</g>
<defs>
<clipPath id="clip0_21_333">
<rect width="86.4802" height="42.762" fill="white" transform="translate(0.548584 0.322239)"/>
</clipPath>
</defs>
</svg>
