<svg width="153" height="45" viewBox="0 0 153 45" fill="none" xmlns="http://www.w3.org/2000/svg">
<path d="M8.86144 17.5013V14.8758H12.1433V17.5013V17.6654V17.9936C12.1433 22.4242 10.1742 26.5265 6.89231 29.4802C5.08728 31.1211 2.95406 32.4339 0.656738 33.2544V29.9725C2.13359 29.3161 3.44634 28.4956 4.595 27.347C7.2205 25.0497 8.86144 21.6037 8.86144 17.9936V17.6654V17.5013ZM25.2709 17.5013V14.8758H28.5527V17.5013V17.6654V17.9936C28.5527 21.6037 30.1937 24.8856 32.8192 27.347C33.9678 28.3315 35.2806 29.3161 36.7574 29.9725V33.2544C34.296 32.4339 32.1628 31.1211 30.5219 29.4802C27.24 26.5265 25.2709 22.4242 25.2709 17.9936V17.6654V17.5013ZM0.656738 38.8336C4.4309 37.849 7.87688 35.8799 10.6665 33.4185C12.7997 31.4493 14.4406 29.3161 15.5893 26.6906C16.4098 28.8238 17.3943 30.6289 18.7071 32.4339C19.8557 30.793 20.8403 28.8238 21.8249 26.6906C22.9735 29.152 24.6145 31.4493 26.7477 33.4185C29.5373 35.8799 32.9833 37.849 36.7574 38.8336V35.5517C33.8037 34.5671 31.1782 33.0903 29.045 31.1211C25.4349 27.8393 23.3017 23.2446 23.3017 18.3218V4.5379H20.0198V18.3218C20.0198 20.7832 19.5276 23.5728 18.8712 25.8701C18.0507 23.7369 17.7225 20.7832 17.7225 18.3218V4.5379H14.4406V18.3218C14.4406 23.2446 12.1433 27.8393 8.69735 31.1211C6.56413 33.0903 3.93862 34.5671 0.984927 35.5517V38.8336H0.656738ZM15.4252 31.4493C14.6047 32.598 13.6202 33.5826 12.4715 34.5671C9.18963 37.5208 5.25137 39.654 0.656738 40.6386V43.7564C6.07184 42.6077 10.9947 40.1463 14.9329 36.7003C15.7534 35.8799 16.5739 35.2235 17.2302 34.2389H17.0662C16.4098 33.4185 15.9175 32.4339 15.4252 31.4493ZM20.348 34.5671C21.0044 35.3876 21.8249 36.044 22.4813 36.8644C26.2554 40.3104 31.1782 42.9359 36.7574 43.9205V40.8027C32.1628 39.8181 28.0605 37.6849 24.9427 34.7312C23.9581 33.7467 22.9735 32.7621 22.1531 31.7775C21.6608 32.7621 21.1685 33.5826 20.5121 34.403C20.5121 34.403 20.348 34.403 20.348 34.5671Z" fill="#FB0C34"/>
<path d="M51.5258 16.6808C52.3463 12.7425 53.3309 8.47608 53.6591 4.53782H57.5973V22.7523H55.1359V15.5321L55.4641 8.96836C55.1359 11.1016 53.6591 18.814 51.854 22.5882H51.5258H51.1976C49.3926 18.814 47.9158 11.1016 47.5876 8.96836L47.9158 15.5321V22.7523H45.4543V4.53782H49.3926C49.8849 8.47608 50.8695 12.7425 51.5258 16.6808ZM110.272 7.65561V8.47608V9.95293C110.272 11.4298 109.615 12.4143 108.631 13.0707C109.615 13.8912 110.272 15.2039 110.272 16.6808V22.5882C108.466 22.5882 106.826 22.5882 105.021 22.5882H102.067V4.37373H105.021C106.826 4.37373 108.466 4.37373 110.272 4.37373V7.65561ZM104.856 14.5476V20.1268H107.318C107.318 18.9781 107.318 17.8294 107.318 16.5167C107.318 14.7117 106.005 14.5476 104.856 14.5476ZM104.856 6.99923V11.9221C106.005 11.9221 107.318 11.9221 107.318 10.117V8.47608V7.16333H104.856V6.99923ZM94.3544 22.7523H91.4007V4.37373H94.3544H97.144H100.098V22.5882H97.144H94.3544V22.7523ZM96.9799 6.99923H94.3544V20.1268H96.9799V6.99923ZM62.6842 22.7523H59.7305V4.37373H62.6842H65.4738H68.4275V22.5882H65.4738H62.6842V22.7523ZM65.3097 6.99923H62.6842V20.1268H65.3097V6.99923ZM115.03 22.7523H112.077V4.37373H115.03H117.82H120.774V11.758H117.82V6.99923H115.03V20.1268H117.82V15.368H120.774V22.7523H117.82H115.03ZM73.1863 22.7523H70.2326V4.37373H73.1863H75.9759H78.9296V11.758H75.9759V6.99923H73.1863V20.1268H75.9759V15.368H78.9296V22.7523H75.9759H73.1863ZM125.696 22.7523H122.743V4.53782H125.696V11.758H126.189C127.83 11.758 128.322 10.117 128.322 8.96836V4.70192H131.276V8.80427C131.276 10.7734 130.619 12.0862 129.142 13.0707C130.619 14.0553 131.276 15.5321 131.276 17.3372V22.7523H128.322V17.1731C128.322 16.0244 127.666 14.5476 126.189 14.5476H125.696V22.7523ZM151.459 2.2405H145.059V0.107281H151.459V2.2405ZM143.911 22.7523V4.53782H146.536V15.2039L149.49 4.53782H152.772V22.7523H149.982V10.117L146.372 22.9164L143.911 22.7523ZM133.081 22.7523V4.53782H135.706V15.2039L138.66 4.53782H141.942V22.7523H139.316V10.117L135.706 22.9164L133.081 22.7523ZM83.8524 22.7523H81.0628V4.53782H84.0165V11.758H84.5087C86.1497 11.758 86.642 10.117 86.642 8.96836V4.70192H89.5957V8.80427C89.5957 10.7734 88.9393 12.0862 87.4624 13.0707C88.9393 14.0553 89.5957 15.5321 89.5957 17.3372V22.7523H86.642V17.1731C86.642 16.0244 85.9856 14.5476 84.5087 14.5476H84.0165V22.7523H83.8524Z" fill="#FB0C34"/>
<path d="M59.0742 43.9202H56.1205V25.7057H64.6534V43.9202H61.6997V28.3312H58.9101V43.9202H59.0742ZM48.408 43.9202H45.4543V25.7057H48.408H51.1976H54.1513V33.09H51.1976V28.3312H48.408V41.4588H51.1976V36.7H54.1513V44.0843H51.1976H48.408V43.9202ZM69.5762 43.9202H66.6225V25.7057H69.5762H72.3658H75.3195V43.9202H72.3658H69.5762ZM72.3658 28.1671H69.7403V41.2947H72.3658V28.1671ZM86.3138 25.7057H95.339V28.3312H92.3853V43.9202H89.2675V28.3312H86.3138V25.7057ZM85.4933 31.9413V32.7618V34.2386C85.4933 37.0282 84.0165 38.9973 81.2269 38.9973H80.2423V43.9202H77.2886V25.7057C80.0782 25.7057 82.7037 25.7057 85.4933 25.7057V31.9413ZM80.2423 28.1671V36.3718C81.391 36.3718 82.7037 36.2077 82.7037 34.4027V32.7618V28.3312H80.2423V28.1671Z" fill="#FB0C34"/>
</svg>
