<svg width="37" height="75" viewBox="0 0 37 75" fill="none" xmlns="http://www.w3.org/2000/svg">
<g clip-path="url(#clip0_21_591)">
<path d="M35.6917 12.8752C35.8317 12.8021 35.9586 12.7392 36.0079 12.714C36.1996 12.6208 36.368 12.5402 36.4561 12.4949C36.7334 12.3462 36.8137 12.3085 36.8474 12.2027C36.8759 12.1145 36.8266 12.0213 36.723 11.9735C36.5494 11.8954 36.0027 12.2052 36.0027 12.1926C35.9897 12.0919 35.9301 12.0138 35.798 12.0113C35.6399 12.0113 35.4404 12.0692 35.1528 12.1649C34.8885 12.2531 34.6242 12.3337 34.5646 12.3488C34.7123 12.1775 34.7564 12.112 34.7564 12.112C34.7564 12.112 34.8963 11.9559 34.8237 11.8576C34.803 11.8299 34.7538 11.8148 34.6942 11.835C34.5672 11.8778 34.3392 12.0717 33.9505 12.4218C33.9013 12.4646 33.8806 12.5024 33.8054 12.5503C33.6577 12.588 33.3883 12.6107 33.2458 12.5729C33.1318 12.5427 33.0566 12.5024 33.0074 12.4621C33.0152 12.4546 33.168 12.1221 33.4038 11.9559C33.5541 11.8501 33.9687 11.5025 34.0049 11.4672C34.1475 11.3211 34.1267 11.2078 34.1138 11.1297C34.1008 11.0365 34.0464 10.9534 33.9739 10.903C33.7225 10.7343 33.2898 11.0668 33.2406 11.1045C33.1421 11.1826 32.6887 11.5554 32.5462 11.6763C32.4451 11.7619 32.1497 11.8853 31.9528 11.9659L31.8388 12.0138C31.5952 12.117 31.2869 12.2707 31.0615 12.4596C30.906 12.588 30.7194 12.9205 30.6599 13.0464C30.5329 13.1497 29.9343 13.6257 29.2114 14.0489C28.6647 14.3688 28.0817 14.7189 27.5791 15.0211C27.2033 15.2478 26.8717 15.4468 26.6359 15.5853C26.5919 15.6079 25.5295 16.1545 24.6511 16.8345C24.3842 17.0411 24.1251 17.2476 23.8764 17.4466C23.6691 17.6103 23.4774 17.7639 23.2908 17.9075C22.7726 18.3206 21.6014 19.0485 21.4719 19.1391C21.2983 19.2449 21.1195 19.3532 20.9122 19.4741C20.3577 19.8016 19.1891 20.3934 18.8652 20.5471C18.7383 20.6075 18.5103 20.7335 18.2563 20.8871C18.2486 20.8921 18.2382 20.8972 18.2304 20.8997L18.2252 20.9047C18.1579 20.8367 18.0931 20.741 18.0853 20.6831C18.0361 20.3809 18.4688 20.3456 18.9274 20.2323C19.2332 20.1567 19.4845 20.0106 19.4819 19.8267C19.4819 19.6555 19.3757 19.6832 19.3446 19.5598C19.2694 19.2701 19.6555 19.2449 19.7073 19.1114C19.7255 19.0661 19.7177 18.9704 19.5959 18.9301C19.4741 18.8898 19.4145 18.8973 19.2461 18.9452C19.158 18.9704 19.0933 18.8117 19.1969 18.7009C19.3031 18.5901 19.3498 18.5548 19.3161 18.4364C19.2694 18.2702 19.1632 18.245 19.0984 18.2828C19.0337 18.3231 18.9792 18.4314 18.8497 18.4163C18.7201 18.4012 18.6631 18.3231 18.3367 18.3231C18.1449 18.3231 17.9895 18.4868 17.8029 18.3306C17.6889 18.2375 17.5386 17.9377 17.194 17.842C16.9323 17.769 16.8053 17.6304 16.8053 17.6304C16.8053 17.6304 17.1266 17.5322 17.2277 17.434C17.4142 17.2501 17.4013 17.2023 17.4324 17.0738C17.4453 17.0209 17.4971 16.6154 17.2665 16.6456C17.2095 16.6532 17.0074 16.8421 16.8779 16.8497C16.7483 16.8572 16.7276 16.8169 16.7483 16.7464C16.7924 16.5953 16.7457 16.5071 16.6369 16.4316C16.4866 16.3258 16.0798 16.424 15.73 16.4567C15.3828 16.4895 15.1159 16.4567 14.7946 16.6582C14.5148 16.832 14.2687 17.1695 14.2687 17.1695C14.2687 17.1695 14.0225 17.1872 13.867 17.4038C13.7893 17.5146 13.7893 17.6078 13.7893 17.6078C13.7893 17.6078 13.5587 17.6179 13.4499 17.8093C13.3903 17.9151 13.3929 17.9302 13.3929 17.9302C13.3929 17.9302 12.9498 18.0486 12.7969 18.313C12.6311 18.6027 12.5145 18.8848 12.6622 19.1694C12.784 19.4036 12.8461 19.4389 12.8461 19.4389C12.8461 19.4389 12.7451 19.6681 12.8047 19.9023C12.8721 20.1668 12.9913 20.2524 13.0094 20.2751C12.9913 20.3355 12.885 20.668 13.0146 21.0533C13.2167 21.6478 13.525 21.6478 13.525 21.6478C13.525 21.6478 13.5717 22.3605 13.6053 22.7938C13.639 23.2244 13.6468 23.5292 13.6468 23.5292C13.6416 23.5292 12.8487 23.9196 12.8487 23.9196C12.8487 23.9196 12.7451 23.6929 12.6648 23.5695C12.3616 23.096 11.9393 22.6955 11.7631 22.4588C11.5843 22.222 11.3485 21.9374 11.1982 21.8266C11.1645 21.7913 11.1049 21.7384 10.9987 21.6704C10.7422 21.5042 10.5738 21.1365 10.5738 21.1365L12.3124 21.0408L12.5715 20.3129L12.2657 20.0685L10.7137 19.5849C10.9806 17.8748 13.5872 1.64939 13.5872 1.64939L13.3229 0.9089V0.913937L13.3151 0.918975L12.7684 1.62924L9.29895 19.5774L7.37378 20.1391L7.41524 20.8695L7.67694 21.0559L7.68471 21.0634L8.36876 21.0861C8.30657 21.1188 8.21847 21.1793 8.20811 21.2851C8.19774 21.3908 8.18738 21.5898 8.26511 21.6452C8.34025 21.7006 8.36876 21.6956 8.36876 21.6956C8.36876 21.6956 8.27029 21.8367 8.3273 21.9853C8.3843 22.1339 8.45944 22.1893 8.45944 22.1893C8.45944 22.1893 8.37394 22.2825 8.42576 22.4336C8.47758 22.5872 8.54495 22.625 8.54495 22.625C8.54495 22.625 8.46722 22.8492 8.5605 22.9625C8.65637 23.0784 8.83256 23.1287 8.83256 23.1287L8.7911 23.5418L8.56568 23.5871L8.51386 24.1816L8.78851 24.2924L9.8664 24.373L9.92341 23.7483C9.92341 23.7483 9.82494 23.6829 9.80681 23.6501C9.78867 23.6174 9.78867 23.5519 9.79385 23.494C9.84308 23.4839 9.93377 23.4637 10.0193 23.4537C10.0789 23.4461 10.11 23.4587 10.1333 23.5166C10.1825 23.7005 10.2084 24.1261 10.2473 24.4561C10.2939 24.8616 10.3898 25.2419 10.4986 25.6122C10.5038 25.6323 10.6878 26.1159 10.9624 26.3451C10.8873 26.4408 10.7811 26.5869 10.7007 26.7229C10.2965 27.4105 10.496 28.0024 10.6696 28.3626C10.7266 28.4935 10.7914 28.6245 10.8614 28.7555C10.7344 29.2391 10.5064 30.2037 10.4339 30.5488C10.2836 31.2792 10.3276 32.0625 10.4105 32.662C10.4313 32.8886 10.4675 33.1204 10.5271 33.3269C10.5634 33.4956 10.5945 33.6115 10.6049 33.6543C10.6126 33.8684 10.693 36.0622 11.0039 37.4752C11.5713 40.0593 12.714 42.2733 13.924 44.6207C15.3725 47.429 16.8701 50.3305 17.5386 54.169C18.0413 57.0529 17.0074 61.2138 16.9971 61.2566L16.953 61.4329H17.2588C17.2588 61.4329 17.238 61.4379 17.2277 61.4405C17.2277 61.4405 22.4306 61.4682 27.2837 61.4933L35.0232 61.5387C35.0232 61.5387 35.0362 61.5362 35.044 61.5337C35.259 61.5337 35.4067 61.5337 35.4689 61.5337C35.4689 61.5337 33.9583 57.8261 34.448 56.6852C34.6424 56.2318 36.5002 56.252 36.1426 55.6122C35.7487 54.9095 32.1886 50.6479 30.836 48.1342C30.7972 48.0637 27.5065 41.631 25.0268 38.8076C24.1433 37.8026 21.9849 34.7222 21.3164 33.4453C21.0081 32.9793 21.2698 32.8962 21.4745 32.8257C21.6662 32.7577 22.6275 32.264 22.713 32.0499C22.7985 31.8333 22.5368 31.3925 22.5109 31.1659C22.4539 30.6495 23.1094 30.4455 23.4592 30.7452C23.9464 31.1633 24.6434 31.8459 25.6409 32.1305C26.4986 32.3774 28.6362 32.6267 30.0509 32.3018C30.722 32.1482 31.3931 31.7452 31.5434 31.6142C31.8854 31.317 31.958 31.0223 31.7248 30.7604C31.6678 30.6974 30.8542 31.1508 30.5096 30.8787C29.9447 30.4329 30.4811 29.9947 30.5303 29.9619C30.9112 29.7302 31.445 29.7478 32.1135 29.428C32.8312 29.0829 33.1551 28.6724 33.2483 28.5389C33.536 28.1258 33.5282 27.9974 33.6085 27.9319C33.7329 27.8336 34.1293 28.015 34.2174 27.7304C34.2692 27.5616 34.2511 27.2921 34.0412 27.0403C33.8624 26.8262 33.6966 26.8312 33.6085 26.5894C33.4608 26.1738 33.9194 25.7507 34.0982 25.5517C34.2589 25.3729 34.2874 25.179 34.2174 25.0656C34.2174 25.0581 34.1785 24.849 32.9193 24.3402C32.2663 24.0758 30.9915 23.5292 29.5742 23.1942C28.2709 22.8844 26.8458 22.7686 25.8974 22.7837C24.3817 22.8063 23.4877 23.0935 23.4877 23.0935L23.1068 22.3076C23.1068 22.3076 24.5708 20.867 24.8221 20.4766C25.0735 20.0862 25.1331 19.9577 25.1331 19.9577C25.1331 19.9577 26.128 19.2223 26.5271 19.0208C26.9287 18.8193 28.0843 18.2123 28.5896 17.6783C29.0948 17.1443 30.0587 16.1192 30.4163 15.7742C30.7713 15.4291 31.1729 15.0967 31.3076 15.0085C31.4424 14.9229 31.6704 14.6634 31.8051 14.5854C32.1368 14.3965 32.756 14.341 33.2147 14.0967C33.6759 13.8524 34.1475 13.7441 34.3055 13.7063C34.6994 13.6081 35.741 13.3109 36.2514 13.1422C36.7126 12.9885 36.907 13.049 36.9199 12.8701C36.9458 12.4974 35.8472 12.8424 35.6943 12.8727L35.6917 12.8752ZM18.7124 30.506C18.7694 30.4128 18.9352 30.103 18.9637 29.836C18.9948 29.5489 18.9844 29.3121 18.9637 29.0955C18.943 28.8789 18.9274 28.5842 18.9145 28.4709C18.8652 28.0704 19.2124 27.3576 19.3161 27.277C19.3757 27.4004 19.4819 28.5918 19.4767 28.7681C19.4145 30.7981 20.3111 32.1935 20.3111 32.1935C19.3524 30.9241 18.7331 30.5563 18.7098 30.5035L18.7124 30.506Z" fill="#F6E4C4"/>
<path d="M0.782282 72.6712H2.59863V66.4626H3.65579V72.6712H5.47214V64.9741H0.782282V72.6712ZM13.8284 68.0141H13.4864V66.4626H15.9194V64.9741H11.67V72.6712H14.2585C14.6627 72.6712 14.9996 72.6057 15.2716 72.4798C15.5437 72.3513 15.7587 72.18 15.922 71.9659C16.0826 71.7519 16.1966 71.5 16.264 71.2103C16.3314 70.9207 16.3625 70.6159 16.3625 70.2961C16.3625 69.5757 16.1422 69.0141 15.7017 68.6161C15.2613 68.2156 14.6368 68.0167 13.831 68.0167L13.8284 68.0141ZM14.5228 70.8023C14.5073 70.9333 14.4788 71.0416 14.4347 71.1222C14.3907 71.2053 14.3233 71.2658 14.2352 71.3035C14.1471 71.3438 14.0253 71.3615 13.8724 71.3615H13.4864V69.2634H13.9035C14.0434 69.2634 14.1549 69.2936 14.2404 69.3541C14.3259 69.4145 14.3881 69.4926 14.4321 69.5883C14.4762 69.684 14.5047 69.7948 14.5202 69.9208C14.5358 70.0467 14.5409 70.1752 14.5409 70.3112C14.5409 70.5026 14.5332 70.6663 14.5202 70.7973L14.5228 70.8023ZM10.2501 65.3972C10.0402 65.2159 9.79407 65.0773 9.50646 64.9842C9.21885 64.891 8.90792 64.8456 8.57108 64.8456C8.23424 64.8456 7.92072 64.891 7.6357 64.9842C7.34809 65.0773 7.10194 65.2134 6.89206 65.3972C6.68218 65.5786 6.51894 65.8103 6.40234 66.0924C6.28574 66.3745 6.22615 66.7019 6.22615 67.0721V70.5731C6.22615 71.2658 6.43603 71.8098 6.85319 72.2052C7.27036 72.6007 7.84299 72.7996 8.57108 72.7996C9.29917 72.7996 9.87958 72.6007 10.2942 72.2052C10.7087 71.8098 10.916 71.2658 10.916 70.5731V67.0721C10.916 66.7019 10.8564 66.3745 10.7398 66.0924C10.6232 65.8103 10.46 65.5786 10.2501 65.3972ZM9.09966 70.7217C9.09966 70.7721 9.09707 70.8376 9.0893 70.9207C9.08152 71.0038 9.06079 71.0819 9.0297 71.1549C8.99602 71.2305 8.9442 71.2935 8.87424 71.3464C8.80428 71.3992 8.70323 71.427 8.57108 71.427C8.43893 71.427 8.33529 71.3992 8.26274 71.3464C8.19019 71.2935 8.13578 71.228 8.10209 71.1549C8.06841 71.0794 8.05027 71.0013 8.04768 70.9207C8.04509 70.8376 8.0425 70.7721 8.0425 70.7217V66.921C8.0425 66.8555 8.0425 66.7825 8.04768 66.7019C8.05027 66.6188 8.06841 66.5432 8.10209 66.4727C8.13578 66.4022 8.1876 66.3417 8.26274 66.2913C8.33529 66.241 8.43893 66.2158 8.57108 66.2158C8.70323 66.2158 8.80428 66.241 8.87424 66.2913C8.9442 66.3417 8.99602 66.4022 9.0297 66.4727C9.06339 66.5432 9.08411 66.6213 9.0893 66.7019C9.09707 66.785 9.09966 66.8581 9.09966 66.921V70.7217ZM34.3135 72.6687H35.9537V70.8905H34.3135V72.6687ZM29.6314 64.9716L28.1674 72.6687H29.9968L30.1833 71.2985H31.4607L31.6265 72.6687H33.5439L32.0567 64.9716H29.634H29.6314ZM30.3699 69.9283L30.8337 66.1705H30.8544L31.2845 69.9283H30.3699ZM18.9121 69.4674H20.871V67.9789H18.9121V66.4576H21.1482V64.969H17.0957V72.6662H21.2363V71.1776H18.9121V69.4649V69.4674ZM34.3135 67.9789L34.6892 70.4396H35.5805L35.9562 67.9789V64.9716H34.3161V67.9789H34.3135ZM27.2295 64.9716H22.8557C22.8402 65.4854 22.8298 66.0345 22.822 66.6188C22.8143 67.2031 22.7935 67.7799 22.7624 68.3466C22.7288 68.9133 22.6744 69.4448 22.5966 69.9409C22.5189 70.4371 22.4075 70.8502 22.2624 71.1776H21.8115V74.0791H23.3429V72.6662H26.2112V74.0791H27.7373V71.1776H27.2295V64.969V64.9716ZM25.4131 71.1801H24.0373C24.1254 70.9232 24.1979 70.6033 24.2523 70.218C24.3067 69.8326 24.3534 69.4196 24.3896 68.9763C24.4259 68.533 24.457 68.0796 24.4777 67.6112C24.4985 67.1427 24.5192 66.6994 24.5322 66.2788H25.4131V71.1826V71.1801ZM35.6945 12.8726C35.8345 12.7995 35.9614 12.7365 36.0107 12.7114C36.2024 12.6182 36.3708 12.5376 36.4589 12.4922C36.7362 12.3436 36.8165 12.3059 36.8502 12.2001C36.8787 12.1119 36.8294 12.0187 36.7258 11.9734C36.5522 11.8953 36.0055 12.2051 36.0055 12.1925C35.9925 12.0918 35.9329 12.0137 35.8008 12.0112C35.6427 12.0112 35.4432 12.0691 35.1556 12.1648C34.8913 12.253 34.627 12.3336 34.5674 12.3487C34.7151 12.1774 34.7592 12.1119 34.7592 12.1119C34.7592 12.1119 34.8991 11.9558 34.8265 11.8575C34.8058 11.8298 34.7566 11.8147 34.697 11.8349C34.57 11.8777 34.342 12.0716 33.9533 12.4217C33.9041 12.4645 33.8834 12.5023 33.8082 12.5502C33.6605 12.5879 33.3911 12.6106 33.2486 12.5728C33.1346 12.5426 33.0594 12.5023 33.0102 12.462C33.018 12.4545 33.1708 12.122 33.4066 11.9558C33.5569 11.85 33.9715 11.5024 34.0078 11.4671C34.1503 11.321 34.1295 11.2077 34.1166 11.1296C34.1036 11.0364 34.0492 10.9533 33.9767 10.9029C33.7253 10.7342 33.2926 11.0667 33.2434 11.1044C33.1449 11.1825 32.6915 11.5553 32.549 11.6762C32.4479 11.7618 32.1525 11.8852 31.9556 11.9658L31.8416 12.0137C31.598 12.117 31.2897 12.2706 31.0643 12.4595C30.9088 12.5879 30.7223 12.9204 30.6627 13.0463C30.5357 13.1496 29.9372 13.6256 29.2142 14.0488C28.6675 14.3687 28.0845 14.7188 27.5819 15.021C27.2062 15.2477 26.8745 15.4467 26.6387 15.5852C26.5947 15.6079 25.5323 16.1544 24.6539 16.8344C24.3871 17.041 24.1279 17.2475 23.8792 17.4465C23.6719 17.6102 23.4802 17.7638 23.2936 17.9074C22.7754 18.3205 21.6042 19.0484 21.4747 19.139C21.3011 19.2448 21.1223 19.3531 20.915 19.474C20.3605 19.8015 19.1919 20.3934 18.868 20.547C18.7411 20.6074 18.5131 20.7334 18.2591 20.887C18.2514 20.8921 18.241 20.8971 18.2332 20.8996L18.2281 20.9046C18.1607 20.8366 18.0959 20.7409 18.0881 20.683C18.0389 20.3808 18.4716 20.3455 18.9302 20.2322C19.236 20.1566 19.4873 20.0105 19.4847 19.8266C19.4847 19.6554 19.3785 19.6831 19.3474 19.5597C19.2723 19.27 19.6583 19.2448 19.7101 19.1113C19.7283 19.066 19.7205 18.9703 19.5987 18.93C19.477 18.8897 19.4174 18.8973 19.2489 18.9451C19.1608 18.9703 19.0961 18.8116 19.1997 18.7008C19.3059 18.59 19.3526 18.5547 19.3189 18.4363C19.2723 18.2701 19.166 18.2449 19.1012 18.2827C19.0365 18.323 18.9821 18.4313 18.8525 18.4162C18.7229 18.4011 18.6659 18.323 18.3395 18.323C18.1477 18.323 17.9923 18.4867 17.8057 18.3306C17.6917 18.2374 17.5414 17.9376 17.1968 17.8419C16.9351 17.7689 16.8081 17.6304 16.8081 17.6304C16.8081 17.6304 17.1294 17.5321 17.2305 17.4339C17.417 17.25 17.4041 17.2022 17.4352 17.0737C17.4481 17.0208 17.5 16.6153 17.2693 16.6455C17.2123 16.6531 17.0102 16.842 16.8807 16.8496C16.7511 16.8571 16.7304 16.8168 16.7511 16.7463C16.7952 16.5952 16.7485 16.507 16.6397 16.4315C16.4894 16.3257 16.0826 16.4239 15.7328 16.4566C15.3856 16.4894 15.1187 16.4566 14.7975 16.6581C14.5176 16.8319 14.2715 17.1694 14.2715 17.1694C14.2715 17.1694 14.0253 17.1871 13.8698 17.4037C13.7921 17.5145 13.7921 17.6077 13.7921 17.6077C13.7921 17.6077 13.5615 17.6178 13.4527 17.8092C13.3931 17.915 13.3957 17.9301 13.3957 17.9301C13.3957 17.9301 12.9526 18.0485 12.7997 18.3129C12.6339 18.6026 12.5173 18.8847 12.665 19.1693C12.7868 19.4035 12.849 19.4388 12.849 19.4388C12.849 19.4388 12.7479 19.668 12.8075 19.9022C12.8749 20.1667 12.9941 20.2523 13.0122 20.275C12.9941 20.3354 12.8878 20.6679 13.0174 21.0532C13.2195 21.6477 13.5278 21.6477 13.5278 21.6477C13.5278 21.6477 13.5745 22.3604 13.6081 22.7937C13.6418 23.2244 13.6496 23.5291 13.6496 23.5291C13.6444 23.5291 12.8516 23.9195 12.8516 23.9195C12.8516 23.9195 12.7479 23.6928 12.6676 23.5694C12.3644 23.0959 11.9421 22.698 11.7659 22.4587C11.5871 22.2219 11.3513 21.9373 11.201 21.8265C11.1673 21.7912 11.1078 21.7383 11.0015 21.6703C10.745 21.5041 10.5766 21.1364 10.5766 21.1364L12.3152 21.0407L12.5743 20.3128L12.2686 20.0684L10.7165 19.5849C10.9834 17.8747 13.59 1.6493 13.59 1.6493L13.3257 0.908804V0.913841L13.3179 0.918879L12.7712 1.62915L9.30177 19.5773L7.37659 20.139L7.41805 20.8694L7.67975 21.0558L7.68752 21.0633L8.37157 21.086C8.30938 21.1187 8.22128 21.1792 8.21092 21.285C8.20055 21.3908 8.19019 21.5897 8.26792 21.6451C8.34306 21.7006 8.37157 21.6955 8.37157 21.6955C8.37157 21.6955 8.27311 21.8366 8.33011 21.9852C8.38711 22.1338 8.46225 22.1892 8.46225 22.1892C8.46225 22.1892 8.37675 22.2824 8.42857 22.4335C8.48039 22.5871 8.54776 22.6249 8.54776 22.6249C8.54776 22.6249 8.47003 22.8491 8.56331 22.9624C8.65918 23.0783 8.83537 23.1286 8.83537 23.1286L8.79391 23.5417L8.56849 23.587L8.51667 24.1815L8.79132 24.2923L9.86921 24.3729L9.92622 23.7482C9.92622 23.7482 9.82776 23.6828 9.80962 23.65C9.79148 23.6173 9.79148 23.5518 9.79666 23.4939C9.84589 23.4838 9.93658 23.4636 10.0221 23.4536C10.0817 23.446 10.1128 23.4586 10.1361 23.5165C10.1853 23.7004 10.2112 24.126 10.2501 24.456C10.2967 24.8615 10.3926 25.2418 10.5014 25.6121C10.5066 25.6322 10.6906 26.1158 10.9652 26.345C10.8901 26.4407 10.7839 26.5868 10.7035 26.7228C10.2993 27.4104 10.4988 28.0023 10.6724 28.3625C10.7295 28.4934 10.7942 28.6244 10.8642 28.7554C10.7372 29.239 10.5092 30.2036 10.4367 30.5487C10.2864 31.2791 10.3304 32.0624 10.4133 32.6619C10.4341 32.8885 10.4703 33.1203 10.5299 33.3268C10.5662 33.4956 10.5973 33.6114 10.6077 33.6542C10.6154 33.8683 10.6958 36.0621 11.0067 37.4751C11.5741 40.0592 12.7168 42.2732 13.9269 44.6206C14.1264 45.0059 14.3259 45.3938 14.5228 45.7842C13.3853 45.8724 12.4966 46.2099 11.8592 46.8068C11.1103 47.5045 10.7372 48.4515 10.7372 49.6454V57.6523C10.7372 58.8461 11.1103 59.7931 11.8592 60.4908C12.6054 61.1885 13.6988 61.5386 15.1343 61.5386C15.8365 61.5386 16.4557 61.453 16.9921 61.2867L16.9558 61.4353H17.2616C17.2616 61.4353 17.2408 61.4404 17.2305 61.4429C17.2305 61.4429 22.4334 61.4706 27.2865 61.4958L35.026 61.5411C35.026 61.5411 35.039 61.5386 35.0468 61.5361C35.2618 61.5361 35.4095 61.5361 35.4717 61.5361C35.4717 61.5361 33.9611 57.8286 34.4508 56.6876C34.6452 56.2342 36.503 56.2544 36.1454 55.6146C35.7516 54.9119 32.1914 50.6503 30.8389 48.1367C30.8 48.0661 27.5093 41.6334 25.0296 38.81C24.1461 37.805 21.9877 34.7247 21.3192 33.4477C21.0109 32.9817 21.2726 32.8986 21.4773 32.8281C21.669 32.7601 22.6303 32.2664 22.7158 32.0523C22.8013 31.8357 22.5396 31.395 22.5137 31.1683C22.4567 30.652 23.1122 30.4479 23.462 30.7477C23.9492 31.1658 24.6462 31.8483 25.6437 32.1329C26.5014 32.3798 28.639 32.6291 30.0538 32.3042C30.7248 32.1506 31.3959 31.7476 31.5462 31.6166C31.8882 31.3194 31.9608 31.0247 31.7276 30.7628C31.6706 30.6998 30.857 31.1532 30.5124 30.8812C29.9475 30.4354 30.4839 29.9971 30.5331 29.9644C30.914 29.7326 31.4478 29.7503 32.1163 29.4304C32.834 29.0853 33.1579 28.6748 33.2512 28.5413C33.5388 28.1282 33.531 27.9998 33.6113 27.9343C33.7357 27.8361 34.1321 28.0174 34.2202 27.7328C34.272 27.564 34.2539 27.2945 34.044 27.0427C33.8652 26.8286 33.6994 26.8336 33.6113 26.5918C33.4636 26.1763 33.9222 25.7531 34.101 25.5541C34.2617 25.3753 34.2902 25.1814 34.2202 25.068C34.2202 25.0605 34.1814 24.8514 32.9221 24.3427C32.2691 24.0782 30.9969 23.5316 29.577 23.1966C28.2737 22.8869 26.8486 22.771 25.9003 22.7861C24.3845 22.8088 23.4905 23.0959 23.4905 23.0959L23.1097 22.3101C23.1097 22.3101 24.5736 20.8694 24.825 20.479C25.0763 20.0886 25.1359 19.9601 25.1359 19.9601C25.1359 19.9601 26.1309 19.2247 26.5299 19.0232C26.9315 18.8217 28.0871 18.2147 28.5924 17.6807C29.0976 17.1468 30.0615 16.1217 30.4191 15.7766C30.7741 15.4315 31.1757 15.0991 31.3104 15.0109C31.4452 14.9253 31.6732 14.6659 31.8079 14.5878C32.1396 14.3989 32.7589 14.3435 33.2175 14.0992C33.6787 13.8548 34.1503 13.7465 34.3083 13.7088C34.7022 13.6105 35.7438 13.3133 36.2542 13.1446C36.7154 12.9909 36.9098 13.0514 36.9227 12.8726C36.9486 12.4998 35.85 12.8449 35.6971 12.8751L35.6945 12.8726ZM27.7866 48.3432C28.3592 49.2021 29.064 50.3808 29.8128 51.6905C30.0771 52.154 30.7715 53.3075 31.1576 54.0505C31.3104 54.3452 31.9971 54.3553 32.0826 54.3452C33.3833 54.1714 33.8186 54.1261 34.8188 54.6122C34.8214 54.6122 34.3239 54.5442 34.0414 54.5669C33.3574 54.6172 33.2045 54.5719 32.1914 55.0076C32.0463 55.0706 31.7665 55.1915 31.484 55.3174C31.0539 55.5063 30.5461 55.3703 30.4061 54.854C30.2015 54.1009 29.8387 52.9474 29.3049 51.8341C28.4628 50.0761 28.5561 50.1844 28.1882 49.3582C28.126 49.2197 27.7036 48.2198 27.7892 48.3482L27.7866 48.3432ZM25.7914 51.0735C26.2086 51.8215 26.4107 52.0431 27.1077 53.5493C27.486 54.3679 27.9809 55.1613 28.3592 55.6348C28.4784 55.7834 28.582 55.8993 28.6598 55.9924L29.0303 56.3652L28.1623 56.5894C28.1338 56.5995 28.1027 56.607 28.0716 56.6171C27.4419 56.8186 27.4627 57.1964 27.4756 57.549C27.4886 57.889 27.5948 58.365 26.6931 59.7931C27.0196 54.31 25.7344 51.8417 25.0374 49.9073C25.0374 49.9073 25.5064 50.5672 25.7888 51.0709L25.7914 51.0735ZM7.57351 20.8014C7.56574 20.6956 7.5476 20.3631 7.54242 20.2397C7.61238 20.212 9.43391 19.7158 9.43391 19.7158L12.8567 1.6367L13.2039 1.19342L13.0562 1.55611L9.70597 20.1087L10.5351 19.6831L12.2452 20.2221L12.0224 20.8719L9.55051 20.7082L7.57351 20.8014ZM8.42857 21.9298C8.3612 21.6703 8.6825 21.5948 8.76541 21.5872C8.81982 21.5822 8.90274 21.5872 8.95197 21.6552C8.9727 21.6829 8.98825 21.7408 8.95715 21.7963C8.92088 21.8567 8.85351 21.8391 8.78096 21.8643C8.64363 21.9146 8.55035 21.9978 8.50371 22.0456C8.46744 22.0129 8.43375 21.9524 8.42598 21.9298H8.42857ZM8.52444 22.4159C8.44153 22.1438 8.77578 22.0381 8.84314 22.033C8.89756 22.028 8.98306 22.0078 9.02711 22.0884C9.04525 22.1237 9.08412 22.2647 8.91569 22.3428C8.75246 22.4184 8.70063 22.431 8.64363 22.499C8.63067 22.5141 8.60736 22.5493 8.60736 22.5594C8.57626 22.5368 8.55294 22.5065 8.52703 22.4184L8.52444 22.4159ZM8.67991 22.9523C8.65399 22.9221 8.61254 22.8667 8.60736 22.8063C8.59181 22.6299 8.67213 22.5821 8.67213 22.5821C8.67213 22.5821 8.77837 22.4713 9.01934 22.4813C9.17999 22.4889 9.20071 22.5594 9.20071 22.6224C9.20071 22.7131 9.11003 22.8012 8.99084 22.8214C8.87683 22.839 8.68509 22.8994 8.67991 22.9549V22.9523ZM9.58938 24.1789C9.57642 24.2041 8.6825 24.1009 8.6825 24.1009L8.711 23.6853L8.91051 23.6475L8.95456 23.1286C9.01934 23.106 9.11521 23.0682 9.16185 23.0556C9.44687 22.98 9.60233 23.1186 9.60233 23.1186L9.56865 23.6047L9.62824 23.6425C9.62824 23.6425 9.60751 24.1361 9.58938 24.1739V24.1789ZM15.966 57.9092C15.966 58.3273 15.8805 58.5968 15.7095 58.7202C15.5385 58.8436 15.3416 58.904 15.1213 58.904C14.8856 58.904 14.6834 58.8436 14.5228 58.7202C14.3596 58.5968 14.2792 58.3273 14.2792 57.9092V49.3885C14.2792 48.9704 14.3596 48.7009 14.5228 48.5774C14.686 48.454 14.8856 48.3936 15.1213 48.3936C15.3442 48.3936 15.5385 48.454 15.7095 48.5774C15.8805 48.7009 15.966 48.9704 15.966 49.3885V57.9092ZM21.4384 38.4297C21.4384 38.4297 21.4436 38.4372 21.4436 38.4422C21.4954 38.543 21.5498 38.6412 21.6068 38.7395C22.4878 40.233 23.1641 41.6636 23.6797 43.0111C23.0604 42.0012 22.3012 41.0793 21.3866 40.3716C18.2125 37.9083 16.9196 37.0469 15.8468 35.6062C15.2276 34.7725 14.9762 34.0018 14.9762 34.0018C14.9374 34.6793 15.155 35.5382 15.7458 36.5986C16.6449 38.213 18.3032 39.0971 19.9304 41.0566C21.4436 42.8777 21.5161 43.0892 22.3401 44.4871C22.6329 44.9858 22.822 45.7338 23.1485 45.7338C23.3351 45.7338 23.2314 44.1168 23.3714 44.1496C23.4517 44.1672 23.5061 44.2806 23.5372 44.3435C23.7108 44.6911 23.7911 45.0916 23.874 45.4669C23.9984 46.031 24.0943 46.6003 24.1824 47.172C24.273 47.774 24.3508 48.3759 24.413 48.9804C24.4207 49.0535 24.4285 49.1265 24.4337 49.1996C24.4389 49.2575 24.4285 49.3582 24.4544 49.4111C23.7108 47.8495 22.9101 46.4089 22.493 45.7338C21.6742 44.4065 20.0418 42.5679 19.749 42.2278C18.6504 40.9483 16.8496 39.6714 15.6862 38.5959C14.8493 37.8227 15.9686 39.3817 16.5024 39.9358C17.2538 40.7191 18.9846 42.2908 20.4642 44.5072C20.8839 45.1344 20.8606 45.3661 20.2646 44.7087C19.2308 43.5653 16.4739 41.6737 17.2434 42.4998C17.2434 42.4998 17.728 42.8877 18.1218 43.3436C21.5939 47.3559 21.7856 52.0054 21.7856 53.5544C21.8012 56.0781 21.3944 59.5312 19.5961 60.6545C18.7333 61.1935 17.5621 61.1683 17.3497 61.1583C17.7513 60.992 18.0985 60.7729 18.3939 60.4984C19.1401 59.8007 19.5158 58.8537 19.5158 57.6598V49.6529C19.5158 48.4591 19.1427 47.512 18.3939 46.8144C17.6451 46.1167 16.5542 45.7666 15.1187 45.7666C15.0203 45.7666 14.9244 45.7716 14.8285 45.7767C14.6109 45.346 14.3932 44.9228 14.1756 44.4997C12.9733 42.1699 11.841 39.9711 11.2814 37.4247C11.0792 36.4978 10.9756 35.2284 10.9264 34.4199C10.916 33.755 10.9056 32.9087 11.1337 32.2035C11.201 31.9944 11.3876 31.5562 11.5975 31.196C11.8099 30.8358 12.0716 30.6091 12.2193 30.4656C12.3774 30.3119 13.077 29.7755 14.3129 29.6672C15.5826 29.5563 16.3132 29.9744 16.6941 30.1054C17.0647 30.2313 18.5908 31.0021 19.9071 33.4502C20.2206 34.032 20.3683 34.9085 20.5833 35.8757C18.2488 33.3747 16.1837 31.808 16.106 31.9264C16.0179 32.0574 18.4975 34.561 18.6893 34.7952C18.8007 34.9312 20.3579 36.4852 21.4332 38.4397L21.4384 38.4297ZM16.3055 28.234C16.8625 28.4179 16.9688 28.6622 16.9688 28.6622C16.9688 28.6622 14.3544 28.3121 13.6289 28.7226C13.6289 28.7226 14.642 28.9241 15.453 29.4531C15.3934 29.443 14.9115 29.2843 14.0849 29.3926C13.2894 29.4984 12.7609 29.7578 12.4551 29.9492C12.2193 30.0953 12.4188 29.3045 14.7301 26.9696C15.738 25.9496 16.4583 25.9748 16.4583 25.9748C16.4583 25.9748 15.9583 26.7556 15.8365 27.2769C15.7277 27.7328 15.8209 28.0753 16.3055 28.234ZM18.9639 29.0929C18.9432 28.8763 18.9276 28.5816 18.9147 28.4683C18.8655 28.0678 19.2127 27.355 19.3163 27.2744C19.3759 27.3978 19.4821 28.5892 19.477 28.7655C19.4148 30.7955 20.3113 32.1909 20.3113 32.1909C19.3526 30.9215 18.7333 30.5537 18.71 30.5008C18.767 30.4076 18.9328 30.0978 18.9613 29.8309C18.9924 29.5437 18.9821 29.307 18.9613 29.0904L18.9639 29.0929ZM28.3411 23.2647C28.2322 23.1891 28.0716 23.1236 27.885 23.0707C28.7453 23.1689 29.5304 23.31 30.1729 23.4712C30.7974 23.6273 32.1137 24.1135 33.417 24.7255C33.4999 24.7658 33.7046 24.8716 33.8445 24.9446C33.531 24.9799 33.1579 25.194 33.1579 25.194C33.1579 25.194 31.0902 24.1084 29.2816 23.917C27.7866 23.7583 25.8614 23.8843 25.8614 23.8843C25.8614 23.8843 26.7553 23.4939 28.3385 23.2647H28.3411ZM23.2029 25.2443C23.6849 25.2141 24.2083 25.1814 24.5581 25.1738C25.8951 25.1461 26.2138 25.4534 26.2138 25.4534C26.2138 25.4534 23.3532 25.3753 21.9773 26.3047C21.8167 26.413 22.607 26.2594 23.2055 26.1662C24.6021 25.9471 26.2734 26.2569 27.5896 26.753C29.007 27.287 29.8983 26.8185 31.8701 26.947C33.6243 27.0603 33.5569 27.821 33.5569 27.821C33.5569 27.821 32.8107 27.282 31.7172 27.9167C31.0513 28.302 30.344 28.8964 30.344 28.8964C30.344 28.8964 30.0486 28.6521 28.0794 28.2995C26.8279 28.0753 21.4928 27.6421 17.9145 24.5341C17.8394 24.4686 17.772 24.4081 17.7098 24.3527C16.8081 24.6827 15.8287 25.5466 14.9659 26.2669C14.1937 26.9142 13.5356 27.763 12.7583 28.4431C12.7583 28.4431 11.5586 29.4531 11.2062 30.0853C11.1233 30.2313 10.8072 30.8459 10.6206 31.5814C10.6206 31.2564 10.6465 30.9215 10.7113 30.5991C10.7839 30.2465 10.8564 29.9367 10.9212 29.6697C10.9989 29.3372 11.0948 28.977 11.1777 28.6748C11.385 28.2743 11.9084 27.2517 11.8177 27.2417C11.6337 27.219 11.3358 27.2014 11.0637 27.2719C10.9419 27.3046 10.8409 27.3424 10.758 27.3802C10.7813 27.2165 10.8331 27.0427 10.9419 26.8588C11.0637 26.6523 11.372 26.2443 11.372 26.2443C11.372 26.2443 10.916 25.9798 10.7605 25.4786C10.6206 25.0277 10.5559 24.4459 10.5066 24.0203C10.4652 23.6626 10.4444 23.4888 10.4004 23.4032C10.3252 23.2571 10.2242 23.1286 9.99877 23.1614C9.97804 23.1639 9.95213 23.1689 9.92881 23.1715C9.95213 23.1412 9.97286 23.111 9.97286 23.0883C9.97804 22.9146 9.77075 22.8012 9.75261 22.7131C9.72929 22.6098 9.73707 22.4033 9.76557 22.2899C9.86144 21.9121 9.42614 22.0129 9.23699 21.693C9.0582 21.3857 9.09707 21.086 8.77837 21.2573C8.65659 21.3227 8.43893 21.4361 8.34825 21.4991C8.26015 21.2673 8.35343 21.1867 8.53999 21.0457C8.57885 21.0205 8.62549 20.9928 8.65399 20.9777C8.90792 20.8392 9.28622 20.7938 9.44168 20.824C9.68784 20.8719 9.84071 21.1767 9.83553 21.3379C9.83035 21.4991 9.84071 21.7006 9.92103 21.8743C9.99877 22.0481 10.0065 22.227 10.0273 22.3227C10.048 22.4184 10.1335 22.4562 10.1335 22.4562C10.3641 22.1388 10.5248 21.9852 10.8046 21.9272C10.9601 21.9373 11.087 21.9046 11.4109 22.3579C11.4731 22.4461 11.7866 22.8667 12.0094 23.2269C12.2323 23.5845 12.538 24.325 12.538 24.325L13.9009 23.6979C13.9009 23.6979 13.7455 22.4688 13.7403 22.1791C13.7273 21.426 13.6341 21.0784 13.6341 21.0784C13.6341 21.0784 13.463 21.1213 13.3749 21.0684C13.3361 21.0457 13.248 21.0155 13.2091 20.8316C13.1107 20.3782 13.3361 20.1616 13.3361 20.1616C13.2013 20.0483 13.1314 19.804 13.178 19.4917C13.2117 19.27 13.0511 19.4237 12.9552 19.6176C12.9215 19.5723 12.9241 19.4942 12.963 19.396C13.1366 18.9753 13.3879 18.6076 13.5356 18.1744C13.5356 18.1744 13.4449 18.1945 13.3594 18.2298C13.2765 18.2651 13.1677 18.3734 13.064 18.5195C12.9941 18.6202 12.8256 18.7386 12.7324 18.8695C12.7298 18.857 12.7298 18.5572 13.0537 18.2424C13.2091 18.0913 13.5408 18.0006 13.5408 18.0006C13.5408 18.0006 13.5563 17.8444 13.6859 17.7865C13.7817 17.7437 13.9191 17.7084 13.9191 17.7084C13.9191 17.7084 13.9294 17.5095 14.0486 17.4213C14.1678 17.3357 14.2352 17.3155 14.3311 17.2954C14.5876 17.0259 14.8778 16.638 15.2794 16.6027C15.5826 16.575 15.8883 16.5372 16.0282 16.5121C16.0645 16.5045 16.3469 16.4667 16.3832 16.5423C16.1396 16.5423 15.8391 16.5549 15.5566 16.6506C15.3234 16.7287 15.3157 16.8168 15.2509 16.8798C15.1861 16.9428 15.0488 17.0133 14.984 17.0385C14.9192 17.0611 14.8467 17.1014 14.813 17.1568C14.7819 17.2123 14.7975 17.2425 14.7171 17.2828C14.6368 17.3231 14.5306 17.5069 14.5306 17.5069C14.5306 17.5069 14.9503 17.3911 15.1783 17.3986C15.4867 17.4062 15.6732 17.5724 15.6629 17.8167C15.6577 17.9502 15.4919 18.1618 15.1058 18.1139C15.1058 18.1139 15.0566 18.2777 15.0954 18.3885C15.1317 18.4892 15.2043 18.7386 15.2405 18.8746C15.2457 18.8998 15.2535 18.925 15.2613 18.9501C15.2613 18.9602 15.2639 18.9653 15.2639 18.9653C15.2768 19.0056 15.2898 19.0459 15.3027 19.0786C15.3286 19.1567 15.1473 18.9552 14.9892 19.1139L14.8311 19.2297C14.7534 19.2977 14.6161 19.401 14.642 19.4539C14.6679 19.5068 14.7016 19.532 14.7767 19.542C14.8467 19.5496 15.2276 19.5496 15.339 19.542C15.3675 19.542 15.3934 19.5446 15.4193 19.5471C15.4193 19.5471 15.4323 19.6126 15.4504 19.7032C15.3131 19.6277 15.0566 19.6252 15.0488 19.6302C14.9762 19.6302 14.9115 19.6529 14.8415 19.6881C14.7249 19.7461 14.5928 19.9274 14.5513 20.1087C14.4736 20.4513 14.5513 20.5646 14.9503 20.5445C14.9503 20.5445 14.9503 20.5445 14.9529 20.5445C15.1395 20.5545 15.2328 20.5445 15.3753 20.5445C15.3882 20.5445 15.3986 20.5445 15.4141 20.542C15.3234 20.6679 15.212 20.7309 15.212 20.7309C15.212 20.7309 15.1213 20.7334 15.0851 20.7359C14.8337 20.751 14.7275 20.7132 14.7119 20.7586C14.5824 21.1389 14.9944 20.7938 15.0695 20.955C15.1006 21.0255 15.0514 21.1842 14.9892 21.2799C14.9374 21.3605 14.6213 21.2598 14.5332 21.3127C14.3414 21.4311 14.4399 21.4814 14.7456 21.6502C14.9633 21.7711 15.5644 22.0003 15.694 22.0884C15.8235 22.1741 16.4791 22.5065 16.5464 22.4914C16.7537 22.4385 17.3186 21.9046 17.3341 21.8895C17.7021 21.5293 18.6867 20.9399 18.9898 20.7989C19.236 20.683 19.9589 20.3178 20.5419 20.003C20.4227 20.2145 20.2983 20.5797 20.2465 21.2069C20.2025 21.7786 20.1714 22.2723 19.9926 22.0758C19.5495 21.5822 19.5754 21.0129 19.4899 21.1565C19.2671 21.5394 19.2386 21.7434 19.2956 22.0481C19.3966 22.6048 19.8164 22.776 19.6221 22.7785C18.9069 22.7861 18.6841 22.6325 18.2773 22.2194C18.0182 21.9549 17.544 22.0784 17.544 22.0784C17.544 22.0784 17.9456 22.4259 18.4768 22.8667C19.1557 23.4309 20.3242 23.5795 21.0964 23.7054C22.3997 23.917 22.7858 24.3704 22.7858 24.3704C22.7858 24.3704 19.4536 24.1537 19.1764 23.9321L19.42 24.2419C18.057 24.2041 16.8159 22.6325 16.8159 22.6325C16.8159 22.6325 16.9688 23.2017 17.2175 23.5115C17.5699 23.9497 18.0208 24.2419 18.5675 24.5492C19.6868 25.1789 21.9722 25.3249 23.2081 25.2469L23.2029 25.2443ZM32.9946 13.1018C32.72 13.1395 32.5749 13.195 32.422 13.273C31.9997 13.4846 31.6732 13.6811 31.5695 13.6962C31.0306 13.7717 31.0358 13.9757 30.6057 14.3586C30.4269 14.5173 27.8747 16.4365 27.0585 16.9553C26.2423 17.4742 24.7291 18.6731 24.5658 18.7738C24.2186 18.9879 23.9103 19.5924 23.4258 20.1062C22.6873 20.8921 21.7934 21.625 21.7157 21.7056C21.5576 21.8668 20.9409 21.8617 20.8191 21.086C20.7336 20.542 20.7647 20.0886 20.7932 19.8644C20.8917 19.809 20.985 19.7561 21.0627 19.7108C21.6327 19.3733 22.0059 19.1416 22.5759 18.7764C22.9853 18.5144 23.4828 18.119 24.0606 17.6606C24.3067 17.4641 24.5658 17.2576 24.8327 17.0511C25.6878 16.3886 26.7605 15.8371 26.7786 15.827C27.0196 15.6834 27.3538 15.4844 27.7321 15.2578C28.2348 14.9555 28.8178 14.6054 29.3645 14.2855C30.1989 13.7969 30.8492 13.2579 30.8777 13.2352L30.9166 13.1849C31.0073 12.9859 31.1627 12.7542 31.2275 12.6887C31.3804 12.5325 31.7483 12.3587 31.9556 12.2706L32.0696 12.2227C32.308 12.1245 32.6034 12.0036 32.7407 11.8878C32.8806 11.7694 33.3289 11.3991 33.4273 11.321C33.5543 11.2203 33.7486 11.1095 33.8031 11.1321C33.8056 11.1347 33.886 11.1724 33.7901 11.2631C33.7849 11.2656 33.3652 11.6183 33.2252 11.7165C33.1579 11.7643 33.1009 11.8197 33.0465 11.8752C32.992 11.923 32.9402 11.9709 32.9039 12.0137C32.663 12.3084 32.5075 12.3739 32.5334 12.3915C32.7485 12.5351 33.0335 12.6862 33.0335 12.6862C33.2434 12.8171 33.4766 12.792 33.6398 12.7391C33.4507 12.938 33.1631 13.0816 32.9946 13.1018ZM34.2617 12.7617C34.3342 12.6837 34.355 12.6257 34.4275 12.5401C34.4275 12.5401 34.8835 12.394 35.1167 12.321C35.7127 12.1346 35.7593 12.1346 35.7826 12.195C35.8111 12.263 35.6609 12.3235 35.5805 12.3537C35.3836 12.4268 34.3861 12.7214 34.2591 12.7617H34.2617ZM14.1626 18.8368C14.1497 19.0056 14.2274 18.9779 14.3958 19.003C14.3829 19.0182 14.3699 19.0358 14.3544 19.0509C14.2896 19.0534 14.2248 19.0459 14.1626 19.061C14.1056 19.0736 14.0409 19.0862 13.989 19.1567C14.1445 19.134 14.2481 19.1668 14.243 19.2776C14.6109 19.0408 14.7897 18.8519 14.6964 18.454C14.8052 18.3028 14.8752 18.192 14.8881 18.0031C14.7741 18.1139 14.7379 18.187 14.572 18.1719C13.8776 18.0233 13.6574 18.4741 13.6574 18.4741C13.9372 18.3734 14.173 18.25 14.414 18.4263C14.2533 18.4414 13.932 18.4917 13.761 18.6882C13.533 18.9501 13.6185 19.2776 13.6289 19.4891C13.6289 19.5244 13.7481 19.3405 13.8698 19.3078C13.8465 19.2297 13.8491 19.1995 13.8802 19.1113C13.9217 18.9728 14.046 18.8695 14.16 18.8368H14.1626ZM13.8595 19.0156C13.8465 19.061 13.8362 19.0862 13.8362 19.0862C13.8362 19.0862 13.8128 18.8922 13.9139 18.7814C14.0149 18.6731 14.2041 18.6076 14.2637 18.5975C14.3233 18.5875 14.3337 18.6051 14.3337 18.6051C14.3285 18.6252 14.3207 18.6429 14.3155 18.663C14.3155 18.663 14.1005 18.7411 14.0149 18.8267C13.9269 18.9124 13.875 18.9703 13.8595 19.0156ZM5.17676 61.5411C6.61222 61.5411 7.70307 61.1935 8.45189 60.4933C9.19812 59.7957 9.57383 58.8486 9.57383 57.6548V56.3602C9.57383 55.9723 9.55828 55.6121 9.52978 55.2822C9.49869 54.9522 9.42096 54.6449 9.29658 54.3654C9.16962 54.0858 8.98565 53.8415 8.74209 53.6324C8.49853 53.4234 8.15392 53.2395 7.71084 53.0834C8.03473 52.9524 8.31456 52.7912 8.54258 52.5973C8.77059 52.4033 8.95456 52.1968 9.08671 51.9827C9.21885 51.7661 9.31731 51.547 9.37432 51.3253C9.43391 51.1012 9.46241 50.8971 9.46241 50.7108V49.6529C9.46241 49.3809 9.43909 49.0232 9.39504 48.585C9.351 48.1467 9.19553 47.7186 8.92865 47.3005C8.66177 46.8824 8.23683 46.5222 7.65125 46.2225C7.06566 45.9202 6.2417 45.7691 5.17676 45.7691C4.11182 45.7691 3.28527 45.9202 2.69968 46.2225C2.1141 46.5247 1.68916 46.8849 1.42228 47.3005C1.1554 47.7186 0.999933 48.1467 0.955884 48.585C0.911836 49.0232 0.888516 49.3809 0.888516 49.6529V50.7108C0.888516 50.8971 0.914427 51.1037 0.966249 51.3253C1.01807 51.5495 1.11135 51.7711 1.24349 51.9953C1.37564 52.2195 1.54924 52.4235 1.7643 52.6098C1.97936 52.7962 2.24884 52.9549 2.57531 53.0859C2.13224 53.2597 1.78762 53.4738 1.54406 53.7332C1.3005 53.9926 1.12171 54.2722 1.0103 54.5744C0.898881 54.8767 0.831512 55.1814 0.810784 55.4912C0.790055 55.801 0.7771 56.0932 0.7771 56.3652V57.6598C0.7771 58.8537 1.15022 59.8007 1.89904 60.4984C2.64527 61.1961 3.73871 61.5461 5.17417 61.5461L5.17676 61.5411ZM4.33207 49.3885C4.33207 48.9704 4.41239 48.7009 4.57563 48.58C4.73887 48.4565 4.93838 48.3961 5.17417 48.3961C5.397 48.3961 5.59133 48.4565 5.76234 48.58C5.93336 48.7034 6.01886 48.9729 6.01886 49.3885V50.8115C6.01886 51.2296 5.93336 51.4991 5.76234 51.62C5.59133 51.7434 5.39441 51.8039 5.17417 51.8039C4.93838 51.8039 4.73628 51.7434 4.57563 51.62C4.41239 51.4991 4.33207 51.2271 4.33207 50.8115V49.3885ZM4.33207 55.4358C4.33207 55.0177 4.41239 54.7457 4.57563 54.6223C4.73887 54.4989 4.93838 54.4384 5.17417 54.4384C5.397 54.4384 5.59133 54.5014 5.76234 54.6223C5.93336 54.7457 6.01886 55.0152 6.01886 55.4358V57.9092C6.01886 58.3298 5.93336 58.5993 5.76234 58.7227C5.59133 58.8461 5.39441 58.9066 5.17417 58.9066C4.93838 58.9066 4.73628 58.8461 4.57563 58.7227C4.41239 58.5993 4.33207 58.3298 4.33207 57.9092V55.4358ZM16.2459 23.2747C15.5877 24.6726 14.4425 23.9548 13.406 24.7985C12.735 25.3451 12.6365 26.0377 12.6365 26.0377C12.6365 26.0377 12.9241 25.9672 13.178 25.9118C13.0562 26.0176 12.1364 27.7605 12.1105 27.8033C12.0846 27.8461 13.3931 26.4281 15.8313 24.8867C16.7071 24.3326 17.386 24.0933 17.386 24.0933C16.8781 23.5996 16.6682 22.8012 16.6682 22.8012C16.6682 22.8012 16.3936 22.9624 16.2459 23.2722V23.2747Z" fill="url(#paint0_linear_21_591)"/>
<path d="M0.771729 61.2818V61.4027V61.8435H35.982V61.4027V61.2818H0.771729Z" fill="#010101"/>
<path d="M0.771729 61.8435V61.9643V62.4051H35.982V61.9643V61.8435H0.771729Z" fill="#F7A418"/>
<path d="M0.771729 62.9643V63.0852V63.5259H35.982V63.0852V62.9643H0.771729Z" fill="#F7A418"/>
<path d="M0.771729 62.4051V62.5235V62.9643H35.982V62.5235V62.4051H0.771729Z" fill="#010101"/>
<path d="M0.771729 63.5259V63.6468V64.0876H35.982V63.6468V63.5259H0.771729Z" fill="#010101"/>
</g>
<defs>
<linearGradient id="paint0_linear_21_591" x1="0.782282" y1="37.4977" x2="36.9175" y2="37.4977" gradientUnits="userSpaceOnUse">
<stop stop-color="#EA6613"/>
<stop offset="0.51" stop-color="#E5372D"/>
<stop offset="0.66" stop-color="#E0332C"/>
<stop offset="0.83" stop-color="#D3282A"/>
<stop offset="1" stop-color="#BE1827"/>
</linearGradient>
<clipPath id="clip0_21_591">
<rect width="36.1456" height="73.1728" fill="white" transform="translate(0.771729 0.911419)"/>
</clipPath>
</defs>
</svg>
