<svg width="17" height="35" viewBox="0 0 17 35" fill="none" xmlns="http://www.w3.org/2000/svg">
<g clip-path="url(#clip0_32_1504)">
<mask id="mask0_32_1504" style="mask-type:luminance" maskUnits="userSpaceOnUse" x="0" y="30" width="17" height="5">
<path d="M15.8308 33.9698H16.5599V33.1461H15.8308V33.9698ZM0.92395 30.3991V33.9698H1.73253V31.0896H2.20247V33.9698H3.0099V30.3991H0.92395ZM6.57247 32.3901H6.75792C6.82012 32.3901 6.86964 32.4041 6.90765 32.4322C6.94566 32.4602 6.97446 32.4964 6.99289 32.5408C7.01247 32.5852 7.02514 32.6366 7.03205 32.6951C7.03896 32.7535 7.04127 32.8131 7.04127 32.8762C7.04127 32.965 7.03781 33.0409 7.03205 33.1017C7.02514 33.1624 7.01247 33.2127 6.99289 33.2501C6.97331 33.2886 6.94336 33.3167 6.90535 33.3342C6.86619 33.3529 6.81205 33.3611 6.7441 33.3611H6.57247V32.3878V32.3901ZM5.76505 30.3991V33.9698H6.91572C7.0954 33.9698 7.24514 33.9394 7.36608 33.881C7.48702 33.8214 7.58262 33.742 7.65519 33.6427C7.7266 33.5433 7.77728 33.4265 7.80723 33.2921C7.83717 33.1578 7.85099 33.0164 7.85099 32.868C7.85099 32.5338 7.75309 32.2733 7.55728 32.0886C7.36147 31.9029 7.08388 31.8105 6.72567 31.8105H6.57363V31.0908H7.65519V30.4002H5.7662L5.76505 30.3991ZM8.17696 30.3991V33.9698H10.0176V33.2793H8.98439V32.4847H9.85516V31.7942H8.98439V31.0896H9.97841V30.3991H8.17696ZM11.3583 32.8329C11.3825 32.6542 11.4032 32.4625 11.4193 32.2569C11.4355 32.0512 11.4493 31.8409 11.4585 31.6236C11.4689 31.4063 11.4758 31.2006 11.4827 31.0055H11.8743V33.2793H11.2627C11.3018 33.1601 11.3341 33.0117 11.3583 32.8329ZM10.7386 30.3991C10.7317 30.6374 10.7271 30.8922 10.7236 31.1644C10.7202 31.4355 10.711 31.7031 10.6971 31.966C10.6822 32.2289 10.658 32.4754 10.6234 32.7056C10.5889 32.9358 10.5393 33.1274 10.4748 33.2793H10.2744V34.6253H10.9551V33.9698H12.2302V34.6253H12.9086V33.2793H12.6829V30.3991H10.7386ZM14.2851 30.9553H14.2954L14.4866 32.6986H14.08L14.2862 30.9553H14.2851ZM13.7518 30.3991L13.101 33.9698H13.9142L13.9971 33.3342H14.565L14.6387 33.9698H15.4899L14.8287 30.3991H13.7518ZM15.8331 30.3991V31.7942L15.999 32.9358H16.3952L16.5611 31.7942V30.3991H15.832H15.8331ZM4.25271 33.3564C4.22046 33.3319 4.19627 33.3015 4.18245 33.2676C4.16747 33.2325 4.15941 33.1963 4.15826 33.1578C4.15711 33.1192 4.15596 33.0888 4.15596 33.0655V31.3023C4.15596 31.2731 4.15596 31.2392 4.15826 31.2006C4.16056 31.1632 4.16863 31.127 4.18245 31.0943C4.19742 31.0616 4.22046 31.0335 4.25271 31.0102C4.28611 30.9868 4.33103 30.9751 4.38978 30.9751C4.44852 30.9751 4.49344 30.9868 4.52454 31.0102C4.55564 31.0335 4.57867 31.0616 4.59365 31.0943C4.60862 31.127 4.61668 31.1632 4.62014 31.2006C4.6236 31.2392 4.62475 31.2731 4.62475 31.3023V33.0655C4.62475 33.0888 4.6236 33.1192 4.62014 33.1578C4.61668 33.1963 4.60747 33.2325 4.59365 33.2676C4.57867 33.3026 4.55564 33.3319 4.52454 33.3564C4.49344 33.3809 4.44852 33.3938 4.38978 33.3938C4.33103 33.3938 4.28496 33.3809 4.25271 33.3564ZM3.97397 30.4038C3.84727 30.447 3.73669 30.5101 3.6434 30.5954C3.5501 30.6795 3.47753 30.7882 3.4257 30.9179C3.37387 31.0487 3.34738 31.2006 3.34738 31.3724V32.9965C3.34738 33.3178 3.44068 33.5702 3.62612 33.7537C3.81156 33.9371 4.06611 34.0294 4.38978 34.0294C4.71344 34.0294 4.97145 33.9371 5.15574 33.7537C5.34003 33.5702 5.43217 33.3178 5.43217 32.9965V31.3724C5.43217 31.2006 5.40568 31.0487 5.35385 30.9179C5.30202 30.787 5.22945 30.6795 5.13616 30.5954C5.04286 30.5112 4.93343 30.447 4.80558 30.4038C4.67773 30.3605 4.53951 30.3395 4.38978 30.3395C4.24004 30.3395 4.10067 30.3605 3.97397 30.4038Z" fill="white"/>
</mask>
<g mask="url(#mask0_32_1504)">
<path d="M16.5599 30.3395H0.92395V34.6241H16.5599V30.3395Z" fill="url(#paint0_linear_32_1504)"/>
</g>
<mask id="mask1_32_1504" style="mask-type:luminance" maskUnits="userSpaceOnUse" x="0" y="0" width="17" height="29">
<path d="M2.61264 27.499C2.54008 27.4418 2.50437 27.3167 2.50437 27.1216V25.9742C2.50437 25.7802 2.54008 25.6541 2.61264 25.5968C2.6852 25.5396 2.77389 25.5115 2.87986 25.5115C2.97892 25.5115 3.06531 25.5407 3.14133 25.5968C3.21619 25.6541 3.2542 25.7791 3.2542 25.9742V27.1216C3.2542 27.3167 3.21619 27.4418 3.14133 27.499C3.06531 27.5563 2.97777 27.5843 2.87986 27.5843C2.77505 27.5843 2.6852 27.5551 2.61264 27.499ZM2.61264 24.2052C2.54008 24.1491 2.50437 24.0241 2.50437 23.8301V23.17C2.50437 22.976 2.54008 22.851 2.61264 22.7949C2.6852 22.7376 2.77389 22.7096 2.87986 22.7096C2.97892 22.7096 3.06531 22.7376 3.14133 22.7949C3.21619 22.8521 3.2542 22.9772 3.2542 23.17V23.8301C3.2542 24.0241 3.21619 24.1491 3.14133 24.2052C3.06531 24.2624 2.97777 24.2905 2.87986 24.2905C2.77505 24.2905 2.6852 24.2624 2.61264 24.2052ZM1.77872 21.6977C1.51841 21.8379 1.32951 22.005 1.21088 22.199C1.09224 22.393 1.02313 22.5916 1.00355 22.7949C0.983967 22.9982 0.973601 23.1641 0.973601 23.2903V23.7811C0.973601 23.8675 0.985119 23.9633 1.00816 24.0662C1.03119 24.1701 1.07266 24.273 1.1314 24.377C1.19014 24.4809 1.26847 24.5756 1.36292 24.6621C1.45852 24.7485 1.57831 24.8221 1.72344 24.8817C1.52647 24.9612 1.37328 25.0617 1.26501 25.182C1.15674 25.3024 1.07726 25.4321 1.02774 25.5723C0.978208 25.7125 0.949412 25.855 0.939046 25.9976C0.92868 26.1413 0.924072 26.2768 0.924072 26.403V27.0036C0.924072 27.5574 1.08993 27.9968 1.42281 28.3204C1.75453 28.6441 2.2406 28.8065 2.87871 28.8065C3.51682 28.8065 4.00173 28.6453 4.33461 28.3204C4.66633 27.9968 4.83335 27.5574 4.83335 27.0036V26.403C4.83335 26.2231 4.82644 26.056 4.81377 25.9018C4.8011 25.7487 4.76539 25.6062 4.7101 25.4765C4.65482 25.3468 4.57189 25.2323 4.46361 25.1353C4.35534 25.0383 4.20215 24.9542 4.00519 24.8806C4.14917 24.821 4.27356 24.745 4.37492 24.655C4.47628 24.5651 4.55691 24.4704 4.61681 24.3699C4.6767 24.2695 4.71932 24.1678 4.74581 24.0638C4.7723 23.961 4.78497 23.8652 4.78497 23.7787V23.288C4.78497 23.1618 4.77576 22.9959 4.75502 22.7926C4.73544 22.5893 4.66633 22.3906 4.5477 22.1967C4.42906 22.0027 4.24016 21.8368 3.97985 21.6954C3.71954 21.5552 3.35326 21.4851 2.87986 21.4851C2.40646 21.4851 2.03903 21.5552 1.77987 21.6954M7.80044 11.0544C7.50787 11.7029 6.99877 11.3699 6.53804 11.7614C6.24087 12.0149 6.1971 12.3362 6.1971 12.3362C6.1971 12.3362 6.32496 12.3035 6.43783 12.2778C6.3837 12.3269 5.9748 13.1354 5.96328 13.1553C5.95061 13.1763 6.53343 12.5173 7.6173 11.8022C8.00661 11.5452 8.30839 11.4342 8.30839 11.4342C8.08263 11.2052 7.98933 10.8359 7.98933 10.8359C7.98933 10.8359 7.86724 10.9107 7.80159 11.0544M6.76495 8.97346C6.80987 8.92322 6.89395 8.89284 6.92045 8.88817C6.94694 8.88349 6.95155 8.89167 6.95155 8.89167C6.94924 8.90102 6.94579 8.9092 6.94348 8.91855C6.94348 8.91855 6.84788 8.95477 6.80987 8.9945C6.77071 9.03422 6.74767 9.0611 6.74076 9.08213C6.735 9.10316 6.7304 9.11601 6.7304 9.11601C6.7304 9.11601 6.71888 9.02604 6.76495 8.97463M7.05982 8.6907C6.75113 8.62176 6.65322 8.83091 6.65322 8.83091C6.77762 8.78418 6.88244 8.72692 6.98955 8.80871C6.91814 8.81572 6.77647 8.83909 6.6993 8.93023C6.59794 9.05175 6.63595 9.20364 6.64055 9.30179C6.64055 9.31815 6.69354 9.23286 6.74767 9.21883C6.73731 9.18145 6.73846 9.16859 6.75228 9.1277C6.77071 9.06343 6.826 9.01553 6.87668 9.00034C6.87092 9.07862 6.90662 9.06577 6.98034 9.07745C6.97458 9.08563 6.96767 9.09264 6.96191 9.09965C6.9527 9.09965 6.94233 9.09965 6.93312 9.09965C6.91469 9.09965 6.89511 9.09965 6.87668 9.10433C6.85134 9.11017 6.82254 9.11601 6.79951 9.14873C6.86861 9.13821 6.91469 9.1534 6.91238 9.20481C7.07594 9.09498 7.15542 9.00735 7.11395 8.82273C7.16233 8.75263 7.19343 8.70122 7.19919 8.61358C7.14851 8.665 7.13238 8.69888 7.05866 8.69187M11.7086 23.4142C11.7086 23.4142 11.917 23.7203 12.0426 23.954C12.228 24.2998 12.3179 24.4038 12.6289 25.1026C12.797 25.4811 13.0159 25.8504 13.1852 26.07C13.2382 26.139 13.2843 26.1927 13.3188 26.2359L13.4835 26.4089L13.0965 26.514C13.0838 26.5187 13.0712 26.5222 13.0573 26.5269C12.7774 26.6204 12.7867 26.7956 12.7924 26.9592C12.7982 27.1169 12.8454 27.3378 12.4446 28.0003C12.5897 25.4578 12.0184 24.3115 11.7086 23.4142ZM7.03448 27.5014C6.96191 27.4441 6.92621 27.3191 6.92621 27.1251V23.1723C6.92621 22.9783 6.96191 22.8533 7.03448 22.7961C7.10704 22.7388 7.19573 22.7108 7.30055 22.7108C7.3996 22.7108 7.48599 22.7388 7.56201 22.7961C7.63688 22.8533 7.67604 22.9783 7.67604 23.1723V27.1251C7.67604 27.3191 7.63803 27.4441 7.56201 27.5014C7.48599 27.5586 7.39845 27.5867 7.30055 27.5867C7.19573 27.5867 7.10704 27.5586 7.03448 27.5014ZM14.094 25.7066C14.0018 25.3573 13.8417 24.8221 13.6045 24.3057C13.2301 23.4901 13.2727 23.5392 13.108 23.1571C13.0804 23.0928 12.8926 22.629 12.9306 22.6886C13.1852 23.087 13.4985 23.6338 13.8314 24.2414C13.95 24.4564 14.2575 24.9904 14.4292 25.3362C14.4971 25.4729 14.8023 25.4776 14.8415 25.4729C15.4197 25.3923 15.6132 25.3713 16.0578 25.5968C16.0578 25.5968 16.0164 25.591 15.9588 25.5851C15.8839 25.5781 15.7837 25.5699 15.7134 25.5758C15.4094 25.5991 15.3414 25.5781 14.891 25.7803C14.8265 25.8095 14.7021 25.8655 14.5754 25.924C14.5213 25.9485 14.4649 25.9614 14.4096 25.9614C14.2702 25.9614 14.1412 25.8807 14.0963 25.709M6.88359 20.9032C6.34914 19.8224 5.8458 18.8023 5.597 17.6211C5.50716 17.1911 5.46109 16.6022 5.43921 16.2271C5.4346 15.9186 5.42999 15.5261 5.53135 15.1989C5.5613 15.1031 5.64423 14.8986 5.73753 14.7315C5.83198 14.5656 5.94831 14.4593 6.01396 14.3927C6.08423 14.3214 6.39522 14.0725 6.94463 14.0223C7.50903 13.9709 7.83384 14.1648 8.00316 14.2256C8.16787 14.284 8.84629 14.6415 9.43141 15.7773C9.57078 16.0472 9.63644 16.4538 9.73204 16.9025C8.69425 15.7422 7.77625 15.0154 7.74285 15.0692C7.70368 15.13 8.80597 16.2914 8.89121 16.4C8.94074 16.4631 9.63298 17.1841 10.1121 18.0908C10.1121 18.0919 10.1133 18.0943 10.1144 18.0966C10.1375 18.1434 10.1617 18.1889 10.187 18.2345C10.5786 18.9274 10.8793 19.591 11.1085 20.2162C10.8332 19.7476 10.4957 19.32 10.0891 18.9916C8.67812 17.8489 8.10336 17.4493 7.62651 16.7821C7.35123 16.3954 7.2395 16.0378 7.2395 16.0378C7.22222 16.3521 7.31898 16.7506 7.58159 17.2425C7.98127 17.9915 8.71729 18.4016 9.44178 19.3106C10.1144 20.1554 10.1467 20.2547 10.513 20.902C10.6431 21.1334 10.7272 21.4804 10.8723 21.4804C10.9553 21.4804 10.9092 20.7314 10.9714 20.7455C11.0071 20.7536 11.0313 20.8062 11.0451 20.8354C11.1223 20.9967 11.158 21.1836 11.1948 21.3566C11.2501 21.6183 11.2928 21.8823 11.3319 22.1476C11.3722 22.4268 11.4068 22.7061 11.4344 22.9865C11.4379 23.0204 11.4413 23.0543 11.4436 23.087C11.4459 23.1139 11.4413 23.1606 11.4517 23.1852C11.1211 22.4607 10.7652 21.7924 10.5798 21.4792C10.2158 20.8635 9.49016 20.0105 9.36 19.8528C8.87163 19.2592 8.07111 18.6668 7.55395 18.1679C7.18191 17.8092 7.6795 18.5324 7.91677 18.7895C8.2508 19.1529 9.02021 19.882 9.6779 20.9102C9.8645 21.2023 9.85413 21.3086 9.58921 21.0037C9.12964 20.4732 7.9041 19.5957 8.24619 19.979C8.24619 19.979 8.46158 20.1589 8.63666 20.3704C10.1801 22.2317 10.2653 24.3886 10.2653 25.1072C10.2722 26.278 10.0914 27.8799 9.29204 28.3999C8.90849 28.6499 8.38786 28.6382 8.29342 28.6336C8.47195 28.5565 8.62629 28.4548 8.7576 28.3274C9.08932 28.0038 9.25519 27.5645 9.25519 27.0106V23.2962C9.25519 22.7423 9.08932 22.303 8.7576 21.9793C8.42472 21.6557 7.93981 21.4944 7.3017 21.4944C7.25793 21.4944 7.21531 21.4968 7.17269 21.4991C7.07594 21.3005 6.97919 21.103 6.88244 20.9067M7.12662 12.7779C7.57468 12.3047 7.89489 12.3164 7.89489 12.3164C7.89489 12.3164 7.67258 12.6786 7.61845 12.9204C7.57122 13.1319 7.61154 13.2908 7.82693 13.3644C8.07457 13.4497 8.12179 13.5631 8.12179 13.5631C8.12179 13.5631 6.95961 13.4007 6.6371 13.5911C6.6371 13.5911 7.08746 13.6846 7.44798 13.93C7.42149 13.9253 7.20725 13.8517 6.83982 13.9019C6.48621 13.951 6.25124 14.0714 6.11532 14.1602C6.10726 14.1648 6.10035 14.1683 6.09459 14.1683C6.02894 14.1683 6.17752 13.7781 7.12547 12.7779M13.1771 11.0603C13.1288 11.0252 13.0585 10.9949 12.9744 10.9703C13.3568 11.0159 13.7058 11.0813 13.9915 11.1561C14.2691 11.2285 14.8542 11.4541 15.4335 11.738C15.4704 11.7555 15.5614 11.8058 15.6247 11.8396C15.4854 11.856 15.3195 11.9553 15.3195 11.9553C15.3195 11.9553 14.4004 11.4517 13.5964 11.3629C12.9318 11.2905 12.076 11.3489 12.076 11.3489C12.076 11.3489 12.4734 11.1678 13.1771 11.0615M4.43827 11.4494L4.45094 11.2566L4.53963 11.2391L4.55922 10.9984C4.58686 10.9878 4.63063 10.9715 4.65136 10.9645C4.77806 10.9294 4.84717 10.9949 4.84717 10.9949L4.8322 11.2204L4.85869 11.2379C4.85869 11.2379 4.84947 11.4669 4.84141 11.4844C4.84141 11.4856 4.83565 11.4856 4.82644 11.4856C4.75502 11.4856 4.43712 11.4482 4.43712 11.4482M4.40372 10.8465C4.39566 10.7647 4.43252 10.7425 4.43252 10.7425C4.43252 10.7425 4.47974 10.6911 4.58686 10.6957C4.65827 10.6992 4.66749 10.732 4.66749 10.7612C4.66749 10.8032 4.62717 10.8441 4.57419 10.8535C4.52351 10.8617 4.43712 10.8885 4.43597 10.9142C4.42445 10.9002 4.40718 10.8757 4.40372 10.8465ZM4.36686 10.6654C4.33 10.5392 4.47859 10.4901 4.50854 10.4878C4.53272 10.4854 4.57073 10.4749 4.59031 10.5135C4.59838 10.5298 4.61565 10.5953 4.53963 10.6315C4.46707 10.6665 4.44403 10.6724 4.41869 10.7039C4.41293 10.7109 4.40257 10.7273 4.40257 10.732C4.38875 10.7214 4.37838 10.7074 4.36686 10.6654ZM4.32424 10.4399C4.2943 10.3195 4.43712 10.2844 4.47398 10.2809C4.49932 10.2786 4.53503 10.2809 4.55691 10.3125C4.56613 10.3253 4.57304 10.3522 4.55922 10.3779C4.54309 10.406 4.51314 10.3978 4.48089 10.4095C4.41985 10.4328 4.37838 10.4714 4.35765 10.4936C4.34152 10.4784 4.32655 10.4504 4.32424 10.4399ZM6.38255 8.73043C6.45166 8.66032 6.59909 8.61826 6.59909 8.61826C6.59909 8.61826 6.606 8.54581 6.66359 8.51894C6.70621 8.49908 6.76725 8.48272 6.76725 8.48272C6.76725 8.48272 6.77186 8.39041 6.82484 8.34952C6.87783 8.30862 6.90778 8.30044 6.95039 8.2911C7.06327 8.16607 7.19343 7.98613 7.37196 7.96978C7.50672 7.95692 7.64264 7.9394 7.70484 7.92771C7.72096 7.92421 7.84651 7.90668 7.86263 7.94173C7.75552 7.94173 7.62075 7.94758 7.4952 7.99198C7.39154 8.0282 7.38808 8.06909 7.35929 8.0983C7.33049 8.12752 7.26945 8.16023 7.24065 8.17075C7.21186 8.18243 7.17961 8.19996 7.16463 8.22566C7.15081 8.25137 7.15772 8.26656 7.12086 8.28409C7.08516 8.30278 7.03793 8.38808 7.03793 8.38808C7.03793 8.38808 7.22453 8.3355 7.32589 8.33783C7.46295 8.34134 7.54588 8.41729 7.54128 8.53179C7.53897 8.59372 7.46526 8.69187 7.29364 8.66967C7.29364 8.66967 7.27175 8.74562 7.28903 8.79703C7.30515 8.84377 7.3374 8.95944 7.35468 9.02254C7.35699 9.03422 7.36044 9.04591 7.3639 9.05759C7.3639 9.06226 7.3662 9.0646 7.3662 9.0646C7.37196 9.0833 7.37772 9.10199 7.38348 9.11718C7.38808 9.13354 7.37541 9.12419 7.35468 9.11484C7.32704 9.10316 7.28442 9.09147 7.24411 9.13237L7.17385 9.18612C7.13929 9.2165 7.07825 9.26557 7.08976 9.29011C7.10128 9.31465 7.11626 9.32633 7.14966 9.33101C7.18076 9.33568 7.35007 9.33451 7.3996 9.33101C7.41227 9.33101 7.42379 9.33217 7.43531 9.33334C7.43531 9.33334 7.44107 9.36372 7.44913 9.40578C7.38808 9.37073 7.27406 9.36956 7.2706 9.3719C7.23835 9.3719 7.20955 9.38242 7.17845 9.39877C7.12662 9.42565 7.06788 9.50978 7.04945 9.5939C7.01489 9.75281 7.0483 9.80539 7.22683 9.79604C7.22683 9.79604 7.22683 9.79604 7.22798 9.79604C7.31091 9.80072 7.35238 9.79604 7.41573 9.79604C7.42149 9.79604 7.42725 9.79604 7.43301 9.7937C7.39269 9.85213 7.34316 9.88134 7.34316 9.88134C7.34316 9.88134 7.30285 9.88251 7.28672 9.88367C7.24296 9.88601 7.20955 9.88601 7.18421 9.88367C7.14505 9.88251 7.12547 9.88017 7.12086 9.89419C7.08631 9.99818 7.13699 9.98533 7.18997 9.97248C7.22683 9.96313 7.26714 9.95495 7.27981 9.98533C7.29364 10.018 7.27175 10.0917 7.24411 10.1361C7.23144 10.1559 7.18421 10.1524 7.13814 10.1477C7.09898 10.1442 7.05982 10.1407 7.04139 10.1524C6.95615 10.2062 6.99877 10.2295 7.13584 10.309C7.23259 10.3651 7.49981 10.4714 7.5574 10.5123C7.61499 10.5532 7.90756 10.7063 7.93635 10.6992C8.02734 10.6747 8.27959 10.427 8.2865 10.42C8.45006 10.2517 8.88891 9.97949 9.02252 9.91289C9.13194 9.85914 9.4533 9.68971 9.71246 9.54366C9.65947 9.64181 9.60419 9.81123 9.58 10.1033C9.56042 10.3686 9.54659 10.5976 9.46712 10.5065C9.27016 10.2774 9.28053 10.0134 9.24367 10.08C9.14461 10.2576 9.13309 10.3522 9.15728 10.4936C9.2022 10.7518 9.38879 10.8313 9.30241 10.8324C8.98451 10.8359 8.88545 10.7647 8.70346 10.5731C8.58828 10.4504 8.3775 10.5076 8.3775 10.5076C8.3775 10.5076 8.55603 10.6689 8.79215 10.8733C9.09393 11.1351 9.6134 11.204 9.95664 11.2624C10.536 11.3606 10.7076 11.5709 10.7076 11.5709C10.7076 11.5709 9.22639 11.4704 9.10314 11.3676L9.21142 11.5113C8.60556 11.4949 8.05384 10.7647 8.05384 10.7647C8.05384 10.7647 8.12064 11.0287 8.23237 11.1725C8.38902 11.3758 8.58943 11.5113 8.83247 11.6539C9.33005 11.946 10.346 12.0137 10.8954 11.9775C11.1096 11.9635 11.3423 11.9483 11.4978 11.9448C12.0921 11.9319 12.2338 12.0745 12.2338 12.0745C12.2338 12.0745 10.9622 12.0383 10.3506 12.4694C10.2803 12.5197 10.6305 12.4484 10.8977 12.4052C11.5185 12.3035 12.2614 12.4472 12.8466 12.6774C13.2416 12.8328 13.5446 12.8059 13.9327 12.7779C14.1631 12.7615 14.4234 12.7452 14.7494 12.7674C15.5291 12.82 15.4992 13.1728 15.4992 13.1728C15.4992 13.1728 15.1675 12.9228 14.6814 13.2172C14.3854 13.396 14.0709 13.6717 14.0709 13.6717C14.0709 13.6717 13.9396 13.5596 13.0643 13.3948C12.5079 13.2908 10.1363 13.0899 8.54566 11.648C8.51226 11.6176 8.48231 11.5896 8.45467 11.5651C8.05384 11.7181 7.61845 12.1189 7.23489 12.4531C6.89165 12.7534 6.60024 13.1471 6.25354 13.4638C6.25354 13.4638 5.72025 13.9323 5.5636 14.2256C5.52674 14.2934 5.38622 14.5785 5.30329 14.9196C5.30329 14.7689 5.31481 14.6135 5.34361 14.4651C5.37586 14.3015 5.40926 14.1578 5.4369 14.0328C5.47146 13.8786 5.51407 13.7115 5.55093 13.5724C5.64308 13.3866 5.87459 12.9123 5.83543 12.9064C5.75365 12.8959 5.62119 12.8877 5.50025 12.9204C5.44612 12.9356 5.4012 12.9532 5.36434 12.9707C5.3747 12.8947 5.39774 12.8141 5.44612 12.7288C5.50025 12.633 5.63617 12.4425 5.63617 12.4425C5.63617 12.4425 5.43345 12.3199 5.36434 12.0873C5.30214 11.8782 5.27334 11.6083 5.25146 11.4108C5.23418 11.2449 5.22497 11.1643 5.20539 11.1246C5.17198 11.0568 5.12706 10.9972 5.02685 11.0124C5.01764 11.0136 5.00612 11.0159 4.99576 11.0171C5.00612 11.003 5.01534 10.989 5.01534 10.9785C5.01764 10.8967 4.92549 10.8441 4.91628 10.8044C4.90591 10.7565 4.90937 10.6607 4.92204 10.6081C4.96466 10.4328 4.77115 10.4796 4.68707 10.3312C4.60759 10.1886 4.62487 10.0496 4.48204 10.129C4.42906 10.1594 4.33116 10.212 4.29084 10.2412C4.25283 10.1337 4.2943 10.0963 4.37608 10.0321C4.39335 10.0204 4.41409 10.0075 4.4256 10.0005C4.53848 9.93625 4.70665 9.91522 4.77576 9.92924C4.88518 9.95144 4.95314 10.0928 4.94968 10.1676C4.94738 10.2412 4.95199 10.3359 4.98769 10.4165C5.02225 10.4959 5.0257 10.5801 5.03492 10.6245C5.04413 10.6689 5.08214 10.6864 5.08214 10.6864C5.18465 10.5392 5.25607 10.4679 5.38046 10.441C5.44957 10.4457 5.50601 10.4305 5.64999 10.6408C5.67763 10.6817 5.817 10.8768 5.91606 11.0428C6.01512 11.2099 6.15103 11.5522 6.15103 11.5522L6.75689 11.2613C6.75689 11.2613 6.68778 10.6911 6.68547 10.5567C6.67972 10.2073 6.63825 10.0461 6.63825 10.0461C6.63825 10.0461 6.56108 10.066 6.52307 10.0426C6.50579 10.0321 6.46663 10.018 6.44935 9.93158C6.40558 9.72009 6.50579 9.62078 6.50579 9.62078C6.4459 9.5682 6.4148 9.45486 6.43553 9.30997C6.4505 9.20598 6.37909 9.27843 6.33647 9.36839C6.3215 9.34736 6.32265 9.31114 6.34108 9.26557C6.41825 9.07044 6.52998 8.89985 6.59563 8.69888C6.59563 8.69888 6.55532 8.70823 6.51731 8.72459C6.48045 8.74094 6.43207 8.79119 6.386 8.85896C6.3549 8.90569 6.28003 8.96061 6.23857 9.02137C6.23742 9.01553 6.23742 8.87648 6.38139 8.73043M15.8816 6.08626C15.8816 6.08626 16.0843 6.01849 16.188 5.9846C16.4529 5.89814 16.4736 5.89814 16.484 5.92618C16.4967 5.95773 16.4299 5.98577 16.3942 5.99979C16.3066 6.03368 15.8632 6.17038 15.8067 6.18908C15.839 6.15286 15.8482 6.12598 15.8816 6.08743M9.83109 10.0508C9.79308 9.79838 9.80691 9.58806 9.81958 9.48407C9.86335 9.45836 9.90481 9.43499 9.93937 9.4128C10.1939 9.25622 10.3586 9.14873 10.612 8.97931C10.794 8.85779 11.0152 8.67434 11.272 8.46169C11.3814 8.37055 11.4966 8.27474 11.6153 8.17893C11.9954 7.87163 12.4722 7.61574 12.4803 7.61107C12.5874 7.54447 12.736 7.45216 12.9042 7.347C13.1276 7.20679 13.3868 7.04437 13.6298 6.89598C13.9995 6.66931 14.2898 6.41926 14.3025 6.40875L14.3197 6.38538C14.3601 6.29307 14.4292 6.18557 14.458 6.1552C14.5271 6.08275 14.6895 6.00096 14.7816 5.96123L14.8323 5.9402C14.9383 5.89463 15.0696 5.83855 15.1306 5.78363C15.1928 5.72872 15.3921 5.55696 15.4358 5.52073C15.4923 5.474 15.5787 5.42259 15.6029 5.4331C15.6052 5.4331 15.6397 5.4518 15.5983 5.49386C15.596 5.49503 15.4094 5.65861 15.3472 5.70418C15.3172 5.72638 15.2919 5.75092 15.2677 5.77779C15.2435 5.79999 15.2205 5.82219 15.2043 5.84322C15.0972 5.97993 15.0281 6.00914 15.0396 6.01732C15.1352 6.08392 15.2619 6.15403 15.2619 6.15403C15.3552 6.21479 15.4589 6.2031 15.5315 6.17856C15.4474 6.27204 15.3195 6.33747 15.2446 6.34799C15.1226 6.36551 15.0581 6.39122 14.9901 6.42744C14.8035 6.52559 14.6572 6.61673 14.6111 6.62374C14.3716 6.65762 14.3739 6.75343 14.1827 6.93104C14.1032 7.00465 12.9687 7.895 12.6058 8.13569C12.243 8.37639 11.5703 8.93257 11.4978 8.97931C11.3434 9.07862 11.2064 9.35905 10.991 9.59741C10.6627 9.96079 10.2653 10.3031 10.2308 10.3394C10.2089 10.3627 10.1674 10.3779 10.119 10.3779C10.0119 10.3779 9.87026 10.2996 9.83225 10.0519M3.93032 9.65817C3.96142 9.64531 4.77115 9.41513 4.77115 9.41513L6.2927 1.01641L6.4482 0.810768L6.38139 0.979023L4.89209 9.58572L5.26067 9.38826L6.02087 9.6383L5.92182 9.93976L4.82298 9.86381L3.94414 9.90704C3.94069 9.85797 3.93263 9.70374 3.93032 9.64648M6.49888 0.679903V0.68224L6.49542 0.684577L6.25239 1.01408L4.7101 9.34035L3.8543 9.59974L3.87388 9.93859L3.99022 10.0251L3.99367 10.0274L4.29775 10.0379C4.27011 10.0531 4.23095 10.0811 4.22634 10.1302C4.22058 10.1793 4.21712 10.2716 4.25053 10.2973C4.28393 10.3218 4.2966 10.3207 4.2966 10.3207C4.2966 10.3207 4.25283 10.3861 4.27817 10.455C4.30236 10.524 4.33691 10.5497 4.33691 10.5497C4.33691 10.5497 4.2989 10.5929 4.32194 10.663C4.34498 10.7343 4.37377 10.7518 4.37377 10.7518C4.37377 10.7518 4.33922 10.8558 4.38068 10.9084C4.4233 10.9621 4.50162 10.9855 4.50162 10.9855L4.48204 11.1771L4.38183 11.1982L4.3588 11.4739L4.47974 11.5253L4.9589 11.5627L4.98424 11.2729C4.98424 11.2729 4.94047 11.2426 4.93241 11.2274C4.92434 11.2122 4.92434 11.1818 4.92665 11.1561C4.94853 11.1514 4.98884 11.1421 5.02685 11.1374C5.05335 11.1339 5.06717 11.1397 5.07753 11.1666C5.09942 11.2519 5.11094 11.4505 5.12706 11.6024C5.1478 11.7906 5.19041 11.967 5.23879 12.1388C5.24109 12.1481 5.32287 12.3736 5.44496 12.4788C5.41156 12.5232 5.36434 12.5909 5.32863 12.654C5.14895 12.973 5.23764 13.2476 5.31481 13.4147C5.34015 13.4754 5.36894 13.5362 5.40004 13.597C5.3436 13.8213 5.24224 14.2688 5.20999 14.4301C5.14319 14.7689 5.16277 15.1323 5.19963 15.4104C5.20884 15.5155 5.22497 15.623 5.25146 15.7188C5.26758 15.7971 5.28141 15.8509 5.28601 15.8707C5.28947 15.9712 5.32518 16.9878 5.46339 17.6433C5.71564 18.8421 6.2236 19.8691 6.76149 20.9581C6.85018 21.1369 6.93887 21.3168 7.02641 21.4979C6.52076 21.5388 6.12569 21.6966 5.84234 21.9711C5.50947 22.2948 5.34361 22.7341 5.34361 23.288V27.0024C5.34361 27.5563 5.50947 27.9956 5.84234 28.3193C6.17407 28.6429 6.66013 28.8053 7.29824 28.8053C7.61039 28.8053 7.88567 28.7656 8.1241 28.6885L8.10797 28.7574H8.24389C8.24389 28.7574 8.23467 28.7598 8.23006 28.7609C8.23006 28.7609 10.5429 28.7738 12.7003 28.7855L16.1408 28.8065C16.1408 28.8065 16.1465 28.8053 16.15 28.8042C16.2456 28.8042 16.3112 28.8042 16.3389 28.8042C16.3389 28.8042 15.6674 27.0842 15.8851 26.5549C15.9726 26.3446 16.7985 26.354 16.6384 26.0572C16.4633 25.73 14.8807 23.7542 14.2794 22.5881C14.2621 22.5554 12.7993 19.5712 11.697 18.2614C11.3043 17.7952 10.3448 16.365 10.0476 15.7738C9.91057 15.5576 10.0269 15.519 10.1179 15.4863C10.202 15.4548 10.6305 15.2258 10.6685 15.1264C10.7065 15.026 10.5901 14.8215 10.5786 14.7163C10.5533 14.4768 10.8447 14.3822 11.0002 14.5212C11.2179 14.7152 11.5266 15.0306 11.97 15.1638C12.3513 15.2772 13.3015 15.394 13.9304 15.2433C14.2287 15.172 14.5259 14.9851 14.5939 14.9243C14.7459 14.7864 14.7782 14.6497 14.6745 14.5282C14.6641 14.5165 14.595 14.5457 14.5075 14.5749C14.3842 14.6158 14.2241 14.6567 14.1343 14.5831C13.8832 14.3763 14.1216 14.173 14.1435 14.159C14.3128 14.0515 14.5501 14.0597 14.8473 13.9113C15.1663 13.7512 15.3103 13.5607 15.3518 13.4988C15.4796 13.3072 15.4762 13.2464 15.5119 13.2172C15.5326 13.1997 15.5706 13.2009 15.6109 13.202C15.6789 13.2044 15.7572 13.2055 15.7814 13.1226C15.8044 13.0443 15.7964 12.9193 15.7031 12.8036C15.6236 12.7043 15.5499 12.7066 15.5107 12.5944C15.4451 12.4017 15.6489 12.2054 15.7284 12.1131C15.7998 12.0289 15.8125 11.9401 15.7814 11.8875C15.7814 11.8875 15.7641 11.7871 15.2043 11.551C14.9141 11.4283 14.3485 11.1748 13.7173 11.0194C13.138 10.8768 12.5045 10.8219 12.0829 10.8289C11.4091 10.8395 11.0117 10.9727 11.0117 10.9727L10.8424 10.6081C10.8424 10.6081 11.4932 9.93859 11.6049 9.75865C11.7166 9.57754 11.7431 9.51795 11.7431 9.51795C11.7431 9.51795 12.1854 9.17677 12.3628 9.0833C12.5413 8.98982 13.055 8.70823 13.2796 8.46052C13.5042 8.21281 13.9327 7.73843 14.0905 7.57718C14.2495 7.41711 14.4269 7.26287 14.4867 7.22198C14.5466 7.18225 14.6469 7.0619 14.7079 7.02568C14.8553 6.93805 15.1306 6.91234 15.3345 6.799C15.5395 6.68566 15.7491 6.63542 15.8194 6.6179C15.9945 6.57233 16.4575 6.43445 16.6844 6.35617C16.8894 6.28489 16.9758 6.31293 16.9816 6.22997C16.9931 6.05705 16.5047 6.21712 16.4368 6.23114C16.499 6.19726 16.5554 6.16805 16.5773 6.15636C16.6625 6.11313 16.7374 6.07574 16.7766 6.05471C16.8998 5.98577 16.9355 5.96825 16.9505 5.91917C16.9632 5.87828 16.9413 5.83504 16.8952 5.81284C16.8537 5.79298 16.7627 5.82686 16.6879 5.86075C16.6257 5.88879 16.575 5.91683 16.575 5.9145C16.5692 5.86776 16.5427 5.83154 16.484 5.83037C16.4137 5.83037 16.3251 5.85724 16.1972 5.90048C16.0797 5.94137 15.9622 5.97876 15.9357 5.98577C16.0014 5.90632 16.0198 5.87594 16.0198 5.87594C16.0198 5.87594 16.082 5.8035 16.0498 5.75793C16.0406 5.74507 16.0187 5.73806 15.9922 5.74741C15.9357 5.76727 15.8344 5.85724 15.6616 6.01966C15.6397 6.03952 15.6305 6.05705 15.5971 6.07925C15.5315 6.09677 15.4117 6.10729 15.3483 6.08976C15.2976 6.07574 15.2642 6.05588 15.2423 6.03835C15.2458 6.03368 15.3138 5.88061 15.4186 5.8035C15.4854 5.75442 15.6697 5.59318 15.6858 5.57682C15.7503 5.50905 15.7399 5.45647 15.7342 5.42025C15.7284 5.37702 15.7042 5.33846 15.672 5.31509C15.5602 5.2368 15.3679 5.39104 15.346 5.40856C15.3022 5.44479 15.1007 5.61771 15.0373 5.6738C14.9912 5.71353 14.8599 5.76961 14.7736 5.80817L14.7217 5.83037C14.6135 5.87828 14.4764 5.94955 14.3762 6.03718C14.3071 6.09677 14.2241 6.25101 14.1976 6.30943C14.1412 6.35733 13.8751 6.57817 13.5538 6.77447C13.3107 6.92286 13.0516 7.08527 12.8281 7.22548C12.6611 7.33064 12.5137 7.42295 12.4089 7.48721C12.3893 7.49773 11.917 7.75245 11.5266 8.06676C11.4079 8.16257 11.2928 8.25838 11.1822 8.34952C11.09 8.42547 11.0048 8.49674 10.9219 8.56334C10.6915 8.75497 10.1709 9.09264 10.1133 9.13471C10.0361 9.18378 9.95664 9.23403 9.8645 9.29011C9.61801 9.44201 9.09854 9.71659 8.95456 9.78786C8.89812 9.81591 8.79676 9.87433 8.68388 9.9456C8.68043 9.94794 8.67582 9.95028 8.67236 9.95144H8.67006C8.64011 9.92106 8.61132 9.87666 8.60786 9.85096C8.58598 9.71075 8.77833 9.69439 8.9822 9.64181C9.11812 9.60676 9.22984 9.53899 9.22869 9.45369C9.22869 9.37424 9.18262 9.38709 9.16765 9.32984C9.13424 9.19547 9.30586 9.18378 9.3289 9.12185C9.33696 9.10082 9.33351 9.05642 9.27937 9.03773C9.22524 9.0202 9.19875 9.02254 9.12388 9.04474C9.08472 9.05642 9.05477 8.98281 9.10199 8.9314C9.14922 8.87999 9.16995 8.86363 9.15498 8.80871C9.13424 8.7316 9.08702 8.71991 9.05822 8.73861C9.02943 8.75613 9.00524 8.80754 8.94765 8.80053C8.89006 8.79352 8.86357 8.7573 8.71959 8.75613C8.69079 8.75613 8.66315 8.76548 8.63666 8.77366C8.58483 8.79119 8.53645 8.80755 8.48116 8.75964C8.43048 8.71524 8.36368 8.57619 8.21048 8.53296C8.09415 8.49908 8.03771 8.43481 8.03771 8.43481C8.03771 8.43481 8.18054 8.38924 8.22546 8.34368C8.30839 8.25838 8.30263 8.23618 8.31645 8.17659C8.32221 8.15205 8.34525 7.96393 8.24389 7.97796C8.2174 7.98146 8.12871 8.06909 8.07111 8.0726C8.01352 8.0761 8.00431 8.05741 8.01352 8.02469C8.0331 7.95459 8.01237 7.91369 7.96399 7.87864C7.89719 7.82956 7.71635 7.87396 7.56086 7.89032C7.40767 7.90551 7.28788 7.89032 7.14505 7.9838C7.02065 8.06442 6.91123 8.22099 6.91123 8.22099C6.91123 8.22099 6.80181 8.22917 6.7327 8.32965C6.69814 8.3799 6.69814 8.4243 6.69814 8.4243C6.69814 8.4243 6.59563 8.42897 6.54726 8.51777C6.52076 8.56685 6.52192 8.57503 6.52192 8.57503C6.52192 8.57503 6.32496 8.62994 6.257 8.75263C6.18328 8.887 6.13145 9.01903 6.1971 9.1499C6.25124 9.25856 6.27888 9.27492 6.27888 9.27492C6.27888 9.27492 6.23396 9.38242 6.26045 9.48991C6.2904 9.6126 6.34454 9.65232 6.3526 9.66284C6.34454 9.69088 6.29731 9.84512 6.3549 10.0239C6.44474 10.2996 6.58181 10.2996 6.58181 10.2996C6.58181 10.2996 6.60254 10.6303 6.61752 10.8313C6.63249 11.0311 6.63595 11.1725 6.63595 11.1725C6.63364 11.1725 6.28234 11.3536 6.28234 11.3536C6.28234 11.3536 6.23627 11.2484 6.20056 11.1912C6.0658 10.9715 5.87805 10.7869 5.79973 10.677C5.72025 10.5672 5.61543 10.4352 5.54863 10.3838C5.53366 10.3674 5.50716 10.3429 5.45994 10.3113C5.34591 10.2342 5.27104 10.0636 5.27104 10.0636L6.04391 10.0192L6.15909 9.68154L6.02318 9.5682L5.33324 9.34386C5.45188 8.55049 6.61061 1.02342 6.61061 1.02342L6.49312 0.679903L6.49888 0.679903Z" fill="white"/>
</mask>
<g mask="url(#mask1_32_1504)">
<path d="M17 0.679903H0.924072V28.8053H17V0.679903Z" fill="url(#paint1_linear_32_1504)"/>
</g>
<path d="M0.920532 28.6861V28.7422V28.9467H16.5726V28.7422V28.6861H0.920532Z" fill="black"/>
<path d="M0.920532 28.9467V29.0016V29.2061H16.5726V29.0016V28.9467H0.920532Z" fill="#F7A413"/>
<path d="M0.920532 29.4667V29.5228V29.7272H16.5726V29.5228V29.4667H0.920532Z" fill="#F7A413"/>
<path d="M0.920532 29.2061V29.2622V29.4667H16.5726V29.2622V29.2061H0.920532Z" fill="black"/>
<path d="M0.920532 29.7272V29.7833V29.9878H16.5726V29.7833V29.7272H0.920532Z" fill="black"/>
</g>
<defs>
<linearGradient id="paint0_linear_32_1504" x1="0.911856" y1="32.3273" x2="16.5478" y2="32.3273" gradientUnits="userSpaceOnUse">
<stop stop-color="#EA6511"/>
<stop offset="0.05" stop-color="#EA6511"/>
<stop offset="0.18" stop-color="#E8531A"/>
<stop offset="0.38" stop-color="#E53E27"/>
<stop offset="0.51" stop-color="#E5362C"/>
<stop offset="0.66" stop-color="#E0322B"/>
<stop offset="0.83" stop-color="#D32828"/>
<stop offset="1" stop-color="#BE1825"/>
</linearGradient>
<linearGradient id="paint1_linear_32_1504" x1="0.882399" y1="14.5524" x2="16.9468" y2="14.5524" gradientUnits="userSpaceOnUse">
<stop stop-color="#EA6511"/>
<stop offset="0.51" stop-color="#E5362C"/>
<stop offset="0.66" stop-color="#E0322B"/>
<stop offset="0.83" stop-color="#D32828"/>
<stop offset="1" stop-color="#BE1825"/>
</linearGradient>
<clipPath id="clip0_32_1504">
<rect width="16.0794" height="33.9454" fill="white" transform="translate(0.920532 0.679903)"/>
</clipPath>
</defs>
</svg>
