<svg width="59" height="59" viewBox="0 0 59 59" fill="none" xmlns="http://www.w3.org/2000/svg">
<path fill-rule="evenodd" clip-rule="evenodd" d="M4.96667 29.5C4.96667 43.0494 15.9506 54.0333 29.5 54.0333C43.0494 54.0333 54.0333 43.0494 54.0333 29.5C54.0333 15.9506 43.0494 4.96666 29.5 4.96666C15.9506 4.96666 4.96667 15.9506 4.96667 29.5ZM-1.28949e-06 29.5C-2.00165e-06 45.7924 13.2076 59 29.5 59C45.7924 59 59 45.7924 59 29.5C59 13.2076 45.7924 -5.77322e-07 29.5 -1.28949e-06C13.2076 -2.00165e-06 -5.77322e-07 13.2076 -1.28949e-06 29.5Z" fill="#EB3333"/>
<path d="M44 29.3955L21 13.3955L21 45.3955L44 29.3955Z" fill="#EB3333"/>
</svg>
