<svg width="59" height="60" viewBox="0 0 59 60" fill="none" xmlns="http://www.w3.org/2000/svg">
<circle cx="29.5273" cy="30.1086" r="26.3147" transform="rotate(180 29.5273 30.1086)" fill="#EBEBEB"/>
<path fill-rule="evenodd" clip-rule="evenodd" d="M54.0333 30.0981C54.0333 16.5488 43.0494 5.56481 29.5 5.56481C15.9506 5.56481 4.96667 16.5488 4.96667 30.0981C4.96666 43.6475 15.9506 54.6315 29.5 54.6315C43.0494 54.6315 54.0333 43.6475 54.0333 30.0981ZM59 30.0981C59 13.8057 45.7924 0.598145 29.5 0.598145C13.2076 0.598145 5.46069e-07 13.8057 3.51784e-07 30.0981C1.57499e-07 46.3905 13.2076 59.5981 29.5 59.5981C45.7924 59.5981 59 46.3905 59 30.0981Z" fill="#EE2C3C"/>
<path fill-rule="evenodd" clip-rule="evenodd" d="M9.50122 30.0981L28.49 11.1093L33.4314 16.0506L22.8779 26.6041L49.4989 26.6041L49.4989 33.5921L22.8779 33.5921L33.4314 44.1456L28.49 49.0869L9.50122 30.0981Z" fill="#EE2C3C"/>
</svg>
