<svg width="60" height="60" viewBox="0 0 60 60" fill="none" xmlns="http://www.w3.org/2000/svg">
<circle cx="30.409" cy="30.0877" r="26.3147" fill="#EBEBEB"/>
<path fill-rule="evenodd" clip-rule="evenodd" d="M5.90295 30.0981C5.90294 43.6475 16.8869 54.6315 30.4363 54.6315C43.9857 54.6315 54.9696 43.6475 54.9696 30.0981C54.9696 16.5488 43.9857 5.56481 30.4363 5.56481C16.8869 5.56481 5.90295 16.5488 5.90295 30.0981ZM0.936278 30.0981C0.936277 46.3905 14.1439 59.5981 30.4363 59.5981C46.7287 59.5981 59.9363 46.3905 59.9363 30.0981C59.9363 13.8057 46.7287 0.598144 30.4363 0.598143C14.1439 0.598143 0.936279 13.8057 0.936278 30.0981Z" fill="#EE2C3C"/>
<path fill-rule="evenodd" clip-rule="evenodd" d="M50.4351 30.0982L31.4463 49.087L26.505 44.1457L37.0584 33.5922L10.4374 33.5922L10.4374 26.6042L37.0584 26.6042L26.505 16.0507L31.4463 11.1094L50.4351 30.0982Z" fill="#EE2C3C"/>
</svg>
