<svg width="59" height="59" viewBox="0 0 59 59" fill="none" xmlns="http://www.w3.org/2000/svg">
<path fill-rule="evenodd" clip-rule="evenodd" d="M29.5 4.96666C15.9506 4.96666 4.96667 15.9506 4.96667 29.5C4.96667 43.0494 15.9506 54.0333 29.5 54.0333C43.0494 54.0333 54.0333 43.0494 54.0333 29.5C54.0333 15.9506 43.0494 4.96667 29.5 4.96666ZM29.5 -2.57897e-06C13.2076 -4.0033e-06 4.0033e-06 13.2076 2.57897e-06 29.5C1.15464e-06 45.7924 13.2076 59 29.5 59C45.7924 59 59 45.7924 59 29.5C59 13.2076 45.7924 -1.15464e-06 29.5 -2.57897e-06Z" fill="#EB3333"/>
<path d="M29.6045 44L45.6045 21L13.6045 21L29.6045 44Z" fill="#EB3333"/>
</svg>
