<svg width="18" height="20" viewBox="0 0 18 20" fill="none" xmlns="http://www.w3.org/2000/svg">
<g clip-path="url(#clip0_213_184131)">
<path d="M16.9434 20.0001H1.05618C1.04067 19.9895 1.0263 19.9742 1.00929 19.9687C0.337689 19.7637 0 19.2999 0 18.5797C0 13.2916 0 8.00315 0 2.71509C0 1.91137 0.553613 1.33387 1.32618 1.3323C2.0995 1.33073 2.87282 1.33191 3.64613 1.33191C3.71193 1.33191 3.77811 1.33191 3.85071 1.33191C3.85071 1.09236 3.84769 0.883788 3.85147 0.675213C3.85903 0.278452 4.12714 0.00361986 4.50983 0.00126752C4.90576 -0.00108482 5.30206 0.000483409 5.69798 0.000875466C6.17218 0.000875466 6.42895 0.263946 6.435 0.758329C6.43727 0.944556 6.435 1.13078 6.435 1.32054H11.565C11.565 1.10216 11.5582 0.894373 11.5665 0.687367C11.5843 0.251792 11.8365 0.00205164 12.251 0.000875466C12.6344 -0.000300705 13.0179 0.000875466 13.4017 0.000875466C13.9005 0.000875466 14.1482 0.261593 14.1489 0.785773C14.1489 0.965335 14.1489 1.14451 14.1489 1.3323C15.0266 1.3323 15.8748 1.32995 16.7234 1.33308C17.2694 1.33505 17.7451 1.69299 17.9285 2.22933C17.9512 2.29558 17.9762 2.36106 18.0004 2.42732V18.9043C17.9153 19.0901 17.8484 19.2877 17.7417 19.459C17.5561 19.7562 17.26 19.8985 16.9438 20.0005L16.9434 20.0001ZM16.7071 6.69054H1.29895V18.6542H16.7071V6.69054Z" fill="#EB3333"/>
<path d="M9.52632 12.7571H8.47368V15.7143H9.52632V12.7571ZM11 8.59143V10.5714H9.52632V9.28571H8.47368V11.4714H10.3544C10.7474 11.4714 11 11.7157 11 12.0629V16.4086C11 16.7557 10.7474 17 10.3544 17H7.64561C7.25263 17 7 16.7557 7 16.4086V8.59143C7 8.24429 7.25263 8 7.64561 8H10.3544C10.7474 8 11 8.24429 11 8.59143Z" fill="#EB3333"/>
</g>
<defs>
<clipPath id="clip0_213_184131">
<rect width="18" height="20" fill="white"/>
</clipPath>
</defs>
</svg>
