<svg width="26" height="27" viewBox="0 0 26 27" fill="none" xmlns="http://www.w3.org/2000/svg">
<g clip-path="url(#clip0_96_273)">
<path d="M23.6666 26.9453H1.47527C1.45361 26.931 1.43354 26.9104 1.40977 26.903C0.471685 26.6268 0 26.0019 0 25.0316C0 17.9072 0 10.7823 0 3.65789C0 2.57508 0.773288 1.79704 1.85241 1.79492C2.93258 1.79281 4.01275 1.7944 5.09293 1.7944C5.18484 1.7944 5.27727 1.7944 5.37869 1.7944C5.37869 1.47166 5.37446 1.19066 5.37974 0.909657C5.39031 0.375116 5.7648 0.00484638 6.29934 0.00167717C6.85237 -0.00149205 7.40593 0.00062076 7.95895 0.00114896C8.62132 0.00114896 8.97997 0.355573 8.98842 1.02164C8.99159 1.27253 8.98842 1.52343 8.98842 1.77908H16.154C16.154 1.48487 16.1445 1.20492 16.1561 0.926032C16.181 0.339199 16.5333 0.00273357 17.1122 0.00114896C17.6478 -0.000435645 18.1834 0.00114896 18.7195 0.00114896C19.4162 0.00114896 19.7622 0.352404 19.7632 1.05861C19.7632 1.30053 19.7632 1.54192 19.7632 1.79492C20.9892 1.79492 22.1739 1.79176 23.3592 1.79598C24.1219 1.79862 24.7864 2.28087 25.0426 3.00345C25.0743 3.09272 25.1092 3.18093 25.143 3.27019V25.469C25.0241 25.7193 24.9306 25.9855 24.7817 26.2164C24.5223 26.6167 24.1087 26.8085 23.6672 26.9458L23.6666 26.9453ZM23.3365 9.01387H1.81438V25.132H23.3365V9.01387Z" fill="white"/>
</g>
<defs>
<clipPath id="clip0_96_273">
<rect width="25.1424" height="26.9452" fill="white"/>
</clipPath>
</defs>
</svg>
