<svg width="39" height="39" viewBox="0 0 39 39" fill="none" xmlns="http://www.w3.org/2000/svg">
<path d="M36.0996 9.11133C36.0995 5.18393 32.916 2.00019 28.9893 2H9.11133C5.18445 2 2.00011 5.18381 2 9.11133V28.9883C2 32.9159 5.18439 36.0996 9.11133 36.0996H28.9893C32.916 36.0994 36.0996 32.9158 36.0996 28.9883V9.11133ZM38.0996 28.9883C38.0996 34.0203 34.0207 38.0994 28.9893 38.0996H9.11133C4.07977 38.0996 0 34.0205 0 28.9883V9.11133C0.00011288 4.07928 4.07984 0 9.11133 0H28.9893C34.0206 0.00019072 38.0995 4.0794 38.0996 9.11133V28.9883Z" fill="#EB3333"/>
<path d="M23.9876 18.1325H12.7614V13.69H23.9876C24.644 13.69 25.1 13.8043 25.329 14.0039C25.557 14.2035 25.6995 14.5738 25.6995 15.1145V16.7096C25.6995 17.2795 25.557 17.6497 25.329 17.8493C25.1 18.0489 24.644 18.1342 23.9876 18.1342V18.1325ZM24.758 9.50171H20.5685H16.379H8V28.5H12.7614V22.3191H21.5356L25.6995 28.5H31.0309L26.4405 22.29C28.1324 22.0392 28.8924 21.5206 29.5194 20.6659C30.1464 19.8112 30.4599 18.4447 30.4599 16.6209V15.1964C30.4599 14.1148 30.3459 13.2601 30.1464 12.605C29.946 11.9499 29.6049 11.38 29.1195 10.8682C28.6074 10.3837 28.0374 10.0425 27.3525 9.81388C26.6675 9.61429 25.8116 9.5 24.758 9.5V9.50171Z" fill="#EB3333"/>
<path d="M27 1C32.5228 1 37 5.47715 37 11V18.9395C35.4093 18.8139 33.8733 18.4934 32.416 18C32.4569 17.5485 32.4756 17.0869 32.4756 16.6211V15.1963C32.4756 13.9869 32.3487 12.921 32.0732 12.0176C31.775 11.0432 31.266 10.2044 30.582 9.48242L30.5439 9.44238L30.5039 9.4043C29.7743 8.71491 28.9487 8.22242 27.9893 7.90234L27.915 7.87891C27.0032 7.61299 25.9488 7.48438 24.7578 7.48438H22.7432V7.48633H21.0469C20.1853 5.47895 19.66 3.29324 19.541 1H27Z" fill="#EB3333"/>
</svg>
